<svg class="main-svg" xmlns="http://www.w3.org/2000/svg" xmlns:xlink="http://www.w3.org/1999/xlink" width="930" height="471" style="" viewBox="0 0 930 471"><rect x="0" y="0" width="930" height="471" style="fill: rgb(255, 255, 255); fill-opacity: 1;"/><defs id="defs-5d7583"><g class="clips"><clipPath id="clip5d7583xyplot" class="plotclip"><rect width="749" height="351"/></clipPath><clipPath class="axesclip" id="clip5d7583x"><rect x="60" y="0" width="749" height="471"/></clipPath><clipPath class="axesclip" id="clip5d7583y"><rect x="0" y="60" width="930" height="351"/></clipPath><clipPath class="axesclip" id="clip5d7583xy"><rect x="60" y="60" width="749" height="351"/></clipPath></g><g class="gradients"/></defs><g class="bglayer"/><g class="layer-below"><g class="imagelayer"/><g class="shapelayer"/></g><g class="cartesianlayer"><g class="subplot xy"><g class="layer-subplot"><g class="shapelayer"/><g class="imagelayer"/></g><g class="gridlayer"><g class="x"><path class="xgrid crisp" transform="translate(135.28,0)" d="M0,60v351" style="stroke: rgb(238, 238, 238); stroke-opacity: 1; stroke-width: 1px;"/><path class="xgrid crisp" transform="translate(210.55,0)" d="M0,60v351" style="stroke: rgb(238, 238, 238); stroke-opacity: 1; stroke-width: 1px;"/><path class="xgrid crisp" transform="translate(285.83000000000004,0)" d="M0,60v351" style="stroke: rgb(238, 238, 238); stroke-opacity: 1; stroke-width: 1px;"/><path class="xgrid crisp" transform="translate(361.11,0)" d="M0,60v351" style="stroke: rgb(238, 238, 238); stroke-opacity: 1; stroke-width: 1px;"/><path class="xgrid crisp" transform="translate(436.38,0)" d="M0,60v351" style="stroke: rgb(238, 238, 238); stroke-opacity: 1; stroke-width: 1px;"/><path class="xgrid crisp" transform="translate(511.66,0)" d="M0,60v351" style="stroke: rgb(238, 238, 238); stroke-opacity: 1; stroke-width: 1px;"/><path class="xgrid crisp" transform="translate(586.93,0)" d="M0,60v351" style="stroke: rgb(238, 238, 238); stroke-opacity: 1; stroke-width: 1px;"/><path class="xgrid crisp" transform="translate(662.21,0)" d="M0,60v351" style="stroke: rgb(238, 238, 238); stroke-opacity: 1; stroke-width: 1px;"/><path class="xgrid crisp" transform="translate(737.49,0)" d="M0,60v351" style="stroke: rgb(238, 238, 238); stroke-opacity: 1; stroke-width: 1px;"/></g><g class="y"><path class="ygrid crisp" transform="translate(0,408.39)" d="M60,0h749" style="stroke: rgb(238, 238, 238); stroke-opacity: 1; stroke-width: 1px;"/><path class="ygrid crisp" transform="translate(0,350.35)" d="M60,0h749" style="stroke: rgb(238, 238, 238); stroke-opacity: 1; stroke-width: 1px;"/><path class="ygrid crisp" transform="translate(0,292.31)" d="M60,0h749" style="stroke: rgb(238, 238, 238); stroke-opacity: 1; stroke-width: 1px;"/><path class="ygrid crisp" transform="translate(0,234.26)" d="M60,0h749" style="stroke: rgb(238, 238, 238); stroke-opacity: 1; stroke-width: 1px;"/><path class="ygrid crisp" transform="translate(0,176.22)" d="M60,0h749" style="stroke: rgb(238, 238, 238); stroke-opacity: 1; stroke-width: 1px;"/><path class="ygrid crisp" transform="translate(0,118.18)" d="M60,0h749" style="stroke: rgb(238, 238, 238); stroke-opacity: 1; stroke-width: 1px;"/></g></g><g class="zerolinelayer"><path class="xzl zl crisp" transform="translate(60,0)" d="M0,60v351" style="stroke: rgb(68, 68, 68); stroke-opacity: 1; stroke-width: 1px;"/></g><path class="xlines-below"/><path class="ylines-below"/><g class="overlines-below"/><g class="xaxislayer-below"/><g class="yaxislayer-below"/><g class="overaxes-below"/><g class="plot" transform="translate(60,60)" clip-path="url('#clip5d7583xyplot')"><g class="scatterlayer mlayer"><g class="trace scatter trace3ee6cd" style="stroke-miterlimit: 2; opacity: 1;"><g class="fills"/><g class="errorbars"/><g class="lines"><path class="js-line" d="M0,333.45L3.76,289.49L7.53,267.29L15.06,226.85L18.82,217.53L22.58,210.81L26.35,201.65L37.64,188.61L41.4,185.93L45.17,180.9L48.93,180.15L52.69,176.68L56.46,176.71L60.22,173.27L63.98,171.79L67.75,170.45L71.51,170.48L75.28,169.24L79.04,165.99L82.8,167.47L86.57,165.07L90.33,164.99L94.1,163.86L101.62,162.63L105.39,162.31L109.15,162.01L112.91,159.46L116.68,160.37L120.44,159.65L124.21,159.86L127.97,158.84L131.73,158.73L135.5,159.7L139.26,159.59L143.03,155.62L146.79,156.77L150.55,148.74L154.32,146.4L158.08,145.22L161.84,143.9L165.61,143.79L173.14,142.85L176.9,143.47L180.66,141.4L184.43,143.44L188.19,141.78L191.95,143.63L195.72,140.7L199.48,142.45L203.25,141.02L207.01,140.54L210.77,141.21L214.54,141.1L225.83,140.65L229.59,140.46L237.12,141.32L240.88,140.7L244.65,139.68L248.41,139.84L252.18,139.55L255.94,140.7L259.7,139.14L263.47,139.55L267.23,140.06L270.99,139.04L286.05,138.71L289.81,138.55L297.34,139.92L301.11,136.99L319.92,137.48L323.69,137.88L331.22,138.1L334.98,136.81L338.74,137.29L342.51,136.62L346.27,136.05L350.04,136.64L353.8,137.72L357.56,137.18L368.85,136.99L372.62,135.86L376.38,135.22L380.15,137.05L387.67,136.24L391.44,136.35L398.96,136.83L402.73,136.35L414.02,136.46L417.78,136.91L421.55,136.11L425.31,137.34L429.08,135.73L432.84,135.97L436.6,136.89L440.37,135.52L447.89,137.05L451.66,137.61L455.42,136.03L459.19,135.92L462.95,136.54L466.71,135.52L478.01,136.89L481.77,136L489.3,137.18L493.06,136.27L496.82,135.52L500.59,136.81L504.35,137.24L508.12,134.82L511.88,136.78L515.64,136L523.17,135.35L526.93,136.05L534.46,135.84L538.23,136.94L545.75,135.73L549.52,136.03L553.28,135.54L557.05,136.32L560.81,135.6L564.57,137.1L568.34,136.08L572.1,136L575.86,136.35L579.63,135.89L583.39,136.59L587.16,136L598.45,137.42L602.21,136.21L605.97,136.11L609.74,136.94L613.5,135.11L617.27,137.21L621.03,136.64L624.79,135.22L628.56,136.4L632.32,134.98L636.09,135.33L639.85,137.13L643.61,135.84L647.38,136.64L651.14,136.89L654.9,135.41L658.67,136.24L662.43,135.95L666.2,137.05L669.96,137.02L688.78,135.54L692.54,136.97L703.83,136.05L707.6,136.97L711.36,137.26L715.13,136.29L718.89,136.05L722.65,136.91L730.18,135.17L733.94,135.81L737.71,134.92L741.47,135.03L749,136.75" style="vector-effect: non-scaling-stroke; fill: none; stroke: rgb(31, 119, 180); stroke-opacity: 1; stroke-width: 2px; opacity: 1;"/></g><g class="points"/><g class="text"/></g><g class="trace scatter traceb3da5d" style="stroke-miterlimit: 2; opacity: 1;"><g class="fills"/><g class="errorbars"/><g class="lines"><path class="js-line" d="M0,279.06L3.76,236.39L7.53,164.38L11.29,159.22L15.06,131.05L18.82,110.1L22.58,84.84L26.35,119.66L30.11,73.87L33.87,75.91L37.64,88.6L41.4,78.6L45.17,64.84L48.93,59.58L52.69,59.15L56.46,52.59L60.22,51.41L67.75,43.24L71.51,43.56L75.28,63.45L79.04,39.05L82.8,47.43L86.57,44.21L90.33,38.62L94.1,68.18L97.86,42.92L101.62,40.55L109.15,32.92L112.91,44.42L116.68,34.43L120.44,38.29L124.21,34L127.97,34.53L131.73,32.28L135.5,36.36L139.26,41.63L143.03,36.25L146.79,33.67L150.55,26.04L154.32,23.89L158.08,23.68L161.84,22.06L165.61,24.64L169.37,23.14L173.14,24.64L176.9,21.53L180.66,21.2L191.95,23.46L195.72,21.42L203.25,20.13L207.01,20.56L214.54,19.27L218.3,20.45L222.07,20.56L225.83,19.91L229.59,18.19L233.36,20.99L237.12,19.81L240.88,19.7L248.41,19.91L252.18,21.42L255.94,18.95L259.7,18.84L263.47,18.62L267.23,20.67L270.99,20.13L274.76,20.88L278.52,19.38L282.29,21.85L286.05,20.56L289.81,21.1L293.58,19.38L297.34,20.02L301.11,19.05L304.87,19.7L308.63,19.81L312.4,18.95L316.16,19.38L319.92,18.52L323.69,19.16L327.45,18.3L346.27,19.05L350.04,17.98L357.56,20.02L361.33,20.13L365.09,18.62L368.85,19.16L372.62,19.27L376.38,18.62L380.15,19.05L383.91,18.3L395.2,19.05L398.96,18.41L406.49,19.05L410.26,18.41L417.78,19.27L421.55,18.3L425.31,19.59L429.08,18.73L432.84,19.38L436.6,18.09L444.13,19.16L447.89,18.09L451.66,18.73L455.42,18.19L459.19,20.24L462.95,18.3L474.24,18.52L478.01,18.62L481.77,18.09L485.53,19.38L489.3,17.66L493.06,19.05L508.12,19.05L511.88,18.41L515.64,18.95L519.41,18.62L523.17,18.95L526.93,18.52L538.23,19.48L541.99,18.62L557.05,18.19L560.81,18.73L568.34,19.05L572.1,18.3L575.86,17.76L579.63,18.95L583.39,18.19L587.16,18.41L590.92,19.38L594.68,18.3L598.45,19.7L602.21,18.09L621.03,18.95L624.79,18.09L632.32,18.84L636.09,17.55L639.85,19.05L643.61,18.52L651.14,18.84L654.9,18.52L658.67,18.19L662.43,19.05L666.2,17.98L669.96,18.19L677.49,18.84L681.25,18.62L685.02,19.27L688.78,17.55L696.31,18.62L700.07,18.95L703.83,19.7L707.6,18.52L715.13,18.84L718.89,18.52L722.65,19.38L726.42,18.95L730.18,19.16L733.94,18.3L737.71,19.05L741.47,18.09L749,19.7" style="vector-effect: non-scaling-stroke; fill: none; stroke: rgb(255, 127, 14); stroke-opacity: 1; stroke-width: 2px; opacity: 1;"/></g><g class="points"/><g class="text"/></g></g></g><g class="overplot"/><path class="xlines-above crisp" d="M0,0" style="fill: none;"/><path class="ylines-above crisp" d="M0,0" style="fill: none;"/><g class="overlines-above"/><g class="xaxislayer-above"><g class="xtick"><text text-anchor="middle" x="0" y="424" transform="translate(60,0)" style="font-family: 'Open Sans', verdana, arial, sans-serif; font-size: 12px; fill: rgb(68, 68, 68); fill-opacity: 1; white-space: pre;">0</text></g><g class="xtick"><text text-anchor="middle" x="0" y="424" transform="translate(135.28,0)" style="font-family: 'Open Sans', verdana, arial, sans-serif; font-size: 12px; fill: rgb(68, 68, 68); fill-opacity: 1; white-space: pre;">20</text></g><g class="xtick"><text text-anchor="middle" x="0" y="424" transform="translate(210.55,0)" style="font-family: 'Open Sans', verdana, arial, sans-serif; font-size: 12px; fill: rgb(68, 68, 68); fill-opacity: 1; white-space: pre;">40</text></g><g class="xtick"><text text-anchor="middle" x="0" y="424" transform="translate(285.83000000000004,0)" style="font-family: 'Open Sans', verdana, arial, sans-serif; font-size: 12px; fill: rgb(68, 68, 68); fill-opacity: 1; white-space: pre;">60</text></g><g class="xtick"><text text-anchor="middle" x="0" y="424" transform="translate(361.11,0)" style="font-family: 'Open Sans', verdana, arial, sans-serif; font-size: 12px; fill: rgb(68, 68, 68); fill-opacity: 1; white-space: pre;">80</text></g><g class="xtick"><text text-anchor="middle" x="0" y="424" transform="translate(436.38,0)" style="font-family: 'Open Sans', verdana, arial, sans-serif; font-size: 12px; fill: rgb(68, 68, 68); fill-opacity: 1; white-space: pre;">100</text></g><g class="xtick"><text text-anchor="middle" x="0" y="424" transform="translate(511.66,0)" style="font-family: 'Open Sans', verdana, arial, sans-serif; font-size: 12px; fill: rgb(68, 68, 68); fill-opacity: 1; white-space: pre;">120</text></g><g class="xtick"><text text-anchor="middle" x="0" y="424" transform="translate(586.93,0)" style="font-family: 'Open Sans', verdana, arial, sans-serif; font-size: 12px; fill: rgb(68, 68, 68); fill-opacity: 1; white-space: pre;">140</text></g><g class="xtick"><text text-anchor="middle" x="0" y="424" transform="translate(662.21,0)" style="font-family: 'Open Sans', verdana, arial, sans-serif; font-size: 12px; fill: rgb(68, 68, 68); fill-opacity: 1; white-space: pre;">160</text></g><g class="xtick"><text text-anchor="middle" x="0" y="424" transform="translate(737.49,0)" style="font-family: 'Open Sans', verdana, arial, sans-serif; font-size: 12px; fill: rgb(68, 68, 68); fill-opacity: 1; white-space: pre;">180</text></g></g><g class="yaxislayer-above"><g class="ytick"><text text-anchor="end" x="59" y="4.199999999999999" transform="translate(0,408.39)" style="font-family: 'Open Sans', verdana, arial, sans-serif; font-size: 12px; fill: rgb(68, 68, 68); fill-opacity: 1; white-space: pre;">0.4</text></g><g class="ytick"><text text-anchor="end" x="59" y="4.199999999999999" transform="translate(0,350.35)" style="font-family: 'Open Sans', verdana, arial, sans-serif; font-size: 12px; fill: rgb(68, 68, 68); fill-opacity: 1; white-space: pre;">0.5</text></g><g class="ytick"><text text-anchor="end" x="59" y="4.199999999999999" transform="translate(0,292.31)" style="font-family: 'Open Sans', verdana, arial, sans-serif; font-size: 12px; fill: rgb(68, 68, 68); fill-opacity: 1; white-space: pre;">0.6</text></g><g class="ytick"><text text-anchor="end" x="59" y="4.199999999999999" transform="translate(0,234.26)" style="font-family: 'Open Sans', verdana, arial, sans-serif; font-size: 12px; fill: rgb(68, 68, 68); fill-opacity: 1; white-space: pre;">0.7</text></g><g class="ytick"><text text-anchor="end" x="59" y="4.199999999999999" transform="translate(0,176.22)" style="font-family: 'Open Sans', verdana, arial, sans-serif; font-size: 12px; fill: rgb(68, 68, 68); fill-opacity: 1; white-space: pre;">0.8</text></g><g class="ytick"><text text-anchor="end" x="59" y="4.199999999999999" transform="translate(0,118.18)" style="font-family: 'Open Sans', verdana, arial, sans-serif; font-size: 12px; fill: rgb(68, 68, 68); fill-opacity: 1; white-space: pre;">0.9</text></g><g class="ytick"><text text-anchor="end" x="59" y="4.199999999999999" transform="translate(0,60.14)" style="font-family: 'Open Sans', verdana, arial, sans-serif; font-size: 12px; fill: rgb(68, 68, 68); fill-opacity: 1; white-space: pre;">1</text></g></g><g class="overaxes-above"/></g></g><g class="polarlayer"/><g class="ternarylayer"/><g class="geolayer"/><g class="funnelarealayer"/><g class="pielayer"/><g class="treemaplayer"/><g class="sunburstlayer"/><g class="glimages"/><defs id="topdefs-5d7583"><g class="clips"/><clipPath id="legend5d7583"><rect width="94" height="48" x="0" y="0"/></clipPath></defs><g class="layer-above"><g class="imagelayer"/><g class="shapelayer"/></g><g class="infolayer"><g class="legend" pointer-events="all" transform="translate(823.98,60)"><rect class="bg" shape-rendering="crispEdges" width="94" height="48" x="0" y="0" style="stroke: rgb(68, 68, 68); stroke-opacity: 1; fill: rgb(255, 255, 255); fill-opacity: 1; stroke-width: 0px;"/><g class="scrollbox" transform="" clip-path="url('#legend5d7583')"><g class="groups"><g class="traces" transform="translate(0,14.5)" style="opacity: 1;"><text class="legendtext" text-anchor="start" x="40" y="4.680000000000001" style="font-family: 'Open Sans', verdana, arial, sans-serif; font-size: 12px; fill: rgb(68, 68, 68); fill-opacity: 1; white-space: pre;">train_acc</text><g class="layers" style="opacity: 1;"><g class="legendfill"/><g class="legendlines"><path class="js-line" d="M5,0h30" style="fill: none; stroke: rgb(31, 119, 180); stroke-opacity: 1; stroke-width: 2px;"/></g><g class="legendsymbols"><g class="legendpoints"/></g></g><rect class="legendtoggle" x="0" y="-9.5" width="88.34375" height="19" style="fill: rgb(0, 0, 0); fill-opacity: 0;"/></g><g class="traces" transform="translate(0,33.5)" style="opacity: 1;"><text class="legendtext" text-anchor="start" x="40" y="4.680000000000001" style="font-family: 'Open Sans', verdana, arial, sans-serif; font-size: 12px; fill: rgb(68, 68, 68); fill-opacity: 1; white-space: pre;">valid_acc</text><g class="layers" style="opacity: 1;"><g class="legendfill"/><g class="legendlines"><path class="js-line" d="M5,0h30" style="fill: none; stroke: rgb(255, 127, 14); stroke-opacity: 1; stroke-width: 2px;"/></g><g class="legendsymbols"><g class="legendpoints"/></g></g><rect class="legendtoggle" x="0" y="-9.5" width="88.34375" height="19" style="fill: rgb(0, 0, 0); fill-opacity: 0;"/></g></g></g><rect class="scrollbar" rx="20" ry="3" width="0" height="0" x="0" y="0" style="fill: rgb(128, 139, 164); fill-opacity: 1;"/></g><g class="g-gtitle"><text class="gtitle" x="465" y="30" text-anchor="middle" dy="0em" style="font-family: 'Open Sans', verdana, arial, sans-serif; font-size: 17px; fill: rgb(68, 68, 68); opacity: 1; font-weight: normal; white-space: pre;">acc_modelC_0011</text></g><g class="g-xtitle"/><g class="g-ytitle"/></g></svg>