<svg class="main-svg" xmlns="http://www.w3.org/2000/svg" xmlns:xlink="http://www.w3.org/1999/xlink" width="1060" height="501" style="" viewBox="0 0 1060 501"><rect x="0" y="0" width="1060" height="501" style="fill: rgb(255, 255, 255); fill-opacity: 1;"/><defs id="defs-cd03a5"><g class="clips"><clipPath id="clipcd03a5xyplot" class="plotclip"><rect width="869" height="381"/></clipPath><clipPath class="axesclip" id="clipcd03a5x"><rect x="60" y="0" width="869" height="501"/></clipPath><clipPath class="axesclip" id="clipcd03a5y"><rect x="0" y="60" width="1060" height="381"/></clipPath><clipPath class="axesclip" id="clipcd03a5xy"><rect x="60" y="60" width="869" height="381"/></clipPath></g><g class="gradients"/></defs><g class="bglayer"/><g class="layer-below"><g class="imagelayer"/><g class="shapelayer"/></g><g class="cartesianlayer"><g class="subplot xy"><g class="layer-subplot"><g class="shapelayer"/><g class="imagelayer"/></g><g class="gridlayer"><g class="x"><path class="xgrid crisp" transform="translate(147.34,0)" d="M0,60v381" style="stroke: rgb(238, 238, 238); stroke-opacity: 1; stroke-width: 1px;"/><path class="xgrid crisp" transform="translate(234.67,0)" d="M0,60v381" style="stroke: rgb(238, 238, 238); stroke-opacity: 1; stroke-width: 1px;"/><path class="xgrid crisp" transform="translate(322.01,0)" d="M0,60v381" style="stroke: rgb(238, 238, 238); stroke-opacity: 1; stroke-width: 1px;"/><path class="xgrid crisp" transform="translate(409.35,0)" d="M0,60v381" style="stroke: rgb(238, 238, 238); stroke-opacity: 1; stroke-width: 1px;"/><path class="xgrid crisp" transform="translate(496.68,0)" d="M0,60v381" style="stroke: rgb(238, 238, 238); stroke-opacity: 1; stroke-width: 1px;"/><path class="xgrid crisp" transform="translate(584.02,0)" d="M0,60v381" style="stroke: rgb(238, 238, 238); stroke-opacity: 1; stroke-width: 1px;"/><path class="xgrid crisp" transform="translate(671.36,0)" d="M0,60v381" style="stroke: rgb(238, 238, 238); stroke-opacity: 1; stroke-width: 1px;"/><path class="xgrid crisp" transform="translate(758.69,0)" d="M0,60v381" style="stroke: rgb(238, 238, 238); stroke-opacity: 1; stroke-width: 1px;"/><path class="xgrid crisp" transform="translate(846.03,0)" d="M0,60v381" style="stroke: rgb(238, 238, 238); stroke-opacity: 1; stroke-width: 1px;"/></g><g class="y"><path class="ygrid crisp" transform="translate(0,435.5)" d="M60,0h869" style="stroke: rgb(238, 238, 238); stroke-opacity: 1; stroke-width: 1px;"/><path class="ygrid crisp" transform="translate(0,385.72)" d="M60,0h869" style="stroke: rgb(238, 238, 238); stroke-opacity: 1; stroke-width: 1px;"/><path class="ygrid crisp" transform="translate(0,335.93)" d="M60,0h869" style="stroke: rgb(238, 238, 238); stroke-opacity: 1; stroke-width: 1px;"/><path class="ygrid crisp" transform="translate(0,286.15)" d="M60,0h869" style="stroke: rgb(238, 238, 238); stroke-opacity: 1; stroke-width: 1px;"/><path class="ygrid crisp" transform="translate(0,236.37)" d="M60,0h869" style="stroke: rgb(238, 238, 238); stroke-opacity: 1; stroke-width: 1px;"/><path class="ygrid crisp" transform="translate(0,186.57999999999998)" d="M60,0h869" style="stroke: rgb(238, 238, 238); stroke-opacity: 1; stroke-width: 1px;"/><path class="ygrid crisp" transform="translate(0,136.8)" d="M60,0h869" style="stroke: rgb(238, 238, 238); stroke-opacity: 1; stroke-width: 1px;"/><path class="ygrid crisp" transform="translate(0,87.02)" d="M60,0h869" style="stroke: rgb(238, 238, 238); stroke-opacity: 1; stroke-width: 1px;"/></g></g><g class="zerolinelayer"><path class="xzl zl crisp" transform="translate(60,0)" d="M0,60v381" style="stroke: rgb(68, 68, 68); stroke-opacity: 1; stroke-width: 1px;"/></g><path class="xlines-below"/><path class="ylines-below"/><g class="overlines-below"/><g class="xaxislayer-below"/><g class="yaxislayer-below"/><g class="overaxes-below"/><g class="plot" transform="translate(60,60)" clip-path="url('#clipcd03a5xyplot')"><g class="scatterlayer mlayer"><g class="trace scatter trace611a7e" style="stroke-miterlimit: 2; opacity: 1;"><g class="fills"/><g class="errorbars"/><g class="lines"><path class="js-line" d="M0,314.77L4.37,270.46L8.73,249.05L13.1,228.64L17.47,217.19L21.83,214.7L26.2,194.79L30.57,193.29L34.93,200.76L39.3,189.31L43.67,185.33L48.04,160.44L52.4,153.47L56.77,149.98L61.14,166.41L65.5,162.43L69.87,145L74.24,152.47L78.6,151.97L82.97,138.03L87.34,131.56L91.7,135.54L96.07,122.6L100.44,118.12L104.8,128.57L109.17,117.62L113.54,115.13L117.9,121.11L122.27,110.65L126.64,107.17L131.01,97.21L135.37,92.23L139.74,106.17L144.11,107.17L148.47,106.67L152.84,110.65L157.21,107.67L161.57,99.7L165.94,111.15L170.31,97.71L174.67,81.28L179.04,75.8L183.41,77.3L187.77,68.34L192.14,71.32L196.51,61.37L200.87,69.33L205.24,62.36L209.61,61.86L213.97,61.86L218.34,63.36L222.71,69.83L227.08,58.88L231.44,52.9L235.81,54.4L240.18,56.89L244.54,56.89L248.91,51.41L253.28,50.91L257.64,47.43L262.01,50.41L266.38,55.89L270.74,57.88L275.11,50.41L279.48,49.92L283.84,58.88L288.21,51.41L292.58,46.43L296.94,57.88L301.31,48.42L305.68,48.42L310.05,45.93L314.41,45.44L318.78,44.94L323.15,53.4L327.51,46.93L331.88,43.44L336.25,39.96L340.61,42.95L344.98,45.93L349.35,40.95L353.71,32.49L358.08,36.47L362.45,25.52L366.81,34.48L371.18,33.49L375.55,35.48L379.91,29.01L384.28,32.99L388.65,35.48L393.02,29.01L397.38,33.99L401.75,29.01L406.12,31L410.48,34.48L414.85,28.51L419.22,34.48L427.95,33.49L432.32,21.04L436.68,31L441.05,22.53L445.42,30.5L449.78,31.99L454.15,29.5L458.52,26.02L462.88,35.98L467.25,34.98L471.62,31.5L475.98,37.47L480.35,23.03L484.72,34.48L489.09,27.02L493.45,25.02L497.82,34.48L502.19,29.5L506.55,26.52L510.92,43.94L515.29,28.51L519.65,23.53L524.02,34.48L528.39,33.49L532.75,31L537.12,32.99L541.49,26.52L545.85,24.53L550.22,24.03L554.59,30L558.95,35.98L563.32,20.54L572.06,33.99L576.42,26.02L580.79,23.53L585.16,28.01L589.52,31L593.89,25.02L598.26,27.02L602.62,27.51L606.99,28.01L611.36,27.02L615.72,30L620.09,25.02L624.46,31L628.82,30L633.19,28.51L637.56,31.99L641.92,28.51L646.29,29.5L650.66,32.49L655.03,24.03L659.39,33.49L663.76,38.96L668.13,22.04L672.49,19.05L676.86,31L681.23,28.51L685.59,29.5L689.96,29.5L694.33,26.02L698.69,31.99L703.06,29.5L707.43,31L711.79,28.51L716.16,29.5L720.53,36.47L724.89,22.04L729.26,28.01L733.63,24.53L737.99,38.47L742.36,23.03L746.73,29.01L751.1,31.5L755.46,22.04L759.83,34.98L764.2,21.04L768.56,32.49L772.93,22.53L777.3,29.01L781.66,19.55L786.03,24.03L790.4,23.53L794.76,24.03L799.13,33.49L803.5,28.51L807.86,21.04L812.23,33.49L816.6,24.53L820.96,21.04L825.33,36.47L829.7,25.52L834.07,27.02L838.43,32.49L842.8,33.49L847.17,28.51L851.53,34.98L855.9,30.5L860.27,26.52L864.63,27.51L869,25.52" style="vector-effect: non-scaling-stroke; fill: none; stroke: rgb(31, 119, 180); stroke-opacity: 1; stroke-width: 2px; opacity: 1;"/></g><g class="points"/><g class="text"/></g><g class="trace scatter trace22322b" style="stroke-miterlimit: 2; opacity: 1;"><g class="fills"/><g class="errorbars"/><g class="lines"><path class="js-line" d="M0,361.95L4.37,252.98L8.73,230.76L13.1,260.91L17.47,258.51L21.83,227.63L26.2,180.88L30.57,214.72L34.93,232.88L39.3,297.23L43.67,197.2L48.04,195.45L52.4,182.27L56.77,199.97L61.14,146.04L69.87,126.86L74.24,240.9L78.6,227.72L82.97,136.54L87.34,165.67L91.7,105.93L96.07,123.91L100.44,128.15L104.8,161.89L109.17,116.9L113.54,124.37L117.9,208.63L122.27,109.71L126.64,109.25L131.01,86.39L135.37,109.62L139.74,127.97L144.11,113.68L148.47,92.75L152.84,83.44L157.21,142.53L161.57,134.88L165.94,122.16L170.31,87.77L174.67,72.93L179.04,66.29L183.41,64.91L187.77,66.47L192.14,61.31L196.51,62.88L200.87,63.52L205.24,59.56L209.61,64.63L213.97,57.07L218.34,62.14L222.71,61.59L231.44,56.52L235.81,61.31L240.18,61.96L244.54,68.41L248.91,60.39L253.28,64.08L257.64,56.33L262.01,54.4L266.38,61.13L270.74,54.49L275.11,60.67L279.48,55.13L283.84,60.11L288.21,56.89L292.58,55.23L296.94,68.59L301.31,51.26L305.68,57.35L310.05,55.13L314.41,54.86L318.78,52.28L323.15,51.35L327.51,47.67L331.88,55.13L336.25,56.79L340.61,49.88L344.98,50.34L349.35,49.69L358.08,49.69L362.45,48.04L366.81,49.05L371.18,47.85L379.91,49.97L384.28,48.96L406.12,46.19L410.48,47.11L414.85,50.16L419.22,47.57L423.58,46.56L427.95,48.77L432.32,47.76L436.68,48.96L441.05,46.56L445.42,45.55L449.78,48.04L454.15,46.93L458.52,47.57L462.88,46.93L467.25,45.82L471.62,47.76L475.98,46.28L480.35,46.93L484.72,45.91L489.09,46.38L493.45,45.64L497.82,47.94L502.19,47.85L506.55,46.19L510.92,45.55L515.29,46.1L519.65,45.18L524.02,46.65L528.39,47.67L532.75,47.57L537.12,46.93L541.49,49.05L545.85,46.1L550.22,45.27L558.95,46.93L563.32,45.55L576.42,46.84L580.79,45.09L585.16,44.53L589.52,45.91L593.89,47.57L598.26,44.72L602.62,45.27L606.99,46.74L615.72,45.55L620.09,47.39L624.46,46.01L628.82,46.01L637.56,45.36L641.92,46.01L646.29,46.56L650.66,45.18L668.13,45.91L672.49,46.74L676.86,46.19L681.23,44.81L685.59,47.21L689.96,45.73L703.06,46.19L707.43,44.62L724.89,46.01L729.26,45.73L733.63,44.26L737.99,45.36L746.73,45.91L751.1,44.44L759.83,45.91L764.2,45.09L768.56,45.36L772.93,44.72L777.3,46.19L781.66,46.84L790.4,44.99L794.76,46.74L803.5,45.27L807.86,45.91L812.23,46.84L816.6,45.55L820.96,44.16L825.33,45.27L838.43,45.55L842.8,45.18L847.17,46.93L851.53,47.11L855.9,45.55L860.27,44.99L864.63,46.38L869,46.56" style="vector-effect: non-scaling-stroke; fill: none; stroke: rgb(255, 127, 14); stroke-opacity: 1; stroke-width: 2px; opacity: 1;"/></g><g class="points"/><g class="text"/></g></g></g><g class="overplot"/><path class="xlines-above crisp" d="M0,0" style="fill: none;"/><path class="ylines-above crisp" d="M0,0" style="fill: none;"/><g class="overlines-above"/><g class="xaxislayer-above"><g class="xtick"><text text-anchor="middle" x="0" y="454" transform="translate(60,0)" style="font-family: 'Open Sans', verdana, arial, sans-serif; font-size: 12px; fill: rgb(68, 68, 68); fill-opacity: 1; white-space: pre;">0</text></g><g class="xtick"><text text-anchor="middle" x="0" y="454" transform="translate(147.34,0)" style="font-family: 'Open Sans', verdana, arial, sans-serif; font-size: 12px; fill: rgb(68, 68, 68); fill-opacity: 1; white-space: pre;">20</text></g><g class="xtick"><text text-anchor="middle" x="0" y="454" transform="translate(234.67,0)" style="font-family: 'Open Sans', verdana, arial, sans-serif; font-size: 12px; fill: rgb(68, 68, 68); fill-opacity: 1; white-space: pre;">40</text></g><g class="xtick"><text text-anchor="middle" x="0" y="454" transform="translate(322.01,0)" style="font-family: 'Open Sans', verdana, arial, sans-serif; font-size: 12px; fill: rgb(68, 68, 68); fill-opacity: 1; white-space: pre;">60</text></g><g class="xtick"><text text-anchor="middle" x="0" y="454" transform="translate(409.35,0)" style="font-family: 'Open Sans', verdana, arial, sans-serif; font-size: 12px; fill: rgb(68, 68, 68); fill-opacity: 1; white-space: pre;">80</text></g><g class="xtick"><text text-anchor="middle" x="0" y="454" transform="translate(496.68,0)" style="font-family: 'Open Sans', verdana, arial, sans-serif; font-size: 12px; fill: rgb(68, 68, 68); fill-opacity: 1; white-space: pre;">100</text></g><g class="xtick"><text text-anchor="middle" x="0" y="454" transform="translate(584.02,0)" style="font-family: 'Open Sans', verdana, arial, sans-serif; font-size: 12px; fill: rgb(68, 68, 68); fill-opacity: 1; white-space: pre;">120</text></g><g class="xtick"><text text-anchor="middle" x="0" y="454" transform="translate(671.36,0)" style="font-family: 'Open Sans', verdana, arial, sans-serif; font-size: 12px; fill: rgb(68, 68, 68); fill-opacity: 1; white-space: pre;">140</text></g><g class="xtick"><text text-anchor="middle" x="0" y="454" transform="translate(758.69,0)" style="font-family: 'Open Sans', verdana, arial, sans-serif; font-size: 12px; fill: rgb(68, 68, 68); fill-opacity: 1; white-space: pre;">160</text></g><g class="xtick"><text text-anchor="middle" x="0" y="454" transform="translate(846.03,0)" style="font-family: 'Open Sans', verdana, arial, sans-serif; font-size: 12px; fill: rgb(68, 68, 68); fill-opacity: 1; white-space: pre;">180</text></g></g><g class="yaxislayer-above"><g class="ytick"><text text-anchor="end" x="59" y="4.199999999999999" transform="translate(0,435.5)" style="font-family: 'Open Sans', verdana, arial, sans-serif; font-size: 12px; fill: rgb(68, 68, 68); fill-opacity: 1; white-space: pre;">0.2</text></g><g class="ytick"><text text-anchor="end" x="59" y="4.199999999999999" transform="translate(0,385.72)" style="font-family: 'Open Sans', verdana, arial, sans-serif; font-size: 12px; fill: rgb(68, 68, 68); fill-opacity: 1; white-space: pre;">0.3</text></g><g class="ytick"><text text-anchor="end" x="59" y="4.199999999999999" transform="translate(0,335.93)" style="font-family: 'Open Sans', verdana, arial, sans-serif; font-size: 12px; fill: rgb(68, 68, 68); fill-opacity: 1; white-space: pre;">0.4</text></g><g class="ytick"><text text-anchor="end" x="59" y="4.199999999999999" transform="translate(0,286.15)" style="font-family: 'Open Sans', verdana, arial, sans-serif; font-size: 12px; fill: rgb(68, 68, 68); fill-opacity: 1; white-space: pre;">0.5</text></g><g class="ytick"><text text-anchor="end" x="59" y="4.199999999999999" transform="translate(0,236.37)" style="font-family: 'Open Sans', verdana, arial, sans-serif; font-size: 12px; fill: rgb(68, 68, 68); fill-opacity: 1; white-space: pre;">0.6</text></g><g class="ytick"><text text-anchor="end" x="59" y="4.199999999999999" transform="translate(0,186.57999999999998)" style="font-family: 'Open Sans', verdana, arial, sans-serif; font-size: 12px; fill: rgb(68, 68, 68); fill-opacity: 1; white-space: pre;">0.7</text></g><g class="ytick"><text text-anchor="end" x="59" y="4.199999999999999" transform="translate(0,136.8)" style="font-family: 'Open Sans', verdana, arial, sans-serif; font-size: 12px; fill: rgb(68, 68, 68); fill-opacity: 1; white-space: pre;">0.8</text></g><g class="ytick"><text text-anchor="end" x="59" y="4.199999999999999" transform="translate(0,87.02)" style="font-family: 'Open Sans', verdana, arial, sans-serif; font-size: 12px; fill: rgb(68, 68, 68); fill-opacity: 1; white-space: pre;">0.9</text></g></g><g class="overaxes-above"/></g></g><g class="polarlayer"/><g class="ternarylayer"/><g class="geolayer"/><g class="funnelarealayer"/><g class="pielayer"/><g class="treemaplayer"/><g class="sunburstlayer"/><g class="glimages"/><defs id="topdefs-cd03a5"><g class="clips"/><clipPath id="legendcd03a5"><rect width="102" height="48" x="0" y="0"/></clipPath></defs><g class="layer-above"><g class="imagelayer"/><g class="shapelayer"/></g><g class="infolayer"><g class="legend" pointer-events="all" transform="translate(946.38,60)"><rect class="bg" shape-rendering="crispEdges" width="102" height="48" x="0" y="0" style="stroke: rgb(68, 68, 68); stroke-opacity: 1; fill: rgb(255, 255, 255); fill-opacity: 1; stroke-width: 0px;"/><g class="scrollbox" transform="" clip-path="url('#legendcd03a5')"><g class="groups"><g class="traces" transform="translate(0,14.5)" style="opacity: 1;"><text class="legendtext" text-anchor="start" x="40" y="4.680000000000001" style="font-family: 'Open Sans', verdana, arial, sans-serif; font-size: 12px; fill: rgb(68, 68, 68); fill-opacity: 1; white-space: pre;">train_acc</text><g class="layers" style="opacity: 1;"><g class="legendfill"/><g class="legendlines"><path class="js-line" d="M5,0h30" style="fill: none; stroke: rgb(31, 119, 180); stroke-opacity: 1; stroke-width: 2px;"/></g><g class="legendsymbols"><g class="legendpoints"/></g></g><rect class="legendtoggle" x="0" y="-9.5" width="96.234375" height="19" style="fill: rgb(0, 0, 0); fill-opacity: 0;"/></g><g class="traces" transform="translate(0,33.5)" style="opacity: 1;"><text class="legendtext" text-anchor="start" x="40" y="4.680000000000001" style="font-family: 'Open Sans', verdana, arial, sans-serif; font-size: 12px; fill: rgb(68, 68, 68); fill-opacity: 1; white-space: pre;">valid_acc</text><g class="layers" style="opacity: 1;"><g class="legendfill"/><g class="legendlines"><path class="js-line" d="M5,0h30" style="fill: none; stroke: rgb(255, 127, 14); stroke-opacity: 1; stroke-width: 2px;"/></g><g class="legendsymbols"><g class="legendpoints"/></g></g><rect class="legendtoggle" x="0" y="-9.5" width="96.234375" height="19" style="fill: rgb(0, 0, 0); fill-opacity: 0;"/></g></g></g><rect class="scrollbar" rx="20" ry="3" width="0" height="0" x="0" y="0" style="fill: rgb(128, 139, 164); fill-opacity: 1;"/></g><g class="g-gtitle"><text class="gtitle" x="530" y="30" text-anchor="middle" dy="0em" style="font-family: 'Open Sans', verdana, arial, sans-serif; font-size: 17px; fill: rgb(68, 68, 68); opacity: 1; font-weight: normal; white-space: pre;">acc_modelB_18_0001</text></g><g class="g-xtitle"/><g class="g-ytitle"/></g></svg>