<svg class="main-svg" xmlns="http://www.w3.org/2000/svg" xmlns:xlink="http://www.w3.org/1999/xlink" width="893" height="456" style="" viewBox="0 0 893 456"><rect x="0" y="0" width="893" height="456" style="fill: rgb(255, 255, 255); fill-opacity: 1;"/><defs id="defs-6d3cd2"><g class="clips"><clipPath id="clip6d3cd2xyplot" class="plotclip"><rect width="713" height="336"/></clipPath><clipPath class="axesclip" id="clip6d3cd2x"><rect x="60" y="0" width="713" height="456"/></clipPath><clipPath class="axesclip" id="clip6d3cd2y"><rect x="0" y="60" width="893" height="336"/></clipPath><clipPath class="axesclip" id="clip6d3cd2xy"><rect x="60" y="60" width="713" height="336"/></clipPath></g><g class="gradients"/></defs><g class="bglayer"/><g class="layer-below"><g class="imagelayer"/><g class="shapelayer"/></g><g class="cartesianlayer"><g class="subplot xy"><g class="layer-subplot"><g class="shapelayer"/><g class="imagelayer"/></g><g class="gridlayer"><g class="x"><path class="xgrid crisp" transform="translate(239.15,0)" d="M0,60v336" style="stroke: rgb(238, 238, 238); stroke-opacity: 1; stroke-width: 1px;"/><path class="xgrid crisp" transform="translate(418.29,0)" d="M0,60v336" style="stroke: rgb(238, 238, 238); stroke-opacity: 1; stroke-width: 1px;"/><path class="xgrid crisp" transform="translate(597.44,0)" d="M0,60v336" style="stroke: rgb(238, 238, 238); stroke-opacity: 1; stroke-width: 1px;"/></g><g class="y"><path class="ygrid crisp" transform="translate(0,362.76)" d="M60,0h713" style="stroke: rgb(238, 238, 238); stroke-opacity: 1; stroke-width: 1px;"/><path class="ygrid crisp" transform="translate(0,317.08)" d="M60,0h713" style="stroke: rgb(238, 238, 238); stroke-opacity: 1; stroke-width: 1px;"/><path class="ygrid crisp" transform="translate(0,271.4)" d="M60,0h713" style="stroke: rgb(238, 238, 238); stroke-opacity: 1; stroke-width: 1px;"/><path class="ygrid crisp" transform="translate(0,225.72)" d="M60,0h713" style="stroke: rgb(238, 238, 238); stroke-opacity: 1; stroke-width: 1px;"/><path class="ygrid crisp" transform="translate(0,180.04000000000002)" d="M60,0h713" style="stroke: rgb(238, 238, 238); stroke-opacity: 1; stroke-width: 1px;"/><path class="ygrid crisp" transform="translate(0,134.36)" d="M60,0h713" style="stroke: rgb(238, 238, 238); stroke-opacity: 1; stroke-width: 1px;"/><path class="ygrid crisp" transform="translate(0,88.68)" d="M60,0h713" style="stroke: rgb(238, 238, 238); stroke-opacity: 1; stroke-width: 1px;"/></g></g><g class="zerolinelayer"><path class="xzl zl crisp" transform="translate(60,0)" d="M0,60v336" style="stroke: rgb(68, 68, 68); stroke-opacity: 1; stroke-width: 1px;"/></g><path class="xlines-below"/><path class="ylines-below"/><g class="overlines-below"/><g class="xaxislayer-below"/><g class="yaxislayer-below"/><g class="overaxes-below"/><g class="plot" transform="translate(60,60)" clip-path="url('#clip6d3cd2xyplot')"><g class="scatterlayer mlayer"><g class="trace scatter tracea68393" style="stroke-miterlimit: 2; opacity: 1;"><g class="fills"/><g class="errorbars"/><g class="lines"><path class="js-line" d="M0,319.2L3.58,235.15L7.17,205.91L10.75,196.78L14.33,205.46L17.91,182.62L21.5,193.12L28.66,159.78L32.25,163.89L35.83,155.67L39.41,157.04L42.99,151.56L46.58,149.73L50.16,145.16L53.74,144.25L57.33,140.59L60.91,151.1L64.49,134.65L68.08,138.76L71.66,135.11L75.24,134.65L78.82,122.32L82.41,115.93L85.99,130.09L89.57,125.06L93.16,121.41L96.74,123.69L100.32,120.95L103.9,111.36L107.49,109.99L111.07,113.18L118.24,109.53L121.82,109.53L125.4,112.27L128.98,113.18L132.57,111.36L136.15,98.11L139.73,91.71L143.32,94L146.9,104.05L150.48,105.88L154.07,92.17L157.65,89.89L161.23,100.39L164.81,94L168.4,88.97L171.98,101.31L175.56,81.67L179.15,90.34L182.73,90.8L186.31,88.06L189.89,79.38L193.48,81.67L197.06,84.86L200.64,86.69L204.23,82.12L207.81,86.69L211.39,78.92L214.97,80.75L218.56,81.21L222.14,72.99L225.72,78.92L229.31,88.52L232.89,72.53L236.47,84.86L240.06,74.81L243.64,82.12L247.22,67.05L250.8,77.55L254.39,77.55L257.97,87.6L261.55,79.38L265.14,66.59L268.72,66.59L272.3,70.7L275.88,66.13L279.47,56.54L283.05,65.22L286.63,68.87L293.8,72.53L297.38,57.45L300.96,73.44L304.55,73.44L308.13,62.48L311.71,65.68L315.3,62.48L318.88,67.5L322.46,65.68L326.05,51.97L329.63,57.91L333.21,58.37L336.79,58.37L340.38,57L343.96,63.39L347.54,52.43L351.13,57.91L354.71,54.26L358.29,64.31L361.87,61.11L365.46,48.32L369.04,49.23L372.62,57.91L376.21,55.17L379.79,64.31L383.37,55.17L386.95,63.85L390.54,52.89L394.12,63.85L397.7,52.89L401.29,53.34L404.87,47.41L408.45,56.54L412.04,42.38L415.62,52.43L419.2,50.15L422.78,48.78L426.37,44.21L429.95,40.1L433.53,50.15L437.12,63.39L440.7,45.58L444.28,50.15L447.86,47.86L451.45,62.94L455.03,52.89L458.61,49.23L462.2,51.97L465.78,44.66L469.36,45.12L472.94,42.38L476.53,43.29L480.11,43.29L483.69,49.23L487.28,43.75L490.86,36.44L494.44,36.9L498.03,41.92L501.61,37.36L505.19,34.16L508.77,39.64L512.36,38.73L515.94,38.27L519.52,44.21L523.11,35.07L526.69,41.47L530.27,27.76L533.85,35.07L537.44,35.07L541.02,36.44L544.6,41.47L548.19,31.42L551.77,31.42L555.35,32.79L558.93,31.87L562.52,20.91L566.1,26.85L569.68,35.07L573.27,42.84L576.85,40.55L580.43,39.18L584.02,40.1L587.6,41.47L591.18,32.79L594.76,34.16L598.35,33.24L601.93,30.05L605.51,28.22L609.1,32.33L612.68,34.16L616.26,32.79L619.84,36.9L623.43,38.27L627.01,43.75L630.59,30.96L634.18,28.22L637.76,42.38L641.34,26.39L644.92,20.91L648.51,20L655.67,39.18L659.26,30.96L662.84,29.13L666.42,31.87L670.01,25.48L673.59,30.96L677.17,29.13L680.75,25.48L684.34,30.05L687.92,16.8L691.5,29.59L695.09,20.91L698.67,18.17L702.25,24.57L705.83,19.08L709.42,23.2L713,30.96" style="vector-effect: non-scaling-stroke; fill: none; stroke: rgb(31, 119, 180); stroke-opacity: 1; stroke-width: 2px; opacity: 1;"/></g><g class="points"/><g class="text"/></g><g class="trace scatter trace02a495" style="stroke-miterlimit: 2; opacity: 1;"><g class="fills"/><g class="errorbars"/><g class="lines"><path class="js-line" d="M0,260.8L3.58,208.6L7.17,205.9L10.75,187.63L14.33,191.09L17.91,216.39L21.5,276.11L25.08,170.71L28.66,209.53L32.25,199.38L35.83,200.06L39.41,149.22L42.99,174.34L46.58,138.31L50.16,177.64L53.74,146.43L57.33,170.03L60.91,154.47L64.49,154.3L68.08,132.98L71.66,182.63L75.24,137.63L78.82,125.45L82.41,133.99L85.99,123.42L89.57,122.24L93.16,104.89L96.74,118.77L100.32,101.34L103.9,113.86L107.49,104.64L111.07,121.22L114.65,115.98L118.24,111.15L121.82,94.32L125.4,93.22L128.98,110.65L132.57,143.47L136.15,103.12L139.73,111.75L143.32,106.76L146.9,124.44L150.48,87.38L154.07,89.41L157.65,99.99L161.23,96.44L164.81,95.42L168.4,96.94L171.98,123.76L175.56,106.5L179.15,118.18L182.73,78.84L186.31,90.26L189.89,132.47L193.48,90.6L197.06,91.19L200.64,107.35L204.23,85.27L207.81,97.2L214.97,72.66L218.56,80.19L222.14,94.66L225.72,78.25L229.31,92.54L232.89,80.11L236.47,77.57L240.06,94.07L243.64,82.05L247.22,87.55L250.8,92.29L254.39,85.52L257.97,79.09L261.55,86.2L265.14,83.32L268.72,69.53L272.3,86.45L275.88,80.36L279.47,85.78L283.05,101L286.63,72.83L290.22,91.36L293.8,81.8L297.38,75.03L304.55,92.29L308.13,77.32L311.71,69.62L315.3,107.01L318.88,97.2L322.46,72.24L326.05,69.7L329.63,87.55L333.21,92.63L336.79,87.55L343.96,71.31L347.54,75.71L351.13,74.78L354.71,77.23L358.29,116.31L361.87,71.48L365.46,66.4L369.04,68.35L372.62,78.84L376.21,74.36L379.79,65.73L383.37,92.21L386.95,71.56L390.54,76.05L394.12,111.15L397.7,67.08L401.29,75.12L404.87,67.17L408.45,72.5L412.04,67.34L415.62,69.45L419.2,65.81L422.78,83.92L426.37,68.86L429.95,65.98L433.53,74.27L437.12,91.36L440.7,60.57L447.86,67.76L451.45,95.08L455.03,65.05L458.61,76.13L462.2,70.55L465.78,85.27L469.36,61.75L472.94,67.34L476.53,73.85L480.11,74.86L483.69,84.76L487.28,60.82L490.86,57.27L494.44,64.12L498.03,70.04L501.61,65.31L505.19,75.96L508.77,75.63L512.36,59.55L515.94,59.47L519.52,52.28L523.11,61.08L526.69,81.04L530.27,60.48L533.85,69.79L537.44,65.31L541.02,68.1L544.6,58.71L548.19,66.32L551.77,60.99L555.35,71.14L558.93,67.67L562.52,73.68L566.1,70.8L569.68,85.95L573.27,79.18L576.85,63.44L580.43,70.55L584.02,65.14L587.6,69.87L591.18,71.56L594.76,74.1L598.35,59.64L601.93,72.41L605.51,75.96L609.1,62.94L612.68,80.95L616.26,74.1L619.84,77.23L623.43,64.21L627.01,71.65L630.59,61.08L634.18,117.33L637.76,64.04L641.34,66.07L644.92,58.28L648.51,56.76L652.09,69.2L655.67,63.87L659.26,70.3L662.84,63.11L666.42,52.62L670.01,59.47L673.59,81.8L677.17,57.61L680.75,65.31L684.34,59.81L687.92,62.68L691.5,58.28L695.09,86.03L698.67,66.83L702.25,56.08L705.83,66.24L709.42,54.14L713,66.91" style="vector-effect: non-scaling-stroke; fill: none; stroke: rgb(255, 127, 14); stroke-opacity: 1; stroke-width: 2px; opacity: 1;"/></g><g class="points"/><g class="text"/></g></g></g><g class="overplot"/><path class="xlines-above crisp" d="M0,0" style="fill: none;"/><path class="ylines-above crisp" d="M0,0" style="fill: none;"/><g class="overlines-above"/><g class="xaxislayer-above"><g class="xtick"><text text-anchor="middle" x="0" y="409" transform="translate(60,0)" style="font-family: 'Open Sans', verdana, arial, sans-serif; font-size: 12px; fill: rgb(68, 68, 68); fill-opacity: 1; white-space: pre;">0</text></g><g class="xtick"><text text-anchor="middle" x="0" y="409" transform="translate(239.15,0)" style="font-family: 'Open Sans', verdana, arial, sans-serif; font-size: 12px; fill: rgb(68, 68, 68); fill-opacity: 1; white-space: pre;">50</text></g><g class="xtick"><text text-anchor="middle" x="0" y="409" transform="translate(418.29,0)" style="font-family: 'Open Sans', verdana, arial, sans-serif; font-size: 12px; fill: rgb(68, 68, 68); fill-opacity: 1; white-space: pre;">100</text></g><g class="xtick"><text text-anchor="middle" x="0" y="409" transform="translate(597.44,0)" style="font-family: 'Open Sans', verdana, arial, sans-serif; font-size: 12px; fill: rgb(68, 68, 68); fill-opacity: 1; white-space: pre;">150</text></g></g><g class="yaxislayer-above"><g class="ytick"><text text-anchor="end" x="59" y="4.199999999999999" transform="translate(0,362.76)" style="font-family: 'Open Sans', verdana, arial, sans-serif; font-size: 12px; fill: rgb(68, 68, 68); fill-opacity: 1; white-space: pre;">0.3</text></g><g class="ytick"><text text-anchor="end" x="59" y="4.199999999999999" transform="translate(0,317.08)" style="font-family: 'Open Sans', verdana, arial, sans-serif; font-size: 12px; fill: rgb(68, 68, 68); fill-opacity: 1; white-space: pre;">0.4</text></g><g class="ytick"><text text-anchor="end" x="59" y="4.199999999999999" transform="translate(0,271.4)" style="font-family: 'Open Sans', verdana, arial, sans-serif; font-size: 12px; fill: rgb(68, 68, 68); fill-opacity: 1; white-space: pre;">0.5</text></g><g class="ytick"><text text-anchor="end" x="59" y="4.199999999999999" transform="translate(0,225.72)" style="font-family: 'Open Sans', verdana, arial, sans-serif; font-size: 12px; fill: rgb(68, 68, 68); fill-opacity: 1; white-space: pre;">0.6</text></g><g class="ytick"><text text-anchor="end" x="59" y="4.199999999999999" transform="translate(0,180.04000000000002)" style="font-family: 'Open Sans', verdana, arial, sans-serif; font-size: 12px; fill: rgb(68, 68, 68); fill-opacity: 1; white-space: pre;">0.7</text></g><g class="ytick"><text text-anchor="end" x="59" y="4.199999999999999" transform="translate(0,134.36)" style="font-family: 'Open Sans', verdana, arial, sans-serif; font-size: 12px; fill: rgb(68, 68, 68); fill-opacity: 1; white-space: pre;">0.8</text></g><g class="ytick"><text text-anchor="end" x="59" y="4.199999999999999" transform="translate(0,88.68)" style="font-family: 'Open Sans', verdana, arial, sans-serif; font-size: 12px; fill: rgb(68, 68, 68); fill-opacity: 1; white-space: pre;">0.9</text></g></g><g class="overaxes-above"/></g></g><g class="polarlayer"/><g class="ternarylayer"/><g class="geolayer"/><g class="funnelarealayer"/><g class="pielayer"/><g class="treemaplayer"/><g class="sunburstlayer"/><g class="glimages"/><defs id="topdefs-6d3cd2"><g class="clips"/><clipPath id="legend6d3cd2"><rect width="94" height="48" x="0" y="0"/></clipPath></defs><g class="layer-above"><g class="imagelayer"/><g class="shapelayer"/></g><g class="infolayer"><g class="legend" pointer-events="all" transform="translate(787.26,60)"><rect class="bg" shape-rendering="crispEdges" width="94" height="48" x="0" y="0" style="stroke: rgb(68, 68, 68); stroke-opacity: 1; fill: rgb(255, 255, 255); fill-opacity: 1; stroke-width: 0px;"/><g class="scrollbox" transform="" clip-path="url('#legend6d3cd2')"><g class="groups"><g class="traces" transform="translate(0,14.5)" style="opacity: 1;"><text class="legendtext" text-anchor="start" x="40" y="4.680000000000001" style="font-family: 'Open Sans', verdana, arial, sans-serif; font-size: 12px; fill: rgb(68, 68, 68); fill-opacity: 1; white-space: pre;">train_acc</text><g class="layers" style="opacity: 1;"><g class="legendfill"/><g class="legendlines"><path class="js-line" d="M5,0h30" style="fill: none; stroke: rgb(31, 119, 180); stroke-opacity: 1; stroke-width: 2px;"/></g><g class="legendsymbols"><g class="legendpoints"/></g></g><rect class="legendtoggle" x="0" y="-9.5" width="88.34375" height="19" style="fill: rgb(0, 0, 0); fill-opacity: 0;"/></g><g class="traces" transform="translate(0,33.5)" style="opacity: 1;"><text class="legendtext" text-anchor="start" x="40" y="4.680000000000001" style="font-family: 'Open Sans', verdana, arial, sans-serif; font-size: 12px; fill: rgb(68, 68, 68); fill-opacity: 1; white-space: pre;">valid_acc</text><g class="layers" style="opacity: 1;"><g class="legendfill"/><g class="legendlines"><path class="js-line" d="M5,0h30" style="fill: none; stroke: rgb(255, 127, 14); stroke-opacity: 1; stroke-width: 2px;"/></g><g class="legendsymbols"><g class="legendpoints"/></g></g><rect class="legendtoggle" x="0" y="-9.5" width="88.34375" height="19" style="fill: rgb(0, 0, 0); fill-opacity: 0;"/></g></g></g><rect class="scrollbar" rx="20" ry="3" width="0" height="0" x="0" y="0" style="fill: rgb(128, 139, 164); fill-opacity: 1;"/></g><g class="g-gtitle"><text class="gtitle" x="446.5" y="30" text-anchor="middle" dy="0em" style="font-family: 'Open Sans', verdana, arial, sans-serif; font-size: 17px; fill: rgb(68, 68, 68); opacity: 1; font-weight: normal; white-space: pre;">acc_modelB_NoLRS</text></g><g class="g-xtitle"/><g class="g-ytitle"/></g></svg>