<svg class="main-svg" xmlns="http://www.w3.org/2000/svg" xmlns:xlink="http://www.w3.org/1999/xlink" width="919" height="456" style="" viewBox="0 0 919 456"><rect x="0" y="0" width="919" height="456" style="fill: rgb(255, 255, 255); fill-opacity: 1;"/><defs id="defs-2a842d"><g class="clips"><clipPath id="clip2a842dxyplot" class="plotclip"><rect width="730" height="336"/></clipPath><clipPath class="axesclip" id="clip2a842dx"><rect x="60" y="0" width="730" height="456"/></clipPath><clipPath class="axesclip" id="clip2a842dy"><rect x="0" y="60" width="919" height="336"/></clipPath><clipPath class="axesclip" id="clip2a842dxy"><rect x="60" y="60" width="730" height="336"/></clipPath></g><g class="gradients"/></defs><g class="bglayer"/><g class="layer-below"><g class="imagelayer"/><g class="shapelayer"/></g><g class="cartesianlayer"><g class="subplot xy"><g class="layer-subplot"><g class="shapelayer"/><g class="imagelayer"/></g><g class="gridlayer"><g class="x"><path class="xgrid crisp" transform="translate(163.55,0)" d="M0,60v336" style="stroke: rgb(238, 238, 238); stroke-opacity: 1; stroke-width: 1px;"/><path class="xgrid crisp" transform="translate(267.09000000000003,0)" d="M0,60v336" style="stroke: rgb(238, 238, 238); stroke-opacity: 1; stroke-width: 1px;"/><path class="xgrid crisp" transform="translate(370.64,0)" d="M0,60v336" style="stroke: rgb(238, 238, 238); stroke-opacity: 1; stroke-width: 1px;"/><path class="xgrid crisp" transform="translate(474.18,0)" d="M0,60v336" style="stroke: rgb(238, 238, 238); stroke-opacity: 1; stroke-width: 1px;"/><path class="xgrid crisp" transform="translate(577.73,0)" d="M0,60v336" style="stroke: rgb(238, 238, 238); stroke-opacity: 1; stroke-width: 1px;"/><path class="xgrid crisp" transform="translate(681.28,0)" d="M0,60v336" style="stroke: rgb(238, 238, 238); stroke-opacity: 1; stroke-width: 1px;"/><path class="xgrid crisp" transform="translate(784.82,0)" d="M0,60v336" style="stroke: rgb(238, 238, 238); stroke-opacity: 1; stroke-width: 1px;"/></g><g class="y"><path class="ygrid crisp" transform="translate(0,352.03)" d="M60,0h730" style="stroke: rgb(238, 238, 238); stroke-opacity: 1; stroke-width: 1px;"/><path class="ygrid crisp" transform="translate(0,300)" d="M60,0h730" style="stroke: rgb(238, 238, 238); stroke-opacity: 1; stroke-width: 1px;"/><path class="ygrid crisp" transform="translate(0,247.97)" d="M60,0h730" style="stroke: rgb(238, 238, 238); stroke-opacity: 1; stroke-width: 1px;"/><path class="ygrid crisp" transform="translate(0,195.94)" d="M60,0h730" style="stroke: rgb(238, 238, 238); stroke-opacity: 1; stroke-width: 1px;"/><path class="ygrid crisp" transform="translate(0,143.92000000000002)" d="M60,0h730" style="stroke: rgb(238, 238, 238); stroke-opacity: 1; stroke-width: 1px;"/><path class="ygrid crisp" transform="translate(0,91.89)" d="M60,0h730" style="stroke: rgb(238, 238, 238); stroke-opacity: 1; stroke-width: 1px;"/></g></g><g class="zerolinelayer"><path class="xzl zl crisp" transform="translate(60,0)" d="M0,60v336" style="stroke: rgb(68, 68, 68); stroke-opacity: 1; stroke-width: 1px;"/></g><path class="xlines-below"/><path class="ylines-below"/><g class="overlines-below"/><g class="xaxislayer-below"/><g class="yaxislayer-below"/><g class="overaxes-below"/><g class="plot" transform="translate(60,60)" clip-path="url('#clip2a842dxyplot')"><g class="scatterlayer mlayer"><g class="trace scatter traceb1b64f" style="stroke-miterlimit: 2; opacity: 1;"><g class="fills"/><g class="errorbars"/><g class="lines"><path class="js-line" d="M0,317L5.18,249.37L10.35,243.12L15.53,240L20.71,234.28L25.89,202.54L31.06,216.07L36.24,199.94L41.42,190.05L46.6,203.58L51.77,176.01L56.95,191.62L62.13,166.64L67.3,161.96L72.48,170.8L77.66,163L82.84,149.47L88.01,156.24L93.19,157.8L98.37,156.24L103.55,160.4L108.72,146.35L113.9,143.75L119.08,136.99L124.26,134.38L129.43,130.22L134.61,123.98L139.79,122.42L144.96,126.58L150.14,113.05L155.32,136.47L160.5,110.97L165.67,113.57L170.85,109.93L176.03,109.41L181.21,104.73L186.38,108.89L191.56,107.33L196.74,96.4L201.91,97.96L207.09,81.84L212.27,72.47L217.45,69.87L222.62,79.23L227.8,66.23L232.98,79.75L238.16,56.86L243.33,59.98L248.51,62.06L253.69,56.34L258.87,54.26L264.04,65.71L269.22,68.31L274.4,65.71L279.57,54.78L284.75,57.38L289.93,56.86L295.11,51.14L300.28,53.22L305.46,58.42L310.64,54.78L315.82,49.06L320.99,59.46L326.17,52.18L331.35,43.33L336.52,53.22L341.7,57.38L346.88,53.22L352.06,56.34L362.41,35.53L367.59,43.33L372.77,41.25L377.94,42.81L383.12,49.58L388.3,52.7L398.65,37.61L403.83,52.7L409.01,35.01L414.18,35.01L419.36,39.17L424.54,24.08L429.72,35.53L434.89,29.29L445.25,33.97L450.43,30.33L460.78,26.17L465.96,25.12L471.13,27.73L476.31,32.41L481.49,30.85L486.67,30.85L497.02,34.49L502.2,37.61L507.38,41.25L512.55,28.77L517.73,39.69L522.91,38.13L528.09,28.77L533.26,32.41L538.44,31.37L543.62,25.64L548.79,26.17L553.97,32.41L559.15,16.8L564.33,29.81L569.5,23.56L574.68,25.64L579.86,32.41L585.04,22.52L590.21,27.73L595.39,29.29L600.57,30.85L605.74,23.04L610.92,32.41L616.1,18.36L621.28,24.6L626.45,29.29L636.81,29.81L641.99,32.41L647.16,30.85L652.34,25.64L657.52,26.69L662.7,28.77L667.87,29.29L673.05,24.6L678.23,27.73L683.4,22.52L688.58,25.12L693.76,33.45L698.94,24.08L704.11,28.25L709.29,29.29L714.47,28.77L719.65,23.04L724.82,26.17L730,28.25" style="vector-effect: non-scaling-stroke; fill: none; stroke: rgb(31, 119, 180); stroke-opacity: 1; stroke-width: 2px; opacity: 1;"/></g><g class="points"/><g class="text"/></g><g class="trace scatter trace403af6" style="stroke-miterlimit: 2; opacity: 1;"><g class="fills"/><g class="errorbars"/><g class="lines"><path class="js-line" d="M0,292.22L5.18,280.18L10.35,250.6L15.53,216.3L20.71,256.09L25.89,190.57L31.06,220.73L36.24,319.2L41.42,235.09L46.6,221.98L51.77,185.47L56.95,191.06L62.13,171.69L67.3,148.47L72.48,198.28L77.66,184.7L82.84,150.98L93.19,191.73L98.37,153.29L103.55,136.52L108.72,137.97L113.9,146.74L119.08,159.84L124.26,145L129.43,125.73L134.61,97.21L139.79,132.67L144.96,136.62L150.14,181.71L155.32,137.29L160.5,156.18L165.67,96.92L170.85,117.54L176.03,91.43L181.21,128.53L186.38,120.14L191.56,98.85L196.74,96.15L201.91,95.86L207.09,74.57L212.27,68.02L217.45,67.15L222.62,63.68L232.98,63.3L238.16,60.31L243.33,66L248.51,61.08L258.87,55.49L264.04,66.96L269.22,60.12L274.4,64.07L279.57,65.8L284.75,60.6L289.93,56.94L295.11,59.35L300.28,60.12L305.46,55.4L310.64,59.44L315.82,58.77L320.99,69.95L326.17,61.37L331.35,56.75L336.52,54.05L341.7,57.23L346.88,58.58L352.06,52.51L357.23,59.15L362.41,60.31L367.59,57.61L372.77,56.26L377.94,52.12L383.12,51.25L388.3,54.72L393.48,55.4L398.65,53.76L403.83,54.34L409.01,60.12L414.18,53.28L419.36,52.6L424.54,50.29L429.72,50L434.89,50.87L440.07,49.04L445.25,50.58L450.43,49.91L455.6,51.16L460.78,50.68L465.96,49.33L471.13,48.85L476.31,49.81L481.49,48.85L486.67,49.81L491.84,51.64L497.02,50L502.2,49.42L507.38,51.16L512.55,50.1L522.91,47.98L528.09,48.94L533.26,50L538.44,49.42L543.62,48.46L548.79,49.04L559.15,50.1L564.33,49.13L569.5,49.81L574.68,49.33L579.86,49.81L585.04,48.56L590.21,50.48L595.39,48.46L616.1,48.85L621.28,48.36L626.45,49.33L631.63,46.82L641.99,49.81L647.16,49.71L652.34,50.1L657.52,49.04L662.7,48.94L667.87,47.98L673.05,48.94L678.23,48.36L683.4,47.98L688.58,49.91L698.94,49.62L704.11,48.56L709.29,49.91L714.47,49.52L719.65,48.17L724.82,48.65L730,48.85" style="vector-effect: non-scaling-stroke; fill: none; stroke: rgb(255, 127, 14); stroke-opacity: 1; stroke-width: 2px; opacity: 1;"/></g><g class="points"/><g class="text"/></g></g></g><g class="overplot"/><path class="xlines-above crisp" d="M0,0" style="fill: none;"/><path class="ylines-above crisp" d="M0,0" style="fill: none;"/><g class="overlines-above"/><g class="xaxislayer-above"><g class="xtick"><text text-anchor="middle" x="0" y="409" transform="translate(60,0)" style="font-family: 'Open Sans', verdana, arial, sans-serif; font-size: 12px; fill: rgb(68, 68, 68); fill-opacity: 1; white-space: pre;">0</text></g><g class="xtick"><text text-anchor="middle" x="0" y="409" transform="translate(163.55,0)" style="font-family: 'Open Sans', verdana, arial, sans-serif; font-size: 12px; fill: rgb(68, 68, 68); fill-opacity: 1; white-space: pre;">20</text></g><g class="xtick"><text text-anchor="middle" x="0" y="409" transform="translate(267.09000000000003,0)" style="font-family: 'Open Sans', verdana, arial, sans-serif; font-size: 12px; fill: rgb(68, 68, 68); fill-opacity: 1; white-space: pre;">40</text></g><g class="xtick"><text text-anchor="middle" x="0" y="409" transform="translate(370.64,0)" style="font-family: 'Open Sans', verdana, arial, sans-serif; font-size: 12px; fill: rgb(68, 68, 68); fill-opacity: 1; white-space: pre;">60</text></g><g class="xtick"><text text-anchor="middle" x="0" y="409" transform="translate(474.18,0)" style="font-family: 'Open Sans', verdana, arial, sans-serif; font-size: 12px; fill: rgb(68, 68, 68); fill-opacity: 1; white-space: pre;">80</text></g><g class="xtick"><text text-anchor="middle" x="0" y="409" transform="translate(577.73,0)" style="font-family: 'Open Sans', verdana, arial, sans-serif; font-size: 12px; fill: rgb(68, 68, 68); fill-opacity: 1; white-space: pre;">100</text></g><g class="xtick"><text text-anchor="middle" x="0" y="409" transform="translate(681.28,0)" style="font-family: 'Open Sans', verdana, arial, sans-serif; font-size: 12px; fill: rgb(68, 68, 68); fill-opacity: 1; white-space: pre;">120</text></g><g class="xtick"><text text-anchor="middle" x="0" y="409" transform="translate(784.82,0)" style="font-family: 'Open Sans', verdana, arial, sans-serif; font-size: 12px; fill: rgb(68, 68, 68); fill-opacity: 1; white-space: pre;">140</text></g></g><g class="yaxislayer-above"><g class="ytick"><text text-anchor="end" x="59" y="4.199999999999999" transform="translate(0,352.03)" style="font-family: 'Open Sans', verdana, arial, sans-serif; font-size: 12px; fill: rgb(68, 68, 68); fill-opacity: 1; white-space: pre;">0.4</text></g><g class="ytick"><text text-anchor="end" x="59" y="4.199999999999999" transform="translate(0,300)" style="font-family: 'Open Sans', verdana, arial, sans-serif; font-size: 12px; fill: rgb(68, 68, 68); fill-opacity: 1; white-space: pre;">0.5</text></g><g class="ytick"><text text-anchor="end" x="59" y="4.199999999999999" transform="translate(0,247.97)" style="font-family: 'Open Sans', verdana, arial, sans-serif; font-size: 12px; fill: rgb(68, 68, 68); fill-opacity: 1; white-space: pre;">0.6</text></g><g class="ytick"><text text-anchor="end" x="59" y="4.199999999999999" transform="translate(0,195.94)" style="font-family: 'Open Sans', verdana, arial, sans-serif; font-size: 12px; fill: rgb(68, 68, 68); fill-opacity: 1; white-space: pre;">0.7</text></g><g class="ytick"><text text-anchor="end" x="59" y="4.199999999999999" transform="translate(0,143.92000000000002)" style="font-family: 'Open Sans', verdana, arial, sans-serif; font-size: 12px; fill: rgb(68, 68, 68); fill-opacity: 1; white-space: pre;">0.8</text></g><g class="ytick"><text text-anchor="end" x="59" y="4.199999999999999" transform="translate(0,91.89)" style="font-family: 'Open Sans', verdana, arial, sans-serif; font-size: 12px; fill: rgb(68, 68, 68); fill-opacity: 1; white-space: pre;">0.9</text></g></g><g class="overaxes-above"/></g></g><g class="polarlayer"/><g class="ternarylayer"/><g class="geolayer"/><g class="funnelarealayer"/><g class="pielayer"/><g class="treemaplayer"/><g class="sunburstlayer"/><g class="glimages"/><defs id="topdefs-2a842d"><g class="clips"/><clipPath id="legend2a842d"><rect width="102" height="48" x="0" y="0"/></clipPath></defs><g class="layer-above"><g class="imagelayer"/><g class="shapelayer"/></g><g class="infolayer"><g class="legend" pointer-events="all" transform="translate(804.6,60)"><rect class="bg" shape-rendering="crispEdges" width="102" height="48" x="0" y="0" style="stroke: rgb(68, 68, 68); stroke-opacity: 1; fill: rgb(255, 255, 255); fill-opacity: 1; stroke-width: 0px;"/><g class="scrollbox" transform="" clip-path="url('#legend2a842d')"><g class="groups"><g class="traces" transform="translate(0,14.5)" style="opacity: 1;"><text class="legendtext" text-anchor="start" x="40" y="4.680000000000001" style="font-family: 'Open Sans', verdana, arial, sans-serif; font-size: 12px; fill: rgb(68, 68, 68); fill-opacity: 1; white-space: pre;">train_acc</text><g class="layers" style="opacity: 1;"><g class="legendfill"/><g class="legendlines"><path class="js-line" d="M5,0h30" style="fill: none; stroke: rgb(31, 119, 180); stroke-opacity: 1; stroke-width: 2px;"/></g><g class="legendsymbols"><g class="legendpoints"/></g></g><rect class="legendtoggle" x="0" y="-9.5" width="96.234375" height="19" style="fill: rgb(0, 0, 0); fill-opacity: 0;"/></g><g class="traces" transform="translate(0,33.5)" style="opacity: 1;"><text class="legendtext" text-anchor="start" x="40" y="4.680000000000001" style="font-family: 'Open Sans', verdana, arial, sans-serif; font-size: 12px; fill: rgb(68, 68, 68); fill-opacity: 1; white-space: pre;">valid_acc</text><g class="layers" style="opacity: 1;"><g class="legendfill"/><g class="legendlines"><path class="js-line" d="M5,0h30" style="fill: none; stroke: rgb(255, 127, 14); stroke-opacity: 1; stroke-width: 2px;"/></g><g class="legendsymbols"><g class="legendpoints"/></g></g><rect class="legendtoggle" x="0" y="-9.5" width="96.234375" height="19" style="fill: rgb(0, 0, 0); fill-opacity: 0;"/></g></g></g><rect class="scrollbar" rx="20" ry="3" width="0" height="0" x="0" y="0" style="fill: rgb(128, 139, 164); fill-opacity: 1;"/></g><g class="g-gtitle"><text class="gtitle" x="459.5" y="30" text-anchor="middle" dy="0em" style="font-family: 'Open Sans', verdana, arial, sans-serif; font-size: 17px; fill: rgb(68, 68, 68); opacity: 1; font-weight: normal; white-space: pre;">acc_modelB_18_1111</text></g><g class="g-xtitle"/><g class="g-ytitle"/></g></svg>