<svg class="main-svg" xmlns="http://www.w3.org/2000/svg" xmlns:xlink="http://www.w3.org/1999/xlink" width="907" height="441" style="" viewBox="0 0 907 441"><rect x="0" y="0" width="907" height="441" style="fill: rgb(255, 255, 255); fill-opacity: 1;"/><defs id="defs-2708bb"><g class="clips"><clipPath id="clip2708bbxyplot" class="plotclip"><rect width="719" height="321"/></clipPath><clipPath class="axesclip" id="clip2708bbx"><rect x="60" y="0" width="719" height="441"/></clipPath><clipPath class="axesclip" id="clip2708bby"><rect x="0" y="60" width="907" height="321"/></clipPath><clipPath class="axesclip" id="clip2708bbxy"><rect x="60" y="60" width="719" height="321"/></clipPath></g><g class="gradients"/></defs><g class="bglayer"/><g class="layer-below"><g class="imagelayer"/><g class="shapelayer"/></g><g class="cartesianlayer"><g class="subplot xy"><g class="layer-subplot"><g class="shapelayer"/><g class="imagelayer"/></g><g class="gridlayer"><g class="x"><path class="xgrid crisp" transform="translate(132.26,0)" d="M0,60v321" style="stroke: rgb(238, 238, 238); stroke-opacity: 1; stroke-width: 1px;"/><path class="xgrid crisp" transform="translate(204.52,0)" d="M0,60v321" style="stroke: rgb(238, 238, 238); stroke-opacity: 1; stroke-width: 1px;"/><path class="xgrid crisp" transform="translate(276.78,0)" d="M0,60v321" style="stroke: rgb(238, 238, 238); stroke-opacity: 1; stroke-width: 1px;"/><path class="xgrid crisp" transform="translate(349.05,0)" d="M0,60v321" style="stroke: rgb(238, 238, 238); stroke-opacity: 1; stroke-width: 1px;"/><path class="xgrid crisp" transform="translate(421.31,0)" d="M0,60v321" style="stroke: rgb(238, 238, 238); stroke-opacity: 1; stroke-width: 1px;"/><path class="xgrid crisp" transform="translate(493.57,0)" d="M0,60v321" style="stroke: rgb(238, 238, 238); stroke-opacity: 1; stroke-width: 1px;"/><path class="xgrid crisp" transform="translate(565.8299999999999,0)" d="M0,60v321" style="stroke: rgb(238, 238, 238); stroke-opacity: 1; stroke-width: 1px;"/><path class="xgrid crisp" transform="translate(638.09,0)" d="M0,60v321" style="stroke: rgb(238, 238, 238); stroke-opacity: 1; stroke-width: 1px;"/><path class="xgrid crisp" transform="translate(710.35,0)" d="M0,60v321" style="stroke: rgb(238, 238, 238); stroke-opacity: 1; stroke-width: 1px;"/></g><g class="y"><path class="ygrid crisp" transform="translate(0,356.55)" d="M60,0h719" style="stroke: rgb(238, 238, 238); stroke-opacity: 1; stroke-width: 1px;"/><path class="ygrid crisp" transform="translate(0,304.02)" d="M60,0h719" style="stroke: rgb(238, 238, 238); stroke-opacity: 1; stroke-width: 1px;"/><path class="ygrid crisp" transform="translate(0,251.49)" d="M60,0h719" style="stroke: rgb(238, 238, 238); stroke-opacity: 1; stroke-width: 1px;"/><path class="ygrid crisp" transform="translate(0,198.96)" d="M60,0h719" style="stroke: rgb(238, 238, 238); stroke-opacity: 1; stroke-width: 1px;"/><path class="ygrid crisp" transform="translate(0,146.44)" d="M60,0h719" style="stroke: rgb(238, 238, 238); stroke-opacity: 1; stroke-width: 1px;"/><path class="ygrid crisp" transform="translate(0,93.91)" d="M60,0h719" style="stroke: rgb(238, 238, 238); stroke-opacity: 1; stroke-width: 1px;"/></g></g><g class="zerolinelayer"><path class="xzl zl crisp" transform="translate(60,0)" d="M0,60v321" style="stroke: rgb(68, 68, 68); stroke-opacity: 1; stroke-width: 1px;"/></g><path class="xlines-below"/><path class="ylines-below"/><g class="overlines-below"/><g class="xaxislayer-below"/><g class="yaxislayer-below"/><g class="overaxes-below"/><g class="plot" transform="translate(60,60)" clip-path="url('#clip2708bbxyplot')"><g class="scatterlayer mlayer"><g class="trace scatter tracee54156" style="stroke-miterlimit: 2; opacity: 1;"><g class="fills"/><g class="errorbars"/><g class="lines"><path class="js-line" d="M0,304.95L3.61,265.03L7.23,244.54L10.84,239.29L14.45,220.38L21.68,214.6L25.29,220.91L28.9,202.52L32.52,208.3L36.13,192.54L39.74,193.07L43.36,190.97L46.97,170.48L50.58,167.85L54.2,179.41L57.81,171.01L61.42,174.68L65.04,168.9L68.65,156.82L75.87,137.39L79.49,130.56L83.1,154.2L86.71,136.86L90.33,132.14L93.94,123.21L97.55,126.88L101.17,128.98L108.39,120.58L112.01,118.48L115.62,107.45L119.23,119L122.84,106.4L126.46,99.57L130.07,105.87L133.68,99.04L137.3,103.77L140.91,111.65L148.14,79.61L151.75,80.13L155.36,73.3L158.97,62.8L162.59,51.24L166.2,67L169.81,71.73L173.43,61.22L177.04,63.32L180.65,64.38L184.27,57.55L187.88,55.45L191.49,60.17L195.11,67L198.72,69.1L202.33,53.87L205.94,59.12L209.56,49.67L213.17,57.55L216.78,60.7L220.4,40.74L224.01,56.5L227.62,58.6L231.24,49.14L234.85,55.45L238.46,55.97L242.08,57.55L245.69,44.94L249.3,56.5L252.91,40.74L256.53,45.47L260.14,47.57L263.75,52.29L267.37,44.94L270.98,44.94L274.59,50.72L278.21,41.79L281.82,30.76L285.43,35.49L289.05,27.61L296.27,37.59L299.88,40.21L303.5,31.28L307.11,39.16L310.72,34.96L314.34,24.98L317.95,31.28L321.56,24.45L325.18,24.98L328.79,33.91L332.4,36.01L336.02,32.86L339.63,34.96L343.24,30.23L346.85,24.98L350.47,18.15L354.08,30.76L357.69,32.86L361.31,28.66L364.92,33.91L368.53,27.08L372.15,29.71L379.37,31.28L382.98,22.88L386.6,33.38L390.21,33.91L393.82,23.93L397.44,24.98L401.05,30.76L404.66,24.98L408.28,26.56L411.89,40.74L415.5,31.28L419.12,19.2L422.73,19.2L426.34,27.61L429.95,20.78L433.57,23.4L437.18,34.96L440.79,27.08L444.41,36.01L448.02,28.66L451.63,27.08L455.25,30.76L458.86,31.28L462.47,33.38L466.09,26.03L469.7,28.66L473.31,22.35L476.92,33.91L484.15,26.56L487.76,26.56L491.38,26.56L494.99,29.71L498.6,22.88L502.22,26.03L505.83,24.45L509.44,29.71L513.06,26.56L516.67,30.23L520.28,18.15L523.89,28.66L527.51,31.81L531.12,28.13L534.73,27.61L538.35,36.54L541.96,20.78L545.57,24.45L549.19,30.23L552.8,32.33L556.41,31.28L560.03,24.45L563.64,16.05L567.25,34.96L574.48,22.35L578.09,24.45L581.7,23.4L585.32,28.13L592.54,27.61L596.16,22.35L599.77,30.23L603.38,23.93L606.99,25.5L610.61,19.73L614.22,27.08L617.83,29.18L621.45,30.76L625.06,25.5L628.67,31.28L632.29,19.73L639.51,27.08L643.13,22.35L650.35,27.08L653.96,24.98L657.58,19.2L661.19,28.66L664.8,23.4L668.42,26.03L672.03,17.63L675.64,33.38L679.26,30.76L682.87,23.4L686.48,32.86L690.1,28.13L693.71,23.93L697.32,30.23L700.93,24.98L704.55,32.33L708.16,24.45L711.77,28.13L715.39,28.13L719,25.5" style="vector-effect: non-scaling-stroke; fill: none; stroke: rgb(31, 119, 180); stroke-opacity: 1; stroke-width: 2px; opacity: 1;"/></g><g class="points"/><g class="text"/></g><g class="trace scatter trace170824" style="stroke-miterlimit: 2; opacity: 1;"><g class="fills"/><g class="errorbars"/><g class="lines"><path class="js-line" d="M0,293.43L3.61,257.05L7.23,272.03L10.84,210.17L14.45,245.09L18.07,220.09L21.68,270.48L25.29,217.37L28.9,224.27L32.52,211.92L36.13,241.29L39.74,289.25L43.36,217.75L46.97,138.19L50.58,248.98L54.2,250.44L57.81,149.76L61.42,174.57L65.04,153.55L68.65,161.43L72.26,184.68L75.87,141.2L79.49,171.06L83.1,131.86L86.71,194.41L90.33,123.3L93.94,125.64L97.55,144.8L101.17,169.99L104.78,133.71L108.39,142.47L112.01,149.66L115.62,143.63L119.23,111.24L122.84,107.93L126.46,173.01L130.07,117.37L133.68,97.33L137.3,125.54L140.91,103.17L144.52,74.76L148.14,68.83L151.75,72.62L155.36,71.46L158.97,68.54L162.59,67.95L166.2,66.11L169.81,75.35L173.43,68.25L180.65,62.8L184.27,64.55L187.88,60.66L191.49,61.73L195.11,64.55L198.72,60.66L202.33,70.19L205.94,63.09L209.56,61.44L213.17,61.83L216.78,63.29L220.4,62.31L224.01,61.92L227.62,59.88L231.24,59.59L234.85,61.05L238.46,64.94L242.08,61.24L245.69,61.63L249.3,55.41L256.53,60.08L260.14,55.89L263.75,57.74L267.37,55.02L274.59,59.1L278.21,56.28L281.82,65.81L285.43,59.2L289.05,55.31L292.66,53.95L296.27,55.11L299.88,52.78L303.5,54.14L307.11,54.04L321.56,54.82L325.18,54.34L328.79,54.34L332.4,52.97L339.63,54.24L343.24,52.97L346.85,55.6L350.47,53.27L354.08,54.24L357.69,53.17L361.31,54.63L364.92,54.04L368.53,54.92L372.15,54.04L382.98,54.63L386.6,55.89L390.21,53.95L393.82,53.56L397.44,53.95L401.05,52.2L404.66,51.52L408.28,52.39L411.89,52L415.5,52.49L422.73,53.56L426.34,51.71L429.95,51.71L433.57,53.07L437.18,52.88L440.79,53.46L444.41,51.61L448.02,52.39L451.63,51.13L455.25,53.56L458.86,53.36L462.47,54.73L466.09,51.9L469.7,52.88L473.31,53.36L476.92,54.63L480.54,51.52L484.15,52.1L487.76,53.66L491.38,52.88L494.99,52L498.6,55.31L505.83,52L509.44,53.36L513.06,54.14L516.67,52.2L520.28,51.61L523.89,51.9L527.51,51.22L531.12,52.29L534.73,52L538.35,52.78L545.57,54.34L549.19,54.04L552.8,51.61L556.41,54.63L560.03,52.97L563.64,53.46L578.09,52.68L581.7,53.66L588.93,53.66L592.54,53.56L603.38,53.75L606.99,52.2L610.61,51.61L614.22,52.49L621.45,54.34L625.06,52.78L628.67,52.1L632.29,52.29L635.9,53.27L639.51,52.88L643.13,54.43L646.74,53.07L650.35,54.53L653.96,52.78L668.42,52.59L672.03,52.78L675.64,53.75L679.26,53.07L682.87,53.75L686.48,53.66L690.1,52.1L693.71,52.88L697.32,53.66L700.93,52.97L704.55,52.2L708.16,54.24L711.77,52.1L715.39,53.95L719,54.82" style="vector-effect: non-scaling-stroke; fill: none; stroke: rgb(255, 127, 14); stroke-opacity: 1; stroke-width: 2px; opacity: 1;"/></g><g class="points"/><g class="text"/></g></g></g><g class="overplot"/><path class="xlines-above crisp" d="M0,0" style="fill: none;"/><path class="ylines-above crisp" d="M0,0" style="fill: none;"/><g class="overlines-above"/><g class="xaxislayer-above"><g class="xtick"><text text-anchor="middle" x="0" y="394" transform="translate(60,0)" style="font-family: 'Open Sans', verdana, arial, sans-serif; font-size: 12px; fill: rgb(68, 68, 68); fill-opacity: 1; white-space: pre;">0</text></g><g class="xtick"><text text-anchor="middle" x="0" y="394" transform="translate(132.26,0)" style="font-family: 'Open Sans', verdana, arial, sans-serif; font-size: 12px; fill: rgb(68, 68, 68); fill-opacity: 1; white-space: pre;">20</text></g><g class="xtick"><text text-anchor="middle" x="0" y="394" transform="translate(204.52,0)" style="font-family: 'Open Sans', verdana, arial, sans-serif; font-size: 12px; fill: rgb(68, 68, 68); fill-opacity: 1; white-space: pre;">40</text></g><g class="xtick"><text text-anchor="middle" x="0" y="394" transform="translate(276.78,0)" style="font-family: 'Open Sans', verdana, arial, sans-serif; font-size: 12px; fill: rgb(68, 68, 68); fill-opacity: 1; white-space: pre;">60</text></g><g class="xtick"><text text-anchor="middle" x="0" y="394" transform="translate(349.05,0)" style="font-family: 'Open Sans', verdana, arial, sans-serif; font-size: 12px; fill: rgb(68, 68, 68); fill-opacity: 1; white-space: pre;">80</text></g><g class="xtick"><text text-anchor="middle" x="0" y="394" transform="translate(421.31,0)" style="font-family: 'Open Sans', verdana, arial, sans-serif; font-size: 12px; fill: rgb(68, 68, 68); fill-opacity: 1; white-space: pre;">100</text></g><g class="xtick"><text text-anchor="middle" x="0" y="394" transform="translate(493.57,0)" style="font-family: 'Open Sans', verdana, arial, sans-serif; font-size: 12px; fill: rgb(68, 68, 68); fill-opacity: 1; white-space: pre;">120</text></g><g class="xtick"><text text-anchor="middle" x="0" y="394" transform="translate(565.8299999999999,0)" style="font-family: 'Open Sans', verdana, arial, sans-serif; font-size: 12px; fill: rgb(68, 68, 68); fill-opacity: 1; white-space: pre;">140</text></g><g class="xtick"><text text-anchor="middle" x="0" y="394" transform="translate(638.09,0)" style="font-family: 'Open Sans', verdana, arial, sans-serif; font-size: 12px; fill: rgb(68, 68, 68); fill-opacity: 1; white-space: pre;">160</text></g><g class="xtick"><text text-anchor="middle" x="0" y="394" transform="translate(710.35,0)" style="font-family: 'Open Sans', verdana, arial, sans-serif; font-size: 12px; fill: rgb(68, 68, 68); fill-opacity: 1; white-space: pre;">180</text></g></g><g class="yaxislayer-above"><g class="ytick"><text text-anchor="end" x="59" y="4.199999999999999" transform="translate(0,356.55)" style="font-family: 'Open Sans', verdana, arial, sans-serif; font-size: 12px; fill: rgb(68, 68, 68); fill-opacity: 1; white-space: pre;">0.4</text></g><g class="ytick"><text text-anchor="end" x="59" y="4.199999999999999" transform="translate(0,304.02)" style="font-family: 'Open Sans', verdana, arial, sans-serif; font-size: 12px; fill: rgb(68, 68, 68); fill-opacity: 1; white-space: pre;">0.5</text></g><g class="ytick"><text text-anchor="end" x="59" y="4.199999999999999" transform="translate(0,251.49)" style="font-family: 'Open Sans', verdana, arial, sans-serif; font-size: 12px; fill: rgb(68, 68, 68); fill-opacity: 1; white-space: pre;">0.6</text></g><g class="ytick"><text text-anchor="end" x="59" y="4.199999999999999" transform="translate(0,198.96)" style="font-family: 'Open Sans', verdana, arial, sans-serif; font-size: 12px; fill: rgb(68, 68, 68); fill-opacity: 1; white-space: pre;">0.7</text></g><g class="ytick"><text text-anchor="end" x="59" y="4.199999999999999" transform="translate(0,146.44)" style="font-family: 'Open Sans', verdana, arial, sans-serif; font-size: 12px; fill: rgb(68, 68, 68); fill-opacity: 1; white-space: pre;">0.8</text></g><g class="ytick"><text text-anchor="end" x="59" y="4.199999999999999" transform="translate(0,93.91)" style="font-family: 'Open Sans', verdana, arial, sans-serif; font-size: 12px; fill: rgb(68, 68, 68); fill-opacity: 1; white-space: pre;">0.9</text></g></g><g class="overaxes-above"/></g></g><g class="polarlayer"/><g class="ternarylayer"/><g class="geolayer"/><g class="funnelarealayer"/><g class="pielayer"/><g class="treemaplayer"/><g class="sunburstlayer"/><g class="glimages"/><defs id="topdefs-2708bb"><g class="clips"/><clipPath id="legend2708bb"><rect width="102" height="48" x="0" y="0"/></clipPath></defs><g class="layer-above"><g class="imagelayer"/><g class="shapelayer"/></g><g class="infolayer"><g class="legend" pointer-events="all" transform="translate(793.38,60)"><rect class="bg" shape-rendering="crispEdges" width="102" height="48" x="0" y="0" style="stroke: rgb(68, 68, 68); stroke-opacity: 1; fill: rgb(255, 255, 255); fill-opacity: 1; stroke-width: 0px;"/><g class="scrollbox" transform="" clip-path="url('#legend2708bb')"><g class="groups"><g class="traces" transform="translate(0,14.5)" style="opacity: 1;"><text class="legendtext" text-anchor="start" x="40" y="4.680000000000001" style="font-family: 'Open Sans', verdana, arial, sans-serif; font-size: 12px; fill: rgb(68, 68, 68); fill-opacity: 1; white-space: pre;">train_acc</text><g class="layers" style="opacity: 1;"><g class="legendfill"/><g class="legendlines"><path class="js-line" d="M5,0h30" style="fill: none; stroke: rgb(31, 119, 180); stroke-opacity: 1; stroke-width: 2px;"/></g><g class="legendsymbols"><g class="legendpoints"/></g></g><rect class="legendtoggle" x="0" y="-9.5" width="96.234375" height="19" style="fill: rgb(0, 0, 0); fill-opacity: 0;"/></g><g class="traces" transform="translate(0,33.5)" style="opacity: 1;"><text class="legendtext" text-anchor="start" x="40" y="4.680000000000001" style="font-family: 'Open Sans', verdana, arial, sans-serif; font-size: 12px; fill: rgb(68, 68, 68); fill-opacity: 1; white-space: pre;">valid_acc</text><g class="layers" style="opacity: 1;"><g class="legendfill"/><g class="legendlines"><path class="js-line" d="M5,0h30" style="fill: none; stroke: rgb(255, 127, 14); stroke-opacity: 1; stroke-width: 2px;"/></g><g class="legendsymbols"><g class="legendpoints"/></g></g><rect class="legendtoggle" x="0" y="-9.5" width="96.234375" height="19" style="fill: rgb(0, 0, 0); fill-opacity: 0;"/></g></g></g><rect class="scrollbar" rx="20" ry="3" width="0" height="0" x="0" y="0" style="fill: rgb(128, 139, 164); fill-opacity: 1;"/></g><g class="g-gtitle"><text class="gtitle" x="453.5" y="30" text-anchor="middle" dy="0em" style="font-family: 'Open Sans', verdana, arial, sans-serif; font-size: 17px; fill: rgb(68, 68, 68); opacity: 1; font-weight: normal; white-space: pre;">acc_modelB_RandomVerticalFlip</text></g><g class="g-xtitle"/><g class="g-ytitle"/></g></svg>