<svg class="main-svg" xmlns="http://www.w3.org/2000/svg" xmlns:xlink="http://www.w3.org/1999/xlink" width="1021" height="501" style="" viewBox="0 0 1021 501"><rect x="0" y="0" width="1021" height="501" style="fill: rgb(255, 255, 255); fill-opacity: 1;"/><defs id="defs-139845"><g class="clips"><clipPath id="clip139845xyplot" class="plotclip"><rect width="830" height="381"/></clipPath><clipPath class="axesclip" id="clip139845x"><rect x="60" y="0" width="830" height="501"/></clipPath><clipPath class="axesclip" id="clip139845y"><rect x="0" y="60" width="1021" height="381"/></clipPath><clipPath class="axesclip" id="clip139845xy"><rect x="60" y="60" width="830" height="381"/></clipPath></g><g class="gradients"/></defs><g class="bglayer"/><g class="layer-below"><g class="imagelayer"/><g class="shapelayer"/></g><g class="cartesianlayer"><g class="subplot xy"><g class="layer-subplot"><g class="shapelayer"/><g class="imagelayer"/></g><g class="gridlayer"><g class="x"><path class="xgrid crisp" transform="translate(143.42000000000002,0)" d="M0,60v381" style="stroke: rgb(238, 238, 238); stroke-opacity: 1; stroke-width: 1px;"/><path class="xgrid crisp" transform="translate(226.83,0)" d="M0,60v381" style="stroke: rgb(238, 238, 238); stroke-opacity: 1; stroke-width: 1px;"/><path class="xgrid crisp" transform="translate(310.25,0)" d="M0,60v381" style="stroke: rgb(238, 238, 238); stroke-opacity: 1; stroke-width: 1px;"/><path class="xgrid crisp" transform="translate(393.67,0)" d="M0,60v381" style="stroke: rgb(238, 238, 238); stroke-opacity: 1; stroke-width: 1px;"/><path class="xgrid crisp" transform="translate(477.09,0)" d="M0,60v381" style="stroke: rgb(238, 238, 238); stroke-opacity: 1; stroke-width: 1px;"/><path class="xgrid crisp" transform="translate(560.5,0)" d="M0,60v381" style="stroke: rgb(238, 238, 238); stroke-opacity: 1; stroke-width: 1px;"/><path class="xgrid crisp" transform="translate(643.92,0)" d="M0,60v381" style="stroke: rgb(238, 238, 238); stroke-opacity: 1; stroke-width: 1px;"/><path class="xgrid crisp" transform="translate(727.34,0)" d="M0,60v381" style="stroke: rgb(238, 238, 238); stroke-opacity: 1; stroke-width: 1px;"/><path class="xgrid crisp" transform="translate(810.75,0)" d="M0,60v381" style="stroke: rgb(238, 238, 238); stroke-opacity: 1; stroke-width: 1px;"/></g><g class="y"><path class="ygrid crisp" transform="translate(0,404.92)" d="M60,0h830" style="stroke: rgb(238, 238, 238); stroke-opacity: 1; stroke-width: 1px;"/><path class="ygrid crisp" transform="translate(0,351.15)" d="M60,0h830" style="stroke: rgb(238, 238, 238); stroke-opacity: 1; stroke-width: 1px;"/><path class="ygrid crisp" transform="translate(0,297.37)" d="M60,0h830" style="stroke: rgb(238, 238, 238); stroke-opacity: 1; stroke-width: 1px;"/><path class="ygrid crisp" transform="translate(0,243.6)" d="M60,0h830" style="stroke: rgb(238, 238, 238); stroke-opacity: 1; stroke-width: 1px;"/><path class="ygrid crisp" transform="translate(0,189.82)" d="M60,0h830" style="stroke: rgb(238, 238, 238); stroke-opacity: 1; stroke-width: 1px;"/><path class="ygrid crisp" transform="translate(0,136.05)" d="M60,0h830" style="stroke: rgb(238, 238, 238); stroke-opacity: 1; stroke-width: 1px;"/><path class="ygrid crisp" transform="translate(0,82.28)" d="M60,0h830" style="stroke: rgb(238, 238, 238); stroke-opacity: 1; stroke-width: 1px;"/></g></g><g class="zerolinelayer"><path class="xzl zl crisp" transform="translate(60,0)" d="M0,60v381" style="stroke: rgb(68, 68, 68); stroke-opacity: 1; stroke-width: 1px;"/></g><path class="xlines-below"/><path class="ylines-below"/><g class="overlines-below"/><g class="xaxislayer-below"/><g class="yaxislayer-below"/><g class="overaxes-below"/><g class="plot" transform="translate(60,60)" clip-path="url('#clip139845xyplot')"><g class="scatterlayer mlayer"><g class="trace scatter trace3c9ad0" style="stroke-miterlimit: 2; opacity: 1;"><g class="fills"/><g class="errorbars"/><g class="lines"><path class="js-line" d="M0,312.66L4.17,266.41L8.34,229.84L12.51,259.96L16.68,232L20.85,216.94L25.03,206.72L29.2,205.11L33.37,205.65L37.54,204.57L41.71,198.12L45.88,195.43L50.05,190.05L54.22,177.15L58.39,176.07L62.56,159.94L66.73,159.4L70.9,161.01L75.08,159.4L83.42,146.49L87.59,151.33L91.76,147.57L95.93,141.12L100.1,157.25L104.27,131.44L108.44,126.6L112.61,149.18L116.78,147.03L120.95,129.29L125.13,116.38L129.3,110.47L133.47,114.77L137.64,111L141.81,120.68L145.98,108.32L150.15,110.47L154.32,104.55L158.49,107.78L162.66,94.87L166.83,86.81L171.01,67.98L175.18,64.22L179.35,67.45L183.52,57.77L187.69,76.59L191.86,67.98L196.03,64.22L204.37,55.62L208.54,57.23L212.71,64.76L216.88,63.14L221.06,56.15L225.23,60.99L229.4,50.24L233.57,58.84L237.74,44.32L241.91,51.85L246.08,62.61L250.25,49.7L254.42,57.77L258.59,60.99L262.76,54.54L266.93,55.62L271.11,49.7L275.28,48.09L279.45,58.84L283.62,49.16L287.79,44.86L291.96,58.84L296.13,45.94L300.3,49.7L304.47,49.16L308.64,41.1L312.81,54.54L316.98,37.33L321.16,52.39L325.33,44.32L329.5,36.26L333.67,42.71L337.84,28.73L342.01,34.64L346.18,38.95L350.35,33.57L354.52,31.96L358.69,36.26L362.86,24.43L367.04,35.72L371.21,37.33L375.38,35.72L379.55,32.49L383.72,34.11L392.06,36.8L396.23,34.11L404.57,27.65L408.74,39.48L412.91,27.65L417.09,25.5L421.26,36.8L425.43,30.88L429.6,35.18L433.77,29.27L437.94,37.33L442.11,30.88L446.28,26.04L450.45,34.11L454.62,27.12L458.79,38.41L462.96,41.1L467.14,37.33L471.31,31.96L475.48,24.97L479.65,24.97L483.82,20.66L487.99,22.28L492.16,34.11L496.33,28.19L500.5,28.73L504.67,36.26L508.84,23.89L513.02,28.19L517.19,23.35L521.36,28.19L525.53,28.73L533.87,35.18L538.04,25.5L542.21,26.04L546.38,36.26L550.55,31.96L554.72,35.72L558.89,38.41L563.07,30.34L567.24,30.88L571.41,23.35L575.58,28.19L579.75,24.43L583.92,40.56L588.09,31.96L592.26,27.12L596.43,33.57L600.6,42.17L604.77,36.26L608.94,27.65L613.12,35.18L617.29,28.19L621.46,34.11L625.63,24.97L629.8,35.18L633.97,27.12L638.14,22.81L642.31,29.27L646.48,19.05L650.65,30.88L654.82,31.96L658.99,26.04L663.17,32.49L671.51,27.65L675.68,26.58L679.85,23.89L684.02,23.89L688.19,29.8L692.36,29.27L696.53,30.34L700.7,36.8L704.87,28.19L709.05,31.96L713.22,24.43L717.39,22.28L721.56,33.03L725.73,36.26L729.9,29.27L734.07,38.95L742.41,21.2L746.58,27.12L750.75,26.58L754.92,35.72L759.1,24.43L763.27,33.03L767.44,21.2L771.61,30.88L775.78,22.81L779.95,24.97L784.12,30.88L788.29,32.49L792.46,25.5L796.63,30.34L800.8,34.11L804.97,29.8L809.15,26.58L813.32,24.97L817.49,39.48L821.66,26.04L825.83,34.64L830,27.65" style="vector-effect: non-scaling-stroke; fill: none; stroke: rgb(31, 119, 180); stroke-opacity: 1; stroke-width: 2px; opacity: 1;"/></g><g class="points"/><g class="text"/></g><g class="trace scatter trace531847" style="stroke-miterlimit: 2; opacity: 1;"><g class="fills"/><g class="errorbars"/><g class="lines"><path class="js-line" d="M0,361.95L4.17,232L8.34,239.07L12.51,229.01L16.68,251.81L20.85,229.01L25.03,194.95L29.2,208.69L33.37,271.43L37.54,172.74L41.71,302.9L45.88,174.24L50.05,184.59L54.22,188.38L58.39,163.78L62.56,143.87L66.73,152.43L70.9,172.94L75.08,157.61L79.25,166.67L83.42,159.2L91.76,186.49L95.93,151.04L100.1,122.95L104.27,117.68L108.44,132.31L112.61,183.9L116.78,204.81L120.95,107.32L125.13,150.74L129.3,95.77L133.47,95.87L137.64,118.57L141.81,100.85L145.98,119.67L150.15,86.01L154.32,102.84L158.49,132.71L162.66,108.12L166.83,74.66L171.01,73.46L175.18,69.98L179.35,65.1L183.52,66.89L187.69,63.7L191.86,60.02L196.03,62.51L200.2,58.23L204.37,62.91L208.54,54.84L212.71,55.04L216.88,60.72L221.06,59.02L225.23,56.03L229.4,54.84L233.57,58.42L237.74,54.94L241.91,57.33L246.08,51.85L250.25,52.45L254.42,54.14L258.59,56.83L262.76,65.4L266.93,57.43L271.11,55.74L275.28,53.64L279.45,58.23L283.62,52.75L287.79,56.13L296.13,51.95L300.3,48.27L308.64,53.55L312.81,52.75L316.98,48.86L321.16,52.35L325.33,50.46L329.5,50.96L333.67,49.36L337.84,49.76L342.01,47.27L346.18,49.76L350.35,45.58L354.52,47.87L358.69,47.07L362.86,48.57L367.04,46.28L371.21,48.47L375.38,47.77L379.55,50.16L383.72,47.17L387.89,47.37L396.23,48.07L400.4,45.98L404.57,46.77L408.74,45.98L412.91,46.38L417.09,45.08L425.43,47.67L429.6,44.68L437.94,46.38L442.11,44.68L450.45,43.39L454.62,43.89L458.79,47.87L462.96,46.18L471.31,43.69L475.48,48.77L479.65,47.87L483.82,44.78L492.16,47.47L496.33,46.87L500.5,46.97L504.67,45.48L513.02,44.38L517.19,45.38L525.53,46.77L529.7,45.38L538.04,44.68L542.21,44.88L554.72,45.48L558.89,45.18L563.07,44.98L567.24,45.78L571.41,46.38L575.58,45.38L583.92,44.98L588.09,45.28L592.26,44.48L596.43,45.18L600.6,45.38L604.77,46.97L613.12,43.69L617.29,45.28L621.46,44.28L625.63,45.18L638.14,45.88L642.31,46.47L646.48,44.98L650.65,47.07L658.99,45.38L663.17,46.97L667.34,44.48L671.51,45.38L679.85,45.28L684.02,44.58L692.36,45.48L696.53,44.38L704.87,46.57L709.05,45.58L717.39,45.28L721.56,45.08L725.73,47.27L729.9,45.38L734.07,45.28L738.24,43.89L742.41,45.78L746.58,46.18L750.75,44.78L754.92,44.48L759.1,46.77L763.27,44.08L771.61,47.17L775.78,45.08L779.95,46.67L784.12,45.98L788.29,45.18L792.46,45.18L796.63,45.48L800.8,46.57L809.15,47.67L813.32,45.98L821.66,44.88L825.83,45.88L830,46.18" style="vector-effect: non-scaling-stroke; fill: none; stroke: rgb(255, 127, 14); stroke-opacity: 1; stroke-width: 2px; opacity: 1;"/></g><g class="points"/><g class="text"/></g></g></g><g class="overplot"/><path class="xlines-above crisp" d="M0,0" style="fill: none;"/><path class="ylines-above crisp" d="M0,0" style="fill: none;"/><g class="overlines-above"/><g class="xaxislayer-above"><g class="xtick"><text text-anchor="middle" x="0" y="454" transform="translate(60,0)" style="font-family: 'Open Sans', verdana, arial, sans-serif; font-size: 12px; fill: rgb(68, 68, 68); fill-opacity: 1; white-space: pre;">0</text></g><g class="xtick"><text text-anchor="middle" x="0" y="454" transform="translate(143.42000000000002,0)" style="font-family: 'Open Sans', verdana, arial, sans-serif; font-size: 12px; fill: rgb(68, 68, 68); fill-opacity: 1; white-space: pre;">20</text></g><g class="xtick"><text text-anchor="middle" x="0" y="454" transform="translate(226.83,0)" style="font-family: 'Open Sans', verdana, arial, sans-serif; font-size: 12px; fill: rgb(68, 68, 68); fill-opacity: 1; white-space: pre;">40</text></g><g class="xtick"><text text-anchor="middle" x="0" y="454" transform="translate(310.25,0)" style="font-family: 'Open Sans', verdana, arial, sans-serif; font-size: 12px; fill: rgb(68, 68, 68); fill-opacity: 1; white-space: pre;">60</text></g><g class="xtick"><text text-anchor="middle" x="0" y="454" transform="translate(393.67,0)" style="font-family: 'Open Sans', verdana, arial, sans-serif; font-size: 12px; fill: rgb(68, 68, 68); fill-opacity: 1; white-space: pre;">80</text></g><g class="xtick"><text text-anchor="middle" x="0" y="454" transform="translate(477.09,0)" style="font-family: 'Open Sans', verdana, arial, sans-serif; font-size: 12px; fill: rgb(68, 68, 68); fill-opacity: 1; white-space: pre;">100</text></g><g class="xtick"><text text-anchor="middle" x="0" y="454" transform="translate(560.5,0)" style="font-family: 'Open Sans', verdana, arial, sans-serif; font-size: 12px; fill: rgb(68, 68, 68); fill-opacity: 1; white-space: pre;">120</text></g><g class="xtick"><text text-anchor="middle" x="0" y="454" transform="translate(643.92,0)" style="font-family: 'Open Sans', verdana, arial, sans-serif; font-size: 12px; fill: rgb(68, 68, 68); fill-opacity: 1; white-space: pre;">140</text></g><g class="xtick"><text text-anchor="middle" x="0" y="454" transform="translate(727.34,0)" style="font-family: 'Open Sans', verdana, arial, sans-serif; font-size: 12px; fill: rgb(68, 68, 68); fill-opacity: 1; white-space: pre;">160</text></g><g class="xtick"><text text-anchor="middle" x="0" y="454" transform="translate(810.75,0)" style="font-family: 'Open Sans', verdana, arial, sans-serif; font-size: 12px; fill: rgb(68, 68, 68); fill-opacity: 1; white-space: pre;">180</text></g></g><g class="yaxislayer-above"><g class="ytick"><text text-anchor="end" x="59" y="4.199999999999999" transform="translate(0,404.92)" style="font-family: 'Open Sans', verdana, arial, sans-serif; font-size: 12px; fill: rgb(68, 68, 68); fill-opacity: 1; white-space: pre;">0.3</text></g><g class="ytick"><text text-anchor="end" x="59" y="4.199999999999999" transform="translate(0,351.15)" style="font-family: 'Open Sans', verdana, arial, sans-serif; font-size: 12px; fill: rgb(68, 68, 68); fill-opacity: 1; white-space: pre;">0.4</text></g><g class="ytick"><text text-anchor="end" x="59" y="4.199999999999999" transform="translate(0,297.37)" style="font-family: 'Open Sans', verdana, arial, sans-serif; font-size: 12px; fill: rgb(68, 68, 68); fill-opacity: 1; white-space: pre;">0.5</text></g><g class="ytick"><text text-anchor="end" x="59" y="4.199999999999999" transform="translate(0,243.6)" style="font-family: 'Open Sans', verdana, arial, sans-serif; font-size: 12px; fill: rgb(68, 68, 68); fill-opacity: 1; white-space: pre;">0.6</text></g><g class="ytick"><text text-anchor="end" x="59" y="4.199999999999999" transform="translate(0,189.82)" style="font-family: 'Open Sans', verdana, arial, sans-serif; font-size: 12px; fill: rgb(68, 68, 68); fill-opacity: 1; white-space: pre;">0.7</text></g><g class="ytick"><text text-anchor="end" x="59" y="4.199999999999999" transform="translate(0,136.05)" style="font-family: 'Open Sans', verdana, arial, sans-serif; font-size: 12px; fill: rgb(68, 68, 68); fill-opacity: 1; white-space: pre;">0.8</text></g><g class="ytick"><text text-anchor="end" x="59" y="4.199999999999999" transform="translate(0,82.28)" style="font-family: 'Open Sans', verdana, arial, sans-serif; font-size: 12px; fill: rgb(68, 68, 68); fill-opacity: 1; white-space: pre;">0.9</text></g></g><g class="overaxes-above"/></g></g><g class="polarlayer"/><g class="ternarylayer"/><g class="geolayer"/><g class="funnelarealayer"/><g class="pielayer"/><g class="treemaplayer"/><g class="sunburstlayer"/><g class="glimages"/><defs id="topdefs-139845"><g class="clips"/><clipPath id="legend139845"><rect width="102" height="48" x="0" y="0"/></clipPath></defs><g class="layer-above"><g class="imagelayer"/><g class="shapelayer"/></g><g class="infolayer"><g class="legend" pointer-events="all" transform="translate(906.6,60)"><rect class="bg" shape-rendering="crispEdges" width="102" height="48" x="0" y="0" style="stroke: rgb(68, 68, 68); stroke-opacity: 1; fill: rgb(255, 255, 255); fill-opacity: 1; stroke-width: 0px;"/><g class="scrollbox" transform="" clip-path="url('#legend139845')"><g class="groups"><g class="traces" transform="translate(0,14.5)" style="opacity: 1;"><text class="legendtext" text-anchor="start" x="40" y="4.680000000000001" style="font-family: 'Open Sans', verdana, arial, sans-serif; font-size: 12px; fill: rgb(68, 68, 68); fill-opacity: 1; white-space: pre;">train_acc</text><g class="layers" style="opacity: 1;"><g class="legendfill"/><g class="legendlines"><path class="js-line" d="M5,0h30" style="fill: none; stroke: rgb(31, 119, 180); stroke-opacity: 1; stroke-width: 2px;"/></g><g class="legendsymbols"><g class="legendpoints"/></g></g><rect class="legendtoggle" x="0" y="-9.5" width="96.234375" height="19" style="fill: rgb(0, 0, 0); fill-opacity: 0;"/></g><g class="traces" transform="translate(0,33.5)" style="opacity: 1;"><text class="legendtext" text-anchor="start" x="40" y="4.680000000000001" style="font-family: 'Open Sans', verdana, arial, sans-serif; font-size: 12px; fill: rgb(68, 68, 68); fill-opacity: 1; white-space: pre;">valid_acc</text><g class="layers" style="opacity: 1;"><g class="legendfill"/><g class="legendlines"><path class="js-line" d="M5,0h30" style="fill: none; stroke: rgb(255, 127, 14); stroke-opacity: 1; stroke-width: 2px;"/></g><g class="legendsymbols"><g class="legendpoints"/></g></g><rect class="legendtoggle" x="0" y="-9.5" width="96.234375" height="19" style="fill: rgb(0, 0, 0); fill-opacity: 0;"/></g></g></g><rect class="scrollbar" rx="20" ry="3" width="0" height="0" x="0" y="0" style="fill: rgb(128, 139, 164); fill-opacity: 1;"/></g><g class="g-gtitle"><text class="gtitle" x="510.5" y="30" text-anchor="middle" dy="0em" style="font-family: 'Open Sans', verdana, arial, sans-serif; font-size: 17px; fill: rgb(68, 68, 68); opacity: 1; font-weight: normal; white-space: pre;">acc_modelB_18_0000</text></g><g class="g-xtitle"/><g class="g-ytitle"/></g></svg>