<svg class="main-svg" xmlns="http://www.w3.org/2000/svg" xmlns:xlink="http://www.w3.org/1999/xlink" width="958" height="486" style="" viewBox="0 0 958 486"><rect x="0" y="0" width="958" height="486" style="fill: rgb(255, 255, 255); fill-opacity: 1;"/><defs id="defs-44b5f4"><g class="clips"><clipPath id="clip44b5f4xyplot" class="plotclip"><rect width="769" height="366"/></clipPath><clipPath class="axesclip" id="clip44b5f4x"><rect x="60" y="0" width="769" height="486"/></clipPath><clipPath class="axesclip" id="clip44b5f4y"><rect x="0" y="60" width="958" height="366"/></clipPath><clipPath class="axesclip" id="clip44b5f4xy"><rect x="60" y="60" width="769" height="366"/></clipPath></g><g class="gradients"/></defs><g class="bglayer"/><g class="layer-below"><g class="imagelayer"/><g class="shapelayer"/></g><g class="cartesianlayer"><g class="subplot xy"><g class="layer-subplot"><g class="shapelayer"/><g class="imagelayer"/></g><g class="gridlayer"><g class="x"><path class="xgrid crisp" transform="translate(163.22,0)" d="M0,60v366" style="stroke: rgb(238, 238, 238); stroke-opacity: 1; stroke-width: 1px;"/><path class="xgrid crisp" transform="translate(266.44,0)" d="M0,60v366" style="stroke: rgb(238, 238, 238); stroke-opacity: 1; stroke-width: 1px;"/><path class="xgrid crisp" transform="translate(369.66,0)" d="M0,60v366" style="stroke: rgb(238, 238, 238); stroke-opacity: 1; stroke-width: 1px;"/><path class="xgrid crisp" transform="translate(472.89,0)" d="M0,60v366" style="stroke: rgb(238, 238, 238); stroke-opacity: 1; stroke-width: 1px;"/><path class="xgrid crisp" transform="translate(576.11,0)" d="M0,60v366" style="stroke: rgb(238, 238, 238); stroke-opacity: 1; stroke-width: 1px;"/><path class="xgrid crisp" transform="translate(679.33,0)" d="M0,60v366" style="stroke: rgb(238, 238, 238); stroke-opacity: 1; stroke-width: 1px;"/><path class="xgrid crisp" transform="translate(782.55,0)" d="M0,60v366" style="stroke: rgb(238, 238, 238); stroke-opacity: 1; stroke-width: 1px;"/></g><g class="y"><path class="ygrid crisp" transform="translate(0,414.97)" d="M60,0h769" style="stroke: rgb(238, 238, 238); stroke-opacity: 1; stroke-width: 1px;"/><path class="ygrid crisp" transform="translate(0,366.53)" d="M60,0h769" style="stroke: rgb(238, 238, 238); stroke-opacity: 1; stroke-width: 1px;"/><path class="ygrid crisp" transform="translate(0,318.08)" d="M60,0h769" style="stroke: rgb(238, 238, 238); stroke-opacity: 1; stroke-width: 1px;"/><path class="ygrid crisp" transform="translate(0,269.64)" d="M60,0h769" style="stroke: rgb(238, 238, 238); stroke-opacity: 1; stroke-width: 1px;"/><path class="ygrid crisp" transform="translate(0,221.2)" d="M60,0h769" style="stroke: rgb(238, 238, 238); stroke-opacity: 1; stroke-width: 1px;"/><path class="ygrid crisp" transform="translate(0,172.76)" d="M60,0h769" style="stroke: rgb(238, 238, 238); stroke-opacity: 1; stroke-width: 1px;"/><path class="ygrid crisp" transform="translate(0,124.32)" d="M60,0h769" style="stroke: rgb(238, 238, 238); stroke-opacity: 1; stroke-width: 1px;"/><path class="ygrid crisp" transform="translate(0,75.88)" d="M60,0h769" style="stroke: rgb(238, 238, 238); stroke-opacity: 1; stroke-width: 1px;"/></g></g><g class="zerolinelayer"><path class="xzl zl crisp" transform="translate(60,0)" d="M0,60v366" style="stroke: rgb(68, 68, 68); stroke-opacity: 1; stroke-width: 1px;"/></g><path class="xlines-below"/><path class="ylines-below"/><g class="overlines-below"/><g class="xaxislayer-below"/><g class="yaxislayer-below"/><g class="overaxes-below"/><g class="plot" transform="translate(60,60)" clip-path="url('#clip44b5f4xyplot')"><g class="scatterlayer mlayer"><g class="trace scatter tracedeb33f" style="stroke-miterlimit: 2; opacity: 1;"><g class="fills"/><g class="errorbars"/><g class="lines"><path class="js-line" d="M0,290.54L5.16,239.19L10.32,235.32L15.48,234.35L20.64,242.1L25.81,231.93L30.97,205.77L36.13,207.22L41.29,202.38L46.45,185.42L51.61,176.7L56.77,164.11L61.93,164.59L67.09,161.2L72.26,162.65L82.58,148.12L87.74,143.28L92.9,147.15L98.06,141.34L103.22,141.34L108.38,122.93L113.54,130.68L118.7,119.54L123.87,116.15L129.03,117.12L134.19,112.28L139.35,109.37L144.51,132.14L149.67,105.98L154.83,75.94L159.99,77.88L165.15,84.18L170.32,75.94L175.48,64.8L180.64,74.01L185.8,63.35L190.96,67.23L196.12,77.4L201.28,68.19L206.44,64.8L211.6,59.96L216.77,54.15L221.93,55.6L227.09,62.38L232.25,55.6L237.41,67.23L242.57,58.51L247.73,61.41L252.89,53.18L258.05,51.72L263.21,59.47L268.38,49.3L273.54,56.08L278.7,48.33L283.86,50.76L289.02,51.72L294.18,47.85L299.34,52.21L304.5,49.3L309.66,48.82L314.83,44.46L319.99,30.89L325.15,27.99L330.31,41.07L335.47,32.83L340.63,33.8L345.79,33.8L350.95,34.29L356.11,41.07L361.28,33.32L366.44,38.65L371.6,34.77L376.76,27.99L381.92,35.74L387.08,39.61L392.24,33.32L397.4,37.19L402.56,34.77L407.72,29.44L412.89,44.94L418.05,31.86L423.21,37.68L428.37,30.89L433.53,29.44L438.69,31.38L454.17,34.29L459.34,40.58L464.5,26.05L469.66,34.29L474.82,29.93L479.98,27.5L485.14,27.5L490.3,29.93L495.46,25.08L500.62,27.02L505.79,40.1L510.95,27.5L516.11,23.63L521.27,30.41L526.43,26.54L531.59,25.08L536.75,21.21L541.91,35.74L547.07,35.25L552.23,29.93L557.4,24.6L562.56,28.96L567.72,37.68L572.88,28.96L578.04,31.38L583.2,27.5L588.36,28.47L593.52,38.65L598.68,29.44L603.85,38.16L609.01,24.6L614.17,25.57L619.33,28.47L624.49,23.14L634.81,29.93L639.97,25.08L645.13,18.3L650.3,32.35L655.46,32.83L660.62,24.6L665.78,34.29L670.94,38.16L676.1,27.02L681.26,31.86L686.42,32.83L691.58,24.6L696.74,30.89L701.91,27.99L707.07,25.57L712.23,18.78L717.39,18.3L722.55,21.21L727.71,27.5L732.87,25.57L738.03,28.47L743.19,33.32L748.36,28.47L753.52,31.86L758.68,34.29L763.84,27.02L769,27.5" style="vector-effect: non-scaling-stroke; fill: none; stroke: rgb(31, 119, 180); stroke-opacity: 1; stroke-width: 2px; opacity: 1;"/></g><g class="points"/><g class="text"/></g><g class="trace scatter trace9a3fbf" style="stroke-miterlimit: 2; opacity: 1;"><g class="fills"/><g class="errorbars"/><g class="lines"><path class="js-line" d="M0,347.7L5.16,233.77L10.32,211.53L15.48,215.11L20.64,211.35L25.81,261.85L30.97,159.86L36.13,221.13L41.29,190.89L46.45,193.76L51.61,214.67L56.77,160.75L61.93,165.15L67.09,119.49L72.26,200.04L77.42,185.51L82.58,178.6L87.74,125.68L92.9,136.17L98.06,136.89L103.22,146.22L108.38,132.5L113.54,116.53L118.7,139.13L123.87,114.55L129.03,121.82L134.19,115.18L139.35,139.04L144.51,93.29L149.67,75.53L154.83,66.29L159.99,64.68L165.15,59.39L170.32,60.73L175.48,60.82L180.64,61.9L185.8,60.19L190.96,61.09L196.12,60.01L201.28,61.45L206.44,58.04L211.6,58.49L216.77,54.54L227.09,54.72L232.25,52.12L237.41,59.39L242.57,53.02L247.73,57.59L252.89,50.32L258.05,53.2L263.21,54.63L268.38,50.06L273.54,52.75L278.7,50.77L283.86,57.68L289.02,50.32L294.18,52.84L299.34,54.72L304.5,52.48L309.66,49.25L314.83,48.53L319.99,46.74L325.15,46.02L330.31,46.83L335.47,46.38L340.63,47.36L345.79,46.02L350.95,45.39L356.11,46.29L361.28,47.01L366.44,45.75L371.6,46.92L376.76,43.33L381.92,45.39L387.08,45.12L392.24,44.76L397.4,45.39L402.56,47.36L407.72,45.75L418.05,46.83L423.21,43.24L438.69,45.84L443.85,43.78L449.01,43.69L454.17,45.12L464.5,45.66L469.66,42.97L474.82,45.84L479.98,44.31L485.14,42.79L490.3,45.03L500.62,44.23L505.79,44.85L510.95,44.31L516.11,45.3L521.27,45.57L526.43,43.33L531.59,42.79L536.75,44.58L541.91,43.87L547.07,44.31L552.23,43.6L557.4,44.49L562.56,42.97L567.72,43.51L572.88,43.33L578.04,45.12L583.2,43.87L588.36,43.78L593.52,45.39L598.68,45.66L614.17,43.15L619.33,43.96L634.81,42.97L639.97,43.24L645.13,44.23L650.3,44.31L660.62,44.23L665.78,42.88L681.26,43.69L686.42,44.94L696.74,42.79L701.91,44.31L707.07,44.67L712.23,43.6L722.55,43.51L727.71,44.85L738.03,42.88L743.19,44.94L748.36,44.23L753.52,45.21L758.68,43.96L763.84,45.66L769,42.07" style="vector-effect: non-scaling-stroke; fill: none; stroke: rgb(255, 127, 14); stroke-opacity: 1; stroke-width: 2px; opacity: 1;"/></g><g class="points"/><g class="text"/></g></g></g><g class="overplot"/><path class="xlines-above crisp" d="M0,0" style="fill: none;"/><path class="ylines-above crisp" d="M0,0" style="fill: none;"/><g class="overlines-above"/><g class="xaxislayer-above"><g class="xtick"><text text-anchor="middle" x="0" y="439" transform="translate(60,0)" style="font-family: 'Open Sans', verdana, arial, sans-serif; font-size: 12px; fill: rgb(68, 68, 68); fill-opacity: 1; white-space: pre;">0</text></g><g class="xtick"><text text-anchor="middle" x="0" y="439" transform="translate(163.22,0)" style="font-family: 'Open Sans', verdana, arial, sans-serif; font-size: 12px; fill: rgb(68, 68, 68); fill-opacity: 1; white-space: pre;">20</text></g><g class="xtick"><text text-anchor="middle" x="0" y="439" transform="translate(266.44,0)" style="font-family: 'Open Sans', verdana, arial, sans-serif; font-size: 12px; fill: rgb(68, 68, 68); fill-opacity: 1; white-space: pre;">40</text></g><g class="xtick"><text text-anchor="middle" x="0" y="439" transform="translate(369.66,0)" style="font-family: 'Open Sans', verdana, arial, sans-serif; font-size: 12px; fill: rgb(68, 68, 68); fill-opacity: 1; white-space: pre;">60</text></g><g class="xtick"><text text-anchor="middle" x="0" y="439" transform="translate(472.89,0)" style="font-family: 'Open Sans', verdana, arial, sans-serif; font-size: 12px; fill: rgb(68, 68, 68); fill-opacity: 1; white-space: pre;">80</text></g><g class="xtick"><text text-anchor="middle" x="0" y="439" transform="translate(576.11,0)" style="font-family: 'Open Sans', verdana, arial, sans-serif; font-size: 12px; fill: rgb(68, 68, 68); fill-opacity: 1; white-space: pre;">100</text></g><g class="xtick"><text text-anchor="middle" x="0" y="439" transform="translate(679.33,0)" style="font-family: 'Open Sans', verdana, arial, sans-serif; font-size: 12px; fill: rgb(68, 68, 68); fill-opacity: 1; white-space: pre;">120</text></g><g class="xtick"><text text-anchor="middle" x="0" y="439" transform="translate(782.55,0)" style="font-family: 'Open Sans', verdana, arial, sans-serif; font-size: 12px; fill: rgb(68, 68, 68); fill-opacity: 1; white-space: pre;">140</text></g></g><g class="yaxislayer-above"><g class="ytick"><text text-anchor="end" x="59" y="4.199999999999999" transform="translate(0,414.97)" style="font-family: 'Open Sans', verdana, arial, sans-serif; font-size: 12px; fill: rgb(68, 68, 68); fill-opacity: 1; white-space: pre;">0.2</text></g><g class="ytick"><text text-anchor="end" x="59" y="4.199999999999999" transform="translate(0,366.53)" style="font-family: 'Open Sans', verdana, arial, sans-serif; font-size: 12px; fill: rgb(68, 68, 68); fill-opacity: 1; white-space: pre;">0.3</text></g><g class="ytick"><text text-anchor="end" x="59" y="4.199999999999999" transform="translate(0,318.08)" style="font-family: 'Open Sans', verdana, arial, sans-serif; font-size: 12px; fill: rgb(68, 68, 68); fill-opacity: 1; white-space: pre;">0.4</text></g><g class="ytick"><text text-anchor="end" x="59" y="4.199999999999999" transform="translate(0,269.64)" style="font-family: 'Open Sans', verdana, arial, sans-serif; font-size: 12px; fill: rgb(68, 68, 68); fill-opacity: 1; white-space: pre;">0.5</text></g><g class="ytick"><text text-anchor="end" x="59" y="4.199999999999999" transform="translate(0,221.2)" style="font-family: 'Open Sans', verdana, arial, sans-serif; font-size: 12px; fill: rgb(68, 68, 68); fill-opacity: 1; white-space: pre;">0.6</text></g><g class="ytick"><text text-anchor="end" x="59" y="4.199999999999999" transform="translate(0,172.76)" style="font-family: 'Open Sans', verdana, arial, sans-serif; font-size: 12px; fill: rgb(68, 68, 68); fill-opacity: 1; white-space: pre;">0.7</text></g><g class="ytick"><text text-anchor="end" x="59" y="4.199999999999999" transform="translate(0,124.32)" style="font-family: 'Open Sans', verdana, arial, sans-serif; font-size: 12px; fill: rgb(68, 68, 68); fill-opacity: 1; white-space: pre;">0.8</text></g><g class="ytick"><text text-anchor="end" x="59" y="4.199999999999999" transform="translate(0,75.88)" style="font-family: 'Open Sans', verdana, arial, sans-serif; font-size: 12px; fill: rgb(68, 68, 68); fill-opacity: 1; white-space: pre;">0.9</text></g></g><g class="overaxes-above"/></g></g><g class="polarlayer"/><g class="ternarylayer"/><g class="geolayer"/><g class="funnelarealayer"/><g class="pielayer"/><g class="treemaplayer"/><g class="sunburstlayer"/><g class="glimages"/><defs id="topdefs-44b5f4"><g class="clips"/><clipPath id="legend44b5f4"><rect width="102" height="48" x="0" y="0"/></clipPath></defs><g class="layer-above"><g class="imagelayer"/><g class="shapelayer"/></g><g class="infolayer"><g class="legend" pointer-events="all" transform="translate(844.38,60)"><rect class="bg" shape-rendering="crispEdges" width="102" height="48" x="0" y="0" style="stroke: rgb(68, 68, 68); stroke-opacity: 1; fill: rgb(255, 255, 255); fill-opacity: 1; stroke-width: 0px;"/><g class="scrollbox" transform="" clip-path="url('#legend44b5f4')"><g class="groups"><g class="traces" transform="translate(0,14.5)" style="opacity: 1;"><text class="legendtext" text-anchor="start" x="40" y="4.680000000000001" style="font-family: 'Open Sans', verdana, arial, sans-serif; font-size: 12px; fill: rgb(68, 68, 68); fill-opacity: 1; white-space: pre;">train_acc</text><g class="layers" style="opacity: 1;"><g class="legendfill"/><g class="legendlines"><path class="js-line" d="M5,0h30" style="fill: none; stroke: rgb(31, 119, 180); stroke-opacity: 1; stroke-width: 2px;"/></g><g class="legendsymbols"><g class="legendpoints"/></g></g><rect class="legendtoggle" x="0" y="-9.5" width="96.234375" height="19" style="fill: rgb(0, 0, 0); fill-opacity: 0;"/></g><g class="traces" transform="translate(0,33.5)" style="opacity: 1;"><text class="legendtext" text-anchor="start" x="40" y="4.680000000000001" style="font-family: 'Open Sans', verdana, arial, sans-serif; font-size: 12px; fill: rgb(68, 68, 68); fill-opacity: 1; white-space: pre;">valid_acc</text><g class="layers" style="opacity: 1;"><g class="legendfill"/><g class="legendlines"><path class="js-line" d="M5,0h30" style="fill: none; stroke: rgb(255, 127, 14); stroke-opacity: 1; stroke-width: 2px;"/></g><g class="legendsymbols"><g class="legendpoints"/></g></g><rect class="legendtoggle" x="0" y="-9.5" width="96.234375" height="19" style="fill: rgb(0, 0, 0); fill-opacity: 0;"/></g></g></g><rect class="scrollbar" rx="20" ry="3" width="0" height="0" x="0" y="0" style="fill: rgb(128, 139, 164); fill-opacity: 1;"/></g><g class="g-gtitle"><text class="gtitle" x="479" y="30" text-anchor="middle" dy="0em" style="font-family: 'Open Sans', verdana, arial, sans-serif; font-size: 17px; fill: rgb(68, 68, 68); opacity: 1; font-weight: normal; white-space: pre;">acc_modelB_34</text></g><g class="g-xtitle"/><g class="g-ytitle"/></g></svg>