<svg class="main-svg" xmlns="http://www.w3.org/2000/svg" xmlns:xlink="http://www.w3.org/1999/xlink" width="982" height="486" style="" viewBox="0 0 982 486"><rect x="0" y="0" width="982" height="486" style="fill: rgb(255, 255, 255); fill-opacity: 1;"/><defs id="defs-e68484"><g class="clips"><clipPath id="clipe68484xyplot" class="plotclip"><rect width="800" height="366"/></clipPath><clipPath class="axesclip" id="clipe68484x"><rect x="60" y="0" width="800" height="486"/></clipPath><clipPath class="axesclip" id="clipe68484y"><rect x="0" y="60" width="982" height="366"/></clipPath><clipPath class="axesclip" id="clipe68484xy"><rect x="60" y="60" width="800" height="366"/></clipPath></g><g class="gradients"/></defs><g class="bglayer"/><g class="layer-below"><g class="imagelayer"/><g class="shapelayer"/></g><g class="cartesianlayer"><g class="subplot xy"><g class="layer-subplot"><g class="shapelayer"/><g class="imagelayer"/></g><g class="gridlayer"><g class="x"><path class="xgrid crisp" transform="translate(140.81,0)" d="M0,60v366" style="stroke: rgb(238, 238, 238); stroke-opacity: 1; stroke-width: 1px;"/><path class="xgrid crisp" transform="translate(221.62,0)" d="M0,60v366" style="stroke: rgb(238, 238, 238); stroke-opacity: 1; stroke-width: 1px;"/><path class="xgrid crisp" transform="translate(302.41999999999996,0)" d="M0,60v366" style="stroke: rgb(238, 238, 238); stroke-opacity: 1; stroke-width: 1px;"/><path class="xgrid crisp" transform="translate(383.23,0)" d="M0,60v366" style="stroke: rgb(238, 238, 238); stroke-opacity: 1; stroke-width: 1px;"/><path class="xgrid crisp" transform="translate(464.04,0)" d="M0,60v366" style="stroke: rgb(238, 238, 238); stroke-opacity: 1; stroke-width: 1px;"/><path class="xgrid crisp" transform="translate(544.85,0)" d="M0,60v366" style="stroke: rgb(238, 238, 238); stroke-opacity: 1; stroke-width: 1px;"/><path class="xgrid crisp" transform="translate(625.66,0)" d="M0,60v366" style="stroke: rgb(238, 238, 238); stroke-opacity: 1; stroke-width: 1px;"/><path class="xgrid crisp" transform="translate(706.46,0)" d="M0,60v366" style="stroke: rgb(238, 238, 238); stroke-opacity: 1; stroke-width: 1px;"/><path class="xgrid crisp" transform="translate(787.27,0)" d="M0,60v366" style="stroke: rgb(238, 238, 238); stroke-opacity: 1; stroke-width: 1px;"/></g><g class="y"><path class="ygrid crisp" transform="translate(0,372.55)" d="M60,0h800" style="stroke: rgb(238, 238, 238); stroke-opacity: 1; stroke-width: 1px;"/><path class="ygrid crisp" transform="translate(0,309.45)" d="M60,0h800" style="stroke: rgb(238, 238, 238); stroke-opacity: 1; stroke-width: 1px;"/><path class="ygrid crisp" transform="translate(0,246.35)" d="M60,0h800" style="stroke: rgb(238, 238, 238); stroke-opacity: 1; stroke-width: 1px;"/><path class="ygrid crisp" transform="translate(0,183.24)" d="M60,0h800" style="stroke: rgb(238, 238, 238); stroke-opacity: 1; stroke-width: 1px;"/><path class="ygrid crisp" transform="translate(0,120.14)" d="M60,0h800" style="stroke: rgb(238, 238, 238); stroke-opacity: 1; stroke-width: 1px;"/></g></g><g class="zerolinelayer"><path class="xzl zl crisp" transform="translate(60,0)" d="M0,60v366" style="stroke: rgb(68, 68, 68); stroke-opacity: 1; stroke-width: 1px;"/></g><path class="xlines-below"/><path class="ylines-below"/><g class="overlines-below"/><g class="xaxislayer-below"/><g class="yaxislayer-below"/><g class="overaxes-below"/><g class="plot" transform="translate(60,60)" clip-path="url('#clipe68484xyplot')"><g class="scatterlayer mlayer"><g class="trace scatter trace748cb8" style="stroke-miterlimit: 2; opacity: 1;"><g class="fills"/><g class="errorbars"/><g class="lines"><path class="js-line" d="M0,347.7L8.08,249.51L16.16,218.07L24.24,194.7L32.32,178.92L40.4,160.49L48.48,150.64L56.57,142L64.65,130.81L72.73,120.93L80.81,114.94L88.89,110.71L96.97,103.58L113.13,95.75L121.21,90.61L129.29,88.27L137.37,84.12L153.54,78.69L161.62,75.21L169.7,76.23L177.78,74.8L185.86,71.76L193.94,71.47L210.1,69.72L218.18,65.51L234.34,63.61L242.42,62.56L250.51,60.52L258.59,60.11L266.67,62.88L274.75,59.2L282.83,56.34L290.91,54.85L298.99,54.44L307.07,54.85L315.15,56.25L323.23,52.72L331.31,51.84L339.39,52.77L347.47,52.51L355.56,51.17L371.72,47.66L379.8,49.41L387.88,46.17L395.96,47.25L404.04,46.96L412.12,44.01L420.2,46.99L428.28,44.65L444.44,44.33L452.53,43.02L460.61,42.78L468.69,43.78L476.77,43.22L484.85,43.51L492.93,41.38L501.01,42.46L509.09,42.23L517.17,40.47L525.25,38.08L533.33,40.3L541.41,40.24L549.49,38.49L557.58,38.49L565.66,37.47L573.74,39.22L581.82,39.1L597.98,35.95L606.06,36.03L622.22,38.55L630.3,37.2L638.38,34.19L646.46,35.62L654.55,34.46L662.63,35.33L670.71,33.96L678.79,35.77L686.87,33.58L694.95,33.46L711.11,35.1L719.19,33.29L735.35,34.4L743.43,32.21L751.52,33.23L759.6,30.77L775.76,32L783.84,31.97L800,29.84" style="vector-effect: non-scaling-stroke; fill: none; stroke: rgb(31, 119, 180); stroke-opacity: 1; stroke-width: 2px; opacity: 1;"/></g><g class="points"/><g class="text"/></g><g class="trace scatter trace30fe7c" style="stroke-miterlimit: 2; opacity: 1;"><g class="fills"/><g class="errorbars"/><g class="lines"><path class="js-line" d="M0,242.67L8.08,191.72L16.16,170.69L24.24,150.47L32.32,125.69L40.4,137.61L48.48,107.58L56.57,117.16L64.65,117.63L72.73,85.96L80.81,86.55L88.89,93.56L96.97,78.83L105.05,83.16L113.13,73.11L121.21,77.55L129.29,60.14L137.37,56.63L145.45,57.33L153.54,64.23L161.62,67.85L169.7,67.38L177.78,80.82L185.86,54.06L193.94,53.71L202.02,59.2L210.1,46.58L218.18,48.68L226.26,41.09L234.34,47.63L242.42,41.91L250.51,46.58L258.59,41.32L266.67,46.35L274.75,40.04L282.83,43.78L290.91,42.37L298.99,33.96L307.07,35.71L315.15,41.79L323.23,66.45L331.31,37.93L339.39,38.05L347.47,43.31L355.56,38.63L363.64,32.21L371.72,42.49L379.8,35.6L387.88,31.15L395.96,31.74L404.04,35.83L412.12,69.02L420.2,32.21L428.28,43.31L436.36,33.02L444.44,26.83L452.53,33.02L460.61,38.52L468.69,41.91L476.77,29.87L484.85,26.36L492.93,27.3L501.01,30.22L517.17,31.27L525.25,25.55L533.33,23.21L541.41,26.48L549.49,35.36L557.58,26.25L573.74,26.48L581.82,26.83L589.9,24.49L597.98,30.45L606.06,27.18L614.14,27.53L622.22,24.03L630.3,24.49L638.38,24.49L646.46,27.53L654.55,25.19L662.63,26.25L670.71,27.42L678.79,20.29L686.87,23.91L694.95,19.82L703.03,27.53L711.11,28.82L719.19,29.64L727.27,25.08L735.35,18.3L743.43,22.27L751.52,24.26L759.6,19.94L767.68,26.48L775.76,20.05L783.84,22.04L791.92,20.99L800,21.81" style="vector-effect: non-scaling-stroke; fill: none; stroke: rgb(255, 127, 14); stroke-opacity: 1; stroke-width: 2px; opacity: 1;"/></g><g class="points"/><g class="text"/></g></g></g><g class="overplot"/><path class="xlines-above crisp" d="M0,0" style="fill: none;"/><path class="ylines-above crisp" d="M0,0" style="fill: none;"/><g class="overlines-above"/><g class="xaxislayer-above"><g class="xtick"><text text-anchor="middle" x="0" y="439" transform="translate(60,0)" style="font-family: 'Open Sans', verdana, arial, sans-serif; font-size: 12px; fill: rgb(68, 68, 68); fill-opacity: 1; white-space: pre;">0</text></g><g class="xtick"><text text-anchor="middle" x="0" y="439" transform="translate(140.81,0)" style="font-family: 'Open Sans', verdana, arial, sans-serif; font-size: 12px; fill: rgb(68, 68, 68); fill-opacity: 1; white-space: pre;">10</text></g><g class="xtick"><text text-anchor="middle" x="0" y="439" transform="translate(221.62,0)" style="font-family: 'Open Sans', verdana, arial, sans-serif; font-size: 12px; fill: rgb(68, 68, 68); fill-opacity: 1; white-space: pre;">20</text></g><g class="xtick"><text text-anchor="middle" x="0" y="439" transform="translate(302.41999999999996,0)" style="font-family: 'Open Sans', verdana, arial, sans-serif; font-size: 12px; fill: rgb(68, 68, 68); fill-opacity: 1; white-space: pre;">30</text></g><g class="xtick"><text text-anchor="middle" x="0" y="439" transform="translate(383.23,0)" style="font-family: 'Open Sans', verdana, arial, sans-serif; font-size: 12px; fill: rgb(68, 68, 68); fill-opacity: 1; white-space: pre;">40</text></g><g class="xtick"><text text-anchor="middle" x="0" y="439" transform="translate(464.04,0)" style="font-family: 'Open Sans', verdana, arial, sans-serif; font-size: 12px; fill: rgb(68, 68, 68); fill-opacity: 1; white-space: pre;">50</text></g><g class="xtick"><text text-anchor="middle" x="0" y="439" transform="translate(544.85,0)" style="font-family: 'Open Sans', verdana, arial, sans-serif; font-size: 12px; fill: rgb(68, 68, 68); fill-opacity: 1; white-space: pre;">60</text></g><g class="xtick"><text text-anchor="middle" x="0" y="439" transform="translate(625.66,0)" style="font-family: 'Open Sans', verdana, arial, sans-serif; font-size: 12px; fill: rgb(68, 68, 68); fill-opacity: 1; white-space: pre;">70</text></g><g class="xtick"><text text-anchor="middle" x="0" y="439" transform="translate(706.46,0)" style="font-family: 'Open Sans', verdana, arial, sans-serif; font-size: 12px; fill: rgb(68, 68, 68); fill-opacity: 1; white-space: pre;">80</text></g><g class="xtick"><text text-anchor="middle" x="0" y="439" transform="translate(787.27,0)" style="font-family: 'Open Sans', verdana, arial, sans-serif; font-size: 12px; fill: rgb(68, 68, 68); fill-opacity: 1; white-space: pre;">90</text></g></g><g class="yaxislayer-above"><g class="ytick"><text text-anchor="end" x="59" y="4.199999999999999" transform="translate(0,372.55)" style="font-family: 'Open Sans', verdana, arial, sans-serif; font-size: 12px; fill: rgb(68, 68, 68); fill-opacity: 1; white-space: pre;">0.5</text></g><g class="ytick"><text text-anchor="end" x="59" y="4.199999999999999" transform="translate(0,309.45)" style="font-family: 'Open Sans', verdana, arial, sans-serif; font-size: 12px; fill: rgb(68, 68, 68); fill-opacity: 1; white-space: pre;">0.6</text></g><g class="ytick"><text text-anchor="end" x="59" y="4.199999999999999" transform="translate(0,246.35)" style="font-family: 'Open Sans', verdana, arial, sans-serif; font-size: 12px; fill: rgb(68, 68, 68); fill-opacity: 1; white-space: pre;">0.7</text></g><g class="ytick"><text text-anchor="end" x="59" y="4.199999999999999" transform="translate(0,183.24)" style="font-family: 'Open Sans', verdana, arial, sans-serif; font-size: 12px; fill: rgb(68, 68, 68); fill-opacity: 1; white-space: pre;">0.8</text></g><g class="ytick"><text text-anchor="end" x="59" y="4.199999999999999" transform="translate(0,120.14)" style="font-family: 'Open Sans', verdana, arial, sans-serif; font-size: 12px; fill: rgb(68, 68, 68); fill-opacity: 1; white-space: pre;">0.9</text></g></g><g class="overaxes-above"/></g></g><g class="polarlayer"/><g class="ternarylayer"/><g class="geolayer"/><g class="funnelarealayer"/><g class="pielayer"/><g class="treemaplayer"/><g class="sunburstlayer"/><g class="glimages"/><defs id="topdefs-e68484"><g class="clips"/><clipPath id="legende68484"><rect width="94" height="48" x="0" y="0"/></clipPath></defs><g class="layer-above"><g class="imagelayer"/><g class="shapelayer"/></g><g class="infolayer"><g class="legend" pointer-events="all" transform="translate(876,60)"><rect class="bg" shape-rendering="crispEdges" width="94" height="48" x="0" y="0" style="stroke: rgb(68, 68, 68); stroke-opacity: 1; fill: rgb(255, 255, 255); fill-opacity: 1; stroke-width: 0px;"/><g class="scrollbox" transform="" clip-path="url('#legende68484')"><g class="groups"><g class="traces" transform="translate(0,14.5)" style="opacity: 1;"><text class="legendtext" text-anchor="start" x="40" y="4.680000000000001" style="font-family: 'Open Sans', verdana, arial, sans-serif; font-size: 12px; fill: rgb(68, 68, 68); fill-opacity: 1; white-space: pre;">train_acc</text><g class="layers" style="opacity: 1;"><g class="legendfill"/><g class="legendlines"><path class="js-line" d="M5,0h30" style="fill: none; stroke: rgb(31, 119, 180); stroke-opacity: 1; stroke-width: 2px;"/></g><g class="legendsymbols"><g class="legendpoints"/></g></g><rect class="legendtoggle" x="0" y="-9.5" width="88.34375" height="19" style="fill: rgb(0, 0, 0); fill-opacity: 0;"/></g><g class="traces" transform="translate(0,33.5)" style="opacity: 1;"><text class="legendtext" text-anchor="start" x="40" y="4.680000000000001" style="font-family: 'Open Sans', verdana, arial, sans-serif; font-size: 12px; fill: rgb(68, 68, 68); fill-opacity: 1; white-space: pre;">valid_acc</text><g class="layers" style="opacity: 1;"><g class="legendfill"/><g class="legendlines"><path class="js-line" d="M5,0h30" style="fill: none; stroke: rgb(255, 127, 14); stroke-opacity: 1; stroke-width: 2px;"/></g><g class="legendsymbols"><g class="legendpoints"/></g></g><rect class="legendtoggle" x="0" y="-9.5" width="88.34375" height="19" style="fill: rgb(0, 0, 0); fill-opacity: 0;"/></g></g></g><rect class="scrollbar" rx="20" ry="3" width="0" height="0" x="0" y="0" style="fill: rgb(128, 139, 164); fill-opacity: 1;"/></g><g class="g-gtitle"><text class="gtitle" x="491" y="30" text-anchor="middle" dy="0em" style="font-family: 'Open Sans', verdana, arial, sans-serif; font-size: 17px; fill: rgb(68, 68, 68); opacity: 1; font-weight: normal; white-space: pre;">acc_modelA</text></g><g class="g-xtitle"/><g class="g-ytitle"/></g></svg>