<svg class="main-svg" xmlns="http://www.w3.org/2000/svg" xmlns:xlink="http://www.w3.org/1999/xlink" width="893" height="426" style="" viewBox="0 0 893 426"><rect x="0" y="0" width="893" height="426" style="fill: rgb(255, 255, 255); fill-opacity: 1;"/><defs id="defs-6d664d"><g class="clips"><clipPath id="clip6d664dxyplot" class="plotclip"><rect width="713" height="306"/></clipPath><clipPath class="axesclip" id="clip6d664dx"><rect x="60" y="0" width="713" height="426"/></clipPath><clipPath class="axesclip" id="clip6d664dy"><rect x="0" y="60" width="893" height="306"/></clipPath><clipPath class="axesclip" id="clip6d664dxy"><rect x="60" y="60" width="713" height="306"/></clipPath></g><g class="gradients"/></defs><g class="bglayer"/><g class="layer-below"><g class="imagelayer"/><g class="shapelayer"/></g><g class="cartesianlayer"><g class="subplot xy"><g class="layer-subplot"><g class="shapelayer"/><g class="imagelayer"/></g><g class="gridlayer"><g class="x"><path class="xgrid crisp" transform="translate(239.15,0)" d="M0,60v306" style="stroke: rgb(238, 238, 238); stroke-opacity: 1; stroke-width: 1px;"/><path class="xgrid crisp" transform="translate(418.29,0)" d="M0,60v306" style="stroke: rgb(238, 238, 238); stroke-opacity: 1; stroke-width: 1px;"/><path class="xgrid crisp" transform="translate(597.44,0)" d="M0,60v306" style="stroke: rgb(238, 238, 238); stroke-opacity: 1; stroke-width: 1px;"/></g><g class="y"><path class="ygrid crisp" transform="translate(0,355.77)" d="M60,0h713" style="stroke: rgb(238, 238, 238); stroke-opacity: 1; stroke-width: 1px;"/><path class="ygrid crisp" transform="translate(0,306.40999999999997)" d="M60,0h713" style="stroke: rgb(238, 238, 238); stroke-opacity: 1; stroke-width: 1px;"/><path class="ygrid crisp" transform="translate(0,257.03999999999996)" d="M60,0h713" style="stroke: rgb(238, 238, 238); stroke-opacity: 1; stroke-width: 1px;"/><path class="ygrid crisp" transform="translate(0,207.67)" d="M60,0h713" style="stroke: rgb(238, 238, 238); stroke-opacity: 1; stroke-width: 1px;"/><path class="ygrid crisp" transform="translate(0,158.31)" d="M60,0h713" style="stroke: rgb(238, 238, 238); stroke-opacity: 1; stroke-width: 1px;"/><path class="ygrid crisp" transform="translate(0,108.94)" d="M60,0h713" style="stroke: rgb(238, 238, 238); stroke-opacity: 1; stroke-width: 1px;"/></g></g><g class="zerolinelayer"><path class="xzl zl crisp" transform="translate(60,0)" d="M0,60v306" style="stroke: rgb(68, 68, 68); stroke-opacity: 1; stroke-width: 1px;"/></g><path class="xlines-below"/><path class="ylines-below"/><g class="overlines-below"/><g class="xaxislayer-below"/><g class="yaxislayer-below"/><g class="overaxes-below"/><g class="plot" transform="translate(60,60)" clip-path="url('#clip6d664dxyplot')"><g class="scatterlayer mlayer"><g class="trace scatter traceae1487" style="stroke-miterlimit: 2; opacity: 1;"><g class="fills"/><g class="errorbars"/><g class="lines"><path class="js-line" d="M0,290.7L3.58,252.05L7.17,222.16L10.75,211.23L14.33,196.72L21.5,182.07L25.08,176.4L28.66,173.55L32.25,169.11L39.41,159.81L42.99,161.11L46.58,158.76L50.16,154.53L53.74,152.84L57.33,152.45L60.91,151.79L64.49,149.59L68.08,147.79L71.66,147.65L75.24,146.39L78.82,143.93L82.41,144.7L85.99,142.17L89.57,143.24L93.16,140.09L96.74,141.25L100.32,141.39L103.9,141.18L107.49,139.42L114.65,138.56L118.24,138.56L121.82,137.82L125.4,136.25L128.98,137.41L132.57,135.54L139.73,136.96L143.32,127.97L154.07,124.36L157.65,125.62L175.56,123.77L179.15,122.65L186.31,122.99L189.89,122.01L200.64,121.83L204.23,120.91L207.81,122.67L211.39,121.62L214.97,121.48L218.56,122.12L222.14,120.32L225.72,121.39L232.89,121.64L236.47,121.39L247.22,120.71L250.8,119.95L279.47,120.55L283.05,119.61L286.63,117.62L290.22,118.19L293.8,118.69L297.38,117.55L311.71,117.94L315.3,117.6L318.88,118.47L322.46,118.51L340.38,118.44L343.96,116.11L347.54,117.55L351.13,118.08L354.71,118.85L358.29,117.05L361.87,119.15L365.46,117.96L369.04,117.78L372.62,119.52L376.21,117.87L379.79,117.37L383.37,118.49L386.95,118.33L390.54,117.3L394.12,117.58L397.7,117.62L401.29,116.73L408.45,118.54L412.04,116.91L415.62,117.92L419.2,117.6L426.37,116.48L429.95,117.9L433.53,117L437.12,117.48L440.7,116.94L444.28,117.44L451.45,118.01L455.03,117.35L465.78,117.51L469.36,118.12L472.94,116.75L476.53,117.58L480.11,118.19L483.69,117.46L487.28,116.2L490.86,117.16L501.61,117.94L505.19,116.82L508.77,117.94L512.36,117.99L515.94,117.05L519.52,117.12L523.11,118.1L526.69,116.78L530.27,117.16L533.85,118.44L544.6,116.84L548.19,117.12L555.35,116.39L558.93,117.67L566.1,118.1L569.68,117L576.85,116.57L580.43,117.16L591.18,116.16L594.76,117.16L598.35,116.5L601.93,118.51L605.51,116.64L609.1,117.67L612.68,117.85L616.26,116.27L623.43,117.74L627.01,116.87L634.18,116.46L637.76,118.35L641.34,118.15L644.92,117.03L648.51,116.52L652.09,117.14L659.26,117.48L662.84,117.55L666.42,117.14L670.01,117.99L673.59,116.41L677.17,116.8L684.34,118.12L687.92,117.6L691.5,116.41L695.09,118.33L698.67,117.37L702.25,117.55L705.83,118.33L709.42,117.64L713,116.55" style="vector-effect: non-scaling-stroke; fill: none; stroke: rgb(31, 119, 180); stroke-opacity: 1; stroke-width: 2px; opacity: 1;"/></g><g class="points"/><g class="text"/></g><g class="trace scatter traced91d38" style="stroke-miterlimit: 2; opacity: 1;"><g class="fills"/><g class="errorbars"/><g class="lines"><path class="js-line" d="M0,222.18L3.58,157.18L7.17,139.72L10.75,116.5L14.33,106.54L17.91,95.66L21.5,88.07L25.08,92.73L28.66,82.04L32.25,52.6L35.83,67.04L39.41,59.09L42.99,61.47L46.58,56.53L50.16,54.88L53.74,41.35L57.33,55.07L60.91,47.57L64.49,55.62L68.08,47.57L71.66,41.81L75.24,36.69L78.82,37.42L82.41,37.24L85.99,40.17L89.57,32.12L93.16,33.49L96.74,38.15L100.32,36.51L103.9,34.96L107.49,26.73L111.07,36.6L114.65,39.89L118.24,32.85L121.82,30.02L125.4,28.28L128.98,38.43L132.57,26.36L136.15,29.74L139.73,26.64L143.32,19.23L146.9,20.24L150.48,19.32L154.07,18.23L157.65,19.41L164.81,17.68L168.4,18.32L171.98,18.5L175.56,17.31L179.15,19.69L182.73,17.95L186.31,16.76L189.89,18.13L197.06,17.4L200.64,18.5L204.23,18.13L207.81,16.85L211.39,19.05L214.97,17.22L218.56,16.76L222.14,17.49L225.72,16.49L229.31,18.68L232.89,16.95L236.47,17.49L243.64,17.31L247.22,18.77L250.8,19.32L254.39,17.77L257.97,17.04L261.55,17.86L265.14,16.58L268.72,16.85L272.3,17.4L275.88,17.04L279.47,18.96L283.05,17.86L293.8,17.04L297.38,18.13L304.55,16.21L308.13,16.95L311.71,16.03L315.3,16.49L322.46,17.95L326.05,17.4L336.79,15.94L340.38,16.67L361.87,16.49L365.46,17.04L372.62,17.59L376.21,16.49L386.95,16.31L390.54,16.49L401.29,16.58L404.87,16.76L408.45,15.85L412.04,16.31L415.62,16.12L419.2,16.85L433.53,15.67L437.12,16.49L440.7,16.21L444.28,16.76L447.86,17.22L451.45,16.76L455.03,15.57L458.61,16.03L462.2,16.85L465.78,16.21L469.36,17.4L472.94,15.94L476.53,16.4L480.11,15.48L483.69,16.49L487.28,16.03L494.44,16.49L498.03,15.3L501.61,16.21L505.19,16.03L512.36,16.76L515.94,16.67L519.52,16.85L523.11,16.03L530.27,16.12L533.85,17.31L548.19,15.85L551.77,16.85L562.52,15.94L566.1,16.67L573.27,16.49L576.85,16.95L584.02,15.94L587.6,16.76L594.76,16.85L598.35,16.12L605.51,17.04L609.1,16.49L616.26,15.48L619.84,16.67L623.43,16.31L627.01,16.85L637.76,16.67L641.34,16.85L644.92,15.94L648.51,16.67L655.67,17.59L659.26,16.49L662.84,15.67L666.42,16.31L677.17,15.76L680.75,16.31L684.34,16.67L687.92,15.85L695.09,16.76L698.67,15.76L702.25,15.76L705.83,16.58L713,16.4" style="vector-effect: non-scaling-stroke; fill: none; stroke: rgb(255, 127, 14); stroke-opacity: 1; stroke-width: 2px; opacity: 1;"/></g><g class="points"/><g class="text"/></g></g></g><g class="overplot"/><path class="xlines-above crisp" d="M0,0" style="fill: none;"/><path class="ylines-above crisp" d="M0,0" style="fill: none;"/><g class="overlines-above"/><g class="xaxislayer-above"><g class="xtick"><text text-anchor="middle" x="0" y="379" transform="translate(60,0)" style="font-family: 'Open Sans', verdana, arial, sans-serif; font-size: 12px; fill: rgb(68, 68, 68); fill-opacity: 1; white-space: pre;">0</text></g><g class="xtick"><text text-anchor="middle" x="0" y="379" transform="translate(239.15,0)" style="font-family: 'Open Sans', verdana, arial, sans-serif; font-size: 12px; fill: rgb(68, 68, 68); fill-opacity: 1; white-space: pre;">50</text></g><g class="xtick"><text text-anchor="middle" x="0" y="379" transform="translate(418.29,0)" style="font-family: 'Open Sans', verdana, arial, sans-serif; font-size: 12px; fill: rgb(68, 68, 68); fill-opacity: 1; white-space: pre;">100</text></g><g class="xtick"><text text-anchor="middle" x="0" y="379" transform="translate(597.44,0)" style="font-family: 'Open Sans', verdana, arial, sans-serif; font-size: 12px; fill: rgb(68, 68, 68); fill-opacity: 1; white-space: pre;">150</text></g></g><g class="yaxislayer-above"><g class="ytick"><text text-anchor="end" x="59" y="4.199999999999999" transform="translate(0,355.77)" style="font-family: 'Open Sans', verdana, arial, sans-serif; font-size: 12px; fill: rgb(68, 68, 68); fill-opacity: 1; white-space: pre;">0.4</text></g><g class="ytick"><text text-anchor="end" x="59" y="4.199999999999999" transform="translate(0,306.40999999999997)" style="font-family: 'Open Sans', verdana, arial, sans-serif; font-size: 12px; fill: rgb(68, 68, 68); fill-opacity: 1; white-space: pre;">0.5</text></g><g class="ytick"><text text-anchor="end" x="59" y="4.199999999999999" transform="translate(0,257.03999999999996)" style="font-family: 'Open Sans', verdana, arial, sans-serif; font-size: 12px; fill: rgb(68, 68, 68); fill-opacity: 1; white-space: pre;">0.6</text></g><g class="ytick"><text text-anchor="end" x="59" y="4.199999999999999" transform="translate(0,207.67)" style="font-family: 'Open Sans', verdana, arial, sans-serif; font-size: 12px; fill: rgb(68, 68, 68); fill-opacity: 1; white-space: pre;">0.7</text></g><g class="ytick"><text text-anchor="end" x="59" y="4.199999999999999" transform="translate(0,158.31)" style="font-family: 'Open Sans', verdana, arial, sans-serif; font-size: 12px; fill: rgb(68, 68, 68); fill-opacity: 1; white-space: pre;">0.8</text></g><g class="ytick"><text text-anchor="end" x="59" y="4.199999999999999" transform="translate(0,108.94)" style="font-family: 'Open Sans', verdana, arial, sans-serif; font-size: 12px; fill: rgb(68, 68, 68); fill-opacity: 1; white-space: pre;">0.9</text></g></g><g class="overaxes-above"/></g></g><g class="polarlayer"/><g class="ternarylayer"/><g class="geolayer"/><g class="funnelarealayer"/><g class="pielayer"/><g class="treemaplayer"/><g class="sunburstlayer"/><g class="glimages"/><defs id="topdefs-6d664d"><g class="clips"/><clipPath id="legend6d664d"><rect width="94" height="48" x="0" y="0"/></clipPath></defs><g class="layer-above"><g class="imagelayer"/><g class="shapelayer"/></g><g class="infolayer"><g class="legend" pointer-events="all" transform="translate(787.26,60)"><rect class="bg" shape-rendering="crispEdges" width="94" height="48" x="0" y="0" style="stroke: rgb(68, 68, 68); stroke-opacity: 1; fill: rgb(255, 255, 255); fill-opacity: 1; stroke-width: 0px;"/><g class="scrollbox" transform="" clip-path="url('#legend6d664d')"><g class="groups"><g class="traces" transform="translate(0,14.5)" style="opacity: 1;"><text class="legendtext" text-anchor="start" x="40" y="4.680000000000001" style="font-family: 'Open Sans', verdana, arial, sans-serif; font-size: 12px; fill: rgb(68, 68, 68); fill-opacity: 1; white-space: pre;">train_acc</text><g class="layers" style="opacity: 1;"><g class="legendfill"/><g class="legendlines"><path class="js-line" d="M5,0h30" style="fill: none; stroke: rgb(31, 119, 180); stroke-opacity: 1; stroke-width: 2px;"/></g><g class="legendsymbols"><g class="legendpoints"/></g></g><rect class="legendtoggle" x="0" y="-9.5" width="88.34375" height="19" style="fill: rgb(0, 0, 0); fill-opacity: 0;"/></g><g class="traces" transform="translate(0,33.5)" style="opacity: 1;"><text class="legendtext" text-anchor="start" x="40" y="4.680000000000001" style="font-family: 'Open Sans', verdana, arial, sans-serif; font-size: 12px; fill: rgb(68, 68, 68); fill-opacity: 1; white-space: pre;">valid_acc</text><g class="layers" style="opacity: 1;"><g class="legendfill"/><g class="legendlines"><path class="js-line" d="M5,0h30" style="fill: none; stroke: rgb(255, 127, 14); stroke-opacity: 1; stroke-width: 2px;"/></g><g class="legendsymbols"><g class="legendpoints"/></g></g><rect class="legendtoggle" x="0" y="-9.5" width="88.34375" height="19" style="fill: rgb(0, 0, 0); fill-opacity: 0;"/></g></g></g><rect class="scrollbar" rx="20" ry="3" width="0" height="0" x="0" y="0" style="fill: rgb(128, 139, 164); fill-opacity: 1;"/></g><g class="g-gtitle"><text class="gtitle" x="446.5" y="30" text-anchor="middle" dy="0em" style="font-family: 'Open Sans', verdana, arial, sans-serif; font-size: 17px; fill: rgb(68, 68, 68); opacity: 1; font-weight: normal; white-space: pre;">acc_modelC_0000</text></g><g class="g-xtitle"/><g class="g-ytitle"/></g></svg>