<svg class="main-svg" xmlns="http://www.w3.org/2000/svg" xmlns:xlink="http://www.w3.org/1999/xlink" width="893" height="411" style="" viewBox="0 0 893 411"><rect x="0" y="0" width="893" height="411" style="fill: rgb(255, 255, 255); fill-opacity: 1;"/><defs id="defs-a5feb6"><g class="clips"><clipPath id="clipa5feb6xyplot" class="plotclip"><rect width="713" height="291"/></clipPath><clipPath class="axesclip" id="clipa5feb6x"><rect x="60" y="0" width="713" height="411"/></clipPath><clipPath class="axesclip" id="clipa5feb6y"><rect x="0" y="60" width="893" height="291"/></clipPath><clipPath class="axesclip" id="clipa5feb6xy"><rect x="60" y="60" width="713" height="291"/></clipPath></g><g class="gradients"/></defs><g class="bglayer"/><g class="layer-below"><g class="imagelayer"/><g class="shapelayer"/></g><g class="cartesianlayer"><g class="subplot xy"><g class="layer-subplot"><g class="shapelayer"/><g class="imagelayer"/></g><g class="gridlayer"><g class="x"><path class="xgrid crisp" transform="translate(239.15,0)" d="M0,60v291" style="stroke: rgb(238, 238, 238); stroke-opacity: 1; stroke-width: 1px;"/><path class="xgrid crisp" transform="translate(418.29,0)" d="M0,60v291" style="stroke: rgb(238, 238, 238); stroke-opacity: 1; stroke-width: 1px;"/><path class="xgrid crisp" transform="translate(597.44,0)" d="M0,60v291" style="stroke: rgb(238, 238, 238); stroke-opacity: 1; stroke-width: 1px;"/></g><g class="y"><path class="ygrid crisp" transform="translate(0,302.25)" d="M60,0h713" style="stroke: rgb(238, 238, 238); stroke-opacity: 1; stroke-width: 1px;"/><path class="ygrid crisp" transform="translate(0,252.73)" d="M60,0h713" style="stroke: rgb(238, 238, 238); stroke-opacity: 1; stroke-width: 1px;"/><path class="ygrid crisp" transform="translate(0,203.21)" d="M60,0h713" style="stroke: rgb(238, 238, 238); stroke-opacity: 1; stroke-width: 1px;"/><path class="ygrid crisp" transform="translate(0,153.69)" d="M60,0h713" style="stroke: rgb(238, 238, 238); stroke-opacity: 1; stroke-width: 1px;"/><path class="ygrid crisp" transform="translate(0,104.17)" d="M60,0h713" style="stroke: rgb(238, 238, 238); stroke-opacity: 1; stroke-width: 1px;"/></g></g><g class="zerolinelayer"><path class="xzl zl crisp" transform="translate(60,0)" d="M0,60v291" style="stroke: rgb(68, 68, 68); stroke-opacity: 1; stroke-width: 1px;"/></g><path class="xlines-below"/><path class="ylines-below"/><g class="overlines-below"/><g class="xaxislayer-below"/><g class="yaxislayer-below"/><g class="overaxes-below"/><g class="plot" transform="translate(60,60)" clip-path="url('#clipa5feb6xyplot')"><g class="scatterlayer mlayer"><g class="trace scatter traceed27be" style="stroke-miterlimit: 2; opacity: 1;"><g class="fills"/><g class="errorbars"/><g class="lines"><path class="js-line" d="M0,276.45L3.58,239.52L7.17,221.8L10.75,203.68L14.33,192.34L25.08,168.17L28.66,163.84L32.25,158.71L35.83,156.5L39.41,152.95L42.99,152.22L46.58,149.63L50.16,145.71L53.74,145.32L57.33,142.02L60.91,141.95L64.49,139.42L71.66,138.05L75.24,135.89L78.82,136.6L82.41,134.89L85.99,134.59L89.57,133.46L93.16,134.66L96.74,131.56L100.32,130.28L103.9,132.43L107.49,132.96L111.07,129.45L118.24,130.69L121.82,128.37L128.98,127.73L132.57,129.06L136.15,127.34L139.73,127.55L146.9,125.94L150.48,125.65L154.07,128.19L157.65,126.08L161.23,125.53L164.81,127.05L168.4,125.3L171.98,125.33L179.15,125.03L182.73,123.38L189.89,125.44L193.48,123.9L197.06,125.35L200.64,123.72L211.39,123.19L214.97,124.89L222.14,122.46L225.72,123.29L232.89,122.41L236.47,123.56L240.06,120.9L243.64,122L247.22,120.76L250.8,121.63L254.39,121.43L257.97,122.39L261.55,121.52L265.14,121.45L268.72,122.12L272.3,120.83L275.88,121.91L279.47,119.98L283.05,120.69L286.63,120.26L290.22,121.29L293.8,121.11L297.38,120.3L300.96,120.65L318.88,119.39L322.46,119.69L326.05,119.66L329.63,120.53L333.21,120.03L336.79,120.9L340.38,119.55L343.96,119.16L347.54,120.03L351.13,119.16L358.29,120.92L361.87,120.1L365.46,119.11L369.04,119.27L372.62,118.45L376.21,118.86L386.95,119.46L390.54,117.87L394.12,119.92L397.7,118.06L401.29,119.32L404.87,118.52L415.62,118.86L419.2,118.81L422.78,119.04L426.37,117.65L429.95,118.59L433.53,118.47L437.12,117.87L440.7,118.7L447.86,117.07L451.45,118.47L458.61,117.26L462.2,118.68L465.78,117.99L469.36,118.7L472.94,117.62L476.53,117.71L480.11,116.61L483.69,118.29L487.28,116.98L490.86,117.87L498.03,117.28L501.61,117.32L505.19,118.77L508.77,116.59L512.36,117.9L515.94,118.1L523.11,116.32L526.69,117.9L530.27,116.87L533.85,117.65L537.44,117.51L541.02,115.95L544.6,116.71L548.19,116.52L551.77,117.76L555.35,116.8L558.93,116.06L562.52,116.5L566.1,117.12L569.68,115.56L573.27,117.46L576.85,115.95L580.43,117.12L584.02,117.05L587.6,116.16L591.18,116.45L598.35,117.6L601.93,116.98L609.1,116.22L612.68,115.67L619.84,116.13L623.43,116.98L627.01,116.2L630.59,116.98L634.18,115.31L637.76,116.43L641.34,117.32L644.92,115.99L648.51,115.9L652.09,114.85L655.67,115.95L659.26,116.02L662.84,117.1L666.42,115.99L673.59,115.86L677.17,116.61L684.34,115.54L687.92,116.25L691.5,116.13L695.09,114.99L698.67,116.32L702.25,115.93L709.42,115.19L713,115.61" style="vector-effect: non-scaling-stroke; fill: none; stroke: rgb(31, 119, 180); stroke-opacity: 1; stroke-width: 2px; opacity: 1;"/></g><g class="points"/><g class="text"/></g><g class="trace scatter traceb944a3" style="stroke-miterlimit: 2; opacity: 1;"><g class="fills"/><g class="errorbars"/><g class="lines"><path class="js-line" d="M0,192.08L3.58,212.81L7.17,145.87L10.75,104.69L14.33,99.1L17.91,145.04L21.5,104.42L25.08,70.3L28.66,62.51L32.25,66.91L35.83,51.87L39.41,51.51L42.99,56.09L46.58,43.62L50.16,50.68L53.74,46.46L57.33,40.87L60.91,53.16L64.49,47.65L68.08,40.5L71.66,36.74L75.24,35.46L78.82,44.08L82.41,32.16L85.99,35.82L89.57,31.7L93.16,47.75L96.74,34.36L100.32,24.18L103.9,27.76L107.49,24L111.07,30.51L114.65,28.03L118.24,26.56L121.82,29.13L125.4,31.33L128.98,23.35L132.57,31.51L136.15,30.32L139.73,28.21L143.32,23.9L150.48,25L154.07,22.16L157.65,26.2L161.23,22.71L164.81,23.63L168.4,18.49L171.98,20.33L175.56,20.6L179.15,20.97L182.73,23.63L186.31,26.01L189.89,23.81L193.48,19.59L197.06,19.87L200.64,19.69L204.23,23.35L207.81,20.24L211.39,18.77L214.97,20.33L218.56,20.05L222.14,19.32L225.72,20.69L229.31,23.26L232.89,18.49L236.47,19.04L240.06,20.69L243.64,18.77L247.22,17.85L250.8,22.34L254.39,23.35L257.97,23.35L261.55,20.42L265.14,16.75L268.72,22.44L272.3,19.32L275.88,21.52L279.47,19.14L283.05,21.34L290.22,20.42L293.8,17.03L297.38,20.14L300.96,16.48L304.55,18.31L308.13,22.16L311.71,14.55L315.3,16.93L322.46,18.95L326.05,17.85L329.63,20.69L333.21,20.79L336.79,19.96L340.38,22.07L347.54,18.13L351.13,23.45L354.71,23.08L358.29,18.13L361.87,17.03L365.46,18.58L369.04,20.05L372.62,16.2L376.21,15.74L379.79,24.55L383.37,16.93L386.95,21.34L390.54,16.84L394.12,18.4L397.7,18.58L401.29,15.28L408.45,19.59L412.04,18.22L419.2,18.49L422.78,16.75L426.37,19.32L429.95,16.84L437.12,19.69L440.7,17.21L444.28,19.32L447.86,16.02L451.45,20.51L455.03,19.69L458.61,18.77L462.2,22.16L465.78,18.31L469.36,16.57L472.94,19.5L476.53,20.6L480.11,16.48L483.69,17.76L487.28,20.14L490.86,19.41L494.44,20.33L498.03,17.39L501.61,17.03L505.19,21.79L508.77,19.04L512.36,20.14L515.94,21.15L519.52,18.03L530.27,17.67L533.85,21.98L537.44,17.21L541.02,18.77L544.6,21.34L548.19,16.93L558.93,22.44L562.52,15.19L566.1,19.5L569.68,16.75L573.27,18.03L576.85,17.12L580.43,23.45L584.02,17.12L587.6,15.56L591.18,17.85L594.76,18.86L598.35,18.13L601.93,15.38L605.51,17.76L609.1,16.57L612.68,18.68L616.26,19.41L619.84,17.58L623.43,18.49L627.01,16.57L630.59,19.78L634.18,18.58L641.34,17.76L644.92,18.68L648.51,18.03L652.09,18.49L655.67,18.95L659.26,20.51L662.84,17.03L666.42,18.86L670.01,18.31L673.59,16.93L677.17,17.76L680.75,19.78L684.34,18.4L687.92,21.89L691.5,18.68L695.09,18.13L698.67,17.94L702.25,16.66L705.83,16.84L709.42,20.24L713,22.07" style="vector-effect: non-scaling-stroke; fill: none; stroke: rgb(255, 127, 14); stroke-opacity: 1; stroke-width: 2px; opacity: 1;"/></g><g class="points"/><g class="text"/></g></g></g><g class="overplot"/><path class="xlines-above crisp" d="M0,0" style="fill: none;"/><path class="ylines-above crisp" d="M0,0" style="fill: none;"/><g class="overlines-above"/><g class="xaxislayer-above"><g class="xtick"><text text-anchor="middle" x="0" y="364" transform="translate(60,0)" style="font-family: 'Open Sans', verdana, arial, sans-serif; font-size: 12px; fill: rgb(68, 68, 68); fill-opacity: 1; white-space: pre;">0</text></g><g class="xtick"><text text-anchor="middle" x="0" y="364" transform="translate(239.15,0)" style="font-family: 'Open Sans', verdana, arial, sans-serif; font-size: 12px; fill: rgb(68, 68, 68); fill-opacity: 1; white-space: pre;">50</text></g><g class="xtick"><text text-anchor="middle" x="0" y="364" transform="translate(418.29,0)" style="font-family: 'Open Sans', verdana, arial, sans-serif; font-size: 12px; fill: rgb(68, 68, 68); fill-opacity: 1; white-space: pre;">100</text></g><g class="xtick"><text text-anchor="middle" x="0" y="364" transform="translate(597.44,0)" style="font-family: 'Open Sans', verdana, arial, sans-serif; font-size: 12px; fill: rgb(68, 68, 68); fill-opacity: 1; white-space: pre;">150</text></g></g><g class="yaxislayer-above"><g class="ytick"><text text-anchor="end" x="59" y="4.199999999999999" transform="translate(0,302.25)" style="font-family: 'Open Sans', verdana, arial, sans-serif; font-size: 12px; fill: rgb(68, 68, 68); fill-opacity: 1; white-space: pre;">0.5</text></g><g class="ytick"><text text-anchor="end" x="59" y="4.199999999999999" transform="translate(0,252.73)" style="font-family: 'Open Sans', verdana, arial, sans-serif; font-size: 12px; fill: rgb(68, 68, 68); fill-opacity: 1; white-space: pre;">0.6</text></g><g class="ytick"><text text-anchor="end" x="59" y="4.199999999999999" transform="translate(0,203.21)" style="font-family: 'Open Sans', verdana, arial, sans-serif; font-size: 12px; fill: rgb(68, 68, 68); fill-opacity: 1; white-space: pre;">0.7</text></g><g class="ytick"><text text-anchor="end" x="59" y="4.199999999999999" transform="translate(0,153.69)" style="font-family: 'Open Sans', verdana, arial, sans-serif; font-size: 12px; fill: rgb(68, 68, 68); fill-opacity: 1; white-space: pre;">0.8</text></g><g class="ytick"><text text-anchor="end" x="59" y="4.199999999999999" transform="translate(0,104.17)" style="font-family: 'Open Sans', verdana, arial, sans-serif; font-size: 12px; fill: rgb(68, 68, 68); fill-opacity: 1; white-space: pre;">0.9</text></g></g><g class="overaxes-above"/></g></g><g class="polarlayer"/><g class="ternarylayer"/><g class="geolayer"/><g class="funnelarealayer"/><g class="pielayer"/><g class="treemaplayer"/><g class="sunburstlayer"/><g class="glimages"/><defs id="topdefs-a5feb6"><g class="clips"/><clipPath id="legenda5feb6"><rect width="94" height="48" x="0" y="0"/></clipPath></defs><g class="layer-above"><g class="imagelayer"/><g class="shapelayer"/></g><g class="infolayer"><g class="legend" pointer-events="all" transform="translate(787.26,60)"><rect class="bg" shape-rendering="crispEdges" width="94" height="48" x="0" y="0" style="stroke: rgb(68, 68, 68); stroke-opacity: 1; fill: rgb(255, 255, 255); fill-opacity: 1; stroke-width: 0px;"/><g class="scrollbox" transform="" clip-path="url('#legenda5feb6')"><g class="groups"><g class="traces" transform="translate(0,14.5)" style="opacity: 1;"><text class="legendtext" text-anchor="start" x="40" y="4.680000000000001" style="font-family: 'Open Sans', verdana, arial, sans-serif; font-size: 12px; fill: rgb(68, 68, 68); fill-opacity: 1; white-space: pre;">train_acc</text><g class="layers" style="opacity: 1;"><g class="legendfill"/><g class="legendlines"><path class="js-line" d="M5,0h30" style="fill: none; stroke: rgb(31, 119, 180); stroke-opacity: 1; stroke-width: 2px;"/></g><g class="legendsymbols"><g class="legendpoints"/></g></g><rect class="legendtoggle" x="0" y="-9.5" width="88.34375" height="19" style="fill: rgb(0, 0, 0); fill-opacity: 0;"/></g><g class="traces" transform="translate(0,33.5)" style="opacity: 1;"><text class="legendtext" text-anchor="start" x="40" y="4.680000000000001" style="font-family: 'Open Sans', verdana, arial, sans-serif; font-size: 12px; fill: rgb(68, 68, 68); fill-opacity: 1; white-space: pre;">valid_acc</text><g class="layers" style="opacity: 1;"><g class="legendfill"/><g class="legendlines"><path class="js-line" d="M5,0h30" style="fill: none; stroke: rgb(255, 127, 14); stroke-opacity: 1; stroke-width: 2px;"/></g><g class="legendsymbols"><g class="legendpoints"/></g></g><rect class="legendtoggle" x="0" y="-9.5" width="88.34375" height="19" style="fill: rgb(0, 0, 0); fill-opacity: 0;"/></g></g></g><rect class="scrollbar" rx="20" ry="3" width="0" height="0" x="0" y="0" style="fill: rgb(128, 139, 164); fill-opacity: 1;"/></g><g class="g-gtitle"><text class="gtitle" x="446.5" y="30" text-anchor="middle" dy="0em" style="font-family: 'Open Sans', verdana, arial, sans-serif; font-size: 17px; fill: rgb(68, 68, 68); opacity: 1; font-weight: normal; white-space: pre;">acc_modelC1</text></g><g class="g-xtitle"/><g class="g-ytitle"/></g></svg>