<svg class="main-svg" xmlns="http://www.w3.org/2000/svg" xmlns:xlink="http://www.w3.org/1999/xlink" width="818" height="441" style="" viewBox="0 0 818 441"><rect x="0" y="0" width="818" height="441" style="fill: rgb(255, 255, 255); fill-opacity: 1;"/><defs id="defs-7e8ddf"><g class="clips"><clipPath id="clip7e8ddfxyplot" class="plotclip"><rect width="631" height="321"/></clipPath><clipPath class="axesclip" id="clip7e8ddfx"><rect x="60" y="0" width="631" height="441"/></clipPath><clipPath class="axesclip" id="clip7e8ddfy"><rect x="0" y="60" width="818" height="321"/></clipPath><clipPath class="axesclip" id="clip7e8ddfxy"><rect x="60" y="60" width="631" height="321"/></clipPath></g><g class="gradients"/></defs><g class="bglayer"/><g class="layer-below"><g class="imagelayer"/><g class="shapelayer"/></g><g class="cartesianlayer"><g class="subplot xy"><g class="layer-subplot"><g class="shapelayer"/><g class="imagelayer"/></g><g class="gridlayer"><g class="x"><path class="xgrid crisp" transform="translate(218.54,0)" d="M0,60v321" style="stroke: rgb(238, 238, 238); stroke-opacity: 1; stroke-width: 1px;"/><path class="xgrid crisp" transform="translate(377.09,0)" d="M0,60v321" style="stroke: rgb(238, 238, 238); stroke-opacity: 1; stroke-width: 1px;"/><path class="xgrid crisp" transform="translate(535.63,0)" d="M0,60v321" style="stroke: rgb(238, 238, 238); stroke-opacity: 1; stroke-width: 1px;"/></g><g class="y"><path class="ygrid crisp" transform="translate(0,322.5)" d="M60,0h631" style="stroke: rgb(238, 238, 238); stroke-opacity: 1; stroke-width: 1px;"/><path class="ygrid crisp" transform="translate(0,260.89)" d="M60,0h631" style="stroke: rgb(238, 238, 238); stroke-opacity: 1; stroke-width: 1px;"/><path class="ygrid crisp" transform="translate(0,199.28)" d="M60,0h631" style="stroke: rgb(238, 238, 238); stroke-opacity: 1; stroke-width: 1px;"/><path class="ygrid crisp" transform="translate(0,137.66)" d="M60,0h631" style="stroke: rgb(238, 238, 238); stroke-opacity: 1; stroke-width: 1px;"/><path class="ygrid crisp" transform="translate(0,76.05)" d="M60,0h631" style="stroke: rgb(238, 238, 238); stroke-opacity: 1; stroke-width: 1px;"/></g></g><g class="zerolinelayer"><path class="xzl zl crisp" transform="translate(60,0)" d="M0,60v321" style="stroke: rgb(68, 68, 68); stroke-opacity: 1; stroke-width: 1px;"/></g><path class="xlines-below"/><path class="ylines-below"/><g class="overlines-below"/><g class="xaxislayer-below"/><g class="yaxislayer-below"/><g class="overaxes-below"/><g class="plot" transform="translate(60,60)" clip-path="url('#clip7e8ddfxyplot')"><g class="scatterlayer mlayer"><g class="trace scatter trace7f1d34" style="stroke-miterlimit: 2; opacity: 1;"><g class="fills"/><g class="errorbars"/><g class="lines"><path class="js-line" d="M0,221.53L3.17,185.8L6.34,179.63L9.51,164.23L12.68,159.3L15.85,158.07L19.03,164.23L22.2,146.98L25.37,139.59L28.54,144.51L31.71,127.26L34.88,132.81L38.05,135.89L41.22,138.35L44.39,121.72L47.56,116.17L50.73,128.5L53.9,121.1L57.08,118.33L60.25,115.25L63.42,118.02L66.59,105.39L69.76,113.71L72.93,106.62L76.1,105.7L79.27,107.85L82.44,106.01L85.61,104.77L88.78,94.92L91.95,100.46L95.13,80.44L98.3,89.68L101.47,89.99L104.64,87.21L107.81,79.82L110.98,72.12L114.15,82.59L117.32,72.12L120.49,77.05L123.66,71.5L126.83,56.72L130.01,44.08L133.18,44.39L136.35,38.54L139.52,36.07L142.69,34.53L145.86,30.84L149.03,35.77L152.2,33.92L155.37,29.3L158.54,32.07L161.71,30.22L164.88,25.29L168.06,27.76L171.23,24.98L174.4,25.6L177.57,25.29L180.74,28.68L183.91,26.22L187.08,24.06L190.25,23.44L193.42,22.21L196.59,21.9L199.76,22.83L202.93,22.83L206.11,22.83L209.28,19.75L212.45,19.75L215.62,22.83L218.79,20.98L221.96,20.36L225.13,20.05L228.3,21.6L234.64,20.36L237.81,21.29L244.16,18.21L247.33,18.51L250.5,19.44L253.67,17.28L256.84,17.9L260.01,17.28L266.35,17.28L269.52,16.36L275.86,16.97L279.04,16.67L294.89,16.67L298.06,17.28L304.4,17.28L307.57,16.36L317.09,16.05L320.26,17.9L326.6,17.28L329.77,16.05L336.11,16.67L339.28,16.05L351.96,17.28L355.14,16.05L358.31,16.67L361.48,16.05L367.82,17.28L370.99,16.36L380.5,16.97L383.67,16.05L390.02,16.97L393.19,16.36L399.53,16.67L402.7,16.05L405.87,16.67L409.04,16.05L415.38,16.67L418.55,16.05L453.43,16.67L456.6,16.97L462.94,16.05L466.12,16.05L469.29,17.28L472.46,16.05L488.31,16.36L491.48,16.97L494.65,16.05L497.82,16.36L504.17,16.05L507.34,17.28L510.51,16.05L513.68,17.9L516.85,16.97L520.02,17.28L535.87,16.05L539.05,16.05L545.39,16.36L548.56,16.05L554.9,16.97L558.07,16.05L561.24,16.05L564.41,17.9L567.58,16.36L570.75,16.36L573.92,16.97L577.1,16.36L586.61,16.67L589.78,16.36L592.95,16.05L596.12,16.67L599.29,16.05L602.46,16.97L611.97,16.36L615.15,16.67L631,16.97" style="vector-effect: non-scaling-stroke; fill: none; stroke: rgb(31, 119, 180); stroke-opacity: 1; stroke-width: 2px; opacity: 1;"/></g><g class="points"/><g class="text"/></g><g class="trace scatter trace48a890" style="stroke-miterlimit: 2; opacity: 1;"><g class="fills"/><g class="errorbars"/><g class="lines"><path class="js-line" d="M0,261.76L3.17,285.44L6.34,290.12L9.51,290.06L12.68,291.14L15.85,187.66L19.03,263.13L22.2,242.88L25.37,261.71L28.54,269.64L31.71,258.85L34.88,287.61L38.05,246.99L41.22,256L44.39,291.6L47.56,268.61L50.73,258.23L53.9,248.47L57.08,294.17L60.25,237.57L63.42,284.24L66.59,261.59L69.76,283.04L72.93,276.88L76.1,283.61L79.27,233.12L82.44,304.95L85.61,298.56L88.78,245.96L91.95,290.12L95.13,287.21L98.3,280.82L101.47,259.65L104.64,238.14L107.81,246.93L110.98,290.23L114.15,258.68L117.32,269.81L120.49,242.37L123.66,262.28L126.83,253.72L130.01,264.67L133.18,269.92L136.35,256.91L139.52,264.1L142.69,265.24L145.86,264.22L149.03,265.13L152.2,251.27L158.54,268.89L161.71,265.07L164.88,275.06L168.06,254.75L171.23,270.32L174.4,268.95L177.57,255.77L180.74,277.22L183.91,270.72L187.08,249.16L190.25,263.82L193.42,253.55L196.59,251.44L199.76,260.91L202.93,252.24L206.11,260.57L209.28,259.82L212.45,257.48L215.62,246.7L218.79,253.38L221.96,245.9L225.13,260.68L228.3,247.5L231.47,242.65L234.64,263.47L237.81,252.52L240.98,252.64L244.16,250.13L247.33,242.37L250.5,246.82L253.67,248.36L256.84,247.67L263.18,250.24L266.35,247.33L269.52,247.73L272.69,244.71L275.86,248.41L279.04,249.95L282.21,248.87L285.38,251.15L288.55,246.42L291.72,249.38L294.89,245.28L298.06,250.24L301.23,247.79L304.4,246.53L307.57,245.9L310.74,246.07L313.91,247.96L317.09,247.04L320.26,248.76L323.43,251.72L326.6,247.67L329.77,245.79L332.94,251.21L336.11,248.64L339.28,253.49L342.45,249.78L345.62,247.67L348.79,249.84L351.96,246.25L355.14,245.56L361.48,247.84L364.65,246.7L367.82,248.7L370.99,246.36L374.16,245.16L377.33,247.5L380.5,247.04L383.67,248.24L390.02,247.04L393.19,246.47L396.36,247.61L399.53,247.27L402.7,247.79L405.87,249.44L409.04,247.39L412.21,249.55L415.38,249.61L418.55,247.9L421.72,248.93L424.89,248.24L428.07,248.47L431.24,246.82L434.41,245.79L437.58,247.96L440.75,245.79L443.92,247.61L447.09,250.52L450.26,247.44L453.43,247.39L456.6,250.35L459.77,251.15L462.94,247.39L472.46,251.21L475.63,247.22L478.8,247.56L481.97,248.81L485.14,247.44L488.31,250.87L491.48,252.01L494.65,244.76L497.82,251.38L500.99,246.87L504.17,247.56L507.34,246.76L510.51,250.07L513.68,250.13L520.02,244.13L523.19,248.81L532.7,248.64L535.87,246.93L545.39,251.78L548.56,247.73L551.73,247.16L554.9,247.96L561.24,244.88L564.41,246.36L567.58,250.07L570.75,249.16L577.1,249.84L580.27,250.47L583.44,249.04L586.61,249.84L589.78,245.22L592.95,247.56L599.29,248.87L602.46,246.07L605.63,247.79L608.8,250.64L611.97,245.56L615.15,251.27L618.32,251.61L621.49,247.5L624.66,250.87L627.83,248.24L631,248.07" style="vector-effect: non-scaling-stroke; fill: none; stroke: rgb(255, 127, 14); stroke-opacity: 1; stroke-width: 2px; opacity: 1;"/></g><g class="points"/><g class="text"/></g></g></g><g class="overplot"/><path class="xlines-above crisp" d="M0,0" style="fill: none;"/><path class="ylines-above crisp" d="M0,0" style="fill: none;"/><g class="overlines-above"/><g class="xaxislayer-above"><g class="xtick"><text text-anchor="middle" x="0" y="394" transform="translate(60,0)" style="font-family: 'Open Sans', verdana, arial, sans-serif; font-size: 12px; fill: rgb(68, 68, 68); fill-opacity: 1; white-space: pre;">0</text></g><g class="xtick"><text text-anchor="middle" x="0" y="394" transform="translate(218.54,0)" style="font-family: 'Open Sans', verdana, arial, sans-serif; font-size: 12px; fill: rgb(68, 68, 68); fill-opacity: 1; white-space: pre;">50</text></g><g class="xtick"><text text-anchor="middle" x="0" y="394" transform="translate(377.09,0)" style="font-family: 'Open Sans', verdana, arial, sans-serif; font-size: 12px; fill: rgb(68, 68, 68); fill-opacity: 1; white-space: pre;">100</text></g><g class="xtick"><text text-anchor="middle" x="0" y="394" transform="translate(535.63,0)" style="font-family: 'Open Sans', verdana, arial, sans-serif; font-size: 12px; fill: rgb(68, 68, 68); fill-opacity: 1; white-space: pre;">150</text></g></g><g class="yaxislayer-above"><g class="ytick"><text text-anchor="end" x="59" y="4.199999999999999" transform="translate(0,322.5)" style="font-family: 'Open Sans', verdana, arial, sans-serif; font-size: 12px; fill: rgb(68, 68, 68); fill-opacity: 1; white-space: pre;">0.2</text></g><g class="ytick"><text text-anchor="end" x="59" y="4.199999999999999" transform="translate(0,260.89)" style="font-family: 'Open Sans', verdana, arial, sans-serif; font-size: 12px; fill: rgb(68, 68, 68); fill-opacity: 1; white-space: pre;">0.4</text></g><g class="ytick"><text text-anchor="end" x="59" y="4.199999999999999" transform="translate(0,199.28)" style="font-family: 'Open Sans', verdana, arial, sans-serif; font-size: 12px; fill: rgb(68, 68, 68); fill-opacity: 1; white-space: pre;">0.6</text></g><g class="ytick"><text text-anchor="end" x="59" y="4.199999999999999" transform="translate(0,137.66)" style="font-family: 'Open Sans', verdana, arial, sans-serif; font-size: 12px; fill: rgb(68, 68, 68); fill-opacity: 1; white-space: pre;">0.8</text></g><g class="ytick"><text text-anchor="end" x="59" y="4.199999999999999" transform="translate(0,76.05)" style="font-family: 'Open Sans', verdana, arial, sans-serif; font-size: 12px; fill: rgb(68, 68, 68); fill-opacity: 1; white-space: pre;">1</text></g></g><g class="overaxes-above"/></g></g><g class="polarlayer"/><g class="ternarylayer"/><g class="geolayer"/><g class="funnelarealayer"/><g class="pielayer"/><g class="treemaplayer"/><g class="sunburstlayer"/><g class="glimages"/><defs id="topdefs-7e8ddf"><g class="clips"/><clipPath id="legend7e8ddf"><rect width="102" height="48" x="0" y="0"/></clipPath></defs><g class="layer-above"><g class="imagelayer"/><g class="shapelayer"/></g><g class="infolayer"><g class="legend" pointer-events="all" transform="translate(703.62,60)"><rect class="bg" shape-rendering="crispEdges" width="102" height="48" x="0" y="0" style="stroke: rgb(68, 68, 68); stroke-opacity: 1; fill: rgb(255, 255, 255); fill-opacity: 1; stroke-width: 0px;"/><g class="scrollbox" transform="" clip-path="url('#legend7e8ddf')"><g class="groups"><g class="traces" transform="translate(0,14.5)" style="opacity: 1;"><text class="legendtext" text-anchor="start" x="40" y="4.680000000000001" style="font-family: 'Open Sans', verdana, arial, sans-serif; font-size: 12px; fill: rgb(68, 68, 68); fill-opacity: 1; white-space: pre;">train_acc</text><g class="layers" style="opacity: 1;"><g class="legendfill"/><g class="legendlines"><path class="js-line" d="M5,0h30" style="fill: none; stroke: rgb(31, 119, 180); stroke-opacity: 1; stroke-width: 2px;"/></g><g class="legendsymbols"><g class="legendpoints"/></g></g><rect class="legendtoggle" x="0" y="-9.5" width="96.234375" height="19" style="fill: rgb(0, 0, 0); fill-opacity: 0;"/></g><g class="traces" transform="translate(0,33.5)" style="opacity: 1;"><text class="legendtext" text-anchor="start" x="40" y="4.680000000000001" style="font-family: 'Open Sans', verdana, arial, sans-serif; font-size: 12px; fill: rgb(68, 68, 68); fill-opacity: 1; white-space: pre;">valid_acc</text><g class="layers" style="opacity: 1;"><g class="legendfill"/><g class="legendlines"><path class="js-line" d="M5,0h30" style="fill: none; stroke: rgb(255, 127, 14); stroke-opacity: 1; stroke-width: 2px;"/></g><g class="legendsymbols"><g class="legendpoints"/></g></g><rect class="legendtoggle" x="0" y="-9.5" width="96.234375" height="19" style="fill: rgb(0, 0, 0); fill-opacity: 0;"/></g></g></g><rect class="scrollbar" rx="20" ry="3" width="0" height="0" x="0" y="0" style="fill: rgb(128, 139, 164); fill-opacity: 1;"/></g><g class="g-gtitle"><text class="gtitle" x="409" y="30" text-anchor="middle" dy="0em" style="font-family: 'Open Sans', verdana, arial, sans-serif; font-size: 17px; fill: rgb(68, 68, 68); opacity: 1; font-weight: normal; white-space: pre;">acc_modelB_CenterCrop</text></g><g class="g-xtitle"/><g class="g-ytitle"/></g></svg>