<svg class="main-svg" xmlns="http://www.w3.org/2000/svg" xmlns:xlink="http://www.w3.org/1999/xlink" width="829" height="441" style="" viewBox="0 0 829 441"><rect x="0" y="0" width="829" height="441" style="fill: rgb(255, 255, 255); fill-opacity: 1;"/><defs id="defs-f83d6c"><g class="clips"><clipPath id="clipf83d6cxyplot" class="plotclip"><rect width="650" height="321"/></clipPath><clipPath class="axesclip" id="clipf83d6cx"><rect x="60" y="0" width="650" height="441"/></clipPath><clipPath class="axesclip" id="clipf83d6cy"><rect x="0" y="60" width="829" height="321"/></clipPath><clipPath class="axesclip" id="clipf83d6cxy"><rect x="60" y="60" width="650" height="321"/></clipPath></g><g class="gradients"/></defs><g class="bglayer"/><g class="layer-below"><g class="imagelayer"/><g class="shapelayer"/></g><g class="cartesianlayer"><g class="subplot xy"><g class="layer-subplot"><g class="shapelayer"/><g class="imagelayer"/></g><g class="gridlayer"><g class="x"><path class="xgrid crisp" transform="translate(168.7,0)" d="M0,60v321" style="stroke: rgb(238, 238, 238); stroke-opacity: 1; stroke-width: 1px;"/><path class="xgrid crisp" transform="translate(277.39,0)" d="M0,60v321" style="stroke: rgb(238, 238, 238); stroke-opacity: 1; stroke-width: 1px;"/><path class="xgrid crisp" transform="translate(386.09,0)" d="M0,60v321" style="stroke: rgb(238, 238, 238); stroke-opacity: 1; stroke-width: 1px;"/><path class="xgrid crisp" transform="translate(494.78,0)" d="M0,60v321" style="stroke: rgb(238, 238, 238); stroke-opacity: 1; stroke-width: 1px;"/><path class="xgrid crisp" transform="translate(603.48,0)" d="M0,60v321" style="stroke: rgb(238, 238, 238); stroke-opacity: 1; stroke-width: 1px;"/></g><g class="y"><path class="ygrid crisp" transform="translate(0,341.44)" d="M60,0h650" style="stroke: rgb(238, 238, 238); stroke-opacity: 1; stroke-width: 1px;"/><path class="ygrid crisp" transform="translate(0,293.53999999999996)" d="M60,0h650" style="stroke: rgb(238, 238, 238); stroke-opacity: 1; stroke-width: 1px;"/><path class="ygrid crisp" transform="translate(0,245.63)" d="M60,0h650" style="stroke: rgb(238, 238, 238); stroke-opacity: 1; stroke-width: 1px;"/><path class="ygrid crisp" transform="translate(0,197.73)" d="M60,0h650" style="stroke: rgb(238, 238, 238); stroke-opacity: 1; stroke-width: 1px;"/><path class="ygrid crisp" transform="translate(0,149.82)" d="M60,0h650" style="stroke: rgb(238, 238, 238); stroke-opacity: 1; stroke-width: 1px;"/><path class="ygrid crisp" transform="translate(0,101.92)" d="M60,0h650" style="stroke: rgb(238, 238, 238); stroke-opacity: 1; stroke-width: 1px;"/></g></g><g class="zerolinelayer"><path class="xzl zl crisp" transform="translate(60,0)" d="M0,60v321" style="stroke: rgb(68, 68, 68); stroke-opacity: 1; stroke-width: 1px;"/></g><path class="xlines-below"/><path class="ylines-below"/><g class="overlines-below"/><g class="xaxislayer-below"/><g class="yaxislayer-below"/><g class="overaxes-below"/><g class="plot" transform="translate(60,60)" clip-path="url('#clipf83d6cxyplot')"><g class="scatterlayer mlayer"><g class="trace scatter tracea78e10" style="stroke-miterlimit: 2; opacity: 1;"><g class="fills"/><g class="errorbars"/><g class="lines"><path class="js-line" d="M0,293.9L2.17,249.35L4.35,224.43L6.52,213.9L8.7,212.94L10.87,202.88L13.04,202.4L15.22,191.86L17.39,196.65L19.57,172.7L21.74,184.67L23.91,178.45L26.09,178.93L28.26,166.95L30.43,169.82L32.61,165.03L34.78,156.89L36.96,157.37L39.13,145.87L41.3,149.22L43.48,146.35L45.65,132.94L47.83,138.21L50,134.37L52.17,140.6L54.35,129.1L56.52,132.94L58.7,120L60.87,126.71L63.04,109.46L65.22,123.84L67.39,126.71L69.57,116.65L71.74,113.78L73.91,108.03L76.09,124.79L78.26,107.55L80.43,105.15L82.61,100.36L84.78,117.13L86.96,110.9L89.13,100.84L91.3,99.4L93.48,103.24L95.65,103.24L97.83,108.98L100,106.11L102.17,96.53L104.35,102.76L106.52,105.15L108.7,80.24L110.87,76.41L113.04,68.27L115.22,76.41L117.39,67.79L119.57,62.04L121.74,67.79L123.91,63.48L126.09,65.39L128.26,65.87L130.43,55.81L132.61,55.81L134.78,64.43L136.96,63L139.13,49.1L141.3,58.69L143.48,47.67L145.65,60.6L147.83,51.02L150,56.77L152.17,59.64L154.35,50.06L156.52,49.1L158.7,52.94L160.87,54.85L163.04,55.33L165.22,51.5L167.39,45.75L169.57,52.46L171.74,41.44L173.91,49.58L176.09,58.21L178.26,49.58L180.43,42.4L182.61,47.67L184.78,43.36L186.96,50.54L191.3,40.48L193.48,42.88L195.65,42.4L197.83,44.31L200,38.57L202.17,42.88L204.35,47.19L206.52,38.57L208.7,45.27L210.87,37.61L213.04,40L215.22,47.19L217.39,32.34L219.57,32.82L221.74,31.38L223.91,28.51L226.09,31.86L228.26,32.82L232.61,23.71L234.78,31.38L239.13,29.46L241.3,20.36L243.48,28.98L245.65,25.15L247.83,28.03L250,34.73L252.17,33.77L254.35,35.21L256.52,30.9L258.7,33.77L260.87,32.34L263.04,33.3L265.22,24.19L267.39,30.9L271.74,32.34L273.91,29.94L280.43,36.17L282.61,25.63L284.78,24.67L286.96,31.86L289.13,24.19L291.3,31.38L293.48,25.63L295.65,23.24L297.83,35.21L300,27.07L302.17,33.3L304.35,26.59L306.52,27.07L308.7,30.9L310.87,26.59L313.04,26.11L315.22,31.38L317.39,28.51L319.57,24.67L321.74,24.67L323.91,24.19L326.09,21.32L328.26,35.21L330.43,30.9L332.61,26.59L334.78,30.9L336.96,30.9L339.13,28.98L341.3,29.94L343.48,21.8L345.65,31.38L347.83,23.71L350,33.3L352.17,28.51L354.35,28.51L356.52,32.82L358.7,22.28L360.87,23.24L363.04,28.51L365.22,30.9L367.39,24.19L369.57,24.19L371.74,24.67L373.91,31.86L376.09,24.67L378.26,37.13L380.43,27.07L382.61,23.71L384.78,28.98L386.96,30.42L389.13,27.55L391.3,26.59L393.48,20.36L395.65,22.28L400,23.71L402.17,26.59L404.35,28.51L406.52,27.55L408.7,26.11L410.87,30.42L413.04,16.05L415.22,26.59L417.39,24.19L419.57,29.46L421.74,25.15L423.91,28.51L426.09,27.07L428.26,30.42L430.43,27.55L432.61,34.25L434.78,26.11L436.96,24.19L439.13,29.46L441.3,27.07L443.48,26.59L445.65,28.51L447.83,28.98L450,28.51L452.17,23.24L454.35,28.98L456.52,29.46L458.7,27.55L460.87,18.92L463.04,37.13L465.22,19.88L467.39,33.77L469.57,29.46L471.74,28.03L476.09,21.32L478.26,29.46L482.61,33.3L484.78,30.9L486.96,20.36L489.13,23.24L491.3,28.03L493.48,30.42L495.65,28.03L497.83,28.98L500,28.98L502.17,25.63L504.35,20.84L506.52,30.9L508.7,21.8L510.87,32.34L513.04,28.51L515.22,32.34L517.39,23.71L519.57,31.86L521.74,30.42L523.91,33.77L526.09,25.15L528.26,25.63L530.43,26.11L532.61,22.28L534.78,28.51L536.96,26.59L539.13,28.98L541.3,26.59L543.48,21.8L545.65,37.61L547.83,22.76L550,28.03L552.17,28.03L554.35,29.46L558.7,35.69L560.87,28.03L563.04,23.71L565.22,23.71L567.39,27.07L569.57,28.98L571.74,27.55L573.91,35.69L576.09,24.67L578.26,23.71L580.43,38.09L582.61,33.77L584.78,32.82L586.96,30.9L589.13,28.03L591.3,27.55L593.48,23.71L595.65,29.46L597.83,32.82L600,28.03L602.17,28.03L604.35,26.59L608.7,21.32L610.87,27.55L613.04,30.42L615.22,20.84L617.39,28.03L619.57,27.55L621.74,27.55L623.91,26.11L626.09,28.03L628.26,28.03L630.43,23.71L632.61,22.76L634.78,25.63L636.96,24.19L639.13,31.38L641.3,24.19L643.48,29.46L645.65,26.11L647.83,28.98L650,22.76" style="vector-effect: non-scaling-stroke; fill: none; stroke: rgb(31, 119, 180); stroke-opacity: 1; stroke-width: 2px; opacity: 1;"/></g><g class="points"/><g class="text"/></g><g class="trace scatter tracec211bb" style="stroke-miterlimit: 2; opacity: 1;"><g class="fills"/><g class="errorbars"/><g class="lines"><path class="js-line" d="M0,292.18L2.17,277.09L4.35,214.82L6.52,241.08L8.7,225.82L10.87,220.32L13.04,304.95L15.22,257.84L17.39,168.51L19.57,236.91L21.74,205.06L23.91,194.5L26.09,161.24L28.26,219.34L30.43,172.95L32.61,134.71L34.78,134L36.96,153.78L39.13,135.86L41.3,162.66L43.48,135.6L45.65,139.59L47.83,125.31L50,161.77L52.17,107.12L56.52,140.83L58.7,140.48L60.87,142.61L63.04,111.65L65.22,116.26L67.39,131.52L69.57,106.86L71.74,118.65L73.91,118.92L76.09,138.79L78.26,139.59L80.43,134.27L82.61,120.61L84.78,95.68L86.96,98.34L89.13,131.07L91.3,89.91L93.48,102.6L95.65,101.18L97.83,90.98L100,93.37L102.17,86.1L104.35,113.07L106.52,87.87L108.7,70.48L110.87,72.97L115.22,70.13L117.39,71.28L119.57,64.81L121.74,66.67L126.09,66.14L128.26,68.44L130.43,62.77L132.61,63.92L134.78,60.81L136.96,62.5L139.13,64.72L141.3,62.68L143.48,61.7L145.65,63.12L147.83,66.05L150,62.14L156.52,64.01L158.7,60.99L160.87,63.56L163.04,57.27L165.22,60.73L167.39,65.6L169.57,60.19L171.74,58.77L176.09,65.78L178.26,60.37L180.43,62.23L182.61,56.73L184.78,63.03L186.96,61.52L189.13,58.77L191.3,60.02L193.48,62.06L195.65,57L197.83,58.51L200,61.44L202.17,59.13L204.35,59.13L206.52,57.98L208.7,60.9L210.87,57.18L213.04,59.66L215.22,57.98L217.39,55.31L221.74,55.76L223.91,54.25L226.09,52.83L228.26,53.81L232.61,54.16L234.78,53.01L236.96,52.65L239.13,55.14L241.3,54.16L243.48,54.87L245.65,53.89L247.83,54.25L250,53.98L252.17,54.78L254.35,53.54L256.52,54.52L260.87,53.89L263.04,55.93L265.22,53.1L267.39,53.36L271.74,56.11L273.91,55.93L276.09,53.98L278.26,54.25L280.43,55.4L282.61,53.72L284.78,55.4L286.96,54.16L289.13,54.34L291.3,55.58L293.48,54.43L295.65,54.87L304.35,54.16L306.52,54.96L310.87,55.49L313.04,53.1L315.22,54.25L317.39,54.07L319.57,54.43L321.74,56.91L323.91,53.81L326.09,55.85L328.26,54.96L330.43,55.14L332.61,53.81L334.78,54.34L336.96,55.85L339.13,52.74L343.48,55.85L345.65,54.78L350,54.69L352.17,56.11L354.35,54.78L356.52,55.14L358.7,56.11L360.87,54.6L363.04,55.58L365.22,53.89L367.39,54.52L369.57,53.54L371.74,53.89L373.91,55.67L376.09,54.52L378.26,55.76L382.61,54.25L384.78,56.02L386.96,54.16L389.13,53.98L391.3,53.45L393.48,54.07L395.65,54.07L397.83,56.2L400,54.25L402.17,54.16L406.52,55.31L408.7,54.96L410.87,55.23L413.04,54.69L417.39,54.52L419.57,55.49L421.74,53.54L423.91,54.16L426.09,55.49L428.26,55.49L430.43,54.25L432.61,55.49L434.78,54.69L436.96,54.87L439.13,54.78L441.3,55.67L445.65,54.16L447.83,54.07L450,56.56L452.17,54.87L454.35,53.36L456.52,54.43L460.87,56.56L463.04,54.34L469.57,54.07L471.74,54.87L473.91,53.1L476.09,54.43L478.26,53.98L480.43,55.4L484.78,56.2L486.96,54.34L489.13,55.23L491.3,54.78L497.83,55.23L500,54.52L502.17,53.98L504.35,54.78L513.04,54.16L515.22,55.58L517.39,53.89L519.57,54.25L521.74,55.4L523.91,55.14L526.09,55.85L528.26,53.54L532.61,54.16L534.78,55.31L536.96,54.43L539.13,54.69L545.65,54.34L547.83,54.07L550,54.96L552.17,54.78L554.35,55.49L556.52,53.45L558.7,55.23L560.87,53.98L565.22,54.52L567.39,54.52L569.57,53.89L571.74,54.96L576.09,55.23L578.26,55.05L582.61,54.07L584.78,55.14L589.13,52.74L591.3,56.02L593.48,54.43L595.65,55.23L597.83,54.87L600,55.49L602.17,54.16L604.35,54.87L606.52,56.2L608.7,54.78L613.04,53.63L615.22,53.98L621.74,55.4L623.91,54.6L632.61,54.43L634.78,56.29L636.96,54.07L639.13,53.98L643.48,56.2L645.65,55.49L647.83,54.87L650,55.85" style="vector-effect: non-scaling-stroke; fill: none; stroke: rgb(255, 127, 14); stroke-opacity: 1; stroke-width: 2px; opacity: 1;"/></g><g class="points"/><g class="text"/></g></g></g><g class="overplot"/><path class="xlines-above crisp" d="M0,0" style="fill: none;"/><path class="ylines-above crisp" d="M0,0" style="fill: none;"/><g class="overlines-above"/><g class="xaxislayer-above"><g class="xtick"><text text-anchor="middle" x="0" y="394" transform="translate(60,0)" style="font-family: 'Open Sans', verdana, arial, sans-serif; font-size: 12px; fill: rgb(68, 68, 68); fill-opacity: 1; white-space: pre;">0</text></g><g class="xtick"><text text-anchor="middle" x="0" y="394" transform="translate(168.7,0)" style="font-family: 'Open Sans', verdana, arial, sans-serif; font-size: 12px; fill: rgb(68, 68, 68); fill-opacity: 1; white-space: pre;">50</text></g><g class="xtick"><text text-anchor="middle" x="0" y="394" transform="translate(277.39,0)" style="font-family: 'Open Sans', verdana, arial, sans-serif; font-size: 12px; fill: rgb(68, 68, 68); fill-opacity: 1; white-space: pre;">100</text></g><g class="xtick"><text text-anchor="middle" x="0" y="394" transform="translate(386.09,0)" style="font-family: 'Open Sans', verdana, arial, sans-serif; font-size: 12px; fill: rgb(68, 68, 68); fill-opacity: 1; white-space: pre;">150</text></g><g class="xtick"><text text-anchor="middle" x="0" y="394" transform="translate(494.78,0)" style="font-family: 'Open Sans', verdana, arial, sans-serif; font-size: 12px; fill: rgb(68, 68, 68); fill-opacity: 1; white-space: pre;">200</text></g><g class="xtick"><text text-anchor="middle" x="0" y="394" transform="translate(603.48,0)" style="font-family: 'Open Sans', verdana, arial, sans-serif; font-size: 12px; fill: rgb(68, 68, 68); fill-opacity: 1; white-space: pre;">250</text></g></g><g class="yaxislayer-above"><g class="ytick"><text text-anchor="end" x="59" y="4.199999999999999" transform="translate(0,341.44)" style="font-family: 'Open Sans', verdana, arial, sans-serif; font-size: 12px; fill: rgb(68, 68, 68); fill-opacity: 1; white-space: pre;">0.4</text></g><g class="ytick"><text text-anchor="end" x="59" y="4.199999999999999" transform="translate(0,293.53999999999996)" style="font-family: 'Open Sans', verdana, arial, sans-serif; font-size: 12px; fill: rgb(68, 68, 68); fill-opacity: 1; white-space: pre;">0.5</text></g><g class="ytick"><text text-anchor="end" x="59" y="4.199999999999999" transform="translate(0,245.63)" style="font-family: 'Open Sans', verdana, arial, sans-serif; font-size: 12px; fill: rgb(68, 68, 68); fill-opacity: 1; white-space: pre;">0.6</text></g><g class="ytick"><text text-anchor="end" x="59" y="4.199999999999999" transform="translate(0,197.73)" style="font-family: 'Open Sans', verdana, arial, sans-serif; font-size: 12px; fill: rgb(68, 68, 68); fill-opacity: 1; white-space: pre;">0.7</text></g><g class="ytick"><text text-anchor="end" x="59" y="4.199999999999999" transform="translate(0,149.82)" style="font-family: 'Open Sans', verdana, arial, sans-serif; font-size: 12px; fill: rgb(68, 68, 68); fill-opacity: 1; white-space: pre;">0.8</text></g><g class="ytick"><text text-anchor="end" x="59" y="4.199999999999999" transform="translate(0,101.92)" style="font-family: 'Open Sans', verdana, arial, sans-serif; font-size: 12px; fill: rgb(68, 68, 68); fill-opacity: 1; white-space: pre;">0.9</text></g></g><g class="overaxes-above"/></g></g><g class="polarlayer"/><g class="ternarylayer"/><g class="geolayer"/><g class="funnelarealayer"/><g class="pielayer"/><g class="treemaplayer"/><g class="sunburstlayer"/><g class="glimages"/><defs id="topdefs-f83d6c"><g class="clips"/><clipPath id="legendf83d6c"><rect width="94" height="48" x="0" y="0"/></clipPath></defs><g class="layer-above"><g class="imagelayer"/><g class="shapelayer"/></g><g class="infolayer"><g class="legend" pointer-events="all" transform="translate(723,60)"><rect class="bg" shape-rendering="crispEdges" width="94" height="48" x="0" y="0" style="stroke: rgb(68, 68, 68); stroke-opacity: 1; fill: rgb(255, 255, 255); fill-opacity: 1; stroke-width: 0px;"/><g class="scrollbox" transform="" clip-path="url('#legendf83d6c')"><g class="groups"><g class="traces" transform="translate(0,14.5)" style="opacity: 1;"><text class="legendtext" text-anchor="start" x="40" y="4.680000000000001" style="font-family: 'Open Sans', verdana, arial, sans-serif; font-size: 12px; fill: rgb(68, 68, 68); fill-opacity: 1; white-space: pre;">train_acc</text><g class="layers" style="opacity: 1;"><g class="legendfill"/><g class="legendlines"><path class="js-line" d="M5,0h30" style="fill: none; stroke: rgb(31, 119, 180); stroke-opacity: 1; stroke-width: 2px;"/></g><g class="legendsymbols"><g class="legendpoints"/></g></g><rect class="legendtoggle" x="0" y="-9.5" width="88.34375" height="19" style="fill: rgb(0, 0, 0); fill-opacity: 0;"/></g><g class="traces" transform="translate(0,33.5)" style="opacity: 1;"><text class="legendtext" text-anchor="start" x="40" y="4.680000000000001" style="font-family: 'Open Sans', verdana, arial, sans-serif; font-size: 12px; fill: rgb(68, 68, 68); fill-opacity: 1; white-space: pre;">valid_acc</text><g class="layers" style="opacity: 1;"><g class="legendfill"/><g class="legendlines"><path class="js-line" d="M5,0h30" style="fill: none; stroke: rgb(255, 127, 14); stroke-opacity: 1; stroke-width: 2px;"/></g><g class="legendsymbols"><g class="legendpoints"/></g></g><rect class="legendtoggle" x="0" y="-9.5" width="88.34375" height="19" style="fill: rgb(0, 0, 0); fill-opacity: 0;"/></g></g></g><rect class="scrollbar" rx="20" ry="3" width="0" height="0" x="0" y="0" style="fill: rgb(128, 139, 164); fill-opacity: 1;"/></g><g class="g-gtitle"><text class="gtitle" x="414.5" y="30" text-anchor="middle" dy="0em" style="font-family: 'Open Sans', verdana, arial, sans-serif; font-size: 17px; fill: rgb(68, 68, 68); opacity: 1; font-weight: normal; white-space: pre;">acc_modelB</text></g><g class="g-xtitle"/><g class="g-ytitle"/></g></svg>