<svg class="main-svg" xmlns="http://www.w3.org/2000/svg" xmlns:xlink="http://www.w3.org/1999/xlink" width="1007" height="486" style="" viewBox="0 0 1007 486"><rect x="0" y="0" width="1007" height="486" style="fill: rgb(255, 255, 255); fill-opacity: 1;"/><defs id="defs-f9eee0"><g class="clips"><clipPath id="clipf9eee0xyplot" class="plotclip"><rect width="825" height="366"/></clipPath><clipPath class="axesclip" id="clipf9eee0x"><rect x="60" y="0" width="825" height="486"/></clipPath><clipPath class="axesclip" id="clipf9eee0y"><rect x="0" y="60" width="1007" height="366"/></clipPath><clipPath class="axesclip" id="clipf9eee0xy"><rect x="60" y="60" width="825" height="366"/></clipPath></g><g class="gradients"/></defs><g class="bglayer"/><g class="layer-below"><g class="imagelayer"/><g class="shapelayer"/></g><g class="cartesianlayer"><g class="subplot xy"><g class="layer-subplot"><g class="shapelayer"/><g class="imagelayer"/></g><g class="gridlayer"><g class="x"><path class="xgrid crisp" transform="translate(142.91,0)" d="M0,60v366" style="stroke: rgb(238, 238, 238); stroke-opacity: 1; stroke-width: 1px;"/><path class="xgrid crisp" transform="translate(225.83,0)" d="M0,60v366" style="stroke: rgb(238, 238, 238); stroke-opacity: 1; stroke-width: 1px;"/><path class="xgrid crisp" transform="translate(308.74,0)" d="M0,60v366" style="stroke: rgb(238, 238, 238); stroke-opacity: 1; stroke-width: 1px;"/><path class="xgrid crisp" transform="translate(391.66,0)" d="M0,60v366" style="stroke: rgb(238, 238, 238); stroke-opacity: 1; stroke-width: 1px;"/><path class="xgrid crisp" transform="translate(474.57,0)" d="M0,60v366" style="stroke: rgb(238, 238, 238); stroke-opacity: 1; stroke-width: 1px;"/><path class="xgrid crisp" transform="translate(557.49,0)" d="M0,60v366" style="stroke: rgb(238, 238, 238); stroke-opacity: 1; stroke-width: 1px;"/><path class="xgrid crisp" transform="translate(640.4,0)" d="M0,60v366" style="stroke: rgb(238, 238, 238); stroke-opacity: 1; stroke-width: 1px;"/><path class="xgrid crisp" transform="translate(723.32,0)" d="M0,60v366" style="stroke: rgb(238, 238, 238); stroke-opacity: 1; stroke-width: 1px;"/><path class="xgrid crisp" transform="translate(806.23,0)" d="M0,60v366" style="stroke: rgb(238, 238, 238); stroke-opacity: 1; stroke-width: 1px;"/></g><g class="y"><path class="ygrid crisp" transform="translate(0,419.28)" d="M60,0h825" style="stroke: rgb(238, 238, 238); stroke-opacity: 1; stroke-width: 1px;"/><path class="ygrid crisp" transform="translate(0,358.57)" d="M60,0h825" style="stroke: rgb(238, 238, 238); stroke-opacity: 1; stroke-width: 1px;"/><path class="ygrid crisp" transform="translate(0,297.86)" d="M60,0h825" style="stroke: rgb(238, 238, 238); stroke-opacity: 1; stroke-width: 1px;"/><path class="ygrid crisp" transform="translate(0,237.15)" d="M60,0h825" style="stroke: rgb(238, 238, 238); stroke-opacity: 1; stroke-width: 1px;"/><path class="ygrid crisp" transform="translate(0,176.45)" d="M60,0h825" style="stroke: rgb(238, 238, 238); stroke-opacity: 1; stroke-width: 1px;"/><path class="ygrid crisp" transform="translate(0,115.74000000000001)" d="M60,0h825" style="stroke: rgb(238, 238, 238); stroke-opacity: 1; stroke-width: 1px;"/></g></g><g class="zerolinelayer"><path class="xzl zl crisp" transform="translate(60,0)" d="M0,60v366" style="stroke: rgb(68, 68, 68); stroke-opacity: 1; stroke-width: 1px;"/></g><path class="xlines-below"/><path class="ylines-below"/><g class="overlines-below"/><g class="xaxislayer-below"/><g class="yaxislayer-below"/><g class="overaxes-below"/><g class="plot" transform="translate(60,60)" clip-path="url('#clipf9eee0xyplot')"><g class="scatterlayer mlayer"><g class="trace scatter trace3f9803" style="stroke-miterlimit: 2; opacity: 1;"><g class="fills"/><g class="errorbars"/><g class="lines"><path class="js-line" d="M0,344.78L4.15,299.3L8.29,275.44L12.44,252.14L16.58,238.71L20.73,232.41L24.87,221.67L33.17,206.05L37.31,205.12L45.6,193.48L49.75,189.69L58.04,184.66L62.19,182.97L74.62,177.32L78.77,177.44L91.21,172.09L95.35,170.83L103.64,170.35L107.79,169.34L111.93,166.7L116.08,166.92L120.23,166.39L124.37,167.12L132.66,160.97L136.81,162.82L140.95,163.07L145.1,160.85L149.25,161.92L153.39,160.21L157.54,161.81L161.68,159.22L174.12,159.45L178.27,158.27L186.56,158.15L190.7,156.44L194.85,158.13L198.99,157.06L203.14,157.54L207.29,155.82L211.43,157.48L215.58,153.69L219.72,155.23L223.87,155.85L228.02,154.44L232.16,154.22L236.31,154.84L240.45,153.94L248.74,153.55L252.89,154.78L261.18,152.62L265.33,153.85L269.47,151.63L273.62,154.3L281.91,152.65L286.06,152.95L290.2,151.07L294.35,154.61L298.49,151.55L302.64,151.3L315.08,150.43L319.22,151.07L323.37,151.58L327.51,149.98L331.66,150.51L335.8,148.71L339.95,151.07L344.1,150.57L348.24,149.78L352.39,150.68L356.53,150.88L360.68,148.88L377.26,148.6L381.41,149.86L385.55,148.49L389.7,150.34L397.99,149.75L402.14,147.9L406.28,150.12L410.43,149.08L414.57,147.42L418.72,151.47L422.86,147.56L427.01,147.39L431.16,149.3L435.3,148.94L439.45,149.19L443.59,147.25L447.74,148.32L451.88,147.78L460.18,148.01L464.32,147.98L468.47,146.52L472.61,148.12L480.9,146.8L485.05,148.15L489.2,147.19L493.34,148.06L497.49,146.41L501.63,147.02L509.92,147.7L514.07,147.17L518.22,147.42L522.36,146.66L526.51,147.87L530.65,147.84L538.94,145.37L543.09,148.21L547.24,146.32L551.38,147.42L567.96,145.25L572.11,146.83L584.55,145.31L588.69,147.17L592.84,145.73L596.98,145.87L605.28,146.66L609.42,144.52L613.57,145.73L617.71,145.48L621.86,147.11L626.01,146.49L630.15,145.7L634.3,146.13L642.59,144.02L646.73,147.36L650.88,145.37L655.03,145.82L659.17,144.69L663.32,145.34L667.46,144.07L671.61,144.78L675.75,145.39L679.9,144.72L684.05,143.99L688.19,146.6L692.34,144.5L696.48,144.38L700.63,145.98L704.77,143.48L713.07,144.33L717.21,144.55L721.36,146.94L725.5,144.13L733.79,145.9L737.94,144.38L742.09,145.79L746.23,144.33L754.52,144.1L758.67,142.58L762.81,144.78L766.96,145.42L771.11,145.68L775.25,144.83L779.4,142.95L783.54,145.65L791.83,143.17L795.98,143.51L800.13,143.82L804.27,143.23L812.56,143.9L816.71,144.78L820.85,142.72L825,144.75" style="vector-effect: non-scaling-stroke; fill: none; stroke: rgb(31, 119, 180); stroke-opacity: 1; stroke-width: 2px; opacity: 1;"/></g><g class="points"/><g class="text"/></g><g class="trace scatter trace801f09" style="stroke-miterlimit: 2; opacity: 1;"><g class="fills"/><g class="errorbars"/><g class="lines"><path class="js-line" d="M0,347.7L4.15,300.59L8.29,194.69L12.44,186.04L16.58,164L20.73,116.22L24.87,84.74L29.02,106.78L33.17,98.91L37.31,71.81L41.46,76.54L45.6,71.59L49.75,85.08L53.89,65.18L58.04,65.29L62.19,65.86L66.33,63.72L70.48,47.98L74.62,67.99L78.77,53.83L82.91,43.48L87.06,37.97L91.21,44.38L95.35,49.44L99.5,38.31L103.64,41.35L107.79,45.73L111.93,36.51L116.08,33.14L120.23,40.33L124.37,35.16L128.52,39.77L132.66,33.25L136.81,50.12L140.95,40.11L145.1,38.31L149.25,32.24L153.39,29.32L157.54,31.68L161.68,36.18L165.83,26.39L169.97,35.95L174.12,34.04L178.27,31.68L182.41,30.33L186.56,29.77L190.7,26.84L194.85,29.54L198.99,28.42L203.14,29.09L207.29,28.08L211.43,26.84L215.58,28.64L219.72,32.47L223.87,25.72L228.02,31.57L232.16,31.23L236.31,27.74L240.45,41.23L244.6,28.08L248.74,38.42L252.89,24.03L257.04,25.5L261.18,26.96L265.33,26.73L269.47,25.61L273.62,26.62L277.76,28.76L281.91,26.28L286.06,30.44L290.2,31.68L294.35,21.9L298.49,26.17L302.64,29.77L306.78,26.39L310.93,28.08L315.08,24.82L319.22,28.08L323.37,26.96L327.51,24.93L331.66,29.21L335.8,24.93L339.95,33.14L344.1,23.92L348.24,23.7L352.39,28.76L356.53,24.6L360.68,29.65L364.82,23.13L368.97,26.17L373.12,22.46L381.41,35.05L385.55,25.5L389.7,21.9L393.84,20.1L397.99,21.67L402.14,26.39L410.43,21.9L414.57,24.15L418.72,22.23L422.86,23.92L427.01,25.83L431.16,24.93L435.3,24.03L439.45,28.08L443.59,21.22L447.74,19.54L451.88,20.44L456.03,26.84L460.18,23.58L464.32,26.06L468.47,21L472.61,26.96L476.76,22.46L480.9,22.23L485.05,18.3L489.2,29.54L493.34,25.38L497.49,29.21L501.63,25.94L505.78,24.26L509.92,19.31L514.07,24.6L518.22,24.15L522.36,24.93L526.51,22.23L530.65,21.22L534.8,22.68L538.94,20.66L547.24,23.47L551.38,23.13L555.53,23.13L559.67,32.69L563.82,22.12L567.96,26.62L572.11,23.92L576.26,24.71L580.4,23.58L584.55,23.36L588.69,23.25L592.84,20.89L596.98,20.66L601.13,24.71L605.28,18.97L609.42,20.32L613.57,22.8L617.71,21L621.86,19.76L626.01,23.7L630.15,27.97L634.3,25.94L638.44,21.22L642.59,19.2L646.73,23.02L650.88,29.09L655.03,21.34L659.17,25.72L663.32,19.31L667.46,20.77L675.75,23.02L679.9,20.55L684.05,21.79L688.19,21L692.34,27.74L696.48,24.03L700.63,24.03L704.77,22.01L708.92,21.22L713.07,25.38L717.21,24.03L721.36,19.99L725.5,23.47L729.65,23.58L737.94,28.42L742.09,21.11L746.23,22.23L750.38,21.79L754.52,21.45L758.67,20.32L762.81,23.25L766.96,20.1L771.11,20.1L775.25,23.47L779.4,25.61L783.54,23.92L787.69,23.92L791.83,28.31L795.98,22.35L800.13,21.34L804.27,21.45L808.42,25.27L812.56,25.61L816.71,23.47L820.85,21.9L825,27.41" style="vector-effect: non-scaling-stroke; fill: none; stroke: rgb(255, 127, 14); stroke-opacity: 1; stroke-width: 2px; opacity: 1;"/></g><g class="points"/><g class="text"/></g></g></g><g class="overplot"/><path class="xlines-above crisp" d="M0,0" style="fill: none;"/><path class="ylines-above crisp" d="M0,0" style="fill: none;"/><g class="overlines-above"/><g class="xaxislayer-above"><g class="xtick"><text text-anchor="middle" x="0" y="439" transform="translate(60,0)" style="font-family: 'Open Sans', verdana, arial, sans-serif; font-size: 12px; fill: rgb(68, 68, 68); fill-opacity: 1; white-space: pre;">0</text></g><g class="xtick"><text text-anchor="middle" x="0" y="439" transform="translate(142.91,0)" style="font-family: 'Open Sans', verdana, arial, sans-serif; font-size: 12px; fill: rgb(68, 68, 68); fill-opacity: 1; white-space: pre;">20</text></g><g class="xtick"><text text-anchor="middle" x="0" y="439" transform="translate(225.83,0)" style="font-family: 'Open Sans', verdana, arial, sans-serif; font-size: 12px; fill: rgb(68, 68, 68); fill-opacity: 1; white-space: pre;">40</text></g><g class="xtick"><text text-anchor="middle" x="0" y="439" transform="translate(308.74,0)" style="font-family: 'Open Sans', verdana, arial, sans-serif; font-size: 12px; fill: rgb(68, 68, 68); fill-opacity: 1; white-space: pre;">60</text></g><g class="xtick"><text text-anchor="middle" x="0" y="439" transform="translate(391.66,0)" style="font-family: 'Open Sans', verdana, arial, sans-serif; font-size: 12px; fill: rgb(68, 68, 68); fill-opacity: 1; white-space: pre;">80</text></g><g class="xtick"><text text-anchor="middle" x="0" y="439" transform="translate(474.57,0)" style="font-family: 'Open Sans', verdana, arial, sans-serif; font-size: 12px; fill: rgb(68, 68, 68); fill-opacity: 1; white-space: pre;">100</text></g><g class="xtick"><text text-anchor="middle" x="0" y="439" transform="translate(557.49,0)" style="font-family: 'Open Sans', verdana, arial, sans-serif; font-size: 12px; fill: rgb(68, 68, 68); fill-opacity: 1; white-space: pre;">120</text></g><g class="xtick"><text text-anchor="middle" x="0" y="439" transform="translate(640.4,0)" style="font-family: 'Open Sans', verdana, arial, sans-serif; font-size: 12px; fill: rgb(68, 68, 68); fill-opacity: 1; white-space: pre;">140</text></g><g class="xtick"><text text-anchor="middle" x="0" y="439" transform="translate(723.32,0)" style="font-family: 'Open Sans', verdana, arial, sans-serif; font-size: 12px; fill: rgb(68, 68, 68); fill-opacity: 1; white-space: pre;">160</text></g><g class="xtick"><text text-anchor="middle" x="0" y="439" transform="translate(806.23,0)" style="font-family: 'Open Sans', verdana, arial, sans-serif; font-size: 12px; fill: rgb(68, 68, 68); fill-opacity: 1; white-space: pre;">180</text></g></g><g class="yaxislayer-above"><g class="ytick"><text text-anchor="end" x="59" y="4.199999999999999" transform="translate(0,419.28)" style="font-family: 'Open Sans', verdana, arial, sans-serif; font-size: 12px; fill: rgb(68, 68, 68); fill-opacity: 1; white-space: pre;">0.4</text></g><g class="ytick"><text text-anchor="end" x="59" y="4.199999999999999" transform="translate(0,358.57)" style="font-family: 'Open Sans', verdana, arial, sans-serif; font-size: 12px; fill: rgb(68, 68, 68); fill-opacity: 1; white-space: pre;">0.5</text></g><g class="ytick"><text text-anchor="end" x="59" y="4.199999999999999" transform="translate(0,297.86)" style="font-family: 'Open Sans', verdana, arial, sans-serif; font-size: 12px; fill: rgb(68, 68, 68); fill-opacity: 1; white-space: pre;">0.6</text></g><g class="ytick"><text text-anchor="end" x="59" y="4.199999999999999" transform="translate(0,237.15)" style="font-family: 'Open Sans', verdana, arial, sans-serif; font-size: 12px; fill: rgb(68, 68, 68); fill-opacity: 1; white-space: pre;">0.7</text></g><g class="ytick"><text text-anchor="end" x="59" y="4.199999999999999" transform="translate(0,176.45)" style="font-family: 'Open Sans', verdana, arial, sans-serif; font-size: 12px; fill: rgb(68, 68, 68); fill-opacity: 1; white-space: pre;">0.8</text></g><g class="ytick"><text text-anchor="end" x="59" y="4.199999999999999" transform="translate(0,115.74000000000001)" style="font-family: 'Open Sans', verdana, arial, sans-serif; font-size: 12px; fill: rgb(68, 68, 68); fill-opacity: 1; white-space: pre;">0.9</text></g></g><g class="overaxes-above"/></g></g><g class="polarlayer"/><g class="ternarylayer"/><g class="geolayer"/><g class="funnelarealayer"/><g class="pielayer"/><g class="treemaplayer"/><g class="sunburstlayer"/><g class="glimages"/><defs id="topdefs-f9eee0"><g class="clips"/><clipPath id="legendf9eee0"><rect width="94" height="48" x="0" y="0"/></clipPath></defs><g class="layer-above"><g class="imagelayer"/><g class="shapelayer"/></g><g class="infolayer"><g class="legend" pointer-events="all" transform="translate(901.5,60)"><rect class="bg" shape-rendering="crispEdges" width="94" height="48" x="0" y="0" style="stroke: rgb(68, 68, 68); stroke-opacity: 1; fill: rgb(255, 255, 255); fill-opacity: 1; stroke-width: 0px;"/><g class="scrollbox" transform="" clip-path="url('#legendf9eee0')"><g class="groups"><g class="traces" transform="translate(0,14.5)" style="opacity: 1;"><text class="legendtext" text-anchor="start" x="40" y="4.680000000000001" style="font-family: 'Open Sans', verdana, arial, sans-serif; font-size: 12px; fill: rgb(68, 68, 68); fill-opacity: 1; white-space: pre;">train_acc</text><g class="layers" style="opacity: 1;"><g class="legendfill"/><g class="legendlines"><path class="js-line" d="M5,0h30" style="fill: none; stroke: rgb(31, 119, 180); stroke-opacity: 1; stroke-width: 2px;"/></g><g class="legendsymbols"><g class="legendpoints"/></g></g><rect class="legendtoggle" x="0" y="-9.5" width="88.34375" height="19" style="fill: rgb(0, 0, 0); fill-opacity: 0;"/></g><g class="traces" transform="translate(0,33.5)" style="opacity: 1;"><text class="legendtext" text-anchor="start" x="40" y="4.680000000000001" style="font-family: 'Open Sans', verdana, arial, sans-serif; font-size: 12px; fill: rgb(68, 68, 68); fill-opacity: 1; white-space: pre;">valid_acc</text><g class="layers" style="opacity: 1;"><g class="legendfill"/><g class="legendlines"><path class="js-line" d="M5,0h30" style="fill: none; stroke: rgb(255, 127, 14); stroke-opacity: 1; stroke-width: 2px;"/></g><g class="legendsymbols"><g class="legendpoints"/></g></g><rect class="legendtoggle" x="0" y="-9.5" width="88.34375" height="19" style="fill: rgb(0, 0, 0); fill-opacity: 0;"/></g></g></g><rect class="scrollbar" rx="20" ry="3" width="0" height="0" x="0" y="0" style="fill: rgb(128, 139, 164); fill-opacity: 1;"/></g><g class="g-gtitle"><text class="gtitle" x="503.5" y="30" text-anchor="middle" dy="0em" style="font-family: 'Open Sans', verdana, arial, sans-serif; font-size: 17px; fill: rgb(68, 68, 68); opacity: 1; font-weight: normal; white-space: pre;">acc_modelC_NoKM</text></g><g class="g-xtitle"/><g class="g-ytitle"/></g></svg>