<svg class="main-svg" xmlns="http://www.w3.org/2000/svg" xmlns:xlink="http://www.w3.org/1999/xlink" width="958" height="441" style="" viewBox="0 0 958 441"><rect x="0" y="0" width="958" height="441" style="fill: rgb(255, 255, 255); fill-opacity: 1;"/><defs id="defs-c9cd08"><g class="clips"><clipPath id="clipc9cd08xyplot" class="plotclip"><rect width="766" height="321"/></clipPath><clipPath class="axesclip" id="clipc9cd08x"><rect x="60" y="0" width="766" height="441"/></clipPath><clipPath class="axesclip" id="clipc9cd08y"><rect x="0" y="60" width="958" height="321"/></clipPath><clipPath class="axesclip" id="clipc9cd08xy"><rect x="60" y="60" width="766" height="321"/></clipPath></g><g class="gradients"/></defs><g class="bglayer"/><g class="layer-below"><g class="imagelayer"/><g class="shapelayer"/></g><g class="cartesianlayer"><g class="subplot xy"><g class="layer-subplot"><g class="shapelayer"/><g class="imagelayer"/></g><g class="gridlayer"><g class="x"><path class="xgrid crisp" transform="translate(136.98000000000002,0)" d="M0,60v321" style="stroke: rgb(238, 238, 238); stroke-opacity: 1; stroke-width: 1px;"/><path class="xgrid crisp" transform="translate(213.97,0)" d="M0,60v321" style="stroke: rgb(238, 238, 238); stroke-opacity: 1; stroke-width: 1px;"/><path class="xgrid crisp" transform="translate(290.95,0)" d="M0,60v321" style="stroke: rgb(238, 238, 238); stroke-opacity: 1; stroke-width: 1px;"/><path class="xgrid crisp" transform="translate(367.94,0)" d="M0,60v321" style="stroke: rgb(238, 238, 238); stroke-opacity: 1; stroke-width: 1px;"/><path class="xgrid crisp" transform="translate(444.92,0)" d="M0,60v321" style="stroke: rgb(238, 238, 238); stroke-opacity: 1; stroke-width: 1px;"/><path class="xgrid crisp" transform="translate(521.9100000000001,0)" d="M0,60v321" style="stroke: rgb(238, 238, 238); stroke-opacity: 1; stroke-width: 1px;"/><path class="xgrid crisp" transform="translate(598.89,0)" d="M0,60v321" style="stroke: rgb(238, 238, 238); stroke-opacity: 1; stroke-width: 1px;"/><path class="xgrid crisp" transform="translate(675.88,0)" d="M0,60v321" style="stroke: rgb(238, 238, 238); stroke-opacity: 1; stroke-width: 1px;"/><path class="xgrid crisp" transform="translate(752.86,0)" d="M0,60v321" style="stroke: rgb(238, 238, 238); stroke-opacity: 1; stroke-width: 1px;"/></g><g class="y"><path class="ygrid crisp" transform="translate(0,345.84)" d="M60,0h766" style="stroke: rgb(238, 238, 238); stroke-opacity: 1; stroke-width: 1px;"/><path class="ygrid crisp" transform="translate(0,300.78999999999996)" d="M60,0h766" style="stroke: rgb(238, 238, 238); stroke-opacity: 1; stroke-width: 1px;"/><path class="ygrid crisp" transform="translate(0,255.73)" d="M60,0h766" style="stroke: rgb(238, 238, 238); stroke-opacity: 1; stroke-width: 1px;"/><path class="ygrid crisp" transform="translate(0,210.68)" d="M60,0h766" style="stroke: rgb(238, 238, 238); stroke-opacity: 1; stroke-width: 1px;"/><path class="ygrid crisp" transform="translate(0,165.63)" d="M60,0h766" style="stroke: rgb(238, 238, 238); stroke-opacity: 1; stroke-width: 1px;"/><path class="ygrid crisp" transform="translate(0,120.58)" d="M60,0h766" style="stroke: rgb(238, 238, 238); stroke-opacity: 1; stroke-width: 1px;"/><path class="ygrid crisp" transform="translate(0,75.53)" d="M60,0h766" style="stroke: rgb(238, 238, 238); stroke-opacity: 1; stroke-width: 1px;"/></g></g><g class="zerolinelayer"><path class="xzl zl crisp" transform="translate(60,0)" d="M0,60v321" style="stroke: rgb(68, 68, 68); stroke-opacity: 1; stroke-width: 1px;"/></g><path class="xlines-below"/><path class="ylines-below"/><g class="overlines-below"/><g class="xaxislayer-below"/><g class="yaxislayer-below"/><g class="overaxes-below"/><g class="plot" transform="translate(60,60)" clip-path="url('#clipc9cd08xyplot')"><g class="scatterlayer mlayer"><g class="trace scatter traceb385fb" style="stroke-miterlimit: 2; opacity: 1;"><g class="fills"/><g class="errorbars"/><g class="lines"><path class="js-line" d="M0,166.14L3.85,192.86L7.7,206.32L11.55,198.61L15.4,205.58L23.1,218.43L26.94,215.76L30.79,217.9L34.64,221.46L38.49,226.08L42.34,225.34L46.19,226.38L50.04,232.73L53.89,231.62L57.74,235.98L61.59,240.79L65.44,238.65L69.29,239.27L73.14,243.17L76.98,242.2L80.83,242.82L84.68,244.53L88.53,249.39L92.38,241L96.23,251.72L100.08,254.6L103.93,245.81L107.78,246.04L111.63,253.31L115.48,259.73L119.33,260.52L127.03,261.88L130.87,257.93L134.72,268.07L138.57,265L142.42,265.67L146.27,263.2L150.12,269.57L153.97,274.48L157.82,280.71L161.67,284.65L165.52,281.58L169.37,285.73L173.22,281.72L177.07,284.35L180.91,283.77L184.76,284.56L188.61,286.22L192.46,286.89L196.31,288.67L200.16,283.97L204.01,289.37L207.86,287.19L211.71,289.87L215.56,289.05L219.41,291.24L223.26,290.48L227.11,286.51L230.95,291.98L238.65,289.57L242.5,292.49L246.35,287.55L250.2,292.05L254.05,292.62L257.9,289.28L265.6,294.32L269.45,286.98L273.3,292.7L277.15,294.9L280.99,293.63L284.84,296.24L288.69,290.7L292.54,296.15L296.39,292.03L300.24,295.32L304.09,297.09L307.94,293.65L311.79,300.61L315.64,298.15L319.49,295.29L323.34,299.1L327.19,301.06L331.04,297.63L334.88,301.45L338.73,300.33L346.43,296.61L350.28,300.6L354.13,299.2L357.98,296.97L361.83,297.8L365.68,299.6L369.53,298.72L373.38,302.48L377.23,295.38L381.08,300.86L384.92,302.31L388.77,299.47L396.47,297.61L400.32,299.06L404.17,298.63L408.02,300.32L411.87,301.6L415.72,299.23L419.57,300L423.42,297.22L427.27,297.6L431.12,299.41L434.96,298.73L438.81,303.51L442.66,301.61L446.51,304.37L450.36,302.98L454.21,300.53L465.76,301.14L469.61,303.29L473.46,303.84L477.31,301.25L485.01,300.49L488.85,301.44L492.7,300.61L496.55,303.15L500.4,303L504.25,296.5L508.1,302.72L511.95,301.42L515.8,298.08L519.65,303.07L523.5,301.03L527.35,304.89L531.2,301.87L535.05,301.99L538.89,297.77L542.74,299.28L546.59,301.76L550.44,299.6L554.29,297.27L558.14,299.75L561.99,302.19L565.84,300.09L569.69,301.37L573.54,299.88L581.24,302.2L585.09,303.46L592.78,301L596.63,303.93L600.48,300.47L604.33,301.36L608.18,303.06L612.03,298.91L615.88,300.62L619.73,300.1L623.58,298.71L627.43,304.49L631.28,302.39L635.13,298.73L638.97,300.89L642.82,299.65L650.52,302.26L654.37,300.59L658.22,300.92L662.07,303.14L665.92,301.93L669.77,299.12L673.62,302.64L677.47,297.68L681.32,301.89L685.17,304.07L689.02,302.41L692.86,302.97L696.71,298.39L700.56,302.6L704.41,299.33L708.26,304.95L712.11,302.05L715.96,302.53L723.66,299.81L727.51,300.2L731.36,302.88L735.21,302.1L739.06,300.16L742.9,301.12L746.75,304.16L750.6,303.86L754.45,298.6L758.3,300.91L762.15,297.54L766,302" style="vector-effect: non-scaling-stroke; fill: none; stroke: rgb(31, 119, 180); stroke-opacity: 1; stroke-width: 2px; opacity: 1;"/></g><g class="points"/><g class="text"/></g><g class="trace scatter traced3b9a4" style="stroke-miterlimit: 2; opacity: 1;"><g class="fills"/><g class="errorbars"/><g class="lines"><path class="js-line" d="M0,16.05L3.85,192.11L7.7,192.87L11.55,208.56L15.4,169.95L23.1,221.88L26.94,202.29L30.79,165.74L34.64,229.91L38.49,56.59L42.34,224.26L46.19,232.66L50.04,232.79L53.89,225.65L57.74,245.61L61.59,247.73L65.44,226.28L69.29,234L73.14,235.38L76.98,241.24L80.83,232.36L84.68,224.24L88.53,246.59L92.38,246.38L96.23,257.11L100.08,232.01L103.93,217.58L107.78,178.19L111.63,262.33L115.48,245.55L119.33,267.05L123.18,265.87L127.03,254.46L130.87,264.68L134.72,258.82L138.57,270.09L142.42,262.51L146.27,253.17L150.12,259.91L153.97,277.16L157.82,278.35L165.52,281.1L169.37,279.3L177.07,282.52L180.91,281.26L184.76,282.92L188.61,282.97L192.46,285.01L196.31,285.13L200.16,282.94L204.01,284.2L211.71,285.34L215.56,284.32L219.41,285.05L223.26,283.13L227.11,287.29L230.95,286.88L234.8,285.36L238.65,284.79L242.5,281.34L246.35,285.03L254.05,286.9L257.9,284.16L261.75,287.07L265.6,284.75L273.3,286.33L277.15,288.56L280.99,286.4L284.84,286.11L288.69,286.44L292.54,287.79L296.39,285.88L300.24,288.26L304.09,286.65L307.94,287.58L315.64,288.51L319.49,287.64L323.34,288.48L327.19,288.24L338.73,289.14L342.58,288.16L350.28,287.61L354.13,288.65L361.83,288.47L365.68,287.48L369.53,288.59L373.38,288.41L377.23,288.85L381.08,288.18L384.92,288.7L388.77,288.32L404.17,288.46L408.02,288.72L415.72,289.33L419.57,288.91L423.42,288.06L427.27,288.56L434.96,289.22L438.81,287.46L446.51,288.69L450.36,288.12L461.91,288.32L465.76,288.75L473.46,288.63L477.31,288.8L488.85,288.29L492.7,288.8L504.25,288.71L508.1,289.17L515.8,288.71L519.65,288.83L527.35,288.45L531.2,288.91L538.89,288.72L542.74,288.59L554.29,288.69L558.14,288.2L561.99,288.25L565.84,289.12L569.69,288.59L573.54,288.97L577.39,288.31L581.24,288.98L592.78,287.68L596.63,288.76L600.48,287.92L604.33,288.55L619.73,288.85L623.58,288.46L635.13,288.75L638.97,288.69L646.67,288.49L650.52,288.02L662.07,288.69L665.92,288.77L669.77,287.86L673.62,288.63L685.17,288.42L689.02,288.14L696.71,289.05L700.56,288.07L704.41,289.01L708.26,288.79L712.11,288.16L715.96,288.39L719.81,288.04L723.66,288.62L735.21,288.6L739.06,287.94L746.75,288.05L750.6,288.45L762.15,288.7L766,288.48" style="vector-effect: non-scaling-stroke; fill: none; stroke: rgb(255, 127, 14); stroke-opacity: 1; stroke-width: 2px; opacity: 1;"/></g><g class="points"/><g class="text"/></g></g></g><g class="overplot"/><path class="xlines-above crisp" d="M0,0" style="fill: none;"/><path class="ylines-above crisp" d="M0,0" style="fill: none;"/><g class="overlines-above"/><g class="xaxislayer-above"><g class="xtick"><text text-anchor="middle" x="0" y="394" transform="translate(60,0)" style="font-family: 'Open Sans', verdana, arial, sans-serif; font-size: 12px; fill: rgb(68, 68, 68); fill-opacity: 1; white-space: pre;">0</text></g><g class="xtick"><text text-anchor="middle" x="0" y="394" transform="translate(136.98000000000002,0)" style="font-family: 'Open Sans', verdana, arial, sans-serif; font-size: 12px; fill: rgb(68, 68, 68); fill-opacity: 1; white-space: pre;">20</text></g><g class="xtick"><text text-anchor="middle" x="0" y="394" transform="translate(213.97,0)" style="font-family: 'Open Sans', verdana, arial, sans-serif; font-size: 12px; fill: rgb(68, 68, 68); fill-opacity: 1; white-space: pre;">40</text></g><g class="xtick"><text text-anchor="middle" x="0" y="394" transform="translate(290.95,0)" style="font-family: 'Open Sans', verdana, arial, sans-serif; font-size: 12px; fill: rgb(68, 68, 68); fill-opacity: 1; white-space: pre;">60</text></g><g class="xtick"><text text-anchor="middle" x="0" y="394" transform="translate(367.94,0)" style="font-family: 'Open Sans', verdana, arial, sans-serif; font-size: 12px; fill: rgb(68, 68, 68); fill-opacity: 1; white-space: pre;">80</text></g><g class="xtick"><text text-anchor="middle" x="0" y="394" transform="translate(444.92,0)" style="font-family: 'Open Sans', verdana, arial, sans-serif; font-size: 12px; fill: rgb(68, 68, 68); fill-opacity: 1; white-space: pre;">100</text></g><g class="xtick"><text text-anchor="middle" x="0" y="394" transform="translate(521.9100000000001,0)" style="font-family: 'Open Sans', verdana, arial, sans-serif; font-size: 12px; fill: rgb(68, 68, 68); fill-opacity: 1; white-space: pre;">120</text></g><g class="xtick"><text text-anchor="middle" x="0" y="394" transform="translate(598.89,0)" style="font-family: 'Open Sans', verdana, arial, sans-serif; font-size: 12px; fill: rgb(68, 68, 68); fill-opacity: 1; white-space: pre;">140</text></g><g class="xtick"><text text-anchor="middle" x="0" y="394" transform="translate(675.88,0)" style="font-family: 'Open Sans', verdana, arial, sans-serif; font-size: 12px; fill: rgb(68, 68, 68); fill-opacity: 1; white-space: pre;">160</text></g><g class="xtick"><text text-anchor="middle" x="0" y="394" transform="translate(752.86,0)" style="font-family: 'Open Sans', verdana, arial, sans-serif; font-size: 12px; fill: rgb(68, 68, 68); fill-opacity: 1; white-space: pre;">180</text></g></g><g class="yaxislayer-above"><g class="ytick"><text text-anchor="end" x="59" y="4.199999999999999" transform="translate(0,345.84)" style="font-family: 'Open Sans', verdana, arial, sans-serif; font-size: 12px; fill: rgb(68, 68, 68); fill-opacity: 1; white-space: pre;">0.5</text></g><g class="ytick"><text text-anchor="end" x="59" y="4.199999999999999" transform="translate(0,300.78999999999996)" style="font-family: 'Open Sans', verdana, arial, sans-serif; font-size: 12px; fill: rgb(68, 68, 68); fill-opacity: 1; white-space: pre;">1</text></g><g class="ytick"><text text-anchor="end" x="59" y="4.199999999999999" transform="translate(0,255.73)" style="font-family: 'Open Sans', verdana, arial, sans-serif; font-size: 12px; fill: rgb(68, 68, 68); fill-opacity: 1; white-space: pre;">1.5</text></g><g class="ytick"><text text-anchor="end" x="59" y="4.199999999999999" transform="translate(0,210.68)" style="font-family: 'Open Sans', verdana, arial, sans-serif; font-size: 12px; fill: rgb(68, 68, 68); fill-opacity: 1; white-space: pre;">2</text></g><g class="ytick"><text text-anchor="end" x="59" y="4.199999999999999" transform="translate(0,165.63)" style="font-family: 'Open Sans', verdana, arial, sans-serif; font-size: 12px; fill: rgb(68, 68, 68); fill-opacity: 1; white-space: pre;">2.5</text></g><g class="ytick"><text text-anchor="end" x="59" y="4.199999999999999" transform="translate(0,120.58)" style="font-family: 'Open Sans', verdana, arial, sans-serif; font-size: 12px; fill: rgb(68, 68, 68); fill-opacity: 1; white-space: pre;">3</text></g><g class="ytick"><text text-anchor="end" x="59" y="4.199999999999999" transform="translate(0,75.53)" style="font-family: 'Open Sans', verdana, arial, sans-serif; font-size: 12px; fill: rgb(68, 68, 68); fill-opacity: 1; white-space: pre;">3.5</text></g></g><g class="overaxes-above"/></g></g><g class="polarlayer"/><g class="ternarylayer"/><g class="geolayer"/><g class="funnelarealayer"/><g class="pielayer"/><g class="treemaplayer"/><g class="sunburstlayer"/><g class="glimages"/><defs id="topdefs-c9cd08"><g class="clips"/><clipPath id="legendc9cd08"><rect width="105" height="48" x="0" y="0"/></clipPath></defs><g class="layer-above"><g class="imagelayer"/><g class="shapelayer"/></g><g class="infolayer"><g class="legend" pointer-events="all" transform="translate(841.32,60)"><rect class="bg" shape-rendering="crispEdges" width="105" height="48" x="0" y="0" style="stroke: rgb(68, 68, 68); stroke-opacity: 1; fill: rgb(255, 255, 255); fill-opacity: 1; stroke-width: 0px;"/><g class="scrollbox" transform="" clip-path="url('#legendc9cd08')"><g class="groups"><g class="traces" transform="translate(0,14.5)" style="opacity: 1;"><text class="legendtext" text-anchor="start" x="40" y="4.680000000000001" style="font-family: 'Open Sans', verdana, arial, sans-serif; font-size: 12px; fill: rgb(68, 68, 68); fill-opacity: 1; white-space: pre;">train_loss</text><g class="layers" style="opacity: 1;"><g class="legendfill"/><g class="legendlines"><path class="js-line" d="M5,0h30" style="fill: none; stroke: rgb(31, 119, 180); stroke-opacity: 1; stroke-width: 2px;"/></g><g class="legendsymbols"><g class="legendpoints"/></g></g><rect class="legendtoggle" x="0" y="-9.5" width="99.59375" height="19" style="fill: rgb(0, 0, 0); fill-opacity: 0;"/></g><g class="traces" transform="translate(0,33.5)" style="opacity: 1;"><text class="legendtext" text-anchor="start" x="40" y="4.680000000000001" style="font-family: 'Open Sans', verdana, arial, sans-serif; font-size: 12px; fill: rgb(68, 68, 68); fill-opacity: 1; white-space: pre;">valid_loss</text><g class="layers" style="opacity: 1;"><g class="legendfill"/><g class="legendlines"><path class="js-line" d="M5,0h30" style="fill: none; stroke: rgb(255, 127, 14); stroke-opacity: 1; stroke-width: 2px;"/></g><g class="legendsymbols"><g class="legendpoints"/></g></g><rect class="legendtoggle" x="0" y="-9.5" width="99.59375" height="19" style="fill: rgb(0, 0, 0); fill-opacity: 0;"/></g></g></g><rect class="scrollbar" rx="20" ry="3" width="0" height="0" x="0" y="0" style="fill: rgb(128, 139, 164); fill-opacity: 1;"/></g><g class="g-gtitle"><text class="gtitle" x="479" y="30" text-anchor="middle" dy="0em" style="font-family: 'Open Sans', verdana, arial, sans-serif; font-size: 17px; fill: rgb(68, 68, 68); opacity: 1; font-weight: normal; white-space: pre;">loss_modelB_18_0000</text></g><g class="g-xtitle"/><g class="g-ytitle"/></g></svg>