<svg class="main-svg" xmlns="http://www.w3.org/2000/svg" xmlns:xlink="http://www.w3.org/1999/xlink" width="855" height="396" style="" viewBox="0 0 855 396"><rect x="0" y="0" width="855" height="396" style="fill: rgb(255, 255, 255); fill-opacity: 1;"/><defs id="defs-f77ef0"><g class="clips"><clipPath id="clipf77ef0xyplot" class="plotclip"><rect width="673" height="276"/></clipPath><clipPath class="axesclip" id="clipf77ef0x"><rect x="60" y="0" width="673" height="396"/></clipPath><clipPath class="axesclip" id="clipf77ef0y"><rect x="0" y="60" width="855" height="276"/></clipPath><clipPath class="axesclip" id="clipf77ef0xy"><rect x="60" y="60" width="673" height="276"/></clipPath></g><g class="gradients"/></defs><g class="bglayer"/><g class="layer-below"><g class="imagelayer"/><g class="shapelayer"/></g><g class="cartesianlayer"><g class="subplot xy"><g class="layer-subplot"><g class="shapelayer"/><g class="imagelayer"/></g><g class="gridlayer"><g class="x"><path class="xgrid crisp" transform="translate(229.1,0)" d="M0,60v276" style="stroke: rgb(238, 238, 238); stroke-opacity: 1; stroke-width: 1px;"/><path class="xgrid crisp" transform="translate(398.19,0)" d="M0,60v276" style="stroke: rgb(238, 238, 238); stroke-opacity: 1; stroke-width: 1px;"/><path class="xgrid crisp" transform="translate(567.29,0)" d="M0,60v276" style="stroke: rgb(238, 238, 238); stroke-opacity: 1; stroke-width: 1px;"/></g><g class="y"><path class="ygrid crisp" transform="translate(0,285.36)" d="M60,0h673" style="stroke: rgb(238, 238, 238); stroke-opacity: 1; stroke-width: 1px;"/><path class="ygrid crisp" transform="translate(0,218.6)" d="M60,0h673" style="stroke: rgb(238, 238, 238); stroke-opacity: 1; stroke-width: 1px;"/><path class="ygrid crisp" transform="translate(0,151.84)" d="M60,0h673" style="stroke: rgb(238, 238, 238); stroke-opacity: 1; stroke-width: 1px;"/><path class="ygrid crisp" transform="translate(0,85.09)" d="M60,0h673" style="stroke: rgb(238, 238, 238); stroke-opacity: 1; stroke-width: 1px;"/></g></g><g class="zerolinelayer"><path class="xzl zl crisp" transform="translate(60,0)" d="M0,60v276" style="stroke: rgb(68, 68, 68); stroke-opacity: 1; stroke-width: 1px;"/></g><path class="xlines-below"/><path class="ylines-below"/><g class="overlines-below"/><g class="xaxislayer-below"/><g class="yaxislayer-below"/><g class="overaxes-below"/><g class="plot" transform="translate(60,60)" clip-path="url('#clipf77ef0xyplot')"><g class="scatterlayer mlayer"><g class="trace scatter trace57172d" style="stroke-miterlimit: 2; opacity: 1;"><g class="fills"/><g class="errorbars"/><g class="lines"><path class="js-line" d="M0,13.8L3.38,74.19L6.76,99.35L10.15,110.73L13.53,116.51L16.91,125.57L20.29,118.72L23.67,133.08L27.06,142.24L30.44,138.4L33.82,150.64L37.2,147.72L40.58,157.42L43.96,156.63L47.35,162.29L50.73,155.35L54.11,159.38L57.49,156.94L60.87,166.15L64.26,164.49L67.64,160.56L74.4,175.18L77.78,175.84L81.17,166.34L84.55,175.24L87.93,178.72L91.31,174.14L101.46,183.79L104.84,186.88L108.22,182.93L111.6,184.71L114.98,189.4L118.37,187.59L128.51,189.73L131.89,198.64L135.28,201.43L138.66,192.29L142.04,190.87L145.42,202.31L148.8,202.73L152.19,200.85L155.57,200.28L158.95,204.47L162.33,196.6L165.71,204.13L169.1,202.02L172.48,202.43L175.86,206.03L179.24,207.4L182.62,208.68L186.01,207.88L189.39,206.59L192.77,207.08L196.15,207.19L199.53,213.95L202.91,209.17L206.3,212.44L209.68,213.18L213.06,211.63L216.44,209.91L219.82,218.47L223.21,212.11L226.59,217.96L229.97,213.75L233.35,221.64L240.12,212.25L243.5,209.47L250.26,222.43L253.64,222.78L257.03,217.11L260.41,224.19L263.79,229.5L267.17,226.72L273.93,223.09L277.32,221.79L280.7,228.01L284.08,218.83L287.46,220.22L290.84,222.82L294.23,220.83L297.61,227.27L300.99,216.82L304.37,220.75L307.75,231.84L311.14,229.37L314.52,229.57L317.9,227.25L321.28,230.09L324.66,224.97L328.05,234.96L331.43,231.79L334.81,230.76L338.19,225.58L341.57,227.74L344.95,235.9L348.34,237.34L351.72,230.6L355.1,234.31L358.48,229.7L361.86,233.83L365.25,223.75L368.63,233.9L372.01,227.56L375.39,233.31L378.77,233.17L382.16,235.16L385.54,231.89L388.92,238L392.3,233.73L395.68,236.05L399.07,237.43L402.45,243.28L405.83,237.89L409.21,236.02L412.59,229.06L415.97,236.13L419.36,234.98L426.12,231.96L429.5,234.91L432.88,233.51L436.27,237L439.65,239.45L443.03,238.08L446.41,240.03L449.79,240.75L453.18,237.53L456.56,236.71L459.94,241.43L463.32,244.49L466.7,245.95L470.09,240.15L473.47,245.98L476.85,248.52L480.23,244.16L483.61,243.69L486.99,243.14L490.38,241.28L493.76,246.85L497.14,242.69L500.52,251.12L503.9,245.52L507.29,249.08L510.67,245.99L514.05,245.63L517.43,249.92L520.81,250.32L524.2,245.03L530.96,253.53L534.34,254.48L537.72,247.47L541.11,242.67L544.49,243.02L547.87,244.42L551.25,238.78L554.63,245.85L558.02,245.14L561.4,249.08L564.78,253.48L568.16,251.15L571.54,248.28L574.92,251.59L578.31,247.54L581.69,248.48L585.07,244.37L588.45,245.08L591.83,243.52L595.22,247.62L598.6,250.79L601.98,245.95L605.36,254.34L608.74,258.15L612.13,260.29L615.51,251.36L618.89,245.24L622.27,249.38L629.04,251.1L632.42,255.11L635.8,252.84L639.18,248.99L642.56,255.47L645.94,249.09L649.33,259.73L652.71,254.24L656.09,259.2L659.47,259.81L662.85,258.84L666.24,262.2L669.62,252.69L673,252.76" style="vector-effect: non-scaling-stroke; fill: none; stroke: rgb(31, 119, 180); stroke-opacity: 1; stroke-width: 2px; opacity: 1;"/></g><g class="points"/><g class="text"/></g><g class="trace scatter tracec5f097" style="stroke-miterlimit: 2; opacity: 1;"><g class="fills"/><g class="errorbars"/><g class="lines"><path class="js-line" d="M0,39.74L3.38,84.95L6.76,98.19L10.15,113.69L13.53,107.67L16.91,113.01L20.29,44.5L23.67,134.08L27.06,104.1L30.44,112.23L33.82,112.03L37.2,151.02L40.58,131.52L43.96,158.94L47.35,124.95L50.73,149.65L54.11,133.02L57.49,151.89L60.87,154.8L64.26,166.69L67.64,129.1L71.02,164.52L74.4,171.15L77.78,164.36L81.17,173.79L84.55,168.06L87.93,186.05L91.31,176.7L94.69,188.7L98.08,180.94L101.46,188.99L104.84,174.26L108.22,179.37L111.6,182.86L114.98,193.45L118.37,195.92L121.75,181.03L125.13,156.33L128.51,189.41L131.89,177.85L135.28,183.3L138.66,161.95L142.04,195.53L145.42,200.47L148.8,193.3L152.19,188.99L155.57,188.85L158.95,194.98L162.33,171.03L165.71,183.14L169.1,180.92L172.48,207.47L175.86,198.46L179.24,163.55L182.62,194.15L186.01,199.94L189.39,186.05L192.77,203.21L196.15,191.77L202.91,208.45L206.3,205.09L209.68,196.37L213.06,203.26L216.44,196.92L219.82,206.54L223.21,207.77L226.59,188.34L229.97,205.85L233.35,196.57L236.73,187.88L240.12,200.89L243.5,208.25L246.88,198.96L250.26,202.28L253.64,210.86L257.03,201.04L260.41,205.14L263.79,203.39L267.17,181.06L270.55,208.26L273.93,198.07L277.32,200.48L280.7,209.67L284.08,196.7L287.46,191.65L290.84,205.56L294.23,211.62L297.61,178.46L300.99,184.62L304.37,208.64L307.75,212.53L311.14,198.82L314.52,193.47L317.9,195.53L321.28,203.59L324.66,213.63L328.05,207.41L331.43,205.92L334.81,207.33L338.19,179.4L341.57,210.59L344.95,215.56L348.34,212.9L351.72,205.45L355.1,205.9L358.48,213.81L361.86,177.96L365.25,210.45L368.63,200.85L372.01,156.83L375.39,211.17L378.77,207.95L382.16,212.95L385.54,206.26L388.92,214.85L392.3,210.1L395.68,214.53L399.07,202L402.45,213.24L405.83,215.37L409.21,198.54L412.59,187.12L415.97,220.44L419.36,214.98L422.74,212.9L426.12,189.68L429.5,217.92L432.88,210.02L436.27,208.43L439.65,201.83L443.03,219.48L446.41,210.92L449.79,209.79L453.18,208.86L456.56,197.79L459.94,219.56L463.32,219.35L466.7,215.49L470.09,210.12L473.47,211.94L476.85,199.21L480.23,205.75L483.61,219.13L486.99,221.42L490.38,225.09L493.76,217.33L497.14,198.9L500.52,216.18L503.9,208.91L507.29,210.35L510.67,213.28L514.05,219.15L517.43,213.45L520.81,216.34L524.2,204.04L527.58,214.3L530.96,196.51L534.34,202.47L537.72,196.43L541.11,192.59L544.49,207.04L547.87,209.34L551.25,215.3L554.63,208.75L558.02,210.21L561.4,205.73L564.78,218.04L568.16,205.74L571.54,199.39L574.92,215.24L578.31,198.78L581.69,205.79L585.07,200.77L588.45,210.99L591.83,208.42L595.22,218.15L598.6,135.6L601.98,211.29L605.36,216.55L608.74,215.92L612.13,216.81L615.51,211.45L618.89,212.25L622.27,210.25L625.65,214.29L629.04,222.46L632.42,215.93L635.8,184.18L639.18,216.59L642.56,213.4L645.94,215.48L649.33,217.45L652.71,217.71L656.09,179.67L659.47,213.46L662.85,218.07L666.24,211.72L669.62,221.23L673,213.94" style="vector-effect: non-scaling-stroke; fill: none; stroke: rgb(255, 127, 14); stroke-opacity: 1; stroke-width: 2px; opacity: 1;"/></g><g class="points"/><g class="text"/></g></g></g><g class="overplot"/><path class="xlines-above crisp" d="M0,0" style="fill: none;"/><path class="ylines-above crisp" d="M0,0" style="fill: none;"/><g class="overlines-above"/><g class="xaxislayer-above"><g class="xtick"><text text-anchor="middle" x="0" y="349" transform="translate(60,0)" style="font-family: 'Open Sans', verdana, arial, sans-serif; font-size: 12px; fill: rgb(68, 68, 68); fill-opacity: 1; white-space: pre;">0</text></g><g class="xtick"><text text-anchor="middle" x="0" y="349" transform="translate(229.1,0)" style="font-family: 'Open Sans', verdana, arial, sans-serif; font-size: 12px; fill: rgb(68, 68, 68); fill-opacity: 1; white-space: pre;">50</text></g><g class="xtick"><text text-anchor="middle" x="0" y="349" transform="translate(398.19,0)" style="font-family: 'Open Sans', verdana, arial, sans-serif; font-size: 12px; fill: rgb(68, 68, 68); fill-opacity: 1; white-space: pre;">100</text></g><g class="xtick"><text text-anchor="middle" x="0" y="349" transform="translate(567.29,0)" style="font-family: 'Open Sans', verdana, arial, sans-serif; font-size: 12px; fill: rgb(68, 68, 68); fill-opacity: 1; white-space: pre;">150</text></g></g><g class="yaxislayer-above"><g class="ytick"><text text-anchor="end" x="59" y="4.199999999999999" transform="translate(0,285.36)" style="font-family: 'Open Sans', verdana, arial, sans-serif; font-size: 12px; fill: rgb(68, 68, 68); fill-opacity: 1; white-space: pre;">0.5</text></g><g class="ytick"><text text-anchor="end" x="59" y="4.199999999999999" transform="translate(0,218.6)" style="font-family: 'Open Sans', verdana, arial, sans-serif; font-size: 12px; fill: rgb(68, 68, 68); fill-opacity: 1; white-space: pre;">1</text></g><g class="ytick"><text text-anchor="end" x="59" y="4.199999999999999" transform="translate(0,151.84)" style="font-family: 'Open Sans', verdana, arial, sans-serif; font-size: 12px; fill: rgb(68, 68, 68); fill-opacity: 1; white-space: pre;">1.5</text></g><g class="ytick"><text text-anchor="end" x="59" y="4.199999999999999" transform="translate(0,85.09)" style="font-family: 'Open Sans', verdana, arial, sans-serif; font-size: 12px; fill: rgb(68, 68, 68); fill-opacity: 1; white-space: pre;">2</text></g></g><g class="overaxes-above"/></g></g><g class="polarlayer"/><g class="ternarylayer"/><g class="geolayer"/><g class="funnelarealayer"/><g class="pielayer"/><g class="treemaplayer"/><g class="sunburstlayer"/><g class="glimages"/><defs id="topdefs-f77ef0"><g class="clips"/><clipPath id="legendf77ef0"><rect width="97" height="48" x="0" y="0"/></clipPath></defs><g class="layer-above"><g class="imagelayer"/><g class="shapelayer"/></g><g class="infolayer"><g class="legend" pointer-events="all" transform="translate(746.46,60)"><rect class="bg" shape-rendering="crispEdges" width="97" height="48" x="0" y="0" style="stroke: rgb(68, 68, 68); stroke-opacity: 1; fill: rgb(255, 255, 255); fill-opacity: 1; stroke-width: 0px;"/><g class="scrollbox" transform="" clip-path="url('#legendf77ef0')"><g class="groups"><g class="traces" transform="translate(0,14.5)" style="opacity: 1;"><text class="legendtext" text-anchor="start" x="40" y="4.680000000000001" style="font-family: 'Open Sans', verdana, arial, sans-serif; font-size: 12px; fill: rgb(68, 68, 68); fill-opacity: 1; white-space: pre;">train_loss</text><g class="layers" style="opacity: 1;"><g class="legendfill"/><g class="legendlines"><path class="js-line" d="M5,0h30" style="fill: none; stroke: rgb(31, 119, 180); stroke-opacity: 1; stroke-width: 2px;"/></g><g class="legendsymbols"><g class="legendpoints"/></g></g><rect class="legendtoggle" x="0" y="-9.5" width="91.53125" height="19" style="fill: rgb(0, 0, 0); fill-opacity: 0;"/></g><g class="traces" transform="translate(0,33.5)" style="opacity: 1;"><text class="legendtext" text-anchor="start" x="40" y="4.680000000000001" style="font-family: 'Open Sans', verdana, arial, sans-serif; font-size: 12px; fill: rgb(68, 68, 68); fill-opacity: 1; white-space: pre;">valid_loss</text><g class="layers" style="opacity: 1;"><g class="legendfill"/><g class="legendlines"><path class="js-line" d="M5,0h30" style="fill: none; stroke: rgb(255, 127, 14); stroke-opacity: 1; stroke-width: 2px;"/></g><g class="legendsymbols"><g class="legendpoints"/></g></g><rect class="legendtoggle" x="0" y="-9.5" width="91.53125" height="19" style="fill: rgb(0, 0, 0); fill-opacity: 0;"/></g></g></g><rect class="scrollbar" rx="20" ry="3" width="0" height="0" x="0" y="0" style="fill: rgb(128, 139, 164); fill-opacity: 1;"/></g><g class="g-gtitle"><text class="gtitle" x="427.5" y="30" text-anchor="middle" dy="0em" style="font-family: 'Open Sans', verdana, arial, sans-serif; font-size: 17px; fill: rgb(68, 68, 68); opacity: 1; font-weight: normal; white-space: pre;">loss_modelB_NoLRS</text></g><g class="g-xtitle"/><g class="g-ytitle"/></g></svg>