<svg class="main-svg" xmlns="http://www.w3.org/2000/svg" xmlns:xlink="http://www.w3.org/1999/xlink" width="983" height="456" style="" viewBox="0 0 983 456"><rect x="0" y="0" width="983" height="456" style="fill: rgb(255, 255, 255); fill-opacity: 1;"/><defs id="defs-056e30"><g class="clips"><clipPath id="clip056e30xyplot" class="plotclip"><rect width="790" height="336"/></clipPath><clipPath class="axesclip" id="clip056e30x"><rect x="60" y="0" width="790" height="456"/></clipPath><clipPath class="axesclip" id="clip056e30y"><rect x="0" y="60" width="983" height="336"/></clipPath><clipPath class="axesclip" id="clip056e30xy"><rect x="60" y="60" width="790" height="336"/></clipPath></g><g class="gradients"/></defs><g class="bglayer"/><g class="layer-below"><g class="imagelayer"/><g class="shapelayer"/></g><g class="cartesianlayer"><g class="subplot xy"><g class="layer-subplot"><g class="shapelayer"/><g class="imagelayer"/></g><g class="gridlayer"><g class="x"><path class="xgrid crisp" transform="translate(166.04000000000002,0)" d="M0,60v336" style="stroke: rgb(238, 238, 238); stroke-opacity: 1; stroke-width: 1px;"/><path class="xgrid crisp" transform="translate(272.08000000000004,0)" d="M0,60v336" style="stroke: rgb(238, 238, 238); stroke-opacity: 1; stroke-width: 1px;"/><path class="xgrid crisp" transform="translate(378.12,0)" d="M0,60v336" style="stroke: rgb(238, 238, 238); stroke-opacity: 1; stroke-width: 1px;"/><path class="xgrid crisp" transform="translate(484.16,0)" d="M0,60v336" style="stroke: rgb(238, 238, 238); stroke-opacity: 1; stroke-width: 1px;"/><path class="xgrid crisp" transform="translate(590.2,0)" d="M0,60v336" style="stroke: rgb(238, 238, 238); stroke-opacity: 1; stroke-width: 1px;"/><path class="xgrid crisp" transform="translate(696.24,0)" d="M0,60v336" style="stroke: rgb(238, 238, 238); stroke-opacity: 1; stroke-width: 1px;"/><path class="xgrid crisp" transform="translate(802.28,0)" d="M0,60v336" style="stroke: rgb(238, 238, 238); stroke-opacity: 1; stroke-width: 1px;"/></g><g class="y"><path class="ygrid crisp" transform="translate(0,351.12)" d="M60,0h790" style="stroke: rgb(238, 238, 238); stroke-opacity: 1; stroke-width: 1px;"/><path class="ygrid crisp" transform="translate(0,309.9)" d="M60,0h790" style="stroke: rgb(238, 238, 238); stroke-opacity: 1; stroke-width: 1px;"/><path class="ygrid crisp" transform="translate(0,268.69)" d="M60,0h790" style="stroke: rgb(238, 238, 238); stroke-opacity: 1; stroke-width: 1px;"/><path class="ygrid crisp" transform="translate(0,227.48)" d="M60,0h790" style="stroke: rgb(238, 238, 238); stroke-opacity: 1; stroke-width: 1px;"/><path class="ygrid crisp" transform="translate(0,186.26999999999998)" d="M60,0h790" style="stroke: rgb(238, 238, 238); stroke-opacity: 1; stroke-width: 1px;"/><path class="ygrid crisp" transform="translate(0,145.06)" d="M60,0h790" style="stroke: rgb(238, 238, 238); stroke-opacity: 1; stroke-width: 1px;"/><path class="ygrid crisp" transform="translate(0,103.85)" d="M60,0h790" style="stroke: rgb(238, 238, 238); stroke-opacity: 1; stroke-width: 1px;"/><path class="ygrid crisp" transform="translate(0,62.63)" d="M60,0h790" style="stroke: rgb(238, 238, 238); stroke-opacity: 1; stroke-width: 1px;"/></g></g><g class="zerolinelayer"><path class="xzl zl crisp" transform="translate(60,0)" d="M0,60v336" style="stroke: rgb(68, 68, 68); stroke-opacity: 1; stroke-width: 1px;"/><path class="yzl zl crisp" transform="translate(0,392.33)" d="M60,0h790" style="stroke: rgb(68, 68, 68); stroke-opacity: 1; stroke-width: 1px;"/></g><path class="xlines-below"/><path class="ylines-below"/><g class="overlines-below"/><g class="xaxislayer-below"/><g class="yaxislayer-below"/><g class="overaxes-below"/><g class="plot" transform="translate(60,60)" clip-path="url('#clip056e30xyplot')"><g class="scatterlayer mlayer"><g class="trace scatter trace7abc9e" style="stroke-miterlimit: 2; opacity: 1;"><g class="fills"/><g class="errorbars"/><g class="lines"><path class="js-line" d="M0,249.92L5.3,268L10.6,269.97L15.91,267.92L21.21,271.49L26.51,271.59L31.81,276.74L37.11,275.78L42.42,278.08L63.62,287.55L68.93,287.54L74.23,285.64L79.53,288.59L90.13,288.92L95.44,290.47L100.74,290.63L106.04,292.15L111.34,293.47L116.64,292.77L121.95,296.25L127.25,296.75L132.55,297.74L137.85,297.74L143.15,297.6L148.46,293.91L153.76,297.73L159.06,304.69L164.36,306.43L169.66,303.19L180.27,307.81L185.57,306.53L190.87,308.55L196.17,309.59L201.48,305.52L206.78,308.02L212.08,308.95L217.38,311.22L222.68,309.76L227.99,311.04L233.29,309.94L238.59,311.24L243.89,309.04L249.19,310.5L254.5,309.11L259.8,312.43L265.1,310.47L270.4,310.49L275.7,313.41L281.01,311.23L286.31,312.63L291.61,311.94L296.91,311.44L302.21,312.66L312.82,312.76L318.12,313.77L323.42,313.02L328.72,316.13L334.03,315.82L339.33,313.73L344.63,315.45L349.93,314.88L355.23,316.65L360.54,315.23L376.44,314.63L381.74,316.73L387.05,316.68L392.35,315.36L397.65,315.04L402.95,315.77L408.26,314.65L413.56,315.72L418.86,315.4L424.16,314.16L429.46,316.59L434.77,315.24L440.07,316.73L445.37,317.26L450.67,317.3L455.97,318.12L466.58,315.85L471.88,316.33L477.18,318.13L482.48,315.65L487.79,318.22L493.09,315.89L498.39,317.24L503.69,317.67L508.99,317.64L514.3,316.81L519.6,315.51L524.9,316.59L530.2,318L535.5,318.23L546.11,317.64L551.41,318.32L556.71,315.94L562.01,315.98L567.32,316.15L572.62,317.87L577.92,316.15L583.22,316.69L588.52,317.09L593.83,315.7L599.13,317.4L604.43,316.56L609.73,315.44L615.03,315.98L620.34,315.25L625.64,316.88L630.94,317.16L636.24,316.48L641.54,317.68L646.85,317.9L652.15,316.51L657.45,317.94L662.75,319.19L668.05,316.98L673.36,316.83L678.66,317.75L683.96,317.03L689.26,314.24L694.56,316.8L699.87,316.49L710.47,318.34L715.77,316.98L721.07,316.86L726.38,317.49L731.68,318.95L736.98,319.2L742.28,317.38L747.58,317.3L758.19,317.02L763.49,317.03L768.79,317.02L774.09,315.84L779.4,316.23L784.7,317.98L790,316.78" style="vector-effect: non-scaling-stroke; fill: none; stroke: rgb(31, 119, 180); stroke-opacity: 1; stroke-width: 2px; opacity: 1;"/></g><g class="points"/><g class="text"/></g><g class="trace scatter trace97cb79" style="stroke-miterlimit: 2; opacity: 1;"><g class="fills"/><g class="errorbars"/><g class="lines"><path class="js-line" d="M0,16.8L5.3,268.75L10.6,277.54L15.91,270.44L21.21,253.35L26.51,261.6L31.81,278.64L37.11,277.1L42.42,273.71L47.72,269.61L53.02,276.93L58.32,287.11L63.62,284.65L68.93,293.49L74.23,266.48L79.53,279.15L84.83,283.08L90.13,293.05L95.44,290L100.74,295.25L106.04,288.86L111.34,293.71L116.64,296.27L121.95,292L127.25,290.64L137.85,296.96L143.15,290.72L148.46,299.16L153.76,303.93L159.06,306.83L164.36,307.27L180.27,308.59L185.57,308.04L196.17,308.55L201.48,308.51L212.08,308.82L217.38,308.77L222.68,309.62L227.99,309.54L238.59,310.03L243.89,308.43L249.19,310.54L254.5,310.09L259.8,311.02L265.1,310.51L270.4,309.65L275.7,310.96L286.31,311.27L291.61,309.53L296.91,311.09L302.21,310.45L307.52,309.48L312.82,310.56L323.42,311.57L328.72,311.89L365.84,312.07L371.14,311.89L387.05,312.37L392.35,312.06L413.56,311.87L418.86,311.96L434.77,312.03L440.07,312.2L519.6,312.26L524.9,312.41L535.5,311.96L540.81,312.3L588.52,312.3L593.83,312.14L636.24,312.28L641.54,312.29L662.75,312.23L668.05,312.16L779.4,312.23L784.7,311.85L790,312.39" style="vector-effect: non-scaling-stroke; fill: none; stroke: rgb(255, 127, 14); stroke-opacity: 1; stroke-width: 2px; opacity: 1;"/></g><g class="points"/><g class="text"/></g></g></g><g class="overplot"/><path class="xlines-above crisp" d="M0,0" style="fill: none;"/><path class="ylines-above crisp" d="M0,0" style="fill: none;"/><g class="overlines-above"/><g class="xaxislayer-above"><g class="xtick"><text text-anchor="middle" x="0" y="409" transform="translate(60,0)" style="font-family: 'Open Sans', verdana, arial, sans-serif; font-size: 12px; fill: rgb(68, 68, 68); fill-opacity: 1; white-space: pre;">0</text></g><g class="xtick"><text text-anchor="middle" x="0" y="409" transform="translate(166.04000000000002,0)" style="font-family: 'Open Sans', verdana, arial, sans-serif; font-size: 12px; fill: rgb(68, 68, 68); fill-opacity: 1; white-space: pre;">20</text></g><g class="xtick"><text text-anchor="middle" x="0" y="409" transform="translate(272.08000000000004,0)" style="font-family: 'Open Sans', verdana, arial, sans-serif; font-size: 12px; fill: rgb(68, 68, 68); fill-opacity: 1; white-space: pre;">40</text></g><g class="xtick"><text text-anchor="middle" x="0" y="409" transform="translate(378.12,0)" style="font-family: 'Open Sans', verdana, arial, sans-serif; font-size: 12px; fill: rgb(68, 68, 68); fill-opacity: 1; white-space: pre;">60</text></g><g class="xtick"><text text-anchor="middle" x="0" y="409" transform="translate(484.16,0)" style="font-family: 'Open Sans', verdana, arial, sans-serif; font-size: 12px; fill: rgb(68, 68, 68); fill-opacity: 1; white-space: pre;">80</text></g><g class="xtick"><text text-anchor="middle" x="0" y="409" transform="translate(590.2,0)" style="font-family: 'Open Sans', verdana, arial, sans-serif; font-size: 12px; fill: rgb(68, 68, 68); fill-opacity: 1; white-space: pre;">100</text></g><g class="xtick"><text text-anchor="middle" x="0" y="409" transform="translate(696.24,0)" style="font-family: 'Open Sans', verdana, arial, sans-serif; font-size: 12px; fill: rgb(68, 68, 68); fill-opacity: 1; white-space: pre;">120</text></g><g class="xtick"><text text-anchor="middle" x="0" y="409" transform="translate(802.28,0)" style="font-family: 'Open Sans', verdana, arial, sans-serif; font-size: 12px; fill: rgb(68, 68, 68); fill-opacity: 1; white-space: pre;">140</text></g></g><g class="yaxislayer-above"><g class="ytick"><text text-anchor="end" x="59" y="4.199999999999999" transform="translate(0,392.33)" style="font-family: 'Open Sans', verdana, arial, sans-serif; font-size: 12px; fill: rgb(68, 68, 68); fill-opacity: 1; white-space: pre;">0</text></g><g class="ytick"><text text-anchor="end" x="59" y="4.199999999999999" transform="translate(0,351.12)" style="font-family: 'Open Sans', verdana, arial, sans-serif; font-size: 12px; fill: rgb(68, 68, 68); fill-opacity: 1; white-space: pre;">1</text></g><g class="ytick"><text text-anchor="end" x="59" y="4.199999999999999" transform="translate(0,309.9)" style="font-family: 'Open Sans', verdana, arial, sans-serif; font-size: 12px; fill: rgb(68, 68, 68); fill-opacity: 1; white-space: pre;">2</text></g><g class="ytick"><text text-anchor="end" x="59" y="4.199999999999999" transform="translate(0,268.69)" style="font-family: 'Open Sans', verdana, arial, sans-serif; font-size: 12px; fill: rgb(68, 68, 68); fill-opacity: 1; white-space: pre;">3</text></g><g class="ytick"><text text-anchor="end" x="59" y="4.199999999999999" transform="translate(0,227.48)" style="font-family: 'Open Sans', verdana, arial, sans-serif; font-size: 12px; fill: rgb(68, 68, 68); fill-opacity: 1; white-space: pre;">4</text></g><g class="ytick"><text text-anchor="end" x="59" y="4.199999999999999" transform="translate(0,186.26999999999998)" style="font-family: 'Open Sans', verdana, arial, sans-serif; font-size: 12px; fill: rgb(68, 68, 68); fill-opacity: 1; white-space: pre;">5</text></g><g class="ytick"><text text-anchor="end" x="59" y="4.199999999999999" transform="translate(0,145.06)" style="font-family: 'Open Sans', verdana, arial, sans-serif; font-size: 12px; fill: rgb(68, 68, 68); fill-opacity: 1; white-space: pre;">6</text></g><g class="ytick"><text text-anchor="end" x="59" y="4.199999999999999" transform="translate(0,103.85)" style="font-family: 'Open Sans', verdana, arial, sans-serif; font-size: 12px; fill: rgb(68, 68, 68); fill-opacity: 1; white-space: pre;">7</text></g><g class="ytick"><text text-anchor="end" x="59" y="4.199999999999999" transform="translate(0,62.63)" style="font-family: 'Open Sans', verdana, arial, sans-serif; font-size: 12px; fill: rgb(68, 68, 68); fill-opacity: 1; white-space: pre;">8</text></g></g><g class="overaxes-above"/></g></g><g class="polarlayer"/><g class="ternarylayer"/><g class="geolayer"/><g class="funnelarealayer"/><g class="pielayer"/><g class="treemaplayer"/><g class="sunburstlayer"/><g class="glimages"/><defs id="topdefs-056e30"><g class="clips"/><clipPath id="legend056e30"><rect width="105" height="48" x="0" y="0"/></clipPath></defs><g class="layer-above"><g class="imagelayer"/><g class="shapelayer"/></g><g class="infolayer"><g class="legend" pointer-events="all" transform="translate(865.8000000000001,60)"><rect class="bg" shape-rendering="crispEdges" width="105" height="48" x="0" y="0" style="stroke: rgb(68, 68, 68); stroke-opacity: 1; fill: rgb(255, 255, 255); fill-opacity: 1; stroke-width: 0px;"/><g class="scrollbox" transform="" clip-path="url('#legend056e30')"><g class="groups"><g class="traces" transform="translate(0,14.5)" style="opacity: 1;"><text class="legendtext" text-anchor="start" x="40" y="4.680000000000001" style="font-family: 'Open Sans', verdana, arial, sans-serif; font-size: 12px; fill: rgb(68, 68, 68); fill-opacity: 1; white-space: pre;">train_loss</text><g class="layers" style="opacity: 1;"><g class="legendfill"/><g class="legendlines"><path class="js-line" d="M5,0h30" style="fill: none; stroke: rgb(31, 119, 180); stroke-opacity: 1; stroke-width: 2px;"/></g><g class="legendsymbols"><g class="legendpoints"/></g></g><rect class="legendtoggle" x="0" y="-9.5" width="99.59375" height="19" style="fill: rgb(0, 0, 0); fill-opacity: 0;"/></g><g class="traces" transform="translate(0,33.5)" style="opacity: 1;"><text class="legendtext" text-anchor="start" x="40" y="4.680000000000001" style="font-family: 'Open Sans', verdana, arial, sans-serif; font-size: 12px; fill: rgb(68, 68, 68); fill-opacity: 1; white-space: pre;">valid_loss</text><g class="layers" style="opacity: 1;"><g class="legendfill"/><g class="legendlines"><path class="js-line" d="M5,0h30" style="fill: none; stroke: rgb(255, 127, 14); stroke-opacity: 1; stroke-width: 2px;"/></g><g class="legendsymbols"><g class="legendpoints"/></g></g><rect class="legendtoggle" x="0" y="-9.5" width="99.59375" height="19" style="fill: rgb(0, 0, 0); fill-opacity: 0;"/></g></g></g><rect class="scrollbar" rx="20" ry="3" width="0" height="0" x="0" y="0" style="fill: rgb(128, 139, 164); fill-opacity: 1;"/></g><g class="g-gtitle"><text class="gtitle" x="491.5" y="30" text-anchor="middle" dy="0em" style="font-family: 'Open Sans', verdana, arial, sans-serif; font-size: 17px; fill: rgb(68, 68, 68); opacity: 1; font-weight: normal; white-space: pre;">loss_modelB_34</text></g><g class="g-xtitle"/><g class="g-ytitle"/></g></svg>