<svg class="main-svg" xmlns="http://www.w3.org/2000/svg" xmlns:xlink="http://www.w3.org/1999/xlink" width="945" height="426" style="" viewBox="0 0 945 426"><rect x="0" y="0" width="945" height="426" style="fill: rgb(255, 255, 255); fill-opacity: 1;"/><defs id="defs-9d4249"><g class="clips"><clipPath id="clip9d4249xyplot" class="plotclip"><rect width="753" height="306"/></clipPath><clipPath class="axesclip" id="clip9d4249x"><rect x="60" y="0" width="753" height="426"/></clipPath><clipPath class="axesclip" id="clip9d4249y"><rect x="0" y="60" width="945" height="306"/></clipPath><clipPath class="axesclip" id="clip9d4249xy"><rect x="60" y="60" width="753" height="306"/></clipPath></g><g class="gradients"/></defs><g class="bglayer"/><g class="layer-below"><g class="imagelayer"/><g class="shapelayer"/></g><g class="cartesianlayer"><g class="subplot xy"><g class="layer-subplot"><g class="shapelayer"/><g class="imagelayer"/></g><g class="gridlayer"><g class="x"><path class="xgrid crisp" transform="translate(135.68,0)" d="M0,60v306" style="stroke: rgb(238, 238, 238); stroke-opacity: 1; stroke-width: 1px;"/><path class="xgrid crisp" transform="translate(211.36,0)" d="M0,60v306" style="stroke: rgb(238, 238, 238); stroke-opacity: 1; stroke-width: 1px;"/><path class="xgrid crisp" transform="translate(287.03999999999996,0)" d="M0,60v306" style="stroke: rgb(238, 238, 238); stroke-opacity: 1; stroke-width: 1px;"/><path class="xgrid crisp" transform="translate(362.71,0)" d="M0,60v306" style="stroke: rgb(238, 238, 238); stroke-opacity: 1; stroke-width: 1px;"/><path class="xgrid crisp" transform="translate(438.39,0)" d="M0,60v306" style="stroke: rgb(238, 238, 238); stroke-opacity: 1; stroke-width: 1px;"/><path class="xgrid crisp" transform="translate(514.0699999999999,0)" d="M0,60v306" style="stroke: rgb(238, 238, 238); stroke-opacity: 1; stroke-width: 1px;"/><path class="xgrid crisp" transform="translate(589.75,0)" d="M0,60v306" style="stroke: rgb(238, 238, 238); stroke-opacity: 1; stroke-width: 1px;"/><path class="xgrid crisp" transform="translate(665.43,0)" d="M0,60v306" style="stroke: rgb(238, 238, 238); stroke-opacity: 1; stroke-width: 1px;"/><path class="xgrid crisp" transform="translate(741.11,0)" d="M0,60v306" style="stroke: rgb(238, 238, 238); stroke-opacity: 1; stroke-width: 1px;"/></g><g class="y"><path class="ygrid crisp" transform="translate(0,310.28)" d="M60,0h753" style="stroke: rgb(238, 238, 238); stroke-opacity: 1; stroke-width: 1px;"/><path class="ygrid crisp" transform="translate(0,255.73)" d="M60,0h753" style="stroke: rgb(238, 238, 238); stroke-opacity: 1; stroke-width: 1px;"/><path class="ygrid crisp" transform="translate(0,201.17)" d="M60,0h753" style="stroke: rgb(238, 238, 238); stroke-opacity: 1; stroke-width: 1px;"/><path class="ygrid crisp" transform="translate(0,146.61)" d="M60,0h753" style="stroke: rgb(238, 238, 238); stroke-opacity: 1; stroke-width: 1px;"/><path class="ygrid crisp" transform="translate(0,92.06)" d="M60,0h753" style="stroke: rgb(238, 238, 238); stroke-opacity: 1; stroke-width: 1px;"/></g></g><g class="zerolinelayer"><path class="xzl zl crisp" transform="translate(60,0)" d="M0,60v306" style="stroke: rgb(68, 68, 68); stroke-opacity: 1; stroke-width: 1px;"/><path class="yzl zl crisp" transform="translate(0,364.84)" d="M60,0h753" style="stroke: rgb(68, 68, 68); stroke-opacity: 1; stroke-width: 1px;"/></g><path class="xlines-below"/><path class="ylines-below"/><g class="overlines-below"/><g class="xaxislayer-below"/><g class="yaxislayer-below"/><g class="overaxes-below"/><g class="plot" transform="translate(60,60)" clip-path="url('#clip9d4249xyplot')"><g class="scatterlayer mlayer"><g class="trace scatter trace2a1ee1" style="stroke-miterlimit: 2; opacity: 1;"><g class="fills"/><g class="errorbars"/><g class="lines"><path class="js-line" d="M0,197.11L3.78,217.05L7.57,224.45L11.35,225.76L15.14,231.61L18.92,233.46L22.7,236.64L26.49,239.85L30.27,236.24L34.06,239.78L37.84,240.48L41.62,245.12L45.41,247.28L49.19,248.53L52.97,247.68L56.76,246.8L60.54,252.82L68.11,253.04L71.89,255.14L75.68,257.38L79.46,256.41L83.25,260.36L87.03,259.68L90.81,257.68L94.6,260.38L98.38,261.96L102.17,261.77L109.73,264.11L113.52,264.51L117.3,267.3L121.09,262.59L124.87,261.74L128.65,264.29L136.22,265.15L140.01,267.25L143.79,264.33L147.57,267.12L155.14,274.19L158.92,275.32L162.71,277.51L166.49,276L170.28,278.21L174.06,277.26L177.84,279.15L181.63,278.23L192.98,277.75L196.76,279.15L200.55,280.41L204.33,278.77L208.12,280.23L211.9,279.83L215.68,281.21L219.47,280.05L223.25,282.21L227.04,281.9L234.6,280.36L238.39,280.97L242.17,282.39L245.95,281.22L249.74,280.77L253.52,282.91L257.31,279.6L261.09,282.57L264.87,280.13L268.66,283.63L276.23,283.19L280.01,280.92L283.79,281.97L287.58,284.85L291.36,283.88L295.15,285.78L298.93,283.21L302.71,285.88L306.5,286.39L310.28,285.97L314.07,287.66L317.85,285.29L329.2,287.83L332.98,286.38L340.55,287.48L344.34,287.6L348.12,287.74L351.9,288.67L355.69,286.98L359.47,287.35L370.82,287.23L374.61,288.53L378.39,287.48L382.18,289.36L385.96,287.51L389.74,286.77L393.53,289.11L397.31,289.36L401.1,285.7L404.88,287.44L408.66,287.04L412.45,285.18L416.23,289.14L420.02,286.56L423.8,288.21L427.58,288.63L431.37,287.17L435.15,288.22L438.93,290.15L442.72,282.21L446.5,288.44L450.29,287.64L457.85,287.33L461.64,287.5L465.42,287.53L469.21,288.62L472.99,289.6L476.77,289.74L484.34,286.95L488.13,289.14L491.91,289.25L495.69,286.98L499.48,289.38L503.26,288.23L507.05,289.17L510.83,288.54L514.61,289.73L518.4,287.27L522.18,289.11L525.96,288.35L533.53,287.25L537.32,290.12L541.1,286.32L544.88,289.11L548.67,288.12L552.45,288.03L556.24,288.88L560.02,288.2L563.8,286.75L567.59,288.22L575.16,286.47L578.94,289.51L582.72,290.37L586.51,286.17L590.29,289.09L594.08,287.26L597.86,289.72L601.64,289.03L605.43,287L609.21,287.08L620.56,289.6L624.35,286.12L628.13,290.26L631.91,288.76L639.48,287.19L643.27,288.84L650.83,287.15L654.62,290.57L658.4,285.8L662.19,288.85L665.97,287.39L669.75,288.92L673.54,288.09L677.32,290.19L681.11,289.91L684.89,290.7L688.67,288.55L692.46,287.26L696.24,288.15L700.03,289.97L703.81,287.22L707.59,288.8L711.38,289.76L715.16,286.53L718.94,288.72L722.73,289.05L726.51,287.66L730.3,287.09L734.08,287.98L737.86,286.88L741.65,287.75L745.43,289.47L749.22,288.01L753,289.63" style="vector-effect: non-scaling-stroke; fill: none; stroke: rgb(31, 119, 180); stroke-opacity: 1; stroke-width: 2px; opacity: 1;"/></g><g class="points"/><g class="text"/></g><g class="trace scatter trace084324" style="stroke-miterlimit: 2; opacity: 1;"><g class="fills"/><g class="errorbars"/><g class="lines"><path class="js-line" d="M0,15.3L3.78,224.81L7.57,227.55L11.35,223.58L15.14,218.38L18.92,225.78L22.7,237.84L26.49,224.81L30.27,229.12L34.06,159.35L37.84,233.29L41.62,237.46L45.41,239.22L49.19,221.69L52.97,254.16L56.76,253.36L60.54,257.61L64.33,187.72L68.11,213.5L71.89,253.73L75.68,240.63L79.46,262.15L83.25,257.78L87.03,255.64L90.81,252.59L94.6,258.21L98.38,254.43L102.17,229.24L105.95,262.93L109.73,262.21L113.52,268.27L117.3,258.74L121.09,254.78L124.87,262.55L128.65,268.13L132.44,269.72L136.22,250.44L143.79,258.63L147.57,268.03L151.36,273.52L155.14,275.03L162.71,274.84L166.49,276.32L170.28,275.73L174.06,275.92L177.84,276.76L181.63,275.88L185.41,277.21L189.2,276.24L200.55,276.92L204.33,276.06L208.12,276.57L211.9,273.96L215.68,276.68L219.47,275.54L223.25,277.6L227.04,278.34L230.82,276.08L234.6,278.09L238.39,276.67L242.17,278.71L245.95,276.95L249.74,277.85L253.52,277.8L257.31,274.12L261.09,278.71L264.87,276.76L272.44,277.95L276.23,278.65L283.79,279.75L287.58,277.29L291.36,277.57L295.15,279.69L298.93,278.8L302.71,279.59L314.07,280.02L317.85,279.83L325.42,279.57L329.2,279.78L344.34,280.07L348.12,280.47L363.26,279.98L367.04,280.46L374.61,280.34L378.39,280.31L401.1,280.4L404.88,280.85L408.66,280.13L412.45,280.35L420.02,280.49L423.8,280.45L461.64,279.93L465.42,280.36L469.21,279.98L472.99,280.45L484.34,280.21L488.13,280.68L495.69,280.36L499.48,280.52L510.83,280.59L514.61,280.24L522.18,280.68L525.96,280.25L533.53,280.55L537.32,280.43L575.16,280.61L578.94,280.4L628.13,280.58L631.91,280.51L635.7,280.95L639.48,280.62L718.94,280.65L722.73,280.55L730.3,280.97L734.08,280.19L753,280.62" style="vector-effect: non-scaling-stroke; fill: none; stroke: rgb(255, 127, 14); stroke-opacity: 1; stroke-width: 2px; opacity: 1;"/></g><g class="points"/><g class="text"/></g></g></g><g class="overplot"/><path class="xlines-above crisp" d="M0,0" style="fill: none;"/><path class="ylines-above crisp" d="M0,0" style="fill: none;"/><g class="overlines-above"/><g class="xaxislayer-above"><g class="xtick"><text text-anchor="middle" x="0" y="379" transform="translate(60,0)" style="font-family: 'Open Sans', verdana, arial, sans-serif; font-size: 12px; fill: rgb(68, 68, 68); fill-opacity: 1; white-space: pre;">0</text></g><g class="xtick"><text text-anchor="middle" x="0" y="379" transform="translate(135.68,0)" style="font-family: 'Open Sans', verdana, arial, sans-serif; font-size: 12px; fill: rgb(68, 68, 68); fill-opacity: 1; white-space: pre;">20</text></g><g class="xtick"><text text-anchor="middle" x="0" y="379" transform="translate(211.36,0)" style="font-family: 'Open Sans', verdana, arial, sans-serif; font-size: 12px; fill: rgb(68, 68, 68); fill-opacity: 1; white-space: pre;">40</text></g><g class="xtick"><text text-anchor="middle" x="0" y="379" transform="translate(287.03999999999996,0)" style="font-family: 'Open Sans', verdana, arial, sans-serif; font-size: 12px; fill: rgb(68, 68, 68); fill-opacity: 1; white-space: pre;">60</text></g><g class="xtick"><text text-anchor="middle" x="0" y="379" transform="translate(362.71,0)" style="font-family: 'Open Sans', verdana, arial, sans-serif; font-size: 12px; fill: rgb(68, 68, 68); fill-opacity: 1; white-space: pre;">80</text></g><g class="xtick"><text text-anchor="middle" x="0" y="379" transform="translate(438.39,0)" style="font-family: 'Open Sans', verdana, arial, sans-serif; font-size: 12px; fill: rgb(68, 68, 68); fill-opacity: 1; white-space: pre;">100</text></g><g class="xtick"><text text-anchor="middle" x="0" y="379" transform="translate(514.0699999999999,0)" style="font-family: 'Open Sans', verdana, arial, sans-serif; font-size: 12px; fill: rgb(68, 68, 68); fill-opacity: 1; white-space: pre;">120</text></g><g class="xtick"><text text-anchor="middle" x="0" y="379" transform="translate(589.75,0)" style="font-family: 'Open Sans', verdana, arial, sans-serif; font-size: 12px; fill: rgb(68, 68, 68); fill-opacity: 1; white-space: pre;">140</text></g><g class="xtick"><text text-anchor="middle" x="0" y="379" transform="translate(665.43,0)" style="font-family: 'Open Sans', verdana, arial, sans-serif; font-size: 12px; fill: rgb(68, 68, 68); fill-opacity: 1; white-space: pre;">160</text></g><g class="xtick"><text text-anchor="middle" x="0" y="379" transform="translate(741.11,0)" style="font-family: 'Open Sans', verdana, arial, sans-serif; font-size: 12px; fill: rgb(68, 68, 68); fill-opacity: 1; white-space: pre;">180</text></g></g><g class="yaxislayer-above"><g class="ytick"><text text-anchor="end" x="59" y="4.199999999999999" transform="translate(0,364.84)" style="font-family: 'Open Sans', verdana, arial, sans-serif; font-size: 12px; fill: rgb(68, 68, 68); fill-opacity: 1; white-space: pre;">0</text></g><g class="ytick"><text text-anchor="end" x="59" y="4.199999999999999" transform="translate(0,310.28)" style="font-family: 'Open Sans', verdana, arial, sans-serif; font-size: 12px; fill: rgb(68, 68, 68); fill-opacity: 1; white-space: pre;">1</text></g><g class="ytick"><text text-anchor="end" x="59" y="4.199999999999999" transform="translate(0,255.73)" style="font-family: 'Open Sans', verdana, arial, sans-serif; font-size: 12px; fill: rgb(68, 68, 68); fill-opacity: 1; white-space: pre;">2</text></g><g class="ytick"><text text-anchor="end" x="59" y="4.199999999999999" transform="translate(0,201.17)" style="font-family: 'Open Sans', verdana, arial, sans-serif; font-size: 12px; fill: rgb(68, 68, 68); fill-opacity: 1; white-space: pre;">3</text></g><g class="ytick"><text text-anchor="end" x="59" y="4.199999999999999" transform="translate(0,146.61)" style="font-family: 'Open Sans', verdana, arial, sans-serif; font-size: 12px; fill: rgb(68, 68, 68); fill-opacity: 1; white-space: pre;">4</text></g><g class="ytick"><text text-anchor="end" x="59" y="4.199999999999999" transform="translate(0,92.06)" style="font-family: 'Open Sans', verdana, arial, sans-serif; font-size: 12px; fill: rgb(68, 68, 68); fill-opacity: 1; white-space: pre;">5</text></g></g><g class="overaxes-above"/></g></g><g class="polarlayer"/><g class="ternarylayer"/><g class="geolayer"/><g class="funnelarealayer"/><g class="pielayer"/><g class="treemaplayer"/><g class="sunburstlayer"/><g class="glimages"/><defs id="topdefs-9d4249"><g class="clips"/><clipPath id="legend9d4249"><rect width="105" height="48" x="0" y="0"/></clipPath></defs><g class="layer-above"><g class="imagelayer"/><g class="shapelayer"/></g><g class="infolayer"><g class="legend" pointer-events="all" transform="translate(828.0600000000001,60)"><rect class="bg" shape-rendering="crispEdges" width="105" height="48" x="0" y="0" style="stroke: rgb(68, 68, 68); stroke-opacity: 1; fill: rgb(255, 255, 255); fill-opacity: 1; stroke-width: 0px;"/><g class="scrollbox" transform="" clip-path="url('#legend9d4249')"><g class="groups"><g class="traces" transform="translate(0,14.5)" style="opacity: 1;"><text class="legendtext" text-anchor="start" x="40" y="4.680000000000001" style="font-family: 'Open Sans', verdana, arial, sans-serif; font-size: 12px; fill: rgb(68, 68, 68); fill-opacity: 1; white-space: pre;">train_loss</text><g class="layers" style="opacity: 1;"><g class="legendfill"/><g class="legendlines"><path class="js-line" d="M5,0h30" style="fill: none; stroke: rgb(31, 119, 180); stroke-opacity: 1; stroke-width: 2px;"/></g><g class="legendsymbols"><g class="legendpoints"/></g></g><rect class="legendtoggle" x="0" y="-9.5" width="99.59375" height="19" style="fill: rgb(0, 0, 0); fill-opacity: 0;"/></g><g class="traces" transform="translate(0,33.5)" style="opacity: 1;"><text class="legendtext" text-anchor="start" x="40" y="4.680000000000001" style="font-family: 'Open Sans', verdana, arial, sans-serif; font-size: 12px; fill: rgb(68, 68, 68); fill-opacity: 1; white-space: pre;">valid_loss</text><g class="layers" style="opacity: 1;"><g class="legendfill"/><g class="legendlines"><path class="js-line" d="M5,0h30" style="fill: none; stroke: rgb(255, 127, 14); stroke-opacity: 1; stroke-width: 2px;"/></g><g class="legendsymbols"><g class="legendpoints"/></g></g><rect class="legendtoggle" x="0" y="-9.5" width="99.59375" height="19" style="fill: rgb(0, 0, 0); fill-opacity: 0;"/></g></g></g><rect class="scrollbar" rx="20" ry="3" width="0" height="0" x="0" y="0" style="fill: rgb(128, 139, 164); fill-opacity: 1;"/></g><g class="g-gtitle"><text class="gtitle" x="472.5" y="30" text-anchor="middle" dy="0em" style="font-family: 'Open Sans', verdana, arial, sans-serif; font-size: 17px; fill: rgb(68, 68, 68); opacity: 1; font-weight: normal; white-space: pre;">loss_modelB_18_0001</text></g><g class="g-xtitle"/><g class="g-ytitle"/></g></svg>