<svg class="main-svg" xmlns="http://www.w3.org/2000/svg" xmlns:xlink="http://www.w3.org/1999/xlink" width="907" height="426" style="" viewBox="0 0 907 426"><rect x="0" y="0" width="907" height="426" style="fill: rgb(255, 255, 255); fill-opacity: 1;"/><defs id="defs-05897d"><g class="clips"><clipPath id="clip05897dxyplot" class="plotclip"><rect width="716" height="306"/></clipPath><clipPath class="axesclip" id="clip05897dx"><rect x="60" y="0" width="716" height="426"/></clipPath><clipPath class="axesclip" id="clip05897dy"><rect x="0" y="60" width="907" height="306"/></clipPath><clipPath class="axesclip" id="clip05897dxy"><rect x="60" y="60" width="716" height="306"/></clipPath></g><g class="gradients"/></defs><g class="bglayer"/><g class="layer-below"><g class="imagelayer"/><g class="shapelayer"/></g><g class="cartesianlayer"><g class="subplot xy"><g class="layer-subplot"><g class="shapelayer"/><g class="imagelayer"/></g><g class="gridlayer"><g class="x"><path class="xgrid crisp" transform="translate(161.56,0)" d="M0,60v306" style="stroke: rgb(238, 238, 238); stroke-opacity: 1; stroke-width: 1px;"/><path class="xgrid crisp" transform="translate(263.12,0)" d="M0,60v306" style="stroke: rgb(238, 238, 238); stroke-opacity: 1; stroke-width: 1px;"/><path class="xgrid crisp" transform="translate(364.68,0)" d="M0,60v306" style="stroke: rgb(238, 238, 238); stroke-opacity: 1; stroke-width: 1px;"/><path class="xgrid crisp" transform="translate(466.24,0)" d="M0,60v306" style="stroke: rgb(238, 238, 238); stroke-opacity: 1; stroke-width: 1px;"/><path class="xgrid crisp" transform="translate(567.8,0)" d="M0,60v306" style="stroke: rgb(238, 238, 238); stroke-opacity: 1; stroke-width: 1px;"/><path class="xgrid crisp" transform="translate(669.36,0)" d="M0,60v306" style="stroke: rgb(238, 238, 238); stroke-opacity: 1; stroke-width: 1px;"/><path class="xgrid crisp" transform="translate(770.92,0)" d="M0,60v306" style="stroke: rgb(238, 238, 238); stroke-opacity: 1; stroke-width: 1px;"/></g><g class="y"><path class="ygrid crisp" transform="translate(0,326.91)" d="M60,0h716" style="stroke: rgb(238, 238, 238); stroke-opacity: 1; stroke-width: 1px;"/><path class="ygrid crisp" transform="translate(0,281.28999999999996)" d="M60,0h716" style="stroke: rgb(238, 238, 238); stroke-opacity: 1; stroke-width: 1px;"/><path class="ygrid crisp" transform="translate(0,235.67)" d="M60,0h716" style="stroke: rgb(238, 238, 238); stroke-opacity: 1; stroke-width: 1px;"/><path class="ygrid crisp" transform="translate(0,190.06)" d="M60,0h716" style="stroke: rgb(238, 238, 238); stroke-opacity: 1; stroke-width: 1px;"/><path class="ygrid crisp" transform="translate(0,144.44)" d="M60,0h716" style="stroke: rgb(238, 238, 238); stroke-opacity: 1; stroke-width: 1px;"/><path class="ygrid crisp" transform="translate(0,98.82)" d="M60,0h716" style="stroke: rgb(238, 238, 238); stroke-opacity: 1; stroke-width: 1px;"/></g></g><g class="zerolinelayer"><path class="xzl zl crisp" transform="translate(60,0)" d="M0,60v306" style="stroke: rgb(68, 68, 68); stroke-opacity: 1; stroke-width: 1px;"/></g><path class="xlines-below"/><path class="ylines-below"/><g class="overlines-below"/><g class="xaxislayer-below"/><g class="yaxislayer-below"/><g class="overaxes-below"/><g class="plot" transform="translate(60,60)" clip-path="url('#clip05897dxyplot')"><g class="scatterlayer mlayer"><g class="trace scatter tracee42797" style="stroke-miterlimit: 2; opacity: 1;"><g class="fills"/><g class="errorbars"/><g class="lines"><path class="js-line" d="M0,140.23L5.08,174.92L10.16,178.22L15.23,184.43L20.31,186.72L25.39,198L30.47,197.81L35.55,198.55L40.62,204.63L45.7,202.02L50.78,209.53L55.86,204.42L60.94,215.39L66.01,218.42L71.09,214.89L76.17,219.27L81.25,225.36L86.33,227.37L91.4,225.21L101.56,225.96L106.64,231.96L111.72,231.81L116.79,234.86L126.95,237.67L132.03,241.14L137.11,241.84L142.18,241.15L147.26,243.23L152.34,235.54L157.42,242.49L162.5,245.28L172.65,248.14L177.73,246.45L182.81,244.51L187.89,251.89L192.96,254.13L198.04,253.68L203.12,259.79L208.2,262.59L213.28,264.51L218.35,263.56L223.43,268.09L228.51,265.9L233.59,272.31L238.67,269.89L243.74,272.16L248.82,272.98L253.9,273.92L258.98,271.58L264.06,269.21L269.13,269.16L274.21,275.14L279.29,273.87L284.37,271.73L289.45,271.93L294.52,275.48L299.6,274.26L304.68,276.04L309.76,275.37L314.84,272.65L319.91,276.92L324.99,277.91L330.07,276.07L335.15,274.33L340.23,275.3L345.3,275.89L350.38,280.38L355.46,280.92L360.54,279.47L365.62,281.62L370.7,281.29L375.77,276.06L380.85,278.21L385.93,279.36L391.01,282.71L396.09,277.7L401.16,285.03L411.32,283.1L416.4,286.23L421.48,284.95L426.55,286.68L431.63,284.52L436.71,284.65L441.79,287.25L446.87,285.43L451.94,288.31L457.02,288.08L462.1,288.71L467.18,287.1L472.26,287.94L477.33,286.03L482.41,283.55L487.49,284.76L492.57,285.44L497.65,282.2L502.72,287.65L507.8,282.49L512.88,284.96L517.96,285.02L523.04,287.1L528.11,283.71L533.19,286.2L538.27,285.07L543.35,286.71L548.43,289.49L553.5,284.88L558.58,290.7L568.74,285.37L573.82,286.4L578.89,289.62L583.97,288.15L589.05,287.58L594.13,290.02L599.21,286.41L604.28,290.68L609.36,287.62L614.44,287.45L619.52,286.12L624.6,287.44L629.67,286.24L634.75,287.68L639.83,290.08L644.91,287.22L649.99,285.67L655.06,287.53L660.14,287.59L665.22,286.51L670.3,288.57L675.38,286.77L680.45,284.42L685.53,288.82L690.61,285.23L695.69,286.71L705.84,290.53L710.92,290.49L716,287.84" style="vector-effect: non-scaling-stroke; fill: none; stroke: rgb(31, 119, 180); stroke-opacity: 1; stroke-width: 2px; opacity: 1;"/></g><g class="points"/><g class="text"/></g><g class="trace scatter tracec6a002" style="stroke-miterlimit: 2; opacity: 1;"><g class="fills"/><g class="errorbars"/><g class="lines"><path class="js-line" d="M0,122.96L5.08,145.83L10.16,175.86L15.23,194.58L20.31,186.78L25.39,198.88L30.47,196.48L35.55,15.3L40.62,182.6L45.7,141.66L50.78,189.42L55.86,203.03L60.94,220.03L66.01,227.21L71.09,196.92L76.17,206.95L81.25,225.97L86.33,212.94L91.4,202.85L96.48,226.94L101.56,231.51L106.64,229.73L111.72,230.09L116.79,219.83L121.87,225.08L126.95,235.48L132.03,253.52L137.11,237.17L142.18,240.32L147.26,204.46L152.34,235.92L157.42,217.26L162.5,252.23L167.57,246.06L172.65,251.48L177.73,230.61L182.81,246.07L187.89,250.66L192.96,252.3L198.04,249.66L203.12,261.07L208.2,264.15L213.28,266.08L218.35,266.86L223.43,266.42L228.51,266.36L233.59,268.14L238.67,266.38L243.74,268.21L248.82,268.31L253.9,269.28L258.98,265.64L264.06,268.27L274.21,265.14L279.29,267.48L284.37,269.08L289.45,267.71L299.6,270.16L304.68,268.63L309.76,268.08L314.84,263.45L319.91,267.28L324.99,269.5L335.15,270.09L340.23,268.97L345.3,271.49L350.38,268.6L355.46,265.45L360.54,268.15L365.62,270.3L370.7,270.74L375.77,271.94L380.85,271.45L385.93,269.89L391.01,271.08L396.09,271.19L401.16,268.43L406.24,270.46L411.32,270.59L416.4,271.81L421.48,271.54L441.79,272.11L446.87,271.52L457.02,271.69L462.1,272.04L467.18,271.34L472.26,272.28L487.49,271.8L492.57,272.12L497.65,271L502.72,271.84L517.96,272.29L523.04,272.04L538.27,272.42L543.35,271.26L553.5,272.36L558.58,271.71L568.74,271.42L573.82,271.48L578.89,271.02L583.97,271.64L589.05,272.25L594.13,272.02L599.21,271.34L604.28,271.92L624.6,271.68L629.67,271.23L634.75,271.87L639.83,271.2L649.99,270.93L655.06,271.73L660.14,271.2L665.22,271.77L675.38,271.53L680.45,271.49L690.61,272.13L695.69,271.49L716,271.78" style="vector-effect: non-scaling-stroke; fill: none; stroke: rgb(255, 127, 14); stroke-opacity: 1; stroke-width: 2px; opacity: 1;"/></g><g class="points"/><g class="text"/></g></g></g><g class="overplot"/><path class="xlines-above crisp" d="M0,0" style="fill: none;"/><path class="ylines-above crisp" d="M0,0" style="fill: none;"/><g class="overlines-above"/><g class="xaxislayer-above"><g class="xtick"><text text-anchor="middle" x="0" y="379" transform="translate(60,0)" style="font-family: 'Open Sans', verdana, arial, sans-serif; font-size: 12px; fill: rgb(68, 68, 68); fill-opacity: 1; white-space: pre;">0</text></g><g class="xtick"><text text-anchor="middle" x="0" y="379" transform="translate(161.56,0)" style="font-family: 'Open Sans', verdana, arial, sans-serif; font-size: 12px; fill: rgb(68, 68, 68); fill-opacity: 1; white-space: pre;">20</text></g><g class="xtick"><text text-anchor="middle" x="0" y="379" transform="translate(263.12,0)" style="font-family: 'Open Sans', verdana, arial, sans-serif; font-size: 12px; fill: rgb(68, 68, 68); fill-opacity: 1; white-space: pre;">40</text></g><g class="xtick"><text text-anchor="middle" x="0" y="379" transform="translate(364.68,0)" style="font-family: 'Open Sans', verdana, arial, sans-serif; font-size: 12px; fill: rgb(68, 68, 68); fill-opacity: 1; white-space: pre;">60</text></g><g class="xtick"><text text-anchor="middle" x="0" y="379" transform="translate(466.24,0)" style="font-family: 'Open Sans', verdana, arial, sans-serif; font-size: 12px; fill: rgb(68, 68, 68); fill-opacity: 1; white-space: pre;">80</text></g><g class="xtick"><text text-anchor="middle" x="0" y="379" transform="translate(567.8,0)" style="font-family: 'Open Sans', verdana, arial, sans-serif; font-size: 12px; fill: rgb(68, 68, 68); fill-opacity: 1; white-space: pre;">100</text></g><g class="xtick"><text text-anchor="middle" x="0" y="379" transform="translate(669.36,0)" style="font-family: 'Open Sans', verdana, arial, sans-serif; font-size: 12px; fill: rgb(68, 68, 68); fill-opacity: 1; white-space: pre;">120</text></g><g class="xtick"><text text-anchor="middle" x="0" y="379" transform="translate(770.92,0)" style="font-family: 'Open Sans', verdana, arial, sans-serif; font-size: 12px; fill: rgb(68, 68, 68); fill-opacity: 1; white-space: pre;">140</text></g></g><g class="yaxislayer-above"><g class="ytick"><text text-anchor="end" x="59" y="4.199999999999999" transform="translate(0,326.91)" style="font-family: 'Open Sans', verdana, arial, sans-serif; font-size: 12px; fill: rgb(68, 68, 68); fill-opacity: 1; white-space: pre;">0.5</text></g><g class="ytick"><text text-anchor="end" x="59" y="4.199999999999999" transform="translate(0,281.28999999999996)" style="font-family: 'Open Sans', verdana, arial, sans-serif; font-size: 12px; fill: rgb(68, 68, 68); fill-opacity: 1; white-space: pre;">1</text></g><g class="ytick"><text text-anchor="end" x="59" y="4.199999999999999" transform="translate(0,235.67)" style="font-family: 'Open Sans', verdana, arial, sans-serif; font-size: 12px; fill: rgb(68, 68, 68); fill-opacity: 1; white-space: pre;">1.5</text></g><g class="ytick"><text text-anchor="end" x="59" y="4.199999999999999" transform="translate(0,190.06)" style="font-family: 'Open Sans', verdana, arial, sans-serif; font-size: 12px; fill: rgb(68, 68, 68); fill-opacity: 1; white-space: pre;">2</text></g><g class="ytick"><text text-anchor="end" x="59" y="4.199999999999999" transform="translate(0,144.44)" style="font-family: 'Open Sans', verdana, arial, sans-serif; font-size: 12px; fill: rgb(68, 68, 68); fill-opacity: 1; white-space: pre;">2.5</text></g><g class="ytick"><text text-anchor="end" x="59" y="4.199999999999999" transform="translate(0,98.82)" style="font-family: 'Open Sans', verdana, arial, sans-serif; font-size: 12px; fill: rgb(68, 68, 68); fill-opacity: 1; white-space: pre;">3</text></g></g><g class="overaxes-above"/></g></g><g class="polarlayer"/><g class="ternarylayer"/><g class="geolayer"/><g class="funnelarealayer"/><g class="pielayer"/><g class="treemaplayer"/><g class="sunburstlayer"/><g class="glimages"/><defs id="topdefs-05897d"><g class="clips"/><clipPath id="legend05897d"><rect width="105" height="48" x="0" y="0"/></clipPath></defs><g class="layer-above"><g class="imagelayer"/><g class="shapelayer"/></g><g class="infolayer"><g class="legend" pointer-events="all" transform="translate(790.32,60)"><rect class="bg" shape-rendering="crispEdges" width="105" height="48" x="0" y="0" style="stroke: rgb(68, 68, 68); stroke-opacity: 1; fill: rgb(255, 255, 255); fill-opacity: 1; stroke-width: 0px;"/><g class="scrollbox" transform="" clip-path="url('#legend05897d')"><g class="groups"><g class="traces" transform="translate(0,14.5)" style="opacity: 1;"><text class="legendtext" text-anchor="start" x="40" y="4.680000000000001" style="font-family: 'Open Sans', verdana, arial, sans-serif; font-size: 12px; fill: rgb(68, 68, 68); fill-opacity: 1; white-space: pre;">train_loss</text><g class="layers" style="opacity: 1;"><g class="legendfill"/><g class="legendlines"><path class="js-line" d="M5,0h30" style="fill: none; stroke: rgb(31, 119, 180); stroke-opacity: 1; stroke-width: 2px;"/></g><g class="legendsymbols"><g class="legendpoints"/></g></g><rect class="legendtoggle" x="0" y="-9.5" width="99.59375" height="19" style="fill: rgb(0, 0, 0); fill-opacity: 0;"/></g><g class="traces" transform="translate(0,33.5)" style="opacity: 1;"><text class="legendtext" text-anchor="start" x="40" y="4.680000000000001" style="font-family: 'Open Sans', verdana, arial, sans-serif; font-size: 12px; fill: rgb(68, 68, 68); fill-opacity: 1; white-space: pre;">valid_loss</text><g class="layers" style="opacity: 1;"><g class="legendfill"/><g class="legendlines"><path class="js-line" d="M5,0h30" style="fill: none; stroke: rgb(255, 127, 14); stroke-opacity: 1; stroke-width: 2px;"/></g><g class="legendsymbols"><g class="legendpoints"/></g></g><rect class="legendtoggle" x="0" y="-9.5" width="99.59375" height="19" style="fill: rgb(0, 0, 0); fill-opacity: 0;"/></g></g></g><rect class="scrollbar" rx="20" ry="3" width="0" height="0" x="0" y="0" style="fill: rgb(128, 139, 164); fill-opacity: 1;"/></g><g class="g-gtitle"><text class="gtitle" x="453.5" y="30" text-anchor="middle" dy="0em" style="font-family: 'Open Sans', verdana, arial, sans-serif; font-size: 17px; fill: rgb(68, 68, 68); opacity: 1; font-weight: normal; white-space: pre;">loss_modelB_18_1111</text></g><g class="g-xtitle"/><g class="g-ytitle"/></g></svg>