<svg class="main-svg" xmlns="http://www.w3.org/2000/svg" xmlns:xlink="http://www.w3.org/1999/xlink" width="995" height="516" style="" viewBox="0 0 995 516"><rect x="0" y="0" width="995" height="516" style="fill: rgb(255, 255, 255); fill-opacity: 1;"/><defs id="defs-ba152c"><g class="clips"><clipPath id="clipba152cxyplot" class="plotclip"><rect width="810" height="396"/></clipPath><clipPath class="axesclip" id="clipba152cx"><rect x="60" y="0" width="810" height="516"/></clipPath><clipPath class="axesclip" id="clipba152cy"><rect x="0" y="60" width="995" height="396"/></clipPath><clipPath class="axesclip" id="clipba152cxy"><rect x="60" y="60" width="810" height="396"/></clipPath></g><g class="gradients"/></defs><g class="bglayer"/><g class="layer-below"><g class="imagelayer"/><g class="shapelayer"/></g><g class="cartesianlayer"><g class="subplot xy"><g class="layer-subplot"><g class="shapelayer"/><g class="imagelayer"/></g><g class="gridlayer"><g class="x"><path class="xgrid crisp" transform="translate(141.41,0)" d="M0,60v396" style="stroke: rgb(238, 238, 238); stroke-opacity: 1; stroke-width: 1px;"/><path class="xgrid crisp" transform="translate(222.81,0)" d="M0,60v396" style="stroke: rgb(238, 238, 238); stroke-opacity: 1; stroke-width: 1px;"/><path class="xgrid crisp" transform="translate(304.22,0)" d="M0,60v396" style="stroke: rgb(238, 238, 238); stroke-opacity: 1; stroke-width: 1px;"/><path class="xgrid crisp" transform="translate(385.63,0)" d="M0,60v396" style="stroke: rgb(238, 238, 238); stroke-opacity: 1; stroke-width: 1px;"/><path class="xgrid crisp" transform="translate(467.04,0)" d="M0,60v396" style="stroke: rgb(238, 238, 238); stroke-opacity: 1; stroke-width: 1px;"/><path class="xgrid crisp" transform="translate(548.44,0)" d="M0,60v396" style="stroke: rgb(238, 238, 238); stroke-opacity: 1; stroke-width: 1px;"/><path class="xgrid crisp" transform="translate(629.85,0)" d="M0,60v396" style="stroke: rgb(238, 238, 238); stroke-opacity: 1; stroke-width: 1px;"/><path class="xgrid crisp" transform="translate(711.26,0)" d="M0,60v396" style="stroke: rgb(238, 238, 238); stroke-opacity: 1; stroke-width: 1px;"/><path class="xgrid crisp" transform="translate(792.66,0)" d="M0,60v396" style="stroke: rgb(238, 238, 238); stroke-opacity: 1; stroke-width: 1px;"/></g><g class="y"><path class="ygrid crisp" transform="translate(0,413.29)" d="M60,0h810" style="stroke: rgb(238, 238, 238); stroke-opacity: 1; stroke-width: 1px;"/><path class="ygrid crisp" transform="translate(0,365.5)" d="M60,0h810" style="stroke: rgb(238, 238, 238); stroke-opacity: 1; stroke-width: 1px;"/><path class="ygrid crisp" transform="translate(0,317.71)" d="M60,0h810" style="stroke: rgb(238, 238, 238); stroke-opacity: 1; stroke-width: 1px;"/><path class="ygrid crisp" transform="translate(0,269.91999999999996)" d="M60,0h810" style="stroke: rgb(238, 238, 238); stroke-opacity: 1; stroke-width: 1px;"/><path class="ygrid crisp" transform="translate(0,222.13)" d="M60,0h810" style="stroke: rgb(238, 238, 238); stroke-opacity: 1; stroke-width: 1px;"/><path class="ygrid crisp" transform="translate(0,174.34)" d="M60,0h810" style="stroke: rgb(238, 238, 238); stroke-opacity: 1; stroke-width: 1px;"/><path class="ygrid crisp" transform="translate(0,126.55)" d="M60,0h810" style="stroke: rgb(238, 238, 238); stroke-opacity: 1; stroke-width: 1px;"/><path class="ygrid crisp" transform="translate(0,78.76)" d="M60,0h810" style="stroke: rgb(238, 238, 238); stroke-opacity: 1; stroke-width: 1px;"/></g></g><g class="zerolinelayer"><path class="xzl zl crisp" transform="translate(60,0)" d="M0,60v396" style="stroke: rgb(68, 68, 68); stroke-opacity: 1; stroke-width: 1px;"/></g><path class="xlines-below"/><path class="ylines-below"/><g class="overlines-below"/><g class="xaxislayer-below"/><g class="yaxislayer-below"/><g class="overaxes-below"/><g class="plot" transform="translate(60,60)" clip-path="url('#clipba152cxyplot')"><g class="scatterlayer mlayer"><g class="trace scatter trace0806c0" style="stroke-miterlimit: 2; opacity: 1;"><g class="fills"/><g class="errorbars"/><g class="lines"><path class="js-line" d="M0,19.8L4.07,63.89L8.14,81.2L12.21,98.96L16.28,110.39L20.35,116.99L24.42,125.47L32.56,136.29L36.63,140.39L48.84,152.28L52.91,156.04L73.27,164.77L77.34,166.47L81.41,167.16L85.48,169.9L89.55,170.59L93.62,172.43L97.69,173.32L101.76,173.43L109.9,176.5L113.97,175.97L126.18,178.68L130.25,181.18L134.32,179.13L138.39,180.75L142.46,182.69L146.53,181.88L150.6,183.83L154.67,182.36L162.81,184.35L166.88,184.55L179.1,186.12L183.17,186.47L199.45,186.56L203.52,188.22L207.59,187.4L211.66,190.18L215.73,190.06L219.8,188.85L227.94,189.98L232.01,190.16L236.08,191.38L240.15,190.32L244.22,191.29L248.29,190.72L256.43,191.55L260.5,191.78L264.57,193.52L268.64,192.69L280.85,192.94L284.92,193.87L288.99,191.15L293.07,193.99L301.21,194.61L305.28,195.42L313.42,195.6L317.49,194.35L325.63,196.81L329.7,196.39L337.84,195.69L341.91,196.36L350.05,195.47L354.12,196.91L362.26,197.83L366.33,196.97L370.4,198.16L374.47,197.88L390.75,197.9L394.82,198.57L398.89,197.54L402.96,198.22L407.04,199.36L411.11,196.96L415.18,199.48L419.25,200.04L423.32,199.15L427.39,199.53L431.46,199.5L435.53,200.79L439.6,199.96L443.67,200.67L447.74,199.31L451.81,200.48L455.88,199.83L459.95,201.76L464.02,200.46L468.09,201.3L472.16,201.96L476.23,201.26L484.37,201.16L488.44,201.15L512.86,202.61L516.93,202.13L521.01,201.41L525.08,202.36L529.15,203.77L533.22,202.74L537.29,203.51L541.36,203.49L545.43,203.16L549.5,204.1L565.78,204.01L569.85,204.51L573.92,205.16L577.99,202.88L582.06,204.2L586.13,204.49L594.27,203.73L598.34,205.88L602.41,204.36L606.48,204.74L610.55,203.17L614.62,204.84L626.83,205.1L630.9,206.57L634.97,203.94L639.05,204.86L643.12,206.41L647.19,205.29L651.26,207.53L655.33,206.15L659.4,206.63L663.47,205.34L667.54,207.79L671.61,207.5L675.68,205.85L679.75,207.43L683.82,207.6L687.89,206.57L691.96,208.76L696.03,207.56L704.17,207.61L708.24,205.62L712.31,207.42L716.38,207.82L720.45,206.74L724.52,208.67L732.66,208.54L736.73,209.53L740.8,208.06L744.87,210.15L748.94,207.2L753.02,208.13L757.09,207.51L761.16,208.85L765.23,209.82L769.3,208.18L773.37,208.85L777.44,211.03L781.51,209.97L785.58,210.31L797.79,210.03L801.86,209.02L805.93,210.11L810,210.24" style="vector-effect: non-scaling-stroke; fill: none; stroke: rgb(31, 119, 180); stroke-opacity: 1; stroke-width: 2px; opacity: 1;"/></g><g class="points"/><g class="text"/></g><g class="trace scatter trace9d2204" style="stroke-miterlimit: 2; opacity: 1;"><g class="fills"/><g class="errorbars"/><g class="lines"><path class="js-line" d="M0,20.44L4.07,103.95L8.14,205.28L12.21,200.18L16.28,241.8L20.35,279.31L24.42,307.04L28.49,268.88L32.56,285.68L36.63,310L40.7,301.51L44.77,322.64L48.84,302.29L52.91,322.09L56.98,324.09L61.06,316.23L65.13,327.7L69.2,339.72L73.27,328.13L77.34,338.14L81.41,345.15L85.48,344.11L89.55,341.95L93.62,341.66L97.69,350.44L101.76,347.75L105.83,341.62L109.9,354.53L113.97,345.05L118.04,343.95L122.11,351.83L126.18,335.7L130.25,354.47L134.32,336.81L138.39,344.85L142.46,355.19L146.53,353.51L150.6,350.71L154.67,344.06L158.74,355.87L162.81,361.73L166.88,345.09L170.95,359L175.03,358.19L179.1,354.19L183.17,366.75L187.24,361.89L191.31,358.81L195.38,358.2L199.45,360.05L203.52,352.26L207.59,357.35L211.66,358.53L215.73,361.15L219.8,361.62L223.87,360.85L227.94,354.69L232.01,354.44L236.08,352.93L240.15,365.47L244.22,346.95L248.29,368.85L252.36,367.15L256.43,363.21L260.5,370.86L264.57,368.35L268.64,363.46L272.71,355.88L276.78,361.48L280.85,363.38L284.92,357.09L288.99,362.01L293.07,363.13L297.14,356.78L301.21,361.38L305.28,359.91L309.35,368.72L313.42,366.59L317.49,362.68L321.56,367.95L325.63,365.98L329.7,360.88L333.77,358.15L337.84,367.44L341.91,369.79L345.98,360.86L350.05,358.77L354.12,366.26L358.19,360.54L362.26,365.79L366.33,365.8L370.4,359.23L374.47,363.24L378.54,364.65L382.61,368.18L386.68,359.79L390.75,365.25L394.82,366.52L398.89,363.07L402.96,368.57L407.04,370.72L411.11,364.53L415.18,362.95L419.25,364.7L423.32,362.45L435.53,368.56L439.6,368.32L443.67,368.37L447.74,364.59L451.81,365.03L455.88,360.56L459.95,363.44L464.02,369.91L468.09,362.13L472.16,367.13L476.23,374.3L480.3,358.26L484.37,365.57L488.44,361.9L492.51,356.88L496.58,369.67L500.65,373.77L504.72,359.51L508.79,362.7L512.86,363.42L516.93,367.51L521.01,369.45L525.08,362.95L529.15,368.38L533.22,357.43L537.29,364.12L541.36,371.36L545.43,367.22L549.5,361.21L553.57,364.76L557.64,359.71L561.71,369.16L565.78,362.26L569.85,367.17L573.92,365L577.99,371.18L582.06,365.13L586.13,369.89L590.2,363.75L594.27,371.66L598.34,369.77L602.41,360.67L606.48,367.1L610.55,370.02L614.62,360.12L618.69,363.63L622.76,362.22L626.83,365.82L630.9,365.52L634.97,362.15L639.05,358.47L643.12,365.03L647.19,365.46L651.26,373.32L655.33,370.16L659.4,365.38L663.47,365.55L667.54,371.59L671.61,366.41L675.68,363.22L679.75,363.44L683.82,367.31L687.89,362.53L691.96,365.38L696.03,363.86L700.1,358.76L708.24,376.2L712.31,369.23L716.38,366.46L720.45,364.97L724.52,369.9L728.59,371.14L732.66,368.79L736.73,370.61L740.8,366.28L744.87,371.52L748.94,368.82L753.02,370.74L757.09,370.95L761.16,372.17L769.3,360.91L773.37,367.27L777.44,363L781.51,367.92L785.58,373.26L789.65,374.12L793.72,368.59L797.79,367.59L801.86,370.26L805.93,368.54L810,365.4" style="vector-effect: non-scaling-stroke; fill: none; stroke: rgb(255, 127, 14); stroke-opacity: 1; stroke-width: 2px; opacity: 1;"/></g><g class="points"/><g class="text"/></g></g></g><g class="overplot"/><path class="xlines-above crisp" d="M0,0" style="fill: none;"/><path class="ylines-above crisp" d="M0,0" style="fill: none;"/><g class="overlines-above"/><g class="xaxislayer-above"><g class="xtick"><text text-anchor="middle" x="0" y="469" transform="translate(60,0)" style="font-family: 'Open Sans', verdana, arial, sans-serif; font-size: 12px; fill: rgb(68, 68, 68); fill-opacity: 1; white-space: pre;">0</text></g><g class="xtick"><text text-anchor="middle" x="0" y="469" transform="translate(141.41,0)" style="font-family: 'Open Sans', verdana, arial, sans-serif; font-size: 12px; fill: rgb(68, 68, 68); fill-opacity: 1; white-space: pre;">20</text></g><g class="xtick"><text text-anchor="middle" x="0" y="469" transform="translate(222.81,0)" style="font-family: 'Open Sans', verdana, arial, sans-serif; font-size: 12px; fill: rgb(68, 68, 68); fill-opacity: 1; white-space: pre;">40</text></g><g class="xtick"><text text-anchor="middle" x="0" y="469" transform="translate(304.22,0)" style="font-family: 'Open Sans', verdana, arial, sans-serif; font-size: 12px; fill: rgb(68, 68, 68); fill-opacity: 1; white-space: pre;">60</text></g><g class="xtick"><text text-anchor="middle" x="0" y="469" transform="translate(385.63,0)" style="font-family: 'Open Sans', verdana, arial, sans-serif; font-size: 12px; fill: rgb(68, 68, 68); fill-opacity: 1; white-space: pre;">80</text></g><g class="xtick"><text text-anchor="middle" x="0" y="469" transform="translate(467.04,0)" style="font-family: 'Open Sans', verdana, arial, sans-serif; font-size: 12px; fill: rgb(68, 68, 68); fill-opacity: 1; white-space: pre;">100</text></g><g class="xtick"><text text-anchor="middle" x="0" y="469" transform="translate(548.44,0)" style="font-family: 'Open Sans', verdana, arial, sans-serif; font-size: 12px; fill: rgb(68, 68, 68); fill-opacity: 1; white-space: pre;">120</text></g><g class="xtick"><text text-anchor="middle" x="0" y="469" transform="translate(629.85,0)" style="font-family: 'Open Sans', verdana, arial, sans-serif; font-size: 12px; fill: rgb(68, 68, 68); fill-opacity: 1; white-space: pre;">140</text></g><g class="xtick"><text text-anchor="middle" x="0" y="469" transform="translate(711.26,0)" style="font-family: 'Open Sans', verdana, arial, sans-serif; font-size: 12px; fill: rgb(68, 68, 68); fill-opacity: 1; white-space: pre;">160</text></g><g class="xtick"><text text-anchor="middle" x="0" y="469" transform="translate(792.66,0)" style="font-family: 'Open Sans', verdana, arial, sans-serif; font-size: 12px; fill: rgb(68, 68, 68); fill-opacity: 1; white-space: pre;">180</text></g></g><g class="yaxislayer-above"><g class="ytick"><text text-anchor="end" x="59" y="4.199999999999999" transform="translate(0,413.29)" style="font-family: 'Open Sans', verdana, arial, sans-serif; font-size: 12px; fill: rgb(68, 68, 68); fill-opacity: 1; white-space: pre;">0.4</text></g><g class="ytick"><text text-anchor="end" x="59" y="4.199999999999999" transform="translate(0,365.5)" style="font-family: 'Open Sans', verdana, arial, sans-serif; font-size: 12px; fill: rgb(68, 68, 68); fill-opacity: 1; white-space: pre;">0.6</text></g><g class="ytick"><text text-anchor="end" x="59" y="4.199999999999999" transform="translate(0,317.71)" style="font-family: 'Open Sans', verdana, arial, sans-serif; font-size: 12px; fill: rgb(68, 68, 68); fill-opacity: 1; white-space: pre;">0.8</text></g><g class="ytick"><text text-anchor="end" x="59" y="4.199999999999999" transform="translate(0,269.91999999999996)" style="font-family: 'Open Sans', verdana, arial, sans-serif; font-size: 12px; fill: rgb(68, 68, 68); fill-opacity: 1; white-space: pre;">1</text></g><g class="ytick"><text text-anchor="end" x="59" y="4.199999999999999" transform="translate(0,222.13)" style="font-family: 'Open Sans', verdana, arial, sans-serif; font-size: 12px; fill: rgb(68, 68, 68); fill-opacity: 1; white-space: pre;">1.2</text></g><g class="ytick"><text text-anchor="end" x="59" y="4.199999999999999" transform="translate(0,174.34)" style="font-family: 'Open Sans', verdana, arial, sans-serif; font-size: 12px; fill: rgb(68, 68, 68); fill-opacity: 1; white-space: pre;">1.4</text></g><g class="ytick"><text text-anchor="end" x="59" y="4.199999999999999" transform="translate(0,126.55)" style="font-family: 'Open Sans', verdana, arial, sans-serif; font-size: 12px; fill: rgb(68, 68, 68); fill-opacity: 1; white-space: pre;">1.6</text></g><g class="ytick"><text text-anchor="end" x="59" y="4.199999999999999" transform="translate(0,78.76)" style="font-family: 'Open Sans', verdana, arial, sans-serif; font-size: 12px; fill: rgb(68, 68, 68); fill-opacity: 1; white-space: pre;">1.8</text></g></g><g class="overaxes-above"/></g></g><g class="polarlayer"/><g class="ternarylayer"/><g class="geolayer"/><g class="funnelarealayer"/><g class="pielayer"/><g class="treemaplayer"/><g class="sunburstlayer"/><g class="glimages"/><defs id="topdefs-ba152c"><g class="clips"/><clipPath id="legendba152c"><rect width="97" height="48" x="0" y="0"/></clipPath></defs><g class="layer-above"><g class="imagelayer"/><g class="shapelayer"/></g><g class="infolayer"><g class="legend" pointer-events="all" transform="translate(886.2,60)"><rect class="bg" shape-rendering="crispEdges" width="97" height="48" x="0" y="0" style="stroke: rgb(68, 68, 68); stroke-opacity: 1; fill: rgb(255, 255, 255); fill-opacity: 1; stroke-width: 0px;"/><g class="scrollbox" transform="" clip-path="url('#legendba152c')"><g class="groups"><g class="traces" transform="translate(0,14.5)" style="opacity: 1;"><text class="legendtext" text-anchor="start" x="40" y="4.680000000000001" style="font-family: 'Open Sans', verdana, arial, sans-serif; font-size: 12px; fill: rgb(68, 68, 68); fill-opacity: 1; white-space: pre;">train_loss</text><g class="layers" style="opacity: 1;"><g class="legendfill"/><g class="legendlines"><path class="js-line" d="M5,0h30" style="fill: none; stroke: rgb(31, 119, 180); stroke-opacity: 1; stroke-width: 2px;"/></g><g class="legendsymbols"><g class="legendpoints"/></g></g><rect class="legendtoggle" x="0" y="-9.5" width="91.53125" height="19" style="fill: rgb(0, 0, 0); fill-opacity: 0;"/></g><g class="traces" transform="translate(0,33.5)" style="opacity: 1;"><text class="legendtext" text-anchor="start" x="40" y="4.680000000000001" style="font-family: 'Open Sans', verdana, arial, sans-serif; font-size: 12px; fill: rgb(68, 68, 68); fill-opacity: 1; white-space: pre;">valid_loss</text><g class="layers" style="opacity: 1;"><g class="legendfill"/><g class="legendlines"><path class="js-line" d="M5,0h30" style="fill: none; stroke: rgb(255, 127, 14); stroke-opacity: 1; stroke-width: 2px;"/></g><g class="legendsymbols"><g class="legendpoints"/></g></g><rect class="legendtoggle" x="0" y="-9.5" width="91.53125" height="19" style="fill: rgb(0, 0, 0); fill-opacity: 0;"/></g></g></g><rect class="scrollbar" rx="20" ry="3" width="0" height="0" x="0" y="0" style="fill: rgb(128, 139, 164); fill-opacity: 1;"/></g><g class="g-gtitle"><text class="gtitle" x="497.5" y="30" text-anchor="middle" dy="0em" style="font-family: 'Open Sans', verdana, arial, sans-serif; font-size: 17px; fill: rgb(68, 68, 68); opacity: 1; font-weight: normal; white-space: pre;">loss_modelC_NoKM</text></g><g class="g-xtitle"/><g class="g-ytitle"/></g></svg>