<svg class="main-svg" xmlns="http://www.w3.org/2000/svg" xmlns:xlink="http://www.w3.org/1999/xlink" width="919" height="381" style="" viewBox="0 0 919 381"><rect x="0" y="0" width="919" height="381" style="fill: rgb(255, 255, 255); fill-opacity: 1;"/><defs id="defs-1ea2c5"><g class="clips"><clipPath id="clip1ea2c5xyplot" class="plotclip"><rect width="727" height="261"/></clipPath><clipPath class="axesclip" id="clip1ea2c5x"><rect x="60" y="0" width="727" height="381"/></clipPath><clipPath class="axesclip" id="clip1ea2c5y"><rect x="0" y="60" width="919" height="261"/></clipPath><clipPath class="axesclip" id="clip1ea2c5xy"><rect x="60" y="60" width="727" height="261"/></clipPath></g><g class="gradients"/></defs><g class="bglayer"/><g class="layer-below"><g class="imagelayer"/><g class="shapelayer"/></g><g class="cartesianlayer"><g class="subplot xy"><g class="layer-subplot"><g class="shapelayer"/><g class="imagelayer"/></g><g class="gridlayer"><g class="x"><path class="xgrid crisp" transform="translate(133.07,0)" d="M0,60v261" style="stroke: rgb(238, 238, 238); stroke-opacity: 1; stroke-width: 1px;"/><path class="xgrid crisp" transform="translate(206.13,0)" d="M0,60v261" style="stroke: rgb(238, 238, 238); stroke-opacity: 1; stroke-width: 1px;"/><path class="xgrid crisp" transform="translate(279.2,0)" d="M0,60v261" style="stroke: rgb(238, 238, 238); stroke-opacity: 1; stroke-width: 1px;"/><path class="xgrid crisp" transform="translate(352.26,0)" d="M0,60v261" style="stroke: rgb(238, 238, 238); stroke-opacity: 1; stroke-width: 1px;"/><path class="xgrid crisp" transform="translate(425.33,0)" d="M0,60v261" style="stroke: rgb(238, 238, 238); stroke-opacity: 1; stroke-width: 1px;"/><path class="xgrid crisp" transform="translate(498.39,0)" d="M0,60v261" style="stroke: rgb(238, 238, 238); stroke-opacity: 1; stroke-width: 1px;"/><path class="xgrid crisp" transform="translate(571.46,0)" d="M0,60v261" style="stroke: rgb(238, 238, 238); stroke-opacity: 1; stroke-width: 1px;"/><path class="xgrid crisp" transform="translate(644.52,0)" d="M0,60v261" style="stroke: rgb(238, 238, 238); stroke-opacity: 1; stroke-width: 1px;"/><path class="xgrid crisp" transform="translate(717.59,0)" d="M0,60v261" style="stroke: rgb(238, 238, 238); stroke-opacity: 1; stroke-width: 1px;"/></g><g class="y"><path class="ygrid crisp" transform="translate(0,281.74)" d="M60,0h727" style="stroke: rgb(238, 238, 238); stroke-opacity: 1; stroke-width: 1px;"/><path class="ygrid crisp" transform="translate(0,235.15)" d="M60,0h727" style="stroke: rgb(238, 238, 238); stroke-opacity: 1; stroke-width: 1px;"/><path class="ygrid crisp" transform="translate(0,188.55)" d="M60,0h727" style="stroke: rgb(238, 238, 238); stroke-opacity: 1; stroke-width: 1px;"/><path class="ygrid crisp" transform="translate(0,141.95999999999998)" d="M60,0h727" style="stroke: rgb(238, 238, 238); stroke-opacity: 1; stroke-width: 1px;"/><path class="ygrid crisp" transform="translate(0,95.37)" d="M60,0h727" style="stroke: rgb(238, 238, 238); stroke-opacity: 1; stroke-width: 1px;"/></g></g><g class="zerolinelayer"><path class="xzl zl crisp" transform="translate(60,0)" d="M0,60v261" style="stroke: rgb(68, 68, 68); stroke-opacity: 1; stroke-width: 1px;"/></g><path class="xlines-below"/><path class="ylines-below"/><g class="overlines-below"/><g class="xaxislayer-below"/><g class="yaxislayer-below"/><g class="overaxes-below"/><g class="plot" transform="translate(60,60)" clip-path="url('#clip1ea2c5xyplot')"><g class="scatterlayer mlayer"><g class="trace scatter trace1c92a0" style="stroke-miterlimit: 2; opacity: 1;"><g class="fills"/><g class="errorbars"/><g class="lines"><path class="js-line" d="M0,101.61L3.65,127.32L7.31,134.47L10.96,139.06L14.61,151.65L18.27,148.02L21.92,154.23L25.57,151.98L29.23,155.19L32.88,154.1L36.53,163.42L40.19,162.78L43.84,167.18L47.49,174.05L51.15,172.72L54.8,171.03L58.45,172.4L62.11,169.99L65.76,178.78L69.41,181.46L73.07,182.77L76.72,189.69L80.37,193.22L84.03,179.75L87.68,187.45L91.33,191.49L94.98,199.08L98.64,192.07L102.29,191.21L105.94,195.85L109.6,195.34L113.25,196.93L116.9,203.9L120.56,197.99L124.21,204.1L127.86,204.47L131.52,208.31L135.17,208.36L138.82,207.23L142.48,203.41L146.13,210.32L149.78,220.04L153.44,218.43L157.09,220.21L160.74,225.9L164.4,231.08L168.05,221.72L171.7,223.43L175.36,226.03L182.66,228.38L186.32,231.86L193.62,228.71L197.28,226.32L200.93,229.68L204.58,231.07L208.24,229.26L211.89,231.65L215.54,230.81L219.2,232.17L222.85,235.66L226.5,230.33L230.16,231L233.81,233.74L237.46,230.64L241.12,230.87L244.77,229.77L248.42,234.3L252.08,229.75L255.73,235.29L259.38,234.56L263.04,235.96L266.69,233.81L270.34,233.89L273.99,236.16L277.65,232.88L281.3,236.83L284.95,243.24L288.61,237.35L292.26,242.72L295.91,239.77L299.57,239.52L303.22,238.09L306.87,242.78L310.53,238.21L314.18,239.83L317.83,244.64L321.49,242.58L325.14,244.22L328.79,244L332.45,241.55L336.1,240.09L339.75,240.93L343.41,239.94L347.06,244L350.71,243.1L354.37,247.08L358.02,243L361.67,239.79L365.33,245.27L368.98,242.6L372.63,243.08L376.29,243.34L379.94,240.48L387.25,245L390.9,241.44L394.55,239.89L398.21,246.1L401.86,242.14L405.51,241.57L409.17,245.72L412.82,245.08L416.47,239.97L420.13,244.78L423.78,247.95L427.43,246.53L431.09,245.76L434.74,245.89L438.39,246.3L442.05,238.29L445.7,247.48L449.35,238.27L453.01,245.64L456.66,244.9L460.31,242.76L463.96,242.1L467.62,241.56L471.27,243.35L474.92,243.15L478.58,247.25L482.23,241.89L485.88,242.71L489.54,244.21L493.19,243.98L496.84,241.91L500.5,242.93L504.15,247.68L507.8,244.44L511.46,243.84L515.11,242.06L518.76,245.11L522.42,244.66L526.07,247.34L529.72,245.88L533.38,242.47L537.03,242.28L540.68,243.72L544.34,238.52L547.99,247.03L551.64,244.87L555.3,244.15L558.95,240.68L562.6,242.21L566.26,245.53L569.91,246.89L573.56,242.22L577.22,246.13L580.87,243.94L591.83,245.13L595.48,243.85L599.14,243.29L602.79,246.74L606.44,243L610.1,245.96L617.4,246.11L621.06,243.79L624.71,244.11L628.36,241.73L632.02,244.6L635.67,240.7L639.32,246.23L642.97,245.91L646.63,243.25L650.28,245.53L653.93,244.83L657.59,245.27L661.24,243.94L664.89,246.96L668.55,242.29L672.2,245.01L675.85,242.56L679.51,247.57L683.16,241.53L686.81,243.2L690.47,245.83L694.12,242.09L697.77,244.85L701.43,244.44L705.08,244.48L708.73,246.45L712.39,241.52L716.04,244.34L719.69,245.24L723.35,244.94L727,243.21" style="vector-effect: non-scaling-stroke; fill: none; stroke: rgb(31, 119, 180); stroke-opacity: 1; stroke-width: 2px; opacity: 1;"/></g><g class="points"/><g class="text"/></g><g class="trace scatter trace0f0d45" style="stroke-miterlimit: 2; opacity: 1;"><g class="fills"/><g class="errorbars"/><g class="lines"><path class="js-line" d="M0,30.84L3.65,135.58L7.31,33.86L10.96,148.02L14.61,143.71L18.27,146.3L21.92,116.29L25.57,153.69L29.23,129.61L32.88,155.92L36.53,133.58L40.19,13.05L43.84,134.62L47.49,187.62L51.15,117.64L54.8,99.23L58.45,181.57L62.11,171.65L65.76,171.92L69.41,172.95L73.07,167.99L76.72,188.81L80.37,164.63L84.03,193.96L87.68,153.79L91.33,195.41L94.98,191.36L102.29,176.85L105.94,188.69L109.6,178.83L113.25,182.34L116.9,177.05L120.56,202.46L124.21,204.07L127.86,168.64L131.52,202.31L135.17,204.27L138.82,183.49L142.48,201.01L146.13,216.34L149.78,220.15L153.44,218.06L157.09,218.74L160.74,220.76L164.4,220.8L168.05,221.78L171.7,217.42L175.36,220.41L179.01,221.02L182.66,222.99L186.32,221.99L189.97,223.19L193.62,222.66L197.28,221.87L200.93,223.53L204.58,218.01L208.24,223.26L211.89,223.59L215.54,222.14L219.2,222.5L222.85,223.99L237.46,223.49L241.12,221.18L244.77,223.21L248.42,222.55L252.08,224.82L255.73,224.16L259.38,223.23L263.04,224.42L270.34,225.56L273.99,223.83L281.3,224.4L284.95,220.76L288.61,224.37L292.26,226.6L295.91,227.03L299.57,226.57L303.22,227.08L306.87,226.75L321.49,226.52L325.14,226.32L343.41,226.01L347.06,226.41L365.33,226L368.98,226.18L379.94,225.93L383.59,226.17L390.9,225.82L394.55,226.64L398.21,225.67L401.86,226.24L416.47,226.3L420.13,225.97L445.7,226.37L449.35,226.17L482.23,225.43L485.88,226.33L496.84,225.98L500.5,225.9L511.46,225.97L515.11,226.11L529.72,226.63L533.38,225.81L544.34,226.02L547.99,226.04L558.95,226.37L562.6,225.47L569.91,225.94L573.56,225.63L580.87,225.91L584.52,226.15L595.48,225.85L599.14,225.99L610.1,225.81L613.75,225.85L621.06,226.3L624.71,226.04L632.02,226.03L635.67,226.13L639.32,225.76L642.97,226.34L653.93,226.31L657.59,225.35L664.89,226.2L668.55,225.98L675.85,225.88L679.51,226.12L697.77,226.28L701.43,226.52L723.35,225.85L727,226" style="vector-effect: non-scaling-stroke; fill: none; stroke: rgb(255, 127, 14); stroke-opacity: 1; stroke-width: 2px; opacity: 1;"/></g><g class="points"/><g class="text"/></g></g></g><g class="overplot"/><path class="xlines-above crisp" d="M0,0" style="fill: none;"/><path class="ylines-above crisp" d="M0,0" style="fill: none;"/><g class="overlines-above"/><g class="xaxislayer-above"><g class="xtick"><text text-anchor="middle" x="0" y="334" transform="translate(60,0)" style="font-family: 'Open Sans', verdana, arial, sans-serif; font-size: 12px; fill: rgb(68, 68, 68); fill-opacity: 1; white-space: pre;">0</text></g><g class="xtick"><text text-anchor="middle" x="0" y="334" transform="translate(133.07,0)" style="font-family: 'Open Sans', verdana, arial, sans-serif; font-size: 12px; fill: rgb(68, 68, 68); fill-opacity: 1; white-space: pre;">20</text></g><g class="xtick"><text text-anchor="middle" x="0" y="334" transform="translate(206.13,0)" style="font-family: 'Open Sans', verdana, arial, sans-serif; font-size: 12px; fill: rgb(68, 68, 68); fill-opacity: 1; white-space: pre;">40</text></g><g class="xtick"><text text-anchor="middle" x="0" y="334" transform="translate(279.2,0)" style="font-family: 'Open Sans', verdana, arial, sans-serif; font-size: 12px; fill: rgb(68, 68, 68); fill-opacity: 1; white-space: pre;">60</text></g><g class="xtick"><text text-anchor="middle" x="0" y="334" transform="translate(352.26,0)" style="font-family: 'Open Sans', verdana, arial, sans-serif; font-size: 12px; fill: rgb(68, 68, 68); fill-opacity: 1; white-space: pre;">80</text></g><g class="xtick"><text text-anchor="middle" x="0" y="334" transform="translate(425.33,0)" style="font-family: 'Open Sans', verdana, arial, sans-serif; font-size: 12px; fill: rgb(68, 68, 68); fill-opacity: 1; white-space: pre;">100</text></g><g class="xtick"><text text-anchor="middle" x="0" y="334" transform="translate(498.39,0)" style="font-family: 'Open Sans', verdana, arial, sans-serif; font-size: 12px; fill: rgb(68, 68, 68); fill-opacity: 1; white-space: pre;">120</text></g><g class="xtick"><text text-anchor="middle" x="0" y="334" transform="translate(571.46,0)" style="font-family: 'Open Sans', verdana, arial, sans-serif; font-size: 12px; fill: rgb(68, 68, 68); fill-opacity: 1; white-space: pre;">140</text></g><g class="xtick"><text text-anchor="middle" x="0" y="334" transform="translate(644.52,0)" style="font-family: 'Open Sans', verdana, arial, sans-serif; font-size: 12px; fill: rgb(68, 68, 68); fill-opacity: 1; white-space: pre;">160</text></g><g class="xtick"><text text-anchor="middle" x="0" y="334" transform="translate(717.59,0)" style="font-family: 'Open Sans', verdana, arial, sans-serif; font-size: 12px; fill: rgb(68, 68, 68); fill-opacity: 1; white-space: pre;">180</text></g></g><g class="yaxislayer-above"><g class="ytick"><text text-anchor="end" x="59" y="4.199999999999999" transform="translate(0,281.74)" style="font-family: 'Open Sans', verdana, arial, sans-serif; font-size: 12px; fill: rgb(68, 68, 68); fill-opacity: 1; white-space: pre;">0.5</text></g><g class="ytick"><text text-anchor="end" x="59" y="4.199999999999999" transform="translate(0,235.15)" style="font-family: 'Open Sans', verdana, arial, sans-serif; font-size: 12px; fill: rgb(68, 68, 68); fill-opacity: 1; white-space: pre;">1</text></g><g class="ytick"><text text-anchor="end" x="59" y="4.199999999999999" transform="translate(0,188.55)" style="font-family: 'Open Sans', verdana, arial, sans-serif; font-size: 12px; fill: rgb(68, 68, 68); fill-opacity: 1; white-space: pre;">1.5</text></g><g class="ytick"><text text-anchor="end" x="59" y="4.199999999999999" transform="translate(0,141.95999999999998)" style="font-family: 'Open Sans', verdana, arial, sans-serif; font-size: 12px; fill: rgb(68, 68, 68); fill-opacity: 1; white-space: pre;">2</text></g><g class="ytick"><text text-anchor="end" x="59" y="4.199999999999999" transform="translate(0,95.37)" style="font-family: 'Open Sans', verdana, arial, sans-serif; font-size: 12px; fill: rgb(68, 68, 68); fill-opacity: 1; white-space: pre;">2.5</text></g></g><g class="overaxes-above"/></g></g><g class="polarlayer"/><g class="ternarylayer"/><g class="geolayer"/><g class="funnelarealayer"/><g class="pielayer"/><g class="treemaplayer"/><g class="sunburstlayer"/><g class="glimages"/><defs id="topdefs-1ea2c5"><g class="clips"/><clipPath id="legend1ea2c5"><rect width="105" height="48" x="0" y="0"/></clipPath></defs><g class="layer-above"><g class="imagelayer"/><g class="shapelayer"/></g><g class="infolayer"><g class="legend" pointer-events="all" transform="translate(801.54,60)"><rect class="bg" shape-rendering="crispEdges" width="105" height="48" x="0" y="0" style="stroke: rgb(68, 68, 68); stroke-opacity: 1; fill: rgb(255, 255, 255); fill-opacity: 1; stroke-width: 0px;"/><g class="scrollbox" transform="" clip-path="url('#legend1ea2c5')"><g class="groups"><g class="traces" transform="translate(0,14.5)" style="opacity: 1;"><text class="legendtext" text-anchor="start" x="40" y="4.680000000000001" style="font-family: 'Open Sans', verdana, arial, sans-serif; font-size: 12px; fill: rgb(68, 68, 68); fill-opacity: 1; white-space: pre;">train_loss</text><g class="layers" style="opacity: 1;"><g class="legendfill"/><g class="legendlines"><path class="js-line" d="M5,0h30" style="fill: none; stroke: rgb(31, 119, 180); stroke-opacity: 1; stroke-width: 2px;"/></g><g class="legendsymbols"><g class="legendpoints"/></g></g><rect class="legendtoggle" x="0" y="-9.5" width="99.59375" height="19" style="fill: rgb(0, 0, 0); fill-opacity: 0;"/></g><g class="traces" transform="translate(0,33.5)" style="opacity: 1;"><text class="legendtext" text-anchor="start" x="40" y="4.680000000000001" style="font-family: 'Open Sans', verdana, arial, sans-serif; font-size: 12px; fill: rgb(68, 68, 68); fill-opacity: 1; white-space: pre;">valid_loss</text><g class="layers" style="opacity: 1;"><g class="legendfill"/><g class="legendlines"><path class="js-line" d="M5,0h30" style="fill: none; stroke: rgb(255, 127, 14); stroke-opacity: 1; stroke-width: 2px;"/></g><g class="legendsymbols"><g class="legendpoints"/></g></g><rect class="legendtoggle" x="0" y="-9.5" width="99.59375" height="19" style="fill: rgb(0, 0, 0); fill-opacity: 0;"/></g></g></g><rect class="scrollbar" rx="20" ry="3" width="0" height="0" x="0" y="0" style="fill: rgb(128, 139, 164); fill-opacity: 1;"/></g><g class="g-gtitle"><text class="gtitle" x="459.5" y="30" text-anchor="middle" dy="0em" style="font-family: 'Open Sans', verdana, arial, sans-serif; font-size: 17px; fill: rgb(68, 68, 68); opacity: 1; font-weight: normal; white-space: pre;">loss_modelB_RandomVerticalFlip</text></g><g class="g-xtitle"/><g class="g-ytitle"/></g></svg>