<svg class="main-svg" xmlns="http://www.w3.org/2000/svg" xmlns:xlink="http://www.w3.org/1999/xlink" width="918" height="471" style="" viewBox="0 0 918 471"><rect x="0" y="0" width="918" height="471" style="fill: rgb(255, 255, 255); fill-opacity: 1;"/><defs id="defs-b28acc"><g class="clips"><clipPath id="clipb28accxyplot" class="plotclip"><rect width="734" height="351"/></clipPath><clipPath class="axesclip" id="clipb28accx"><rect x="60" y="0" width="734" height="471"/></clipPath><clipPath class="axesclip" id="clipb28accy"><rect x="0" y="60" width="918" height="351"/></clipPath><clipPath class="axesclip" id="clipb28accxy"><rect x="60" y="60" width="734" height="351"/></clipPath></g><g class="gradients"/></defs><g class="bglayer"/><g class="layer-below"><g class="imagelayer"/><g class="shapelayer"/></g><g class="cartesianlayer"><g class="subplot xy"><g class="layer-subplot"><g class="shapelayer"/><g class="imagelayer"/></g><g class="gridlayer"><g class="x"><path class="xgrid crisp" transform="translate(133.76999999999998,0)" d="M0,60v351" style="stroke: rgb(238, 238, 238); stroke-opacity: 1; stroke-width: 1px;"/><path class="xgrid crisp" transform="translate(207.54,0)" d="M0,60v351" style="stroke: rgb(238, 238, 238); stroke-opacity: 1; stroke-width: 1px;"/><path class="xgrid crisp" transform="translate(281.31,0)" d="M0,60v351" style="stroke: rgb(238, 238, 238); stroke-opacity: 1; stroke-width: 1px;"/><path class="xgrid crisp" transform="translate(355.08,0)" d="M0,60v351" style="stroke: rgb(238, 238, 238); stroke-opacity: 1; stroke-width: 1px;"/><path class="xgrid crisp" transform="translate(428.84,0)" d="M0,60v351" style="stroke: rgb(238, 238, 238); stroke-opacity: 1; stroke-width: 1px;"/><path class="xgrid crisp" transform="translate(502.61,0)" d="M0,60v351" style="stroke: rgb(238, 238, 238); stroke-opacity: 1; stroke-width: 1px;"/><path class="xgrid crisp" transform="translate(576.38,0)" d="M0,60v351" style="stroke: rgb(238, 238, 238); stroke-opacity: 1; stroke-width: 1px;"/><path class="xgrid crisp" transform="translate(650.15,0)" d="M0,60v351" style="stroke: rgb(238, 238, 238); stroke-opacity: 1; stroke-width: 1px;"/><path class="xgrid crisp" transform="translate(723.92,0)" d="M0,60v351" style="stroke: rgb(238, 238, 238); stroke-opacity: 1; stroke-width: 1px;"/></g><g class="y"><path class="ygrid crisp" transform="translate(0,373.95)" d="M60,0h734" style="stroke: rgb(238, 238, 238); stroke-opacity: 1; stroke-width: 1px;"/><path class="ygrid crisp" transform="translate(0,331.82)" d="M60,0h734" style="stroke: rgb(238, 238, 238); stroke-opacity: 1; stroke-width: 1px;"/><path class="ygrid crisp" transform="translate(0,289.7)" d="M60,0h734" style="stroke: rgb(238, 238, 238); stroke-opacity: 1; stroke-width: 1px;"/><path class="ygrid crisp" transform="translate(0,247.57)" d="M60,0h734" style="stroke: rgb(238, 238, 238); stroke-opacity: 1; stroke-width: 1px;"/><path class="ygrid crisp" transform="translate(0,205.44)" d="M60,0h734" style="stroke: rgb(238, 238, 238); stroke-opacity: 1; stroke-width: 1px;"/><path class="ygrid crisp" transform="translate(0,163.31)" d="M60,0h734" style="stroke: rgb(238, 238, 238); stroke-opacity: 1; stroke-width: 1px;"/><path class="ygrid crisp" transform="translate(0,121.18)" d="M60,0h734" style="stroke: rgb(238, 238, 238); stroke-opacity: 1; stroke-width: 1px;"/><path class="ygrid crisp" transform="translate(0,79.05)" d="M60,0h734" style="stroke: rgb(238, 238, 238); stroke-opacity: 1; stroke-width: 1px;"/></g></g><g class="zerolinelayer"><path class="xzl zl crisp" transform="translate(60,0)" d="M0,60v351" style="stroke: rgb(68, 68, 68); stroke-opacity: 1; stroke-width: 1px;"/></g><path class="xlines-below"/><path class="ylines-below"/><g class="overlines-below"/><g class="xaxislayer-below"/><g class="yaxislayer-below"/><g class="overaxes-below"/><g class="plot" transform="translate(60,60)" clip-path="url('#clipb28accxyplot')"><g class="scatterlayer mlayer"><g class="trace scatter tracec10b8b" style="stroke-miterlimit: 2; opacity: 1;"><g class="fills"/><g class="errorbars"/><g class="lines"><path class="js-line" d="M0,17.55L3.69,54.84L7.38,78.27L14.75,100.77L18.44,107.39L25.82,117.6L29.51,121.89L40.57,134.39L44.26,134.93L47.95,136.18L51.64,140.45L55.33,141.95L59.02,141.8L66.39,145.99L70.08,147.08L77.46,148L81.15,150.9L84.83,149.71L88.52,150.3L92.21,151.63L95.9,154.4L99.59,153.46L103.28,154.03L114.34,155.44L118.03,156.94L125.41,156.61L129.1,158.68L136.47,159.43L140.16,159.78L143.85,159.31L147.54,168.83L151.23,171.72L154.91,172.34L165.98,172.9L169.67,174.47L173.36,174.19L177.05,174.73L180.73,174.26L184.42,176.08L191.8,176.15L195.49,176.69L202.86,175.2L206.55,176.9L210.24,177.04L213.93,176.17L217.62,177.96L221.31,178L224.99,177.84L228.68,179.24L239.75,177.93L243.44,178.37L261.88,179.43L265.57,180.71L269.26,180.77L272.94,180.01L284.01,181.17L287.7,180.54L291.39,181L295.08,184.24L302.45,183.23L306.14,184.25L309.83,183.48L313.52,183.76L317.21,182.89L320.89,183.8L328.27,183.88L331.96,183.2L335.65,183.89L339.34,182.63L343.03,183.05L346.71,184.37L350.4,183.78L354.09,185.23L365.16,183.57L368.84,184.6L372.53,184.13L376.22,184.54L379.91,184.95L383.6,184.05L387.29,184.81L390.97,184.77L394.66,183.46L398.35,184.06L402.04,185.57L405.73,185.08L409.42,184.4L413.11,185.59L416.79,184.64L420.48,184.59L424.17,185.56L427.86,184.78L431.55,185.89L435.24,186.06L442.61,185.29L446.3,185.55L449.99,184.85L453.68,185.12L461.06,184.68L464.74,184.98L468.43,186.16L472.12,184.68L479.5,185.75L483.19,185.25L505.32,186.22L509.01,185.01L512.69,184.83L516.38,185.41L523.76,185.08L527.45,184.32L531.14,185.82L534.82,185.83L538.51,184.69L542.2,185.69L549.58,184.59L553.27,185.39L560.64,184.83L564.33,186.02L568.02,185.66L571.71,186.45L575.4,185.68L579.09,185.88L582.77,184.88L586.46,185.81L590.15,185.19L593.84,186.03L597.53,185.4L601.22,185.91L608.59,186.18L612.28,185.13L615.97,186.22L619.66,185.23L627.04,186.64L630.72,185.11L634.41,186.79L638.1,185.79L641.79,185.28L645.48,185.77L652.85,186.59L656.54,185.25L660.23,184.72L663.92,185.79L671.3,185.27L674.98,184.86L678.67,185.78L682.36,185.44L697.12,185.77L700.8,184.85L704.49,185.16L708.18,184.54L711.87,186.12L715.56,185.76L726.62,184.75L730.31,185.44L734,185.92" style="vector-effect: non-scaling-stroke; fill: none; stroke: rgb(31, 119, 180); stroke-opacity: 1; stroke-width: 2px; opacity: 1;"/></g><g class="points"/><g class="text"/></g><g class="trace scatter tracec777be" style="stroke-miterlimit: 2; opacity: 1;"><g class="fills"/><g class="errorbars"/><g class="lines"><path class="js-line" d="M0,90.07L3.69,178.35L7.38,195.81L11.07,209.12L14.75,234.34L18.44,241.74L22.13,252.35L25.82,249.77L29.51,259.31L33.2,284.99L36.88,275.89L40.57,271.25L44.26,286.8L47.95,285.64L51.64,281.31L55.33,294.87L59.02,282.03L62.7,295.48L66.39,295.18L70.08,292.39L73.77,298.58L81.15,306.25L84.83,307.24L88.52,301.09L92.21,304.34L95.9,310.54L99.59,300.99L103.28,313.8L106.96,305.68L110.65,320.76L114.34,307.84L118.03,298.87L121.72,310.12L125.41,312.89L129.1,314.27L132.78,305.26L136.47,316.88L140.16,318.46L143.85,322.86L147.54,328.11L151.23,327.14L158.6,329.61L162.29,327.89L165.98,328.43L169.67,331.58L173.36,328.66L177.05,329.18L180.73,328.91L184.42,326.51L188.11,331.09L191.8,329.02L195.49,327.49L199.18,328.68L202.86,329.98L206.55,328.71L213.93,329.55L217.62,329.41L221.31,330.86L224.99,330.54L228.68,329.6L232.37,330.76L236.06,332L239.75,329.4L243.44,330.85L247.13,329.1L250.81,331.66L254.5,327.98L258.19,329.65L261.88,333.45L265.57,330.42L269.26,329.02L272.94,332.99L276.63,330.44L280.32,330.19L284.01,333.33L287.7,327.98L291.39,328.47L295.08,331L298.76,330.82L302.45,329.92L306.14,330.12L309.83,330.68L313.52,330.16L320.89,329.64L324.58,330.51L331.96,330.87L335.65,331.85L339.34,331.92L343.03,330.56L346.71,331.84L350.4,330.57L354.09,331.69L357.78,331.63L361.47,329.85L365.16,330.58L368.84,332.28L372.53,331.24L379.91,330.48L383.6,332.48L390.97,331.05L394.66,332.7L398.35,331.36L402.04,331.83L405.73,331.55L409.42,332.24L413.11,332.23L416.79,330.67L420.48,332.09L424.17,332.26L435.24,331.03L438.92,331.85L446.3,331.07L449.99,330.95L461.06,331.3L464.74,330.46L475.81,333.07L479.5,331.73L483.19,331.09L486.87,331.61L490.56,331.22L494.25,332.07L497.94,330.44L501.63,332.83L505.32,331.75L509.01,332.03L512.69,331.79L516.38,332.31L520.07,331.12L523.76,332.9L527.45,331.95L531.14,332.93L534.82,331.1L538.51,332.49L549.58,330.3L553.27,331.58L556.95,330.25L560.64,331.58L564.33,330.44L568.02,331.84L575.4,332.59L579.09,331.31L582.77,330.86L586.46,331.25L590.15,332.93L593.84,330.69L604.9,331.2L608.59,330.47L615.97,330.67L619.66,330.13L623.35,331.99L627.04,331.77L630.72,331.4L634.41,332.49L638.1,330.71L641.79,331.6L649.17,330.81L652.85,331.91L656.54,332.48L660.23,331.23L663.92,331.7L667.61,330.9L674.98,331.62L678.67,330.7L682.36,331.84L686.05,330.86L689.74,332.04L693.43,332.19L697.12,330.89L700.8,331.64L704.49,330.23L708.18,331.45L711.87,330.69L715.56,332.95L719.25,332.22L722.93,332.33L726.62,330.52L730.31,332.38L734,332.22" style="vector-effect: non-scaling-stroke; fill: none; stroke: rgb(255, 127, 14); stroke-opacity: 1; stroke-width: 2px; opacity: 1;"/></g><g class="points"/><g class="text"/></g></g></g><g class="overplot"/><path class="xlines-above crisp" d="M0,0" style="fill: none;"/><path class="ylines-above crisp" d="M0,0" style="fill: none;"/><g class="overlines-above"/><g class="xaxislayer-above"><g class="xtick"><text text-anchor="middle" x="0" y="424" transform="translate(60,0)" style="font-family: 'Open Sans', verdana, arial, sans-serif; font-size: 12px; fill: rgb(68, 68, 68); fill-opacity: 1; white-space: pre;">0</text></g><g class="xtick"><text text-anchor="middle" x="0" y="424" transform="translate(133.76999999999998,0)" style="font-family: 'Open Sans', verdana, arial, sans-serif; font-size: 12px; fill: rgb(68, 68, 68); fill-opacity: 1; white-space: pre;">20</text></g><g class="xtick"><text text-anchor="middle" x="0" y="424" transform="translate(207.54,0)" style="font-family: 'Open Sans', verdana, arial, sans-serif; font-size: 12px; fill: rgb(68, 68, 68); fill-opacity: 1; white-space: pre;">40</text></g><g class="xtick"><text text-anchor="middle" x="0" y="424" transform="translate(281.31,0)" style="font-family: 'Open Sans', verdana, arial, sans-serif; font-size: 12px; fill: rgb(68, 68, 68); fill-opacity: 1; white-space: pre;">60</text></g><g class="xtick"><text text-anchor="middle" x="0" y="424" transform="translate(355.08,0)" style="font-family: 'Open Sans', verdana, arial, sans-serif; font-size: 12px; fill: rgb(68, 68, 68); fill-opacity: 1; white-space: pre;">80</text></g><g class="xtick"><text text-anchor="middle" x="0" y="424" transform="translate(428.84,0)" style="font-family: 'Open Sans', verdana, arial, sans-serif; font-size: 12px; fill: rgb(68, 68, 68); fill-opacity: 1; white-space: pre;">100</text></g><g class="xtick"><text text-anchor="middle" x="0" y="424" transform="translate(502.61,0)" style="font-family: 'Open Sans', verdana, arial, sans-serif; font-size: 12px; fill: rgb(68, 68, 68); fill-opacity: 1; white-space: pre;">120</text></g><g class="xtick"><text text-anchor="middle" x="0" y="424" transform="translate(576.38,0)" style="font-family: 'Open Sans', verdana, arial, sans-serif; font-size: 12px; fill: rgb(68, 68, 68); fill-opacity: 1; white-space: pre;">140</text></g><g class="xtick"><text text-anchor="middle" x="0" y="424" transform="translate(650.15,0)" style="font-family: 'Open Sans', verdana, arial, sans-serif; font-size: 12px; fill: rgb(68, 68, 68); fill-opacity: 1; white-space: pre;">160</text></g><g class="xtick"><text text-anchor="middle" x="0" y="424" transform="translate(723.92,0)" style="font-family: 'Open Sans', verdana, arial, sans-serif; font-size: 12px; fill: rgb(68, 68, 68); fill-opacity: 1; white-space: pre;">180</text></g></g><g class="yaxislayer-above"><g class="ytick"><text text-anchor="end" x="59" y="4.199999999999999" transform="translate(0,373.95)" style="font-family: 'Open Sans', verdana, arial, sans-serif; font-size: 12px; fill: rgb(68, 68, 68); fill-opacity: 1; white-space: pre;">0.4</text></g><g class="ytick"><text text-anchor="end" x="59" y="4.199999999999999" transform="translate(0,331.82)" style="font-family: 'Open Sans', verdana, arial, sans-serif; font-size: 12px; fill: rgb(68, 68, 68); fill-opacity: 1; white-space: pre;">0.6</text></g><g class="ytick"><text text-anchor="end" x="59" y="4.199999999999999" transform="translate(0,289.7)" style="font-family: 'Open Sans', verdana, arial, sans-serif; font-size: 12px; fill: rgb(68, 68, 68); fill-opacity: 1; white-space: pre;">0.8</text></g><g class="ytick"><text text-anchor="end" x="59" y="4.199999999999999" transform="translate(0,247.57)" style="font-family: 'Open Sans', verdana, arial, sans-serif; font-size: 12px; fill: rgb(68, 68, 68); fill-opacity: 1; white-space: pre;">1</text></g><g class="ytick"><text text-anchor="end" x="59" y="4.199999999999999" transform="translate(0,205.44)" style="font-family: 'Open Sans', verdana, arial, sans-serif; font-size: 12px; fill: rgb(68, 68, 68); fill-opacity: 1; white-space: pre;">1.2</text></g><g class="ytick"><text text-anchor="end" x="59" y="4.199999999999999" transform="translate(0,163.31)" style="font-family: 'Open Sans', verdana, arial, sans-serif; font-size: 12px; fill: rgb(68, 68, 68); fill-opacity: 1; white-space: pre;">1.4</text></g><g class="ytick"><text text-anchor="end" x="59" y="4.199999999999999" transform="translate(0,121.18)" style="font-family: 'Open Sans', verdana, arial, sans-serif; font-size: 12px; fill: rgb(68, 68, 68); fill-opacity: 1; white-space: pre;">1.6</text></g><g class="ytick"><text text-anchor="end" x="59" y="4.199999999999999" transform="translate(0,79.05)" style="font-family: 'Open Sans', verdana, arial, sans-serif; font-size: 12px; fill: rgb(68, 68, 68); fill-opacity: 1; white-space: pre;">1.8</text></g></g><g class="overaxes-above"/></g></g><g class="polarlayer"/><g class="ternarylayer"/><g class="geolayer"/><g class="funnelarealayer"/><g class="pielayer"/><g class="treemaplayer"/><g class="sunburstlayer"/><g class="glimages"/><defs id="topdefs-b28acc"><g class="clips"/><clipPath id="legendb28acc"><rect width="97" height="48" x="0" y="0"/></clipPath></defs><g class="layer-above"><g class="imagelayer"/><g class="shapelayer"/></g><g class="infolayer"><g class="legend" pointer-events="all" transform="translate(808.6800000000001,60)"><rect class="bg" shape-rendering="crispEdges" width="97" height="48" x="0" y="0" style="stroke: rgb(68, 68, 68); stroke-opacity: 1; fill: rgb(255, 255, 255); fill-opacity: 1; stroke-width: 0px;"/><g class="scrollbox" transform="" clip-path="url('#legendb28acc')"><g class="groups"><g class="traces" transform="translate(0,14.5)" style="opacity: 1;"><text class="legendtext" text-anchor="start" x="40" y="4.680000000000001" style="font-family: 'Open Sans', verdana, arial, sans-serif; font-size: 12px; fill: rgb(68, 68, 68); fill-opacity: 1; white-space: pre;">train_loss</text><g class="layers" style="opacity: 1;"><g class="legendfill"/><g class="legendlines"><path class="js-line" d="M5,0h30" style="fill: none; stroke: rgb(31, 119, 180); stroke-opacity: 1; stroke-width: 2px;"/></g><g class="legendsymbols"><g class="legendpoints"/></g></g><rect class="legendtoggle" x="0" y="-9.5" width="91.53125" height="19" style="fill: rgb(0, 0, 0); fill-opacity: 0;"/></g><g class="traces" transform="translate(0,33.5)" style="opacity: 1;"><text class="legendtext" text-anchor="start" x="40" y="4.680000000000001" style="font-family: 'Open Sans', verdana, arial, sans-serif; font-size: 12px; fill: rgb(68, 68, 68); fill-opacity: 1; white-space: pre;">valid_loss</text><g class="layers" style="opacity: 1;"><g class="legendfill"/><g class="legendlines"><path class="js-line" d="M5,0h30" style="fill: none; stroke: rgb(255, 127, 14); stroke-opacity: 1; stroke-width: 2px;"/></g><g class="legendsymbols"><g class="legendpoints"/></g></g><rect class="legendtoggle" x="0" y="-9.5" width="91.53125" height="19" style="fill: rgb(0, 0, 0); fill-opacity: 0;"/></g></g></g><rect class="scrollbar" rx="20" ry="3" width="0" height="0" x="0" y="0" style="fill: rgb(128, 139, 164); fill-opacity: 1;"/></g><g class="g-gtitle"><text class="gtitle" x="459" y="30" text-anchor="middle" dy="0em" style="font-family: 'Open Sans', verdana, arial, sans-serif; font-size: 17px; fill: rgb(68, 68, 68); opacity: 1; font-weight: normal; white-space: pre;">loss_modelC_0000</text></g><g class="g-xtitle"/><g class="g-ytitle"/></g></svg>