<svg class="main-svg" xmlns="http://www.w3.org/2000/svg" xmlns:xlink="http://www.w3.org/1999/xlink" width="829" height="486" style="" viewBox="0 0 829 486"><rect x="0" y="0" width="829" height="486" style="fill: rgb(255, 255, 255); fill-opacity: 1;"/><defs id="defs-057a60"><g class="clips"><clipPath id="clip057a60xyplot" class="plotclip"><rect width="647" height="366"/></clipPath><clipPath class="axesclip" id="clip057a60x"><rect x="60" y="0" width="647" height="486"/></clipPath><clipPath class="axesclip" id="clip057a60y"><rect x="0" y="60" width="829" height="366"/></clipPath><clipPath class="axesclip" id="clip057a60xy"><rect x="60" y="60" width="647" height="366"/></clipPath></g><g class="gradients"/></defs><g class="bglayer"/><g class="layer-below"><g class="imagelayer"/><g class="shapelayer"/></g><g class="cartesianlayer"><g class="subplot xy"><g class="layer-subplot"><g class="shapelayer"/><g class="imagelayer"/></g><g class="gridlayer"><g class="x"><path class="xgrid crisp" transform="translate(168.19,0)" d="M0,60v366" style="stroke: rgb(238, 238, 238); stroke-opacity: 1; stroke-width: 1px;"/><path class="xgrid crisp" transform="translate(276.39,0)" d="M0,60v366" style="stroke: rgb(238, 238, 238); stroke-opacity: 1; stroke-width: 1px;"/><path class="xgrid crisp" transform="translate(384.58,0)" d="M0,60v366" style="stroke: rgb(238, 238, 238); stroke-opacity: 1; stroke-width: 1px;"/><path class="xgrid crisp" transform="translate(492.78,0)" d="M0,60v366" style="stroke: rgb(238, 238, 238); stroke-opacity: 1; stroke-width: 1px;"/><path class="xgrid crisp" transform="translate(600.97,0)" d="M0,60v366" style="stroke: rgb(238, 238, 238); stroke-opacity: 1; stroke-width: 1px;"/></g><g class="y"><path class="ygrid crisp" transform="translate(0,359.07)" d="M60,0h647" style="stroke: rgb(238, 238, 238); stroke-opacity: 1; stroke-width: 1px;"/><path class="ygrid crisp" transform="translate(0,288.15)" d="M60,0h647" style="stroke: rgb(238, 238, 238); stroke-opacity: 1; stroke-width: 1px;"/><path class="ygrid crisp" transform="translate(0,217.22)" d="M60,0h647" style="stroke: rgb(238, 238, 238); stroke-opacity: 1; stroke-width: 1px;"/><path class="ygrid crisp" transform="translate(0,146.29000000000002)" d="M60,0h647" style="stroke: rgb(238, 238, 238); stroke-opacity: 1; stroke-width: 1px;"/><path class="ygrid crisp" transform="translate(0,75.37)" d="M60,0h647" style="stroke: rgb(238, 238, 238); stroke-opacity: 1; stroke-width: 1px;"/></g></g><g class="zerolinelayer"><path class="xzl zl crisp" transform="translate(60,0)" d="M0,60v366" style="stroke: rgb(68, 68, 68); stroke-opacity: 1; stroke-width: 1px;"/></g><path class="xlines-below"/><path class="ylines-below"/><g class="overlines-below"/><g class="xaxislayer-below"/><g class="yaxislayer-below"/><g class="overaxes-below"/><g class="plot" transform="translate(60,60)" clip-path="url('#clip057a60xyplot')"><g class="scatterlayer mlayer"><g class="trace scatter trace779439" style="stroke-miterlimit: 2; opacity: 1;"><g class="fills"/><g class="errorbars"/><g class="lines"><path class="js-line" d="M0,107.38L2.16,148.98L4.33,175.61L6.49,185.37L8.66,187.68L10.82,193.95L12.98,182.32L15.15,196.72L17.31,198.92L19.47,210.67L21.64,203.98L25.97,220.24L28.13,224.83L30.29,218.41L32.46,225.73L34.62,231L36.79,233.21L38.95,247.18L41.11,246.87L43.28,240.49L45.44,244.85L47.61,251.27L49.77,251.58L51.93,245.15L54.1,253.65L56.26,256.79L58.42,264.3L60.59,256.15L62.75,267.06L64.92,257.82L67.08,253.95L69.24,264.05L71.41,269.62L73.57,273.59L75.74,266.98L77.9,280.21L80.06,271.86L82.23,277.04L84.39,268.72L86.56,269.32L88.72,281.56L90.88,278.84L93.05,277.83L95.21,279.41L97.37,278.45L99.54,279.13L101.7,283.41L103.87,277.97L106.03,279.56L108.19,295.75L110.36,302.07L112.52,303.54L114.69,301.56L119.01,314.08L121.18,307.24L125.51,307.84L127.67,307.29L129.83,312.95L132,313.39L134.16,308.67L136.32,311.82L138.49,319.57L140.65,316.35L142.82,322.9L144.98,314.49L147.14,320.78L149.31,314.5L151.47,316.81L153.64,321.31L155.8,323.29L157.96,317.21L160.13,319.88L162.29,320.05L164.45,320.47L166.62,323.22L168.78,320.74L170.95,327.86L173.11,325.35L175.27,319.11L179.6,323.79L181.77,325.2L183.93,327.05L186.09,323.51L188.26,324.25L190.42,328.17L192.59,324.38L194.75,329.45L196.91,325.94L199.08,327.6L203.4,324.39L205.57,329.44L207.73,324.61L209.9,333.01L212.06,328.11L214.22,328.94L216.39,333.42L218.55,333.98L220.72,333.79L222.88,338.17L225.04,333.71L227.21,336.4L229.37,335.88L231.54,339.29L235.86,337.17L238.03,336.82L240.19,343.46L242.35,335.72L244.52,338.21L246.68,338.49L248.85,332.67L251.01,334.66L253.17,330.94L255.34,339.15L257.5,333.67L259.67,334.65L261.83,336.8L263.99,335.43L266.16,339.75L268.32,339.35L270.48,336.98L272.65,336.26L274.81,335.97L276.98,333.3L279.14,333.55L281.3,341.85L283.47,342.16L285.63,337.65L287.8,344.1L289.96,336.22L292.12,340.34L294.29,341.74L296.45,335.59L298.62,339.87L300.78,337.46L302.94,340.01L305.11,341.14L307.27,337.6L309.43,341.55L311.6,340.08L313.76,337.71L315.93,337.52L318.09,342.55L320.25,339.69L322.42,344.31L324.58,341.62L326.75,334.7L328.91,337.44L331.07,337.18L333.24,336.04L335.4,336.96L337.57,336.84L339.73,339.47L341.89,338.65L344.06,335.12L346.22,339.62L348.38,337.38L350.55,340.81L354.88,335.84L357.04,346.3L359.2,343.2L361.37,334.45L363.53,338.9L365.7,341.53L367.86,342.37L370.02,340.45L372.19,335.72L374.35,343.67L376.52,334.02L378.68,339.75L380.84,338.79L383.01,339.12L387.33,342.09L389.5,339.28L393.83,342.85L395.99,341.78L398.15,343.62L400.32,341.44L402.48,337.55L404.65,337.96L406.81,338.87L408.97,335.82L411.14,347.7L413.3,340.25L415.46,341.97L417.63,339L419.79,341.88L421.96,340.2L424.12,339.26L426.28,335.78L428.45,339.43L430.61,337.92L432.78,341.3L434.94,337.44L437.1,334.9L439.27,340.22L441.43,337.69L443.6,338.07L447.92,337.65L450.09,340.42L452.25,336.43L454.41,337.18L458.74,345.2L460.91,335.87L463.07,342.13L465.23,338.88L469.56,338.67L471.73,344.35L473.89,340.53L476.05,338.76L478.22,333.69L480.38,336.27L482.55,337.35L484.71,345.74L486.87,339.76L489.04,340.5L491.2,337.18L493.36,337.97L495.53,342.15L497.69,338.26L499.86,338.85L502.02,344.86L504.18,338.45L506.35,344.76L508.51,339.28L510.68,337.92L515,340.9L517.17,337.88L519.33,337.92L521.49,335.96L523.66,342.23L525.82,340.77L527.99,338.37L530.15,345.42L532.31,339.44L534.48,339.37L536.64,340.19L538.81,342.76L540.97,344.5L543.13,328.84L545.3,344.21L547.46,341.32L549.63,338.28L551.79,337.42L553.95,336.98L556.12,334.27L558.28,338.9L560.44,340.94L562.61,343.31L564.77,343.53L566.94,335.26L569.1,337.11L571.26,333.34L573.43,340.54L575.59,343.42L577.76,333.81L579.92,338.92L582.08,335.06L584.25,338.48L586.41,334.34L588.58,337.54L590.74,343.28L592.9,338.82L595.07,331.87L597.23,339.89L599.39,340.37L601.56,341.08L603.72,340.24L605.89,341.25L608.05,340.83L610.21,337.49L612.38,344.62L614.54,337.17L616.71,339.64L618.87,339.56L621.03,341.24L623.2,338.59L625.36,339.31L627.53,341.94L629.69,340.05L631.85,339.49L634.02,343.75L636.18,337.62L638.34,342.1L640.51,339.46L642.67,339.92L644.84,338.83L647,343.68" style="vector-effect: non-scaling-stroke; fill: none; stroke: rgb(31, 119, 180); stroke-opacity: 1; stroke-width: 2px; opacity: 1;"/></g><g class="points"/><g class="text"/></g><g class="trace scatter trace8223c2" style="stroke-miterlimit: 2; opacity: 1;"><g class="fills"/><g class="errorbars"/><g class="lines"><path class="js-line" d="M0,83.83L2.16,119.12L4.33,173.01L6.49,136.95L8.66,182.92L10.82,146.78L12.98,18.3L17.31,217.78L19.47,173.39L21.64,188.74L23.8,209.93L25.97,232.68L28.13,174.81L30.29,192.56L32.46,241.29L34.62,252.37L36.79,231.24L38.95,246.86L41.11,223.55L43.28,251.83L45.44,237.28L47.61,256.41L49.77,221.36L51.93,269.98L54.1,259.68L56.26,245.49L58.42,245.7L60.59,248.64L62.75,268.04L64.92,263.85L67.08,252.17L69.24,273.62L71.41,262.64L73.57,262.4L75.74,250.27L77.9,237.51L80.06,242.63L84.39,274.98L86.56,280.37L88.72,246.96L90.88,286.52L93.05,269.51L95.21,279.74L97.37,285.9L99.54,279.52L101.7,288.92L103.87,260.99L106.03,285.94L108.19,300.42L110.36,300.55L112.52,299.89L114.69,301.57L116.85,301.44L119.01,304.37L121.18,302.64L125.51,304.52L127.67,303.39L134.16,306.26L136.32,304.55L138.49,302.92L140.65,305.04L142.82,305.37L144.98,303.35L147.14,301.95L149.31,304.1L155.8,305.83L157.96,307.55L160.13,302.67L162.29,306.74L164.45,306.15L166.62,302.49L168.78,306.24L170.95,307.76L175.27,302.11L177.44,305.07L179.6,305.83L181.77,308.34L183.93,302.71L186.09,304.31L188.26,307.41L190.42,305.44L192.59,304.64L194.75,305.91L196.91,304.57L199.08,304.86L201.24,304.6L203.4,305.99L205.57,306.58L207.73,304.24L209.9,309.4L212.06,306.69L214.22,305.84L216.39,308.86L218.55,309.24L220.72,308.75L229.37,310.44L231.54,309.21L235.86,310.44L238.03,309.95L242.35,308.54L244.52,309.17L246.68,309.08L248.85,309.88L251.01,309.09L253.17,309.31L257.5,308.53L259.67,309.1L261.83,309.02L263.99,309.87L268.32,308.28L270.48,308.7L272.65,308.56L274.81,309.66L279.14,308.85L281.3,309.56L287.8,309.55L289.96,308.64L292.12,308.06L294.29,308.67L296.45,309.7L298.62,309.63L300.78,309.21L302.94,309.77L305.11,309.11L307.27,309.25L313.76,309.57L315.93,308.3L318.09,309.76L320.25,308.32L326.75,308.65L328.91,309.09L333.24,309.1L335.4,307.83L337.57,309.04L339.73,309.22L344.06,309.06L346.22,309.32L348.38,309.08L350.55,307.91L354.88,308.49L357.04,308.41L363.53,309.58L365.7,309.11L370.02,309.13L372.19,308.63L383.01,308.88L385.17,309.63L389.5,309.82L391.66,308.98L393.83,309.38L395.99,308.03L400.32,309.71L402.48,308.44L406.81,309.69L408.97,308.61L411.14,309.34L413.3,308.97L415.46,309.15L417.63,308.26L419.79,309.66L421.96,309.98L424.12,308.24L426.28,308.54L428.45,309.05L430.61,308.25L434.94,308.66L437.1,308.73L439.27,308.62L441.43,309.4L443.6,308.72L445.76,309.29L447.92,308.87L450.09,309.37L452.25,309.73L454.41,308.8L456.58,307.86L458.74,308.15L460.91,309.09L463.07,309L465.23,309.03L467.4,309.83L469.56,309.25L471.73,310.05L473.89,309.33L476.05,309.76L478.22,308.29L480.38,308.39L482.55,308.24L484.71,309.16L497.69,308.52L499.86,309.74L504.18,309.33L506.35,309.87L512.84,308.3L515,309.37L519.33,308.51L521.49,308.02L525.82,309.46L527.99,309.07L530.15,309.24L532.31,308.42L534.48,308.91L536.64,308.33L538.81,309.52L540.97,309L547.46,309.1L549.63,308.36L553.95,309.12L556.12,308.14L558.28,309.08L560.44,309.03L564.77,308.95L566.94,309.62L569.1,308.56L571.26,308.4L573.43,308.29L575.59,308.94L577.76,309.58L579.92,309.18L582.08,308.75L584.25,309.75L588.58,307.98L590.74,309.86L592.9,308.76L595.07,308.94L605.89,308.59L608.05,309.14L614.54,309.03L616.71,309.76L618.87,308.22L621.03,308.49L623.2,309.33L625.36,309.08L629.69,308.62L631.85,307.61L634.02,309.53L636.18,309.28L640.51,308.17L642.67,308.97L647,308.23" style="vector-effect: non-scaling-stroke; fill: none; stroke: rgb(255, 127, 14); stroke-opacity: 1; stroke-width: 2px; opacity: 1;"/></g><g class="points"/><g class="text"/></g></g></g><g class="overplot"/><path class="xlines-above crisp" d="M0,0" style="fill: none;"/><path class="ylines-above crisp" d="M0,0" style="fill: none;"/><g class="overlines-above"/><g class="xaxislayer-above"><g class="xtick"><text text-anchor="middle" x="0" y="439" transform="translate(60,0)" style="font-family: 'Open Sans', verdana, arial, sans-serif; font-size: 12px; fill: rgb(68, 68, 68); fill-opacity: 1; white-space: pre;">0</text></g><g class="xtick"><text text-anchor="middle" x="0" y="439" transform="translate(168.19,0)" style="font-family: 'Open Sans', verdana, arial, sans-serif; font-size: 12px; fill: rgb(68, 68, 68); fill-opacity: 1; white-space: pre;">50</text></g><g class="xtick"><text text-anchor="middle" x="0" y="439" transform="translate(276.39,0)" style="font-family: 'Open Sans', verdana, arial, sans-serif; font-size: 12px; fill: rgb(68, 68, 68); fill-opacity: 1; white-space: pre;">100</text></g><g class="xtick"><text text-anchor="middle" x="0" y="439" transform="translate(384.58,0)" style="font-family: 'Open Sans', verdana, arial, sans-serif; font-size: 12px; fill: rgb(68, 68, 68); fill-opacity: 1; white-space: pre;">150</text></g><g class="xtick"><text text-anchor="middle" x="0" y="439" transform="translate(492.78,0)" style="font-family: 'Open Sans', verdana, arial, sans-serif; font-size: 12px; fill: rgb(68, 68, 68); fill-opacity: 1; white-space: pre;">200</text></g><g class="xtick"><text text-anchor="middle" x="0" y="439" transform="translate(600.97,0)" style="font-family: 'Open Sans', verdana, arial, sans-serif; font-size: 12px; fill: rgb(68, 68, 68); fill-opacity: 1; white-space: pre;">250</text></g></g><g class="yaxislayer-above"><g class="ytick"><text text-anchor="end" x="59" y="4.199999999999999" transform="translate(0,359.07)" style="font-family: 'Open Sans', verdana, arial, sans-serif; font-size: 12px; fill: rgb(68, 68, 68); fill-opacity: 1; white-space: pre;">0.5</text></g><g class="ytick"><text text-anchor="end" x="59" y="4.199999999999999" transform="translate(0,288.15)" style="font-family: 'Open Sans', verdana, arial, sans-serif; font-size: 12px; fill: rgb(68, 68, 68); fill-opacity: 1; white-space: pre;">1</text></g><g class="ytick"><text text-anchor="end" x="59" y="4.199999999999999" transform="translate(0,217.22)" style="font-family: 'Open Sans', verdana, arial, sans-serif; font-size: 12px; fill: rgb(68, 68, 68); fill-opacity: 1; white-space: pre;">1.5</text></g><g class="ytick"><text text-anchor="end" x="59" y="4.199999999999999" transform="translate(0,146.29000000000002)" style="font-family: 'Open Sans', verdana, arial, sans-serif; font-size: 12px; fill: rgb(68, 68, 68); fill-opacity: 1; white-space: pre;">2</text></g><g class="ytick"><text text-anchor="end" x="59" y="4.199999999999999" transform="translate(0,75.37)" style="font-family: 'Open Sans', verdana, arial, sans-serif; font-size: 12px; fill: rgb(68, 68, 68); fill-opacity: 1; white-space: pre;">2.5</text></g></g><g class="overaxes-above"/></g></g><g class="polarlayer"/><g class="ternarylayer"/><g class="geolayer"/><g class="funnelarealayer"/><g class="pielayer"/><g class="treemaplayer"/><g class="sunburstlayer"/><g class="glimages"/><defs id="topdefs-057a60"><g class="clips"/><clipPath id="legend057a60"><rect width="97" height="48" x="0" y="0"/></clipPath></defs><g class="layer-above"><g class="imagelayer"/><g class="shapelayer"/></g><g class="infolayer"><g class="legend" pointer-events="all" transform="translate(719.94,60)"><rect class="bg" shape-rendering="crispEdges" width="97" height="48" x="0" y="0" style="stroke: rgb(68, 68, 68); stroke-opacity: 1; fill: rgb(255, 255, 255); fill-opacity: 1; stroke-width: 0px;"/><g class="scrollbox" transform="" clip-path="url('#legend057a60')"><g class="groups"><g class="traces" transform="translate(0,14.5)" style="opacity: 1;"><text class="legendtext" text-anchor="start" x="40" y="4.680000000000001" style="font-family: 'Open Sans', verdana, arial, sans-serif; font-size: 12px; fill: rgb(68, 68, 68); fill-opacity: 1; white-space: pre;">train_loss</text><g class="layers" style="opacity: 1;"><g class="legendfill"/><g class="legendlines"><path class="js-line" d="M5,0h30" style="fill: none; stroke: rgb(31, 119, 180); stroke-opacity: 1; stroke-width: 2px;"/></g><g class="legendsymbols"><g class="legendpoints"/></g></g><rect class="legendtoggle" x="0" y="-9.5" width="91.53125" height="19" style="fill: rgb(0, 0, 0); fill-opacity: 0;"/></g><g class="traces" transform="translate(0,33.5)" style="opacity: 1;"><text class="legendtext" text-anchor="start" x="40" y="4.680000000000001" style="font-family: 'Open Sans', verdana, arial, sans-serif; font-size: 12px; fill: rgb(68, 68, 68); fill-opacity: 1; white-space: pre;">valid_loss</text><g class="layers" style="opacity: 1;"><g class="legendfill"/><g class="legendlines"><path class="js-line" d="M5,0h30" style="fill: none; stroke: rgb(255, 127, 14); stroke-opacity: 1; stroke-width: 2px;"/></g><g class="legendsymbols"><g class="legendpoints"/></g></g><rect class="legendtoggle" x="0" y="-9.5" width="91.53125" height="19" style="fill: rgb(0, 0, 0); fill-opacity: 0;"/></g></g></g><rect class="scrollbar" rx="20" ry="3" width="0" height="0" x="0" y="0" style="fill: rgb(128, 139, 164); fill-opacity: 1;"/></g><g class="g-gtitle"><text class="gtitle" x="414.5" y="30" text-anchor="middle" dy="0em" style="font-family: 'Open Sans', verdana, arial, sans-serif; font-size: 17px; fill: rgb(68, 68, 68); opacity: 1; font-weight: normal; white-space: pre;">loss_modelB</text></g><g class="g-xtitle"/><g class="g-ytitle"/></g></svg>