<svg class="main-svg" xmlns="http://www.w3.org/2000/svg" xmlns:xlink="http://www.w3.org/1999/xlink" width="982" height="531" style="" viewBox="0 0 982 531"><rect x="0" y="0" width="982" height="531" style="fill: rgb(255, 255, 255); fill-opacity: 1;"/><defs id="defs-cb8ef8"><g class="clips"><clipPath id="clipcb8ef8xyplot" class="plotclip"><rect width="797" height="411"/></clipPath><clipPath class="axesclip" id="clipcb8ef8x"><rect x="60" y="0" width="797" height="531"/></clipPath><clipPath class="axesclip" id="clipcb8ef8y"><rect x="0" y="60" width="982" height="411"/></clipPath><clipPath class="axesclip" id="clipcb8ef8xy"><rect x="60" y="60" width="797" height="411"/></clipPath></g><g class="gradients"/></defs><g class="bglayer"/><g class="layer-below"><g class="imagelayer"/><g class="shapelayer"/></g><g class="cartesianlayer"><g class="subplot xy"><g class="layer-subplot"><g class="shapelayer"/><g class="imagelayer"/></g><g class="gridlayer"><g class="x"><path class="xgrid crisp" transform="translate(140.51,0)" d="M0,60v411" style="stroke: rgb(238, 238, 238); stroke-opacity: 1; stroke-width: 1px;"/><path class="xgrid crisp" transform="translate(221.01,0)" d="M0,60v411" style="stroke: rgb(238, 238, 238); stroke-opacity: 1; stroke-width: 1px;"/><path class="xgrid crisp" transform="translate(301.52,0)" d="M0,60v411" style="stroke: rgb(238, 238, 238); stroke-opacity: 1; stroke-width: 1px;"/><path class="xgrid crisp" transform="translate(382.02,0)" d="M0,60v411" style="stroke: rgb(238, 238, 238); stroke-opacity: 1; stroke-width: 1px;"/><path class="xgrid crisp" transform="translate(462.53,0)" d="M0,60v411" style="stroke: rgb(238, 238, 238); stroke-opacity: 1; stroke-width: 1px;"/><path class="xgrid crisp" transform="translate(543.03,0)" d="M0,60v411" style="stroke: rgb(238, 238, 238); stroke-opacity: 1; stroke-width: 1px;"/><path class="xgrid crisp" transform="translate(623.54,0)" d="M0,60v411" style="stroke: rgb(238, 238, 238); stroke-opacity: 1; stroke-width: 1px;"/><path class="xgrid crisp" transform="translate(704.04,0)" d="M0,60v411" style="stroke: rgb(238, 238, 238); stroke-opacity: 1; stroke-width: 1px;"/><path class="xgrid crisp" transform="translate(784.55,0)" d="M0,60v411" style="stroke: rgb(238, 238, 238); stroke-opacity: 1; stroke-width: 1px;"/></g><g class="y"><path class="ygrid crisp" transform="translate(0,429.76)" d="M60,0h797" style="stroke: rgb(238, 238, 238); stroke-opacity: 1; stroke-width: 1px;"/><path class="ygrid crisp" transform="translate(0,377.73)" d="M60,0h797" style="stroke: rgb(238, 238, 238); stroke-opacity: 1; stroke-width: 1px;"/><path class="ygrid crisp" transform="translate(0,325.7)" d="M60,0h797" style="stroke: rgb(238, 238, 238); stroke-opacity: 1; stroke-width: 1px;"/><path class="ygrid crisp" transform="translate(0,273.66999999999996)" d="M60,0h797" style="stroke: rgb(238, 238, 238); stroke-opacity: 1; stroke-width: 1px;"/><path class="ygrid crisp" transform="translate(0,221.64)" d="M60,0h797" style="stroke: rgb(238, 238, 238); stroke-opacity: 1; stroke-width: 1px;"/><path class="ygrid crisp" transform="translate(0,169.61)" d="M60,0h797" style="stroke: rgb(238, 238, 238); stroke-opacity: 1; stroke-width: 1px;"/><path class="ygrid crisp" transform="translate(0,117.58)" d="M60,0h797" style="stroke: rgb(238, 238, 238); stroke-opacity: 1; stroke-width: 1px;"/><path class="ygrid crisp" transform="translate(0,65.55)" d="M60,0h797" style="stroke: rgb(238, 238, 238); stroke-opacity: 1; stroke-width: 1px;"/></g></g><g class="zerolinelayer"><path class="xzl zl crisp" transform="translate(60,0)" d="M0,60v411" style="stroke: rgb(68, 68, 68); stroke-opacity: 1; stroke-width: 1px;"/></g><path class="xlines-below"/><path class="ylines-below"/><g class="overlines-below"/><g class="xaxislayer-below"/><g class="yaxislayer-below"/><g class="overaxes-below"/><g class="plot" transform="translate(60,60)" clip-path="url('#clipcb8ef8xyplot')"><g class="scatterlayer mlayer"><g class="trace scatter trace984213" style="stroke-miterlimit: 2; opacity: 1;"><g class="fills"/><g class="errorbars"/><g class="lines"><path class="js-line" d="M0,20.55L8.05,125.35L16.1,161.73L24.15,190.93L32.2,206.19L40.25,224.13L48.3,234.82L64.4,259.95L72.45,269.77L80.51,279.33L88.56,284.65L96.61,291.86L104.66,296.52L128.81,310.07L136.86,313.06L152.96,319.68L161.01,324.12L169.06,323.11L177.11,326.43L185.16,327.8L193.21,330.76L201.26,332.35L209.31,333.06L217.36,337.06L225.41,338.14L233.46,339.58L241.52,340.09L249.57,342.34L257.62,343.63L265.67,341.57L273.72,344.86L281.77,347.88L289.82,349.29L305.92,351.62L313.97,347.7L330.07,354.34L338.12,352.02L346.17,354.53L354.22,354.49L370.32,357.4L378.37,355.52L386.42,359.23L394.47,359.7L402.53,357.76L410.58,362.22L418.63,361.25L426.68,362.14L434.73,361.51L442.78,361.82L450.83,364.67L458.88,366.08L466.93,364.26L474.98,364.46L483.03,365.03L491.08,366.93L499.13,365.63L507.18,366L515.23,366.81L523.28,370.96L531.33,367.88L539.38,369.06L547.43,370.6L555.48,370.38L563.54,371.49L571.59,370.32L579.64,369.68L587.69,371.91L595.74,373.72L603.79,372.53L619.89,369.98L627.94,372.31L635.99,375.41L644.04,372.32L652.09,374.23L660.14,374.93L668.19,376.1L676.24,374.08L684.29,376.73L692.34,375.45L700.39,374.68L708.44,375.25L716.49,375.67L724.55,375.1L732.6,375.96L740.65,377.75L748.7,377.53L756.75,380.37L764.8,378.47L772.85,378.17L780.9,377.82L788.95,378.98L797,380.43" style="vector-effect: non-scaling-stroke; fill: none; stroke: rgb(31, 119, 180); stroke-opacity: 1; stroke-width: 2px; opacity: 1;"/></g><g class="points"/><g class="text"/></g><g class="trace scatter trace4f23de" style="stroke-miterlimit: 2; opacity: 1;"><g class="fills"/><g class="errorbars"/><g class="lines"><path class="js-line" d="M0,138.69L8.05,200.62L16.1,225.43L24.15,236.41L32.2,268.33L40.25,262.71L48.3,289.18L56.35,270.37L64.4,278.25L72.45,315.25L80.51,312.64L88.56,301.73L96.61,326.92L104.66,314.38L112.71,325.69L120.76,323.72L128.81,341.38L136.86,349.59L144.91,347.5L152.96,336.41L161.01,334.46L169.06,337.59L177.11,315.95L185.16,349.21L193.21,349.86L201.26,342.08L209.31,357.99L217.36,357.37L225.41,364.02L233.46,358.46L241.52,364.97L249.57,359.91L257.62,361.58L265.67,356.03L273.72,368.94L281.77,360.6L289.82,368.64L297.87,373.08L305.92,365.43L313.97,358.59L322.02,318.46L330.07,365.49L338.12,367.69L346.17,360.19L354.22,368.34L362.27,374.38L370.32,361.04L378.37,361.95L386.42,372.87L394.47,372.25L402.53,369.59L410.58,317.5L418.63,370.68L426.68,359.41L434.73,375.71L442.78,378.56L450.83,373.64L458.88,368.15L466.93,356.91L474.98,378.81L483.03,376.21L491.08,378.03L499.13,375.01L507.18,378.22L515.23,376.8L523.28,380.19L531.33,384.48L539.38,384.79L547.43,367.81L555.48,381.21L563.54,380.93L571.59,379.49L579.64,381.91L587.69,385.14L595.74,369.93L603.79,380.87L611.84,379.98L619.89,383.59L627.94,382.38L635.99,379.3L644.04,378.68L652.09,378.58L660.14,381.91L668.19,382.23L676.24,390.24L684.29,386.08L692.34,390.45L700.39,385.27L708.44,374.93L716.49,375.52L724.55,383.37L732.6,388.63L740.65,378.7L748.7,379.23L756.75,387.76L764.8,376.83L772.85,389.11L780.9,385.79L788.95,386.84L797,385.26" style="vector-effect: non-scaling-stroke; fill: none; stroke: rgb(255, 127, 14); stroke-opacity: 1; stroke-width: 2px; opacity: 1;"/></g><g class="points"/><g class="text"/></g></g></g><g class="overplot"/><path class="xlines-above crisp" d="M0,0" style="fill: none;"/><path class="ylines-above crisp" d="M0,0" style="fill: none;"/><g class="overlines-above"/><g class="xaxislayer-above"><g class="xtick"><text text-anchor="middle" x="0" y="484" transform="translate(60,0)" style="font-family: 'Open Sans', verdana, arial, sans-serif; font-size: 12px; fill: rgb(68, 68, 68); fill-opacity: 1; white-space: pre;">0</text></g><g class="xtick"><text text-anchor="middle" x="0" y="484" transform="translate(140.51,0)" style="font-family: 'Open Sans', verdana, arial, sans-serif; font-size: 12px; fill: rgb(68, 68, 68); fill-opacity: 1; white-space: pre;">10</text></g><g class="xtick"><text text-anchor="middle" x="0" y="484" transform="translate(221.01,0)" style="font-family: 'Open Sans', verdana, arial, sans-serif; font-size: 12px; fill: rgb(68, 68, 68); fill-opacity: 1; white-space: pre;">20</text></g><g class="xtick"><text text-anchor="middle" x="0" y="484" transform="translate(301.52,0)" style="font-family: 'Open Sans', verdana, arial, sans-serif; font-size: 12px; fill: rgb(68, 68, 68); fill-opacity: 1; white-space: pre;">30</text></g><g class="xtick"><text text-anchor="middle" x="0" y="484" transform="translate(382.02,0)" style="font-family: 'Open Sans', verdana, arial, sans-serif; font-size: 12px; fill: rgb(68, 68, 68); fill-opacity: 1; white-space: pre;">40</text></g><g class="xtick"><text text-anchor="middle" x="0" y="484" transform="translate(462.53,0)" style="font-family: 'Open Sans', verdana, arial, sans-serif; font-size: 12px; fill: rgb(68, 68, 68); fill-opacity: 1; white-space: pre;">50</text></g><g class="xtick"><text text-anchor="middle" x="0" y="484" transform="translate(543.03,0)" style="font-family: 'Open Sans', verdana, arial, sans-serif; font-size: 12px; fill: rgb(68, 68, 68); fill-opacity: 1; white-space: pre;">60</text></g><g class="xtick"><text text-anchor="middle" x="0" y="484" transform="translate(623.54,0)" style="font-family: 'Open Sans', verdana, arial, sans-serif; font-size: 12px; fill: rgb(68, 68, 68); fill-opacity: 1; white-space: pre;">70</text></g><g class="xtick"><text text-anchor="middle" x="0" y="484" transform="translate(704.04,0)" style="font-family: 'Open Sans', verdana, arial, sans-serif; font-size: 12px; fill: rgb(68, 68, 68); fill-opacity: 1; white-space: pre;">80</text></g><g class="xtick"><text text-anchor="middle" x="0" y="484" transform="translate(784.55,0)" style="font-family: 'Open Sans', verdana, arial, sans-serif; font-size: 12px; fill: rgb(68, 68, 68); fill-opacity: 1; white-space: pre;">90</text></g></g><g class="yaxislayer-above"><g class="ytick"><text text-anchor="end" x="59" y="4.199999999999999" transform="translate(0,429.76)" style="font-family: 'Open Sans', verdana, arial, sans-serif; font-size: 12px; fill: rgb(68, 68, 68); fill-opacity: 1; white-space: pre;">0.2</text></g><g class="ytick"><text text-anchor="end" x="59" y="4.199999999999999" transform="translate(0,377.73)" style="font-family: 'Open Sans', verdana, arial, sans-serif; font-size: 12px; fill: rgb(68, 68, 68); fill-opacity: 1; white-space: pre;">0.4</text></g><g class="ytick"><text text-anchor="end" x="59" y="4.199999999999999" transform="translate(0,325.7)" style="font-family: 'Open Sans', verdana, arial, sans-serif; font-size: 12px; fill: rgb(68, 68, 68); fill-opacity: 1; white-space: pre;">0.6</text></g><g class="ytick"><text text-anchor="end" x="59" y="4.199999999999999" transform="translate(0,273.66999999999996)" style="font-family: 'Open Sans', verdana, arial, sans-serif; font-size: 12px; fill: rgb(68, 68, 68); fill-opacity: 1; white-space: pre;">0.8</text></g><g class="ytick"><text text-anchor="end" x="59" y="4.199999999999999" transform="translate(0,221.64)" style="font-family: 'Open Sans', verdana, arial, sans-serif; font-size: 12px; fill: rgb(68, 68, 68); fill-opacity: 1; white-space: pre;">1</text></g><g class="ytick"><text text-anchor="end" x="59" y="4.199999999999999" transform="translate(0,169.61)" style="font-family: 'Open Sans', verdana, arial, sans-serif; font-size: 12px; fill: rgb(68, 68, 68); fill-opacity: 1; white-space: pre;">1.2</text></g><g class="ytick"><text text-anchor="end" x="59" y="4.199999999999999" transform="translate(0,117.58)" style="font-family: 'Open Sans', verdana, arial, sans-serif; font-size: 12px; fill: rgb(68, 68, 68); fill-opacity: 1; white-space: pre;">1.4</text></g><g class="ytick"><text text-anchor="end" x="59" y="4.199999999999999" transform="translate(0,65.55)" style="font-family: 'Open Sans', verdana, arial, sans-serif; font-size: 12px; fill: rgb(68, 68, 68); fill-opacity: 1; white-space: pre;">1.6</text></g></g><g class="overaxes-above"/></g></g><g class="polarlayer"/><g class="ternarylayer"/><g class="geolayer"/><g class="funnelarealayer"/><g class="pielayer"/><g class="treemaplayer"/><g class="sunburstlayer"/><g class="glimages"/><defs id="topdefs-cb8ef8"><g class="clips"/><clipPath id="legendcb8ef8"><rect width="97" height="48" x="0" y="0"/></clipPath></defs><g class="layer-above"><g class="imagelayer"/><g class="shapelayer"/></g><g class="infolayer"><g class="legend" pointer-events="all" transform="translate(872.94,60)"><rect class="bg" shape-rendering="crispEdges" width="97" height="48" x="0" y="0" style="stroke: rgb(68, 68, 68); stroke-opacity: 1; fill: rgb(255, 255, 255); fill-opacity: 1; stroke-width: 0px;"/><g class="scrollbox" transform="" clip-path="url('#legendcb8ef8')"><g class="groups"><g class="traces" transform="translate(0,14.5)" style="opacity: 1;"><text class="legendtext" text-anchor="start" x="40" y="4.680000000000001" style="font-family: 'Open Sans', verdana, arial, sans-serif; font-size: 12px; fill: rgb(68, 68, 68); fill-opacity: 1; white-space: pre;">train_loss</text><g class="layers" style="opacity: 1;"><g class="legendfill"/><g class="legendlines"><path class="js-line" d="M5,0h30" style="fill: none; stroke: rgb(31, 119, 180); stroke-opacity: 1; stroke-width: 2px;"/></g><g class="legendsymbols"><g class="legendpoints"/></g></g><rect class="legendtoggle" x="0" y="-9.5" width="91.53125" height="19" style="fill: rgb(0, 0, 0); fill-opacity: 0;"/></g><g class="traces" transform="translate(0,33.5)" style="opacity: 1;"><text class="legendtext" text-anchor="start" x="40" y="4.680000000000001" style="font-family: 'Open Sans', verdana, arial, sans-serif; font-size: 12px; fill: rgb(68, 68, 68); fill-opacity: 1; white-space: pre;">valid_loss</text><g class="layers" style="opacity: 1;"><g class="legendfill"/><g class="legendlines"><path class="js-line" d="M5,0h30" style="fill: none; stroke: rgb(255, 127, 14); stroke-opacity: 1; stroke-width: 2px;"/></g><g class="legendsymbols"><g class="legendpoints"/></g></g><rect class="legendtoggle" x="0" y="-9.5" width="91.53125" height="19" style="fill: rgb(0, 0, 0); fill-opacity: 0;"/></g></g></g><rect class="scrollbar" rx="20" ry="3" width="0" height="0" x="0" y="0" style="fill: rgb(128, 139, 164); fill-opacity: 1;"/></g><g class="g-gtitle"><text class="gtitle" x="491" y="30" text-anchor="middle" dy="0em" style="font-family: 'Open Sans', verdana, arial, sans-serif; font-size: 17px; fill: rgb(68, 68, 68); opacity: 1; font-weight: normal; white-space: pre;">loss_modelA</text></g><g class="g-xtitle"/><g class="g-ytitle"/></g></svg>