<svg class="main-svg" xmlns="http://www.w3.org/2000/svg" xmlns:xlink="http://www.w3.org/1999/xlink" width="817" height="411" style="" viewBox="0 0 817 411"><rect x="0" y="0" width="817" height="411" style="fill: rgb(255, 255, 255); fill-opacity: 1;"/><defs id="defs-3a6f9f"><g class="clips"><clipPath id="clip3a6f9fxyplot" class="plotclip"><rect width="635" height="291"/></clipPath><clipPath class="axesclip" id="clip3a6f9fx"><rect x="60" y="0" width="635" height="411"/></clipPath><clipPath class="axesclip" id="clip3a6f9fy"><rect x="0" y="60" width="817" height="291"/></clipPath><clipPath class="axesclip" id="clip3a6f9fxy"><rect x="60" y="60" width="635" height="291"/></clipPath></g><g class="gradients"/></defs><g class="bglayer"/><g class="layer-below"><g class="imagelayer"/><g class="shapelayer"/></g><g class="cartesianlayer"><g class="subplot xy"><g class="layer-subplot"><g class="shapelayer"/><g class="imagelayer"/></g><g class="gridlayer"><g class="x"><path class="xgrid crisp" transform="translate(219.55,0)" d="M0,60v291" style="stroke: rgb(238, 238, 238); stroke-opacity: 1; stroke-width: 1px;"/><path class="xgrid crisp" transform="translate(379.1,0)" d="M0,60v291" style="stroke: rgb(238, 238, 238); stroke-opacity: 1; stroke-width: 1px;"/><path class="xgrid crisp" transform="translate(538.64,0)" d="M0,60v291" style="stroke: rgb(238, 238, 238); stroke-opacity: 1; stroke-width: 1px;"/></g><g class="y"><path class="ygrid crisp" transform="translate(0,317.33)" d="M60,0h635" style="stroke: rgb(238, 238, 238); stroke-opacity: 1; stroke-width: 1px;"/><path class="ygrid crisp" transform="translate(0,282.1)" d="M60,0h635" style="stroke: rgb(238, 238, 238); stroke-opacity: 1; stroke-width: 1px;"/><path class="ygrid crisp" transform="translate(0,246.86)" d="M60,0h635" style="stroke: rgb(238, 238, 238); stroke-opacity: 1; stroke-width: 1px;"/><path class="ygrid crisp" transform="translate(0,211.63)" d="M60,0h635" style="stroke: rgb(238, 238, 238); stroke-opacity: 1; stroke-width: 1px;"/><path class="ygrid crisp" transform="translate(0,176.4)" d="M60,0h635" style="stroke: rgb(238, 238, 238); stroke-opacity: 1; stroke-width: 1px;"/><path class="ygrid crisp" transform="translate(0,141.16)" d="M60,0h635" style="stroke: rgb(238, 238, 238); stroke-opacity: 1; stroke-width: 1px;"/><path class="ygrid crisp" transform="translate(0,105.93)" d="M60,0h635" style="stroke: rgb(238, 238, 238); stroke-opacity: 1; stroke-width: 1px;"/><path class="ygrid crisp" transform="translate(0,70.7)" d="M60,0h635" style="stroke: rgb(238, 238, 238); stroke-opacity: 1; stroke-width: 1px;"/></g></g><g class="zerolinelayer"><path class="xzl zl crisp" transform="translate(60,0)" d="M0,60v291" style="stroke: rgb(68, 68, 68); stroke-opacity: 1; stroke-width: 1px;"/></g><path class="xlines-below"/><path class="ylines-below"/><g class="overlines-below"/><g class="xaxislayer-below"/><g class="yaxislayer-below"/><g class="overaxes-below"/><g class="plot" transform="translate(60,60)" clip-path="url('#clip3a6f9fxyplot')"><g class="scatterlayer mlayer"><g class="trace scatter trace017ca4" style="stroke-miterlimit: 2; opacity: 1;"><g class="fills"/><g class="errorbars"/><g class="lines"><path class="js-line" d="M0,14.55L3.19,45.94L6.38,57.88L9.57,69.6L12.76,78.07L19.15,91.83L22.34,97.92L31.91,107.66L35.1,110.54L41.48,113.12L44.67,116.89L47.86,117.6L51.06,119.92L54.25,119.63L57.44,121.24L63.82,123.75L67.01,124.4L76.58,127.39L79.77,127.71L82.96,127.41L86.16,130.17L89.35,130.65L92.54,128.93L95.73,129.26L98.92,131.86L105.3,131.9L108.49,133.3L118.07,133.08L121.26,134.14L127.64,134.62L130.83,134.99L134.02,135.65L137.21,134.41L140.4,135.86L143.59,136.01L146.78,135.7L149.97,136.42L156.36,137.34L159.55,136.78L162.74,137.71L165.93,137.82L169.12,136.97L172.31,138.56L178.69,138.1L181.88,137.97L185.08,139.23L188.27,138.51L191.46,138.16L194.65,139.19L207.41,140.13L210.6,139.2L213.79,140.89L216.98,140.14L220.18,141.13L223.37,140.7L229.75,141.18L232.94,140.25L242.51,141.66L245.7,140.96L248.89,142.43L252.09,141.91L261.66,141.78L264.85,142.32L274.42,143.25L277.61,142.51L287.19,143.65L290.38,143.65L299.95,143.04L303.14,144.62L309.52,143.93L312.71,144.63L322.29,144.31L325.48,144.14L338.24,145.3L341.43,145.63L344.62,145.09L347.81,145.86L351.01,144.98L354.2,146.65L360.58,145.41L363.77,145.92L366.96,145.48L370.15,146.2L376.53,146.49L379.72,146.45L395.68,146.39L398.87,148.06L402.06,147.24L405.25,147.31L411.63,147.03L414.82,146.99L421.21,147.3L424.4,147L427.59,149.27L430.78,147.16L433.97,148.32L437.16,148L440.35,148.71L443.54,148.43L449.92,147.46L453.12,149.48L456.31,148.02L459.5,147.72L465.88,149.14L469.07,148.24L472.26,149.68L475.45,148.9L478.64,148.85L481.83,150.01L485.03,149.29L488.22,149.99L491.41,148.91L494.6,149.6L500.98,149.96L504.17,149.37L507.36,151.02L510.55,148.77L513.74,150.33L516.93,149.51L520.13,149.65L523.32,150.86L529.7,150.12L532.89,150.37L552.04,151.94L555.23,150.25L558.42,151.55L561.61,150.49L564.8,151.93L567.99,151.4L571.18,150.15L574.37,151.39L580.75,152.58L583.94,150.97L587.14,152.07L590.33,151.08L593.52,152.85L596.71,152.61L599.9,152.6L603.09,151.53L612.66,152.13L615.85,151.74L619.05,153.11L622.24,153.34L625.43,152.97L628.62,153.77L635,152.99" style="vector-effect: non-scaling-stroke; fill: none; stroke: rgb(31, 119, 180); stroke-opacity: 1; stroke-width: 2px; opacity: 1;"/></g><g class="points"/><g class="text"/></g><g class="trace scatter trace0924ce" style="stroke-miterlimit: 2; opacity: 1;"><g class="fills"/><g class="errorbars"/><g class="lines"><path class="js-line" d="M0,126.7L3.19,106.64L6.38,154.86L9.57,188.41L12.76,193.1L15.95,154.88L19.15,185.69L22.34,221.7L25.53,221.7L28.72,217.16L31.91,229.81L35.1,230.94L38.29,227.3L41.48,242.21L44.67,237.31L47.86,240.27L51.06,248.15L54.25,234.85L57.44,238.91L60.63,248.53L63.82,250.12L67.01,249.53L70.2,247.21L73.39,252.11L76.58,251.14L79.77,249.96L82.96,242.61L89.35,262.6L92.54,254.1L98.92,258.22L102.11,254.98L105.3,258.82L108.49,254.03L111.68,252.73L114.87,257.75L118.07,251.7L121.26,257.62L124.45,260.51L127.64,260.51L130.83,257.24L134.02,259.9L143.59,259.78L146.78,256.37L149.97,265.27L153.17,262.91L156.36,266.97L159.55,263.69L162.74,264.71L165.93,255.78L169.12,258.92L172.31,266.1L175.5,264.3L178.69,259.27L181.88,265.12L185.08,259.51L191.46,264.5L194.65,268.23L201.03,261.11L204.22,263.79L207.41,263.59L210.6,260.23L213.79,263.8L216.98,266.21L220.18,261.91L223.37,266.77L229.75,263.37L232.94,260.77L236.13,271.51L239.32,264.24L242.51,266.08L245.7,260.55L248.89,263.06L252.09,264.19L255.28,261.04L258.47,263.51L261.66,265.31L264.85,268.44L268.04,266.67L271.23,262.95L274.42,261.47L277.61,270.78L283.99,271L287.19,267.44L290.38,269.2L293.57,263.28L296.76,261.98L299.95,266.78L303.14,256.52L306.33,265.2L312.71,259.06L315.9,262.52L319.1,265.04L322.29,273.41L325.48,265.8L328.67,264.93L331.86,267.87L335.05,266.21L338.24,259.8L341.43,264.08L344.62,263.85L347.81,270.5L351.01,269.05L354.2,268.57L357.39,276.45L360.58,268.24L363.77,262.65L366.96,263.64L370.15,267.22L373.34,261.53L376.53,270.1L379.72,265.3L382.91,268.93L386.11,259.36L389.3,266.46L392.49,263.34L395.68,262.02L398.87,265.24L402.06,262.19L405.25,262.35L408.44,268.08L411.63,262.78L414.82,265.7L418.02,265.99L421.21,265.84L424.4,269.66L427.59,266.66L430.78,269.93L433.97,262.5L437.16,264.97L440.35,262.22L443.54,265.34L446.73,267.46L449.92,261.64L453.12,269.16L456.31,265.61L459.5,263.99L462.69,267.71L465.88,268.06L469.07,265.32L472.26,265.93L475.45,258.99L478.64,271.18L481.83,268.21L485.03,262.68L488.22,274.37L491.41,266.72L494.6,268.54L500.98,268.56L504.17,261.74L507.36,266.18L510.55,267.86L513.74,270.5L516.93,263.13L520.13,267.03L523.32,266.57L526.51,269.69L529.7,266.66L532.89,270.57L536.08,264.83L539.27,269.07L542.46,266.59L545.65,268.93L548.84,265.75L552.04,270.4L555.23,268.07L558.42,265.47L561.61,265.83L564.8,268.77L567.99,266.63L571.18,268.14L574.37,268.47L577.56,268.57L580.75,270.65L583.94,268.44L587.14,261.11L590.33,271.96L593.52,270.21L596.71,266.7L599.9,267.19L606.28,268.07L609.47,270.91L615.85,266.05L619.05,270.25L622.24,267.62L625.43,268.84L628.62,272.03L631.81,265.58L635,261.56" style="vector-effect: non-scaling-stroke; fill: none; stroke: rgb(255, 127, 14); stroke-opacity: 1; stroke-width: 2px; opacity: 1;"/></g><g class="points"/><g class="text"/></g></g></g><g class="overplot"/><path class="xlines-above crisp" d="M0,0" style="fill: none;"/><path class="ylines-above crisp" d="M0,0" style="fill: none;"/><g class="overlines-above"/><g class="xaxislayer-above"><g class="xtick"><text text-anchor="middle" x="0" y="364" transform="translate(60,0)" style="font-family: 'Open Sans', verdana, arial, sans-serif; font-size: 12px; fill: rgb(68, 68, 68); fill-opacity: 1; white-space: pre;">0</text></g><g class="xtick"><text text-anchor="middle" x="0" y="364" transform="translate(219.55,0)" style="font-family: 'Open Sans', verdana, arial, sans-serif; font-size: 12px; fill: rgb(68, 68, 68); fill-opacity: 1; white-space: pre;">50</text></g><g class="xtick"><text text-anchor="middle" x="0" y="364" transform="translate(379.1,0)" style="font-family: 'Open Sans', verdana, arial, sans-serif; font-size: 12px; fill: rgb(68, 68, 68); fill-opacity: 1; white-space: pre;">100</text></g><g class="xtick"><text text-anchor="middle" x="0" y="364" transform="translate(538.64,0)" style="font-family: 'Open Sans', verdana, arial, sans-serif; font-size: 12px; fill: rgb(68, 68, 68); fill-opacity: 1; white-space: pre;">150</text></g></g><g class="yaxislayer-above"><g class="ytick"><text text-anchor="end" x="59" y="4.199999999999999" transform="translate(0,317.33)" style="font-family: 'Open Sans', verdana, arial, sans-serif; font-size: 12px; fill: rgb(68, 68, 68); fill-opacity: 1; white-space: pre;">0.4</text></g><g class="ytick"><text text-anchor="end" x="59" y="4.199999999999999" transform="translate(0,282.1)" style="font-family: 'Open Sans', verdana, arial, sans-serif; font-size: 12px; fill: rgb(68, 68, 68); fill-opacity: 1; white-space: pre;">0.6</text></g><g class="ytick"><text text-anchor="end" x="59" y="4.199999999999999" transform="translate(0,246.86)" style="font-family: 'Open Sans', verdana, arial, sans-serif; font-size: 12px; fill: rgb(68, 68, 68); fill-opacity: 1; white-space: pre;">0.8</text></g><g class="ytick"><text text-anchor="end" x="59" y="4.199999999999999" transform="translate(0,211.63)" style="font-family: 'Open Sans', verdana, arial, sans-serif; font-size: 12px; fill: rgb(68, 68, 68); fill-opacity: 1; white-space: pre;">1</text></g><g class="ytick"><text text-anchor="end" x="59" y="4.199999999999999" transform="translate(0,176.4)" style="font-family: 'Open Sans', verdana, arial, sans-serif; font-size: 12px; fill: rgb(68, 68, 68); fill-opacity: 1; white-space: pre;">1.2</text></g><g class="ytick"><text text-anchor="end" x="59" y="4.199999999999999" transform="translate(0,141.16)" style="font-family: 'Open Sans', verdana, arial, sans-serif; font-size: 12px; fill: rgb(68, 68, 68); fill-opacity: 1; white-space: pre;">1.4</text></g><g class="ytick"><text text-anchor="end" x="59" y="4.199999999999999" transform="translate(0,105.93)" style="font-family: 'Open Sans', verdana, arial, sans-serif; font-size: 12px; fill: rgb(68, 68, 68); fill-opacity: 1; white-space: pre;">1.6</text></g><g class="ytick"><text text-anchor="end" x="59" y="4.199999999999999" transform="translate(0,70.7)" style="font-family: 'Open Sans', verdana, arial, sans-serif; font-size: 12px; fill: rgb(68, 68, 68); fill-opacity: 1; white-space: pre;">1.8</text></g></g><g class="overaxes-above"/></g></g><g class="polarlayer"/><g class="ternarylayer"/><g class="geolayer"/><g class="funnelarealayer"/><g class="pielayer"/><g class="treemaplayer"/><g class="sunburstlayer"/><g class="glimages"/><defs id="topdefs-3a6f9f"><g class="clips"/><clipPath id="legend3a6f9f"><rect width="97" height="48" x="0" y="0"/></clipPath></defs><g class="layer-above"><g class="imagelayer"/><g class="shapelayer"/></g><g class="infolayer"><g class="legend" pointer-events="all" transform="translate(707.7,60)"><rect class="bg" shape-rendering="crispEdges" width="97" height="48" x="0" y="0" style="stroke: rgb(68, 68, 68); stroke-opacity: 1; fill: rgb(255, 255, 255); fill-opacity: 1; stroke-width: 0px;"/><g class="scrollbox" transform="" clip-path="url('#legend3a6f9f')"><g class="groups"><g class="traces" transform="translate(0,14.5)" style="opacity: 1;"><text class="legendtext" text-anchor="start" x="40" y="4.680000000000001" style="font-family: 'Open Sans', verdana, arial, sans-serif; font-size: 12px; fill: rgb(68, 68, 68); fill-opacity: 1; white-space: pre;">train_loss</text><g class="layers" style="opacity: 1;"><g class="legendfill"/><g class="legendlines"><path class="js-line" d="M5,0h30" style="fill: none; stroke: rgb(31, 119, 180); stroke-opacity: 1; stroke-width: 2px;"/></g><g class="legendsymbols"><g class="legendpoints"/></g></g><rect class="legendtoggle" x="0" y="-9.5" width="91.53125" height="19" style="fill: rgb(0, 0, 0); fill-opacity: 0;"/></g><g class="traces" transform="translate(0,33.5)" style="opacity: 1;"><text class="legendtext" text-anchor="start" x="40" y="4.680000000000001" style="font-family: 'Open Sans', verdana, arial, sans-serif; font-size: 12px; fill: rgb(68, 68, 68); fill-opacity: 1; white-space: pre;">valid_loss</text><g class="layers" style="opacity: 1;"><g class="legendfill"/><g class="legendlines"><path class="js-line" d="M5,0h30" style="fill: none; stroke: rgb(255, 127, 14); stroke-opacity: 1; stroke-width: 2px;"/></g><g class="legendsymbols"><g class="legendpoints"/></g></g><rect class="legendtoggle" x="0" y="-9.5" width="91.53125" height="19" style="fill: rgb(0, 0, 0); fill-opacity: 0;"/></g></g></g><rect class="scrollbar" rx="20" ry="3" width="0" height="0" x="0" y="0" style="fill: rgb(128, 139, 164); fill-opacity: 1;"/></g><g class="g-gtitle"><text class="gtitle" x="408.5" y="30" text-anchor="middle" dy="0em" style="font-family: 'Open Sans', verdana, arial, sans-serif; font-size: 17px; fill: rgb(68, 68, 68); opacity: 1; font-weight: normal; white-space: pre;">loss_modelC1</text></g><g class="g-xtitle"/><g class="g-ytitle"/></g></svg>