<svg class="main-svg" xmlns="http://www.w3.org/2000/svg" xmlns:xlink="http://www.w3.org/1999/xlink" width="931" height="501" style="" viewBox="0 0 931 501"><rect x="0" y="0" width="931" height="501" style="fill: rgb(255, 255, 255); fill-opacity: 1;"/><defs id="defs-caf085"><g class="clips"><clipPath id="clipcaf085xyplot" class="plotclip"><rect width="747" height="381"/></clipPath><clipPath class="axesclip" id="clipcaf085x"><rect x="60" y="0" width="747" height="501"/></clipPath><clipPath class="axesclip" id="clipcaf085y"><rect x="0" y="60" width="931" height="381"/></clipPath><clipPath class="axesclip" id="clipcaf085xy"><rect x="60" y="60" width="747" height="381"/></clipPath></g><g class="gradients"/></defs><g class="bglayer"/><g class="layer-below"><g class="imagelayer"/><g class="shapelayer"/></g><g class="cartesianlayer"><g class="subplot xy"><g class="layer-subplot"><g class="shapelayer"/><g class="imagelayer"/></g><g class="gridlayer"><g class="x"><path class="xgrid crisp" transform="translate(135.07999999999998,0)" d="M0,60v381" style="stroke: rgb(238, 238, 238); stroke-opacity: 1; stroke-width: 1px;"/><path class="xgrid crisp" transform="translate(210.15,0)" d="M0,60v381" style="stroke: rgb(238, 238, 238); stroke-opacity: 1; stroke-width: 1px;"/><path class="xgrid crisp" transform="translate(285.23,0)" d="M0,60v381" style="stroke: rgb(238, 238, 238); stroke-opacity: 1; stroke-width: 1px;"/><path class="xgrid crisp" transform="translate(360.3,0)" d="M0,60v381" style="stroke: rgb(238, 238, 238); stroke-opacity: 1; stroke-width: 1px;"/><path class="xgrid crisp" transform="translate(435.38,0)" d="M0,60v381" style="stroke: rgb(238, 238, 238); stroke-opacity: 1; stroke-width: 1px;"/><path class="xgrid crisp" transform="translate(510.45,0)" d="M0,60v381" style="stroke: rgb(238, 238, 238); stroke-opacity: 1; stroke-width: 1px;"/><path class="xgrid crisp" transform="translate(585.53,0)" d="M0,60v381" style="stroke: rgb(238, 238, 238); stroke-opacity: 1; stroke-width: 1px;"/><path class="xgrid crisp" transform="translate(660.6,0)" d="M0,60v381" style="stroke: rgb(238, 238, 238); stroke-opacity: 1; stroke-width: 1px;"/><path class="xgrid crisp" transform="translate(735.68,0)" d="M0,60v381" style="stroke: rgb(238, 238, 238); stroke-opacity: 1; stroke-width: 1px;"/></g><g class="y"><path class="ygrid crisp" transform="translate(0,398.6)" d="M60,0h747" style="stroke: rgb(238, 238, 238); stroke-opacity: 1; stroke-width: 1px;"/><path class="ygrid crisp" transform="translate(0,352.23)" d="M60,0h747" style="stroke: rgb(238, 238, 238); stroke-opacity: 1; stroke-width: 1px;"/><path class="ygrid crisp" transform="translate(0,305.86)" d="M60,0h747" style="stroke: rgb(238, 238, 238); stroke-opacity: 1; stroke-width: 1px;"/><path class="ygrid crisp" transform="translate(0,259.49)" d="M60,0h747" style="stroke: rgb(238, 238, 238); stroke-opacity: 1; stroke-width: 1px;"/><path class="ygrid crisp" transform="translate(0,213.12)" d="M60,0h747" style="stroke: rgb(238, 238, 238); stroke-opacity: 1; stroke-width: 1px;"/><path class="ygrid crisp" transform="translate(0,166.75)" d="M60,0h747" style="stroke: rgb(238, 238, 238); stroke-opacity: 1; stroke-width: 1px;"/><path class="ygrid crisp" transform="translate(0,120.38)" d="M60,0h747" style="stroke: rgb(238, 238, 238); stroke-opacity: 1; stroke-width: 1px;"/><path class="ygrid crisp" transform="translate(0,74.01)" d="M60,0h747" style="stroke: rgb(238, 238, 238); stroke-opacity: 1; stroke-width: 1px;"/></g></g><g class="zerolinelayer"><path class="xzl zl crisp" transform="translate(60,0)" d="M0,60v381" style="stroke: rgb(68, 68, 68); stroke-opacity: 1; stroke-width: 1px;"/></g><path class="xlines-below"/><path class="ylines-below"/><g class="overlines-below"/><g class="xaxislayer-below"/><g class="yaxislayer-below"/><g class="overaxes-below"/><g class="plot" transform="translate(60,60)" clip-path="url('#clipcaf085xyplot')"><g class="scatterlayer mlayer"><g class="trace scatter trace72dfda" style="stroke-miterlimit: 2; opacity: 1;"><g class="fills"/><g class="errorbars"/><g class="lines"><path class="js-line" d="M0,19.05L3.75,58.18L7.51,76.91L15.02,107.78L18.77,116.16L33.78,140.1L37.54,142.49L48.8,151.07L52.55,153.04L56.31,154.21L60.06,156.86L63.81,158.19L67.57,160.89L71.32,161.02L75.08,163.58L78.83,165.06L82.58,163.7L86.34,166.44L90.09,165.37L93.84,168.49L97.6,167.86L105.11,168.13L108.86,169.5L112.61,171.52L116.37,170.39L123.87,171.69L127.63,173.33L138.89,172.63L142.64,174.53L146.4,173.98L150.15,184.54L153.9,187.4L157.66,187.72L165.17,189.8L168.92,190.72L176.43,190.53L180.18,192.27L183.93,191.6L187.69,192.01L191.44,191L195.2,192.97L198.95,192.27L202.7,193.17L206.46,193.11L210.21,193.88L213.96,193.04L217.72,193.91L228.98,194.81L232.73,193.84L236.49,194.47L240.24,194.03L243.99,195.59L247.75,195.52L251.5,195.78L255.26,195.11L262.76,197.1L266.52,196.68L281.53,197.03L285.29,198.11L296.55,197.04L300.3,200.3L304.06,201.13L307.81,200.77L322.82,200.39L326.58,201.68L330.33,200.34L334.09,201.78L337.84,200.49L341.59,202.06L352.85,200.48L356.61,201.81L364.12,201.22L367.87,201.51L375.38,201.8L379.13,200.95L382.88,200.99L386.64,201.99L390.39,200.75L394.15,201.16L401.65,202.02L405.41,201.03L409.16,202.22L412.91,202.25L424.18,201.24L427.93,202.41L431.68,202.5L435.44,201.49L439.19,202.68L442.94,202.01L450.45,201.66L454.21,202.62L491.74,202.65L495.5,203.19L499.25,201.22L503.01,202.11L506.76,203.77L510.51,202.21L521.77,204.09L525.53,202.73L529.28,202.73L533.04,201.96L536.79,202.48L540.54,201.65L544.3,202.66L548.05,202.88L551.8,203.55L555.56,202.39L559.31,202.89L563.07,201.29L570.57,203.03L574.33,202.71L578.08,203.3L581.83,202.37L593.1,202.88L596.85,201.77L600.6,202.67L604.36,202.41L608.11,202.03L611.86,203.29L615.62,201.58L619.37,202.87L630.63,203.19L634.39,203.77L638.14,202.11L641.89,203.57L645.65,202.46L649.4,202.34L660.66,203.24L664.42,202.29L683.19,202.65L686.94,203.66L698.2,202.24L701.95,203.74L705.71,201.59L709.46,201.49L716.97,203.26L720.72,202.79L724.48,202.68L728.23,203.56L743.25,202.78L747,203.42" style="vector-effect: non-scaling-stroke; fill: none; stroke: rgb(31, 119, 180); stroke-opacity: 1; stroke-width: 2px; opacity: 1;"/></g><g class="points"/><g class="text"/></g><g class="trace scatter tracee962f7" style="stroke-miterlimit: 2; opacity: 1;"><g class="fills"/><g class="errorbars"/><g class="lines"><path class="js-line" d="M0,109.97L3.75,174.51L7.51,213.46L11.26,216.54L15.02,236.16L18.77,274.27L22.52,286.85L26.28,258.45L30.03,306.31L33.78,299.08L37.54,297.27L41.29,293.2L45.05,304.52L48.8,314.43L52.55,316.88L56.31,318.92L60.06,322.59L67.57,327.05L71.32,328.38L75.08,318.16L78.83,344.05L82.58,333.7L86.34,327.98L90.09,328.18L93.84,314.98L97.6,338.75L101.35,334.62L105.11,341.91L108.86,336.43L112.61,341.71L116.37,345.27L120.12,338.23L123.87,341.71L131.38,352.46L135.14,342.46L138.89,333.12L142.64,340.5L146.4,346.45L150.15,355.07L153.9,352.15L157.66,352.59L161.41,355.09L165.17,354.46L172.67,356.03L176.43,355.7L180.18,358.7L183.93,355.99L191.44,355.55L195.2,358.6L198.95,355.43L202.7,360.08L206.46,358.69L210.21,354.07L217.72,358.85L221.47,360.42L225.23,360.58L228.98,359.44L232.73,358.31L236.49,359.56L240.24,360.02L243.99,358.81L247.75,359.17L251.5,357.76L255.26,357.69L259.01,360.74L262.76,359.5L266.52,361.41L270.27,358.26L274.03,356.84L277.78,359.36L281.53,356.21L285.29,359.41L289.04,358.61L292.79,361.78L296.55,356.37L304.06,359.94L307.81,358.71L311.56,360.66L315.32,358.97L319.07,360.83L322.82,358.21L326.58,359.84L330.33,359.9L349.1,360.24L352.85,359.48L356.61,360.87L360.36,359.71L364.12,361.48L367.87,360.6L371.62,360.11L375.38,360.49L379.13,359.97L382.88,361.06L386.64,360.05L390.39,360.03L394.15,359.37L397.9,361.43L401.65,359.84L405.41,359.84L409.16,361.02L412.91,360.8L416.67,358.9L420.42,360.86L424.18,357.96L427.93,359.59L435.44,361.48L439.19,359.77L442.94,359.69L446.7,361.76L454.21,360.26L457.96,359.95L465.47,361.42L469.22,360.86L476.73,360.61L480.48,361.89L484.24,359.83L487.99,359.33L491.74,361.01L495.5,359.75L503.01,360.43L506.76,360.31L510.51,359.73L514.27,360.05L518.02,360.07L521.77,361.41L529.28,359.78L533.04,361.64L540.54,359.67L544.3,360.48L566.82,361.67L570.57,361.08L574.33,359.77L578.08,360.44L581.83,360.39L585.59,361.95L596.85,359.4L600.6,361.2L608.11,361.27L611.86,361.62L619.37,359.97L623.13,360.66L626.88,358.82L630.63,360.13L634.39,361.66L638.14,360.08L641.89,360.85L645.65,359.9L649.4,361.09L653.16,360.68L656.91,361.11L660.66,360.76L664.42,359.08L668.17,359.63L675.68,358.95L679.43,360.17L683.19,360.89L686.94,360.07L690.69,361.29L694.45,361.17L698.2,359.43L701.95,359.65L709.46,360.7L713.22,359.86L716.97,359.37L720.72,360.59L731.98,359L735.74,358.86L739.49,359.94L743.25,361.87L747,360.44" style="vector-effect: non-scaling-stroke; fill: none; stroke: rgb(255, 127, 14); stroke-opacity: 1; stroke-width: 2px; opacity: 1;"/></g><g class="points"/><g class="text"/></g></g></g><g class="overplot"/><path class="xlines-above crisp" d="M0,0" style="fill: none;"/><path class="ylines-above crisp" d="M0,0" style="fill: none;"/><g class="overlines-above"/><g class="xaxislayer-above"><g class="xtick"><text text-anchor="middle" x="0" y="454" transform="translate(60,0)" style="font-family: 'Open Sans', verdana, arial, sans-serif; font-size: 12px; fill: rgb(68, 68, 68); fill-opacity: 1; white-space: pre;">0</text></g><g class="xtick"><text text-anchor="middle" x="0" y="454" transform="translate(135.07999999999998,0)" style="font-family: 'Open Sans', verdana, arial, sans-serif; font-size: 12px; fill: rgb(68, 68, 68); fill-opacity: 1; white-space: pre;">20</text></g><g class="xtick"><text text-anchor="middle" x="0" y="454" transform="translate(210.15,0)" style="font-family: 'Open Sans', verdana, arial, sans-serif; font-size: 12px; fill: rgb(68, 68, 68); fill-opacity: 1; white-space: pre;">40</text></g><g class="xtick"><text text-anchor="middle" x="0" y="454" transform="translate(285.23,0)" style="font-family: 'Open Sans', verdana, arial, sans-serif; font-size: 12px; fill: rgb(68, 68, 68); fill-opacity: 1; white-space: pre;">60</text></g><g class="xtick"><text text-anchor="middle" x="0" y="454" transform="translate(360.3,0)" style="font-family: 'Open Sans', verdana, arial, sans-serif; font-size: 12px; fill: rgb(68, 68, 68); fill-opacity: 1; white-space: pre;">80</text></g><g class="xtick"><text text-anchor="middle" x="0" y="454" transform="translate(435.38,0)" style="font-family: 'Open Sans', verdana, arial, sans-serif; font-size: 12px; fill: rgb(68, 68, 68); fill-opacity: 1; white-space: pre;">100</text></g><g class="xtick"><text text-anchor="middle" x="0" y="454" transform="translate(510.45,0)" style="font-family: 'Open Sans', verdana, arial, sans-serif; font-size: 12px; fill: rgb(68, 68, 68); fill-opacity: 1; white-space: pre;">120</text></g><g class="xtick"><text text-anchor="middle" x="0" y="454" transform="translate(585.53,0)" style="font-family: 'Open Sans', verdana, arial, sans-serif; font-size: 12px; fill: rgb(68, 68, 68); fill-opacity: 1; white-space: pre;">140</text></g><g class="xtick"><text text-anchor="middle" x="0" y="454" transform="translate(660.6,0)" style="font-family: 'Open Sans', verdana, arial, sans-serif; font-size: 12px; fill: rgb(68, 68, 68); fill-opacity: 1; white-space: pre;">160</text></g><g class="xtick"><text text-anchor="middle" x="0" y="454" transform="translate(735.68,0)" style="font-family: 'Open Sans', verdana, arial, sans-serif; font-size: 12px; fill: rgb(68, 68, 68); fill-opacity: 1; white-space: pre;">180</text></g></g><g class="yaxislayer-above"><g class="ytick"><text text-anchor="end" x="59" y="4.199999999999999" transform="translate(0,398.6)" style="font-family: 'Open Sans', verdana, arial, sans-serif; font-size: 12px; fill: rgb(68, 68, 68); fill-opacity: 1; white-space: pre;">0.4</text></g><g class="ytick"><text text-anchor="end" x="59" y="4.199999999999999" transform="translate(0,352.23)" style="font-family: 'Open Sans', verdana, arial, sans-serif; font-size: 12px; fill: rgb(68, 68, 68); fill-opacity: 1; white-space: pre;">0.6</text></g><g class="ytick"><text text-anchor="end" x="59" y="4.199999999999999" transform="translate(0,305.86)" style="font-family: 'Open Sans', verdana, arial, sans-serif; font-size: 12px; fill: rgb(68, 68, 68); fill-opacity: 1; white-space: pre;">0.8</text></g><g class="ytick"><text text-anchor="end" x="59" y="4.199999999999999" transform="translate(0,259.49)" style="font-family: 'Open Sans', verdana, arial, sans-serif; font-size: 12px; fill: rgb(68, 68, 68); fill-opacity: 1; white-space: pre;">1</text></g><g class="ytick"><text text-anchor="end" x="59" y="4.199999999999999" transform="translate(0,213.12)" style="font-family: 'Open Sans', verdana, arial, sans-serif; font-size: 12px; fill: rgb(68, 68, 68); fill-opacity: 1; white-space: pre;">1.2</text></g><g class="ytick"><text text-anchor="end" x="59" y="4.199999999999999" transform="translate(0,166.75)" style="font-family: 'Open Sans', verdana, arial, sans-serif; font-size: 12px; fill: rgb(68, 68, 68); fill-opacity: 1; white-space: pre;">1.4</text></g><g class="ytick"><text text-anchor="end" x="59" y="4.199999999999999" transform="translate(0,120.38)" style="font-family: 'Open Sans', verdana, arial, sans-serif; font-size: 12px; fill: rgb(68, 68, 68); fill-opacity: 1; white-space: pre;">1.6</text></g><g class="ytick"><text text-anchor="end" x="59" y="4.199999999999999" transform="translate(0,74.01)" style="font-family: 'Open Sans', verdana, arial, sans-serif; font-size: 12px; fill: rgb(68, 68, 68); fill-opacity: 1; white-space: pre;">1.8</text></g></g><g class="overaxes-above"/></g></g><g class="polarlayer"/><g class="ternarylayer"/><g class="geolayer"/><g class="funnelarealayer"/><g class="pielayer"/><g class="treemaplayer"/><g class="sunburstlayer"/><g class="glimages"/><defs id="topdefs-caf085"><g class="clips"/><clipPath id="legendcaf085"><rect width="97" height="48" x="0" y="0"/></clipPath></defs><g class="layer-above"><g class="imagelayer"/><g class="shapelayer"/></g><g class="infolayer"><g class="legend" pointer-events="all" transform="translate(821.94,60)"><rect class="bg" shape-rendering="crispEdges" width="97" height="48" x="0" y="0" style="stroke: rgb(68, 68, 68); stroke-opacity: 1; fill: rgb(255, 255, 255); fill-opacity: 1; stroke-width: 0px;"/><g class="scrollbox" transform="" clip-path="url('#legendcaf085')"><g class="groups"><g class="traces" transform="translate(0,14.5)" style="opacity: 1;"><text class="legendtext" text-anchor="start" x="40" y="4.680000000000001" style="font-family: 'Open Sans', verdana, arial, sans-serif; font-size: 12px; fill: rgb(68, 68, 68); fill-opacity: 1; white-space: pre;">train_loss</text><g class="layers" style="opacity: 1;"><g class="legendfill"/><g class="legendlines"><path class="js-line" d="M5,0h30" style="fill: none; stroke: rgb(31, 119, 180); stroke-opacity: 1; stroke-width: 2px;"/></g><g class="legendsymbols"><g class="legendpoints"/></g></g><rect class="legendtoggle" x="0" y="-9.5" width="91.53125" height="19" style="fill: rgb(0, 0, 0); fill-opacity: 0;"/></g><g class="traces" transform="translate(0,33.5)" style="opacity: 1;"><text class="legendtext" text-anchor="start" x="40" y="4.680000000000001" style="font-family: 'Open Sans', verdana, arial, sans-serif; font-size: 12px; fill: rgb(68, 68, 68); fill-opacity: 1; white-space: pre;">valid_loss</text><g class="layers" style="opacity: 1;"><g class="legendfill"/><g class="legendlines"><path class="js-line" d="M5,0h30" style="fill: none; stroke: rgb(255, 127, 14); stroke-opacity: 1; stroke-width: 2px;"/></g><g class="legendsymbols"><g class="legendpoints"/></g></g><rect class="legendtoggle" x="0" y="-9.5" width="91.53125" height="19" style="fill: rgb(0, 0, 0); fill-opacity: 0;"/></g></g></g><rect class="scrollbar" rx="20" ry="3" width="0" height="0" x="0" y="0" style="fill: rgb(128, 139, 164); fill-opacity: 1;"/></g><g class="g-gtitle"><text class="gtitle" x="465.5" y="30" text-anchor="middle" dy="0em" style="font-family: 'Open Sans', verdana, arial, sans-serif; font-size: 17px; fill: rgb(68, 68, 68); opacity: 1; font-weight: normal; white-space: pre;">loss_modelC_0011</text></g><g class="g-xtitle"/><g class="g-ytitle"/></g></svg>