<svg class="main-svg" xmlns="http://www.w3.org/2000/svg" xmlns:xlink="http://www.w3.org/1999/xlink" width="843" height="456" style="" viewBox="0 0 843 456"><rect x="0" y="0" width="843" height="456" style="fill: rgb(255, 255, 255); fill-opacity: 1;"/><defs id="defs-68b810"><g class="clips"><clipPath id="clip68b810xyplot" class="plotclip"><rect width="653" height="336"/></clipPath><clipPath class="axesclip" id="clip68b810x"><rect x="60" y="0" width="653" height="456"/></clipPath><clipPath class="axesclip" id="clip68b810y"><rect x="0" y="60" width="843" height="336"/></clipPath><clipPath class="axesclip" id="clip68b810xy"><rect x="60" y="60" width="653" height="336"/></clipPath></g><g class="gradients"/></defs><g class="bglayer"/><g class="layer-below"><g class="imagelayer"/><g class="shapelayer"/></g><g class="cartesianlayer"><g class="subplot xy"><g class="layer-subplot"><g class="shapelayer"/><g class="imagelayer"/></g><g class="gridlayer"><g class="x"><path class="xgrid crisp" transform="translate(224.07,0)" d="M0,60v336" style="stroke: rgb(238, 238, 238); stroke-opacity: 1; stroke-width: 1px;"/><path class="xgrid crisp" transform="translate(388.14,0)" d="M0,60v336" style="stroke: rgb(238, 238, 238); stroke-opacity: 1; stroke-width: 1px;"/><path class="xgrid crisp" transform="translate(552.21,0)" d="M0,60v336" style="stroke: rgb(238, 238, 238); stroke-opacity: 1; stroke-width: 1px;"/></g><g class="y"><path class="ygrid crisp" transform="translate(0,342.53)" d="M60,0h653" style="stroke: rgb(238, 238, 238); stroke-opacity: 1; stroke-width: 1px;"/><path class="ygrid crisp" transform="translate(0,305.77)" d="M60,0h653" style="stroke: rgb(238, 238, 238); stroke-opacity: 1; stroke-width: 1px;"/><path class="ygrid crisp" transform="translate(0,269)" d="M60,0h653" style="stroke: rgb(238, 238, 238); stroke-opacity: 1; stroke-width: 1px;"/><path class="ygrid crisp" transform="translate(0,232.24)" d="M60,0h653" style="stroke: rgb(238, 238, 238); stroke-opacity: 1; stroke-width: 1px;"/><path class="ygrid crisp" transform="translate(0,195.47)" d="M60,0h653" style="stroke: rgb(238, 238, 238); stroke-opacity: 1; stroke-width: 1px;"/><path class="ygrid crisp" transform="translate(0,158.70999999999998)" d="M60,0h653" style="stroke: rgb(238, 238, 238); stroke-opacity: 1; stroke-width: 1px;"/><path class="ygrid crisp" transform="translate(0,121.95)" d="M60,0h653" style="stroke: rgb(238, 238, 238); stroke-opacity: 1; stroke-width: 1px;"/><path class="ygrid crisp" transform="translate(0,85.18)" d="M60,0h653" style="stroke: rgb(238, 238, 238); stroke-opacity: 1; stroke-width: 1px;"/></g></g><g class="zerolinelayer"><path class="xzl zl crisp" transform="translate(60,0)" d="M0,60v336" style="stroke: rgb(68, 68, 68); stroke-opacity: 1; stroke-width: 1px;"/><path class="yzl zl crisp" transform="translate(0,379.3)" d="M60,0h653" style="stroke: rgb(68, 68, 68); stroke-opacity: 1; stroke-width: 1px;"/></g><path class="xlines-below"/><path class="ylines-below"/><g class="overlines-below"/><g class="xaxislayer-below"/><g class="yaxislayer-below"/><g class="overaxes-below"/><g class="plot" transform="translate(60,60)" clip-path="url('#clip68b810xyplot')"><g class="scatterlayer mlayer"><g class="trace scatter tracecf51bf" style="stroke-miterlimit: 2; opacity: 1;"><g class="fills"/><g class="errorbars"/><g class="lines"><path class="js-line" d="M0,306.44L3.28,308.72L6.56,308.91L9.84,310.02L13.13,310.11L19.69,309.97L22.97,310.8L26.25,311.38L29.53,311.13L32.81,312.03L36.1,311.86L52.5,312.23L55.78,313.09L65.63,312.53L68.91,313.44L72.19,312.74L75.47,313.55L82.04,313.38L85.32,313.51L95.16,313.93L98.44,314.83L108.29,314.65L111.57,315.07L114.85,315.68L118.13,314.87L121.41,315.73L124.69,315.29L131.26,316.52L134.54,317.15L170.63,318.36L173.91,318.21L196.88,318.59L200.17,318.66L653,319.13" style="vector-effect: non-scaling-stroke; fill: none; stroke: rgb(31, 119, 180); stroke-opacity: 1; stroke-width: 2px; opacity: 1;"/></g><g class="points"/><g class="text"/></g><g class="trace scatter traceee0cc6" style="stroke-miterlimit: 2; opacity: 1;"><g class="fills"/><g class="errorbars"/><g class="lines"><path class="js-line" d="M0,162.93L3.28,16.8L6.56,150.22L9.84,169.38L13.13,33.16L16.41,294.6L19.69,226.33L22.97,240.61L26.25,138.67L29.53,128.44L32.81,217.46L36.1,157.45L39.38,235.62L42.66,203.9L45.94,185.56L49.22,68.61L52.5,247.62L55.78,222.88L59.07,81.4L62.35,196.96L65.63,115.31L68.91,129.2L72.19,158.43L75.47,201.06L78.75,195.77L82.04,258.38L85.32,140.01L88.6,159.5L91.88,137.16L95.16,212.05L98.44,193.37L101.72,107.57L105.01,178.3L108.29,240.98L111.57,254.36L114.85,55.19L118.13,184.96L121.41,151.2L124.69,201.72L127.97,105.25L131.26,166.33L134.54,166.33L137.82,174.64L141.1,180.42L144.38,177.7L147.66,160.82L150.94,169.3L154.23,150.54L157.51,174.53L160.79,153.05L164.07,150.21L167.35,164.61L170.63,136.15L177.2,169.5L180.48,139.39L183.76,163.4L187.04,146.63L190.32,145.16L193.6,152.76L196.88,147.11L200.17,170.52L203.45,177.92L206.73,141.84L210.01,166.43L213.29,151.3L216.57,154.13L219.85,135.4L223.14,167.25L226.42,175.58L229.7,174.91L232.98,152.57L239.54,191.31L242.82,128.94L246.11,158.39L249.39,127.03L255.95,180.1L259.23,150.58L262.51,129.11L265.79,146.74L272.36,145.48L275.64,161.24L278.92,143.07L282.2,153.72L285.48,139.22L288.76,139.38L292.05,146.72L295.33,138.4L298.61,154.01L301.89,143.66L305.17,160.7L308.45,145.6L311.73,152.97L315.02,147.68L318.3,152.63L321.58,152.91L324.86,142.8L328.14,149.8L331.42,138.18L334.7,141.49L337.98,154.33L341.27,160.24L344.55,137.31L347.83,151.37L351.11,133.04L354.39,144.69L357.67,150.13L360.95,134.55L367.52,152.71L370.8,152.6L377.36,145.3L380.64,146.54L383.92,140.47L387.21,156.2L390.49,144.66L393.77,146.78L397.05,134.04L400.33,134.01L403.61,143.47L406.89,140.76L410.18,144.25L413.46,138.11L416.74,139.07L420.02,137.91L423.3,141.24L426.58,137.86L429.86,140.71L433.15,145.06L436.43,140.09L439.71,141.32L442.99,144.48L446.27,143.63L449.55,148.86L452.83,147.15L456.12,142.46L459.4,142.28L462.68,134.31L465.96,143.88L469.24,147.21L472.52,135.37L475.8,132.72L479.09,143.03L482.37,136.19L485.65,134.67L488.93,137.47L492.21,149.28L495.49,143.75L498.77,135.32L502.06,142.23L505.34,135.95L508.62,126.95L511.9,145.3L515.18,135.59L518.46,146.84L521.74,140.27L525.03,139.1L528.31,138.92L531.59,132.7L534.87,136.42L538.15,151.04L541.43,143.28L544.71,146.48L547.99,139.96L551.28,140.59L554.56,137.97L557.84,143.26L561.12,137.56L564.4,126.68L567.68,139L570.96,140.59L574.25,140.18L577.53,153.91L580.81,147.16L584.09,146.78L587.37,137.01L590.65,139.32L593.93,141.83L597.22,137.92L600.5,137.79L603.78,140.42L607.06,137.01L610.34,147.63L613.62,138.19L616.9,143.71L620.19,141.26L623.47,150.2L626.75,138.03L630.03,138.02L633.31,152.31L636.59,130.43L639.87,130.81L643.16,141.75L646.44,132.44L649.72,142.29L653,138.07" style="vector-effect: non-scaling-stroke; fill: none; stroke: rgb(255, 127, 14); stroke-opacity: 1; stroke-width: 2px; opacity: 1;"/></g><g class="points"/><g class="text"/></g></g></g><g class="overplot"/><path class="xlines-above crisp" d="M0,0" style="fill: none;"/><path class="ylines-above crisp" d="M0,0" style="fill: none;"/><g class="overlines-above"/><g class="xaxislayer-above"><g class="xtick"><text text-anchor="middle" x="0" y="409" transform="translate(60,0)" style="font-family: 'Open Sans', verdana, arial, sans-serif; font-size: 12px; fill: rgb(68, 68, 68); fill-opacity: 1; white-space: pre;">0</text></g><g class="xtick"><text text-anchor="middle" x="0" y="409" transform="translate(224.07,0)" style="font-family: 'Open Sans', verdana, arial, sans-serif; font-size: 12px; fill: rgb(68, 68, 68); fill-opacity: 1; white-space: pre;">50</text></g><g class="xtick"><text text-anchor="middle" x="0" y="409" transform="translate(388.14,0)" style="font-family: 'Open Sans', verdana, arial, sans-serif; font-size: 12px; fill: rgb(68, 68, 68); fill-opacity: 1; white-space: pre;">100</text></g><g class="xtick"><text text-anchor="middle" x="0" y="409" transform="translate(552.21,0)" style="font-family: 'Open Sans', verdana, arial, sans-serif; font-size: 12px; fill: rgb(68, 68, 68); fill-opacity: 1; white-space: pre;">150</text></g></g><g class="yaxislayer-above"><g class="ytick"><text text-anchor="end" x="59" y="4.199999999999999" transform="translate(0,379.3)" style="font-family: 'Open Sans', verdana, arial, sans-serif; font-size: 12px; fill: rgb(68, 68, 68); fill-opacity: 1; white-space: pre;">0</text></g><g class="ytick"><text text-anchor="end" x="59" y="4.199999999999999" transform="translate(0,342.53)" style="font-family: 'Open Sans', verdana, arial, sans-serif; font-size: 12px; fill: rgb(68, 68, 68); fill-opacity: 1; white-space: pre;">5</text></g><g class="ytick"><text text-anchor="end" x="59" y="4.199999999999999" transform="translate(0,305.77)" style="font-family: 'Open Sans', verdana, arial, sans-serif; font-size: 12px; fill: rgb(68, 68, 68); fill-opacity: 1; white-space: pre;">10</text></g><g class="ytick"><text text-anchor="end" x="59" y="4.199999999999999" transform="translate(0,269)" style="font-family: 'Open Sans', verdana, arial, sans-serif; font-size: 12px; fill: rgb(68, 68, 68); fill-opacity: 1; white-space: pre;">15</text></g><g class="ytick"><text text-anchor="end" x="59" y="4.199999999999999" transform="translate(0,232.24)" style="font-family: 'Open Sans', verdana, arial, sans-serif; font-size: 12px; fill: rgb(68, 68, 68); fill-opacity: 1; white-space: pre;">20</text></g><g class="ytick"><text text-anchor="end" x="59" y="4.199999999999999" transform="translate(0,195.47)" style="font-family: 'Open Sans', verdana, arial, sans-serif; font-size: 12px; fill: rgb(68, 68, 68); fill-opacity: 1; white-space: pre;">25</text></g><g class="ytick"><text text-anchor="end" x="59" y="4.199999999999999" transform="translate(0,158.70999999999998)" style="font-family: 'Open Sans', verdana, arial, sans-serif; font-size: 12px; fill: rgb(68, 68, 68); fill-opacity: 1; white-space: pre;">30</text></g><g class="ytick"><text text-anchor="end" x="59" y="4.199999999999999" transform="translate(0,121.95)" style="font-family: 'Open Sans', verdana, arial, sans-serif; font-size: 12px; fill: rgb(68, 68, 68); fill-opacity: 1; white-space: pre;">35</text></g><g class="ytick"><text text-anchor="end" x="59" y="4.199999999999999" transform="translate(0,85.18)" style="font-family: 'Open Sans', verdana, arial, sans-serif; font-size: 12px; fill: rgb(68, 68, 68); fill-opacity: 1; white-space: pre;">40</text></g></g><g class="overaxes-above"/></g></g><g class="polarlayer"/><g class="ternarylayer"/><g class="geolayer"/><g class="funnelarealayer"/><g class="pielayer"/><g class="treemaplayer"/><g class="sunburstlayer"/><g class="glimages"/><defs id="topdefs-68b810"><g class="clips"/><clipPath id="legend68b810"><rect width="105" height="48" x="0" y="0"/></clipPath></defs><g class="layer-above"><g class="imagelayer"/><g class="shapelayer"/></g><g class="infolayer"><g class="legend" pointer-events="all" transform="translate(726.0600000000001,60)"><rect class="bg" shape-rendering="crispEdges" width="105" height="48" x="0" y="0" style="stroke: rgb(68, 68, 68); stroke-opacity: 1; fill: rgb(255, 255, 255); fill-opacity: 1; stroke-width: 0px;"/><g class="scrollbox" transform="" clip-path="url('#legend68b810')"><g class="groups"><g class="traces" transform="translate(0,14.5)" style="opacity: 1;"><text class="legendtext" text-anchor="start" x="40" y="4.680000000000001" style="font-family: 'Open Sans', verdana, arial, sans-serif; font-size: 12px; fill: rgb(68, 68, 68); fill-opacity: 1; white-space: pre;">train_loss</text><g class="layers" style="opacity: 1;"><g class="legendfill"/><g class="legendlines"><path class="js-line" d="M5,0h30" style="fill: none; stroke: rgb(31, 119, 180); stroke-opacity: 1; stroke-width: 2px;"/></g><g class="legendsymbols"><g class="legendpoints"/></g></g><rect class="legendtoggle" x="0" y="-9.5" width="99.59375" height="19" style="fill: rgb(0, 0, 0); fill-opacity: 0;"/></g><g class="traces" transform="translate(0,33.5)" style="opacity: 1;"><text class="legendtext" text-anchor="start" x="40" y="4.680000000000001" style="font-family: 'Open Sans', verdana, arial, sans-serif; font-size: 12px; fill: rgb(68, 68, 68); fill-opacity: 1; white-space: pre;">valid_loss</text><g class="layers" style="opacity: 1;"><g class="legendfill"/><g class="legendlines"><path class="js-line" d="M5,0h30" style="fill: none; stroke: rgb(255, 127, 14); stroke-opacity: 1; stroke-width: 2px;"/></g><g class="legendsymbols"><g class="legendpoints"/></g></g><rect class="legendtoggle" x="0" y="-9.5" width="99.59375" height="19" style="fill: rgb(0, 0, 0); fill-opacity: 0;"/></g></g></g><rect class="scrollbar" rx="20" ry="3" width="0" height="0" x="0" y="0" style="fill: rgb(128, 139, 164); fill-opacity: 1;"/></g><g class="g-gtitle"><text class="gtitle" x="421.5" y="30" text-anchor="middle" dy="0em" style="font-family: 'Open Sans', verdana, arial, sans-serif; font-size: 17px; fill: rgb(68, 68, 68); opacity: 1; font-weight: normal; white-space: pre;">loss_modelB_CenterCrop</text></g><g class="g-xtitle"/><g class="g-ytitle"/></g></svg>