<svg class="main-svg" xmlns="http://www.w3.org/2000/svg" xmlns:xlink="http://www.w3.org/1999/xlink" width="869" height="441" style="" viewBox="0 0 869 441"><rect x="0" y="0" width="869" height="441" style="fill: rgb(255, 255, 255); fill-opacity: 1;"/><defs id="defs-c43f92"><g class="clips"><clipPath id="clipc43f92xyplot" class="plotclip"><rect width="678" height="321"/></clipPath><clipPath class="axesclip" id="clipc43f92x"><rect x="60" y="0" width="678" height="441"/></clipPath><clipPath class="axesclip" id="clipc43f92y"><rect x="0" y="60" width="869" height="321"/></clipPath><clipPath class="axesclip" id="clipc43f92xy"><rect x="60" y="60" width="678" height="321"/></clipPath></g><g class="gradients"/></defs><g class="bglayer"/><g class="layer-below"><g class="imagelayer"/><g class="shapelayer"/></g><g class="cartesianlayer"><g class="subplot xy"><g class="layer-subplot"><g class="shapelayer"/><g class="imagelayer"/></g><g class="gridlayer"><g class="x"><path class="xgrid crisp" transform="translate(191.45,0)" d="M0,60v321" style="stroke: rgb(238, 238, 238); stroke-opacity: 1; stroke-width: 1px;"/><path class="xgrid crisp" transform="translate(329.82,0)" d="M0,60v321" style="stroke: rgb(238, 238, 238); stroke-opacity: 1; stroke-width: 1px;"/><path class="xgrid crisp" transform="translate(468.18,0)" d="M0,60v321" style="stroke: rgb(238, 238, 238); stroke-opacity: 1; stroke-width: 1px;"/><path class="xgrid crisp" transform="translate(606.55,0)" d="M0,60v321" style="stroke: rgb(238, 238, 238); stroke-opacity: 1; stroke-width: 1px;"/></g><g class="y"><path class="ygrid crisp" transform="translate(0,358.83)" d="M60,0h678" style="stroke: rgb(238, 238, 238); stroke-opacity: 1; stroke-width: 1px;"/><path class="ygrid crisp" transform="translate(0,315.44)" d="M60,0h678" style="stroke: rgb(238, 238, 238); stroke-opacity: 1; stroke-width: 1px;"/><path class="ygrid crisp" transform="translate(0,272.05)" d="M60,0h678" style="stroke: rgb(238, 238, 238); stroke-opacity: 1; stroke-width: 1px;"/><path class="ygrid crisp" transform="translate(0,228.67)" d="M60,0h678" style="stroke: rgb(238, 238, 238); stroke-opacity: 1; stroke-width: 1px;"/><path class="ygrid crisp" transform="translate(0,185.28)" d="M60,0h678" style="stroke: rgb(238, 238, 238); stroke-opacity: 1; stroke-width: 1px;"/><path class="ygrid crisp" transform="translate(0,141.89)" d="M60,0h678" style="stroke: rgb(238, 238, 238); stroke-opacity: 1; stroke-width: 1px;"/><path class="ygrid crisp" transform="translate(0,98.5)" d="M60,0h678" style="stroke: rgb(238, 238, 238); stroke-opacity: 1; stroke-width: 1px;"/></g></g><g class="zerolinelayer"/><path class="xlines-below"/><path class="ylines-below"/><g class="overlines-below"/><g class="xaxislayer-below"/><g class="yaxislayer-below"/><g class="overaxes-below"/><g class="plot" transform="translate(60,60)" clip-path="url('#clipc43f92xyplot')"><g class="scatterlayer mlayer"><g class="trace scatter trace396589" style="stroke-miterlimit: 2; opacity: 1;"><g class="fills"/><g class="errorbars"/><g class="lines"><path class="js-line" d="M0,16.05L6.92,175.1L13.84,212.88L20.76,227.63L27.67,245.95L34.59,216.3L41.51,265L48.43,249.38L55.35,248.12L62.27,259.39L69.18,265.39L76.1,273.86L83.02,267.61L89.94,255.49L96.86,245.81L103.78,252.45L110.69,265.24L117.61,253.53L124.53,253.1L131.45,238.42L138.37,239.26L145.29,262.77L152.2,237.74L159.12,256.73L166.04,238L172.96,177.32L179.88,198.95L186.8,208.19L193.71,233.3L200.63,251.44L207.55,187.7L214.47,158.75L221.39,213.71L228.31,209.34L235.22,226.18L249.06,181.72L255.98,206.62L262.9,197.33L269.82,230.16L276.73,204.5L283.65,230.36L290.57,229.3L297.49,159.36L304.41,152.13L311.33,185.9L318.24,207.64L325.16,220.49L332.08,146.15L339,155.23L345.92,191.2L352.84,163.72L359.76,168.58L366.67,165.09L373.59,200.38L380.51,174.11L387.43,121.46L394.35,178.55L401.27,179.77L408.18,189.07L415.1,182.83L422.02,158.26L428.94,165.51L435.86,163.24L442.78,159.51L449.69,169.26L456.61,167.12L463.53,166.97L470.45,163.81L477.37,162.6L484.29,162.01L491.2,158.1L498.12,162.29L505.04,149.94L511.96,161.38L518.88,160.99L525.8,160.38L532.71,154.93L539.63,159.44L546.55,158.47L553.47,159.71L560.39,161.74L567.31,159.75L574.22,159.87L588.06,158.5L594.98,159.7L601.9,162.15L608.82,159.87L622.65,159.79L629.57,163.48L636.49,162.26L643.41,159.37L650.33,159.64L657.24,162.16L664.16,163.45L671.08,160.01L678,159.89" style="vector-effect: non-scaling-stroke; fill: none; stroke: rgb(31, 119, 180); stroke-opacity: 1; stroke-width: 2px; opacity: 1;"/></g><g class="points"/><g class="text"/></g><g class="trace scatter tracedf0f1c" style="stroke-miterlimit: 2; opacity: 1;"><g class="fills"/><g class="errorbars"/><g class="lines"><path class="js-line" d="M0,295.98L6.92,278.55L13.84,256.11L20.76,264.19L27.67,230.43L34.59,239.79L41.51,236.1L48.43,247.01L55.35,241.48L62.27,220.54L69.18,229.68L76.1,287.55L83.02,250.52L89.94,196.59L96.86,233.45L103.78,207.32L110.69,267.35L117.61,222.68L124.53,237.71L131.45,261.96L138.37,193.99L145.29,225.03L152.2,228.34L159.12,186.68L166.04,245.91L172.96,266.19L179.88,258.33L186.8,282.91L193.71,268.76L200.63,229.73L207.55,257.89L214.47,290.94L221.39,268.93L228.31,241.64L235.22,272.33L242.14,261.11L249.06,304.95L255.98,293.75L262.9,247.74L269.82,288.61L276.73,269.79L283.65,279.86L290.57,271.38L304.41,294.91L311.33,296.75L318.24,273.82L325.16,270.62L332.08,217.38L339,295.02L345.92,273.35L352.84,284.55L359.76,275.75L366.67,275.4L373.59,274.93L380.51,267.06L387.43,273.24L394.35,284.61L401.27,269.51L408.18,278.54L415.1,269.56L422.02,274.69L428.94,273.04L435.86,272.94L442.78,269.73L449.69,270L470.45,269.85L477.37,269.55L484.29,268.82L491.2,269.22L505.04,267.56L511.96,268.22L532.71,267.66L539.63,267.55L678,266.62" style="vector-effect: non-scaling-stroke; fill: none; stroke: rgb(255, 127, 14); stroke-opacity: 1; stroke-width: 2px; opacity: 1;"/></g><g class="points"/><g class="text"/></g></g></g><g class="overplot"/><path class="xlines-above crisp" d="M0,0" style="fill: none;"/><path class="ylines-above crisp" d="M0,0" style="fill: none;"/><g class="overlines-above"/><g class="xaxislayer-above"><g class="xtick"><text text-anchor="middle" x="0" y="394" transform="translate(191.45,0)" style="font-family: 'Open Sans', verdana, arial, sans-serif; font-size: 12px; fill: rgb(68, 68, 68); fill-opacity: 1; white-space: pre;">20</text></g><g class="xtick"><text text-anchor="middle" x="0" y="394" transform="translate(329.82,0)" style="font-family: 'Open Sans', verdana, arial, sans-serif; font-size: 12px; fill: rgb(68, 68, 68); fill-opacity: 1; white-space: pre;">40</text></g><g class="xtick"><text text-anchor="middle" x="0" y="394" transform="translate(468.18,0)" style="font-family: 'Open Sans', verdana, arial, sans-serif; font-size: 12px; fill: rgb(68, 68, 68); fill-opacity: 1; white-space: pre;">60</text></g><g class="xtick"><text text-anchor="middle" x="0" y="394" transform="translate(606.55,0)" style="font-family: 'Open Sans', verdana, arial, sans-serif; font-size: 12px; fill: rgb(68, 68, 68); fill-opacity: 1; white-space: pre;">80</text></g></g><g class="yaxislayer-above"><g class="ytick"><text text-anchor="end" x="59" y="4.199999999999999" transform="translate(0,358.83)" style="font-family: 'Open Sans', verdana, arial, sans-serif; font-size: 12px; fill: rgb(68, 68, 68); fill-opacity: 1; white-space: pre;">6.9</text></g><g class="ytick"><text text-anchor="end" x="59" y="4.199999999999999" transform="translate(0,315.44)" style="font-family: 'Open Sans', verdana, arial, sans-serif; font-size: 12px; fill: rgb(68, 68, 68); fill-opacity: 1; white-space: pre;">6.95</text></g><g class="ytick"><text text-anchor="end" x="59" y="4.199999999999999" transform="translate(0,272.05)" style="font-family: 'Open Sans', verdana, arial, sans-serif; font-size: 12px; fill: rgb(68, 68, 68); fill-opacity: 1; white-space: pre;">7</text></g><g class="ytick"><text text-anchor="end" x="59" y="4.199999999999999" transform="translate(0,228.67)" style="font-family: 'Open Sans', verdana, arial, sans-serif; font-size: 12px; fill: rgb(68, 68, 68); fill-opacity: 1; white-space: pre;">7.05</text></g><g class="ytick"><text text-anchor="end" x="59" y="4.199999999999999" transform="translate(0,185.28)" style="font-family: 'Open Sans', verdana, arial, sans-serif; font-size: 12px; fill: rgb(68, 68, 68); fill-opacity: 1; white-space: pre;">7.1</text></g><g class="ytick"><text text-anchor="end" x="59" y="4.199999999999999" transform="translate(0,141.89)" style="font-family: 'Open Sans', verdana, arial, sans-serif; font-size: 12px; fill: rgb(68, 68, 68); fill-opacity: 1; white-space: pre;">7.15</text></g><g class="ytick"><text text-anchor="end" x="59" y="4.199999999999999" transform="translate(0,98.5)" style="font-family: 'Open Sans', verdana, arial, sans-serif; font-size: 12px; fill: rgb(68, 68, 68); fill-opacity: 1; white-space: pre;">7.2</text></g></g><g class="overaxes-above"/></g></g><g class="polarlayer"/><g class="ternarylayer"/><g class="geolayer"/><g class="funnelarealayer"/><g class="pielayer"/><g class="treemaplayer"/><g class="sunburstlayer"/><g class="glimages"/><defs id="topdefs-c43f92"><g class="clips"/><clipPath id="legendc43f92"><rect width="105" height="48" x="0" y="0"/></clipPath></defs><g class="layer-above"><g class="imagelayer"/><g class="shapelayer"/></g><g class="infolayer"><g class="legend" pointer-events="all" transform="translate(751.5600000000001,60)"><rect class="bg" shape-rendering="crispEdges" width="105" height="48" x="0" y="0" style="stroke: rgb(68, 68, 68); stroke-opacity: 1; fill: rgb(255, 255, 255); fill-opacity: 1; stroke-width: 0px;"/><g class="scrollbox" transform="" clip-path="url('#legendc43f92')"><g class="groups"><g class="traces" transform="translate(0,14.5)" style="opacity: 1;"><text class="legendtext" text-anchor="start" x="40" y="4.680000000000001" style="font-family: 'Open Sans', verdana, arial, sans-serif; font-size: 12px; fill: rgb(68, 68, 68); fill-opacity: 1; white-space: pre;">train_loss</text><g class="layers" style="opacity: 1;"><g class="legendfill"/><g class="legendlines"><path class="js-line" d="M5,0h30" style="fill: none; stroke: rgb(31, 119, 180); stroke-opacity: 1; stroke-width: 2px;"/></g><g class="legendsymbols"><g class="legendpoints"/></g></g><rect class="legendtoggle" x="0" y="-9.5" width="99.59375" height="19" style="fill: rgb(0, 0, 0); fill-opacity: 0;"/></g><g class="traces" transform="translate(0,33.5)" style="opacity: 1;"><text class="legendtext" text-anchor="start" x="40" y="4.680000000000001" style="font-family: 'Open Sans', verdana, arial, sans-serif; font-size: 12px; fill: rgb(68, 68, 68); fill-opacity: 1; white-space: pre;">valid_loss</text><g class="layers" style="opacity: 1;"><g class="legendfill"/><g class="legendlines"><path class="js-line" d="M5,0h30" style="fill: none; stroke: rgb(255, 127, 14); stroke-opacity: 1; stroke-width: 2px;"/></g><g class="legendsymbols"><g class="legendpoints"/></g></g><rect class="legendtoggle" x="0" y="-9.5" width="99.59375" height="19" style="fill: rgb(0, 0, 0); fill-opacity: 0;"/></g></g></g><rect class="scrollbar" rx="20" ry="3" width="0" height="0" x="0" y="0" style="fill: rgb(128, 139, 164); fill-opacity: 1;"/></g><g class="g-gtitle"><text class="gtitle" x="434.5" y="30" text-anchor="middle" dy="0em" style="font-family: 'Open Sans', verdana, arial, sans-serif; font-size: 17px; fill: rgb(68, 68, 68); opacity: 1; font-weight: normal; white-space: pre;">LSTM8_loss</text></g><g class="g-xtitle"/><g class="g-ytitle"/></g></svg>